<?xml version="1.0" encoding="UTF-8" standalone="no"?>
<!DOCTYPE svg PUBLIC "-//W3C//DTD SVG 1.1//EN"
 "http://www.w3.org/Graphics/SVG/1.1/DTD/svg11.dtd">
<!-- Generated by graphviz version 7.0.0 (20221023.0053)
 -->
<!-- Title: src/atm328p/atm328p_eeprom.c Pages: 1 -->
<svg width="359pt" height="151pt"
 viewBox="0.00 0.00 359.00 151.00" xmlns="http://www.w3.org/2000/svg" xmlns:xlink="http://www.w3.org/1999/xlink">
<g id="graph0" class="graph" transform="scale(1 1) rotate(0) translate(4 147)">
<title>src/atm328p/atm328p_eeprom.c</title>
<polygon fill="white" stroke="none" points="-4,4 -4,-147 355,-147 355,4 -4,4"/>
<!-- Node1 -->
<g id="node1" class="node">
<title>Node1</title>
<g id="a_node1"><a xlink:title=" ">
<polygon fill="#bfbfbf" stroke="black" points="134,-112.5 134,-142.5 265,-142.5 265,-112.5 134,-112.5"/>
<text text-anchor="start" x="142" y="-130.5" font-family="Fira Code" font-size="10.00">src/atm328p/atm328p</text>
<text text-anchor="middle" x="199.5" y="-119.5" font-family="Fira Code" font-size="10.00">_eeprom.c</text>
</a>
</g>
</g>
<!-- Node2 -->
<g id="node2" class="node">
<title>Node2</title>
<g id="a_node2"><a xlink:href="atm328p__eeprom_8h.html" target="_top" xlink:title=" ">
<polygon fill="white" stroke="black" points="0,-56.5 0,-75.5 113,-75.5 113,-56.5 0,-56.5"/>
<text text-anchor="middle" x="56.5" y="-63.5" font-family="Fira Code" font-size="10.00">atm328p_eeprom.h</text>
</a>
</g>
</g>
<!-- Node1&#45;&gt;Node2 -->
<g id="edge1" class="edge">
<title>Node1&#45;&gt;Node2</title>
<path fill="none" stroke="midnightblue" d="M165.97,-112.55C142.14,-102.63 110.37,-89.41 87.19,-79.77"/>
<polygon fill="midnightblue" stroke="midnightblue" points="88.56,-76.55 77.98,-75.94 85.87,-83.01 88.56,-76.55"/>
</g>
<!-- Node4 -->
<g id="node4" class="node">
<title>Node4</title>
<g id="a_node4"><a xlink:href="atm328p__interrupts_8h.html" target="_top" xlink:title=" ">
<polygon fill="white" stroke="black" points="131,-56.5 131,-75.5 268,-75.5 268,-56.5 131,-56.5"/>
<text text-anchor="middle" x="199.5" y="-63.5" font-family="Fira Code" font-size="10.00">atm328p_interrupts.h</text>
</a>
</g>
</g>
<!-- Node1&#45;&gt;Node4 -->
<g id="edge3" class="edge">
<title>Node1&#45;&gt;Node4</title>
<path fill="none" stroke="midnightblue" d="M199.5,-112.7C199.5,-105.04 199.5,-95.38 199.5,-86.91"/>
<polygon fill="midnightblue" stroke="midnightblue" points="203,-86.91 199.5,-76.91 196,-86.91 203,-86.91"/>
</g>
<!-- Node5 -->
<g id="node5" class="node">
<title>Node5</title>
<g id="a_node5"><a xlink:href="eeprom_8h.html" target="_top" xlink:title=" ">
<polygon fill="white" stroke="black" points="286,-56.5 286,-75.5 351,-75.5 351,-56.5 286,-56.5"/>
<text text-anchor="middle" x="318.5" y="-63.5" font-family="Fira Code" font-size="10.00">eeprom.h</text>
</a>
</g>
</g>
<!-- Node1&#45;&gt;Node5 -->
<g id="edge4" class="edge">
<title>Node1&#45;&gt;Node5</title>
<path fill="none" stroke="midnightblue" d="M227.4,-112.55C246.79,-102.86 272.48,-90.01 291.63,-80.43"/>
<polygon fill="midnightblue" stroke="midnightblue" points="293.06,-83.64 300.44,-76.03 289.93,-77.37 293.06,-83.64"/>
</g>
<!-- Node3 -->
<g id="node3" class="node">
<title>Node3</title>
<g id="a_node3"><a xlink:href="types_8h.html" target="_top" xlink:title=" ">
<polygon fill="white" stroke="black" points="158,-0.5 158,-19.5 217,-19.5 217,-0.5 158,-0.5"/>
<text text-anchor="middle" x="187.5" y="-7.5" font-family="Fira Code" font-size="10.00">types.h</text>
</a>
</g>
</g>
<!-- Node2&#45;&gt;Node3 -->
<g id="edge2" class="edge">
<title>Node2&#45;&gt;Node3</title>
<path fill="none" stroke="midnightblue" d="M76.97,-56.56C98.31,-47.77 132.01,-33.87 156.6,-23.74"/>
<polygon fill="midnightblue" stroke="midnightblue" points="157.86,-27 165.78,-19.96 155.2,-20.53 157.86,-27"/>
</g>
<!-- Node5&#45;&gt;Node3 -->
<g id="edge5" class="edge">
<title>Node5&#45;&gt;Node3</title>
<path fill="none" stroke="midnightblue" d="M298.03,-56.56C276.69,-47.77 242.99,-33.87 218.4,-23.74"/>
<polygon fill="midnightblue" stroke="midnightblue" points="219.8,-20.53 209.22,-19.96 217.14,-27 219.8,-20.53"/>
</g>
</g>
</svg>
