<?xml version="1.0" encoding="UTF-8" standalone="no"?>
<!DOCTYPE svg PUBLIC "-//W3C//DTD SVG 1.1//EN"
 "http://www.w3.org/Graphics/SVG/1.1/DTD/svg11.dtd">
<!-- Generated by graphviz version 7.0.0 (20221023.0053)
 -->
<!-- Title: src/atm328p/atm328p.h Pages: 1 -->
<svg width="639pt" height="140pt"
 viewBox="0.00 0.00 639.00 140.00" xmlns="http://www.w3.org/2000/svg" xmlns:xlink="http://www.w3.org/1999/xlink">
<g id="graph0" class="graph" transform="scale(1 1) rotate(0) translate(4 136)">
<title>src/atm328p/atm328p.h</title>
<polygon fill="white" stroke="none" points="-4,4 -4,-136 635,-136 635,4 -4,4"/>
<!-- Node1 -->
<g id="node1" class="node">
<title>Node1</title>
<g id="a_node1"><a xlink:title=" ">
<polygon fill="#bfbfbf" stroke="black" points="244,-112.5 244,-131.5 387,-131.5 387,-112.5 244,-112.5"/>
<text text-anchor="middle" x="315.5" y="-119.5" font-family="Fira Code" font-size="10.00">src/atm328p/atm328p.h</text>
</a>
</g>
</g>
<!-- Node2 -->
<g id="node2" class="node">
<title>Node2</title>
<g id="a_node2"><a xlink:href="atm328p__interrupts_8h.html" target="_top" xlink:title=" ">
<polygon fill="white" stroke="black" points="0,-56.5 0,-75.5 137,-75.5 137,-56.5 0,-56.5"/>
<text text-anchor="middle" x="68.5" y="-63.5" font-family="Fira Code" font-size="10.00">atm328p_interrupts.h</text>
</a>
</g>
</g>
<!-- Node1&#45;&gt;Node2 -->
<g id="edge1" class="edge">
<title>Node1&#45;&gt;Node2</title>
<path fill="none" stroke="midnightblue" d="M276.63,-112.5C233.84,-103.15 164.91,-88.08 118.21,-77.87"/>
<polygon fill="midnightblue" stroke="midnightblue" points="119.13,-74.49 108.62,-75.77 117.64,-81.33 119.13,-74.49"/>
</g>
<!-- Node3 -->
<g id="node3" class="node">
<title>Node3</title>
<g id="a_node3"><a xlink:href="atm328p__dsc_8h.html" target="_top" xlink:title=" ">
<polygon fill="white" stroke="black" points="155,-56.5 155,-75.5 250,-75.5 250,-56.5 155,-56.5"/>
<text text-anchor="middle" x="202.5" y="-63.5" font-family="Fira Code" font-size="10.00">atm328p_dsc.h</text>
</a>
</g>
</g>
<!-- Node1&#45;&gt;Node3 -->
<g id="edge2" class="edge">
<title>Node1&#45;&gt;Node3</title>
<path fill="none" stroke="midnightblue" d="M297.84,-112.56C279.77,-103.92 251.41,-90.37 230.31,-80.29"/>
<polygon fill="midnightblue" stroke="midnightblue" points="231.93,-77.18 221.4,-76.03 228.91,-83.5 231.93,-77.18"/>
</g>
<!-- Node5 -->
<g id="node5" class="node">
<title>Node5</title>
<g id="a_node5"><a xlink:href="atm328p__spi_8h.html" target="_top" xlink:title=" ">
<polygon fill="white" stroke="black" points="268,-56.5 268,-75.5 363,-75.5 363,-56.5 268,-56.5"/>
<text text-anchor="middle" x="315.5" y="-63.5" font-family="Fira Code" font-size="10.00">atm328p_spi.h</text>
</a>
</g>
</g>
<!-- Node1&#45;&gt;Node5 -->
<g id="edge4" class="edge">
<title>Node1&#45;&gt;Node5</title>
<path fill="none" stroke="midnightblue" d="M315.5,-112.56C315.5,-105.63 315.5,-95.52 315.5,-86.59"/>
<polygon fill="midnightblue" stroke="midnightblue" points="319,-86.71 315.5,-76.71 312,-86.72 319,-86.71"/>
</g>
<!-- Node6 -->
<g id="node6" class="node">
<title>Node6</title>
<g id="a_node6"><a xlink:href="atm328p__timer_8h.html" target="_top" xlink:title=" ">
<polygon fill="white" stroke="black" points="381,-56.5 381,-75.5 488,-75.5 488,-56.5 381,-56.5"/>
<text text-anchor="middle" x="434.5" y="-63.5" font-family="Fira Code" font-size="10.00">atm328p_timer.h</text>
</a>
</g>
</g>
<!-- Node1&#45;&gt;Node6 -->
<g id="edge6" class="edge">
<title>Node1&#45;&gt;Node6</title>
<path fill="none" stroke="midnightblue" d="M334.09,-112.56C353.31,-103.84 383.55,-90.12 405.82,-80.01"/>
<polygon fill="midnightblue" stroke="midnightblue" points="407,-83.32 414.66,-76 404.11,-76.95 407,-83.32"/>
</g>
<!-- Node7 -->
<g id="node7" class="node">
<title>Node7</title>
<g id="a_node7"><a xlink:href="atm328p__watchdog_8h.html" target="_top" xlink:title=" ">
<polygon fill="white" stroke="black" points="506,-56.5 506,-75.5 631,-75.5 631,-56.5 506,-56.5"/>
<text text-anchor="middle" x="568.5" y="-63.5" font-family="Fira Code" font-size="10.00">atm328p_watchdog.h</text>
</a>
</g>
</g>
<!-- Node1&#45;&gt;Node7 -->
<g id="edge8" class="edge">
<title>Node1&#45;&gt;Node7</title>
<path fill="none" stroke="midnightblue" d="M355.31,-112.5C399.24,-103.13 470.05,-88.01 517.89,-77.8"/>
<polygon fill="midnightblue" stroke="midnightblue" points="518.39,-81.27 527.44,-75.76 516.93,-74.43 518.39,-81.27"/>
</g>
<!-- Node4 -->
<g id="node4" class="node">
<title>Node4</title>
<g id="a_node4"><a xlink:href="types_8h.html" target="_top" xlink:title=" ">
<polygon fill="white" stroke="black" points="345,-0.5 345,-19.5 404,-19.5 404,-0.5 345,-0.5"/>
<text text-anchor="middle" x="374.5" y="-7.5" font-family="Fira Code" font-size="10.00">types.h</text>
</a>
</g>
</g>
<!-- Node3&#45;&gt;Node4 -->
<g id="edge3" class="edge">
<title>Node3&#45;&gt;Node4</title>
<path fill="none" stroke="midnightblue" d="M229.38,-56.56C258.2,-47.51 304.19,-33.08 336.66,-22.88"/>
<polygon fill="midnightblue" stroke="midnightblue" points="337.59,-26.26 346.09,-19.92 335.5,-19.58 337.59,-26.26"/>
</g>
<!-- Node5&#45;&gt;Node4 -->
<g id="edge5" class="edge">
<title>Node5&#45;&gt;Node4</title>
<path fill="none" stroke="midnightblue" d="M324.72,-56.56C333.43,-48.59 346.71,-36.43 357.37,-26.68"/>
<polygon fill="midnightblue" stroke="midnightblue" points="359.41,-29.56 364.42,-20.22 354.68,-24.39 359.41,-29.56"/>
</g>
<!-- Node6&#45;&gt;Node4 -->
<g id="edge7" class="edge">
<title>Node6&#45;&gt;Node4</title>
<path fill="none" stroke="midnightblue" d="M425.12,-56.56C416.27,-48.59 402.76,-36.43 391.93,-26.68"/>
<polygon fill="midnightblue" stroke="midnightblue" points="394.51,-24.3 384.74,-20.21 389.83,-29.51 394.51,-24.3"/>
</g>
<!-- Node7&#45;&gt;Node4 -->
<g id="edge9" class="edge">
<title>Node7&#45;&gt;Node4</title>
<path fill="none" stroke="midnightblue" d="M538.19,-56.56C504.97,-47.32 451.51,-32.44 414.79,-22.21"/>
<polygon fill="midnightblue" stroke="midnightblue" points="415.99,-18.92 405.42,-19.61 414.12,-25.66 415.99,-18.92"/>
</g>
</g>
</svg>
