<?xml version="1.0" encoding="UTF-8" standalone="no"?>
<!DOCTYPE svg PUBLIC "-//W3C//DTD SVG 1.1//EN"
 "http://www.w3.org/Graphics/SVG/1.1/DTD/svg11.dtd">
<!-- Generated by graphviz version 7.0.0 (20221023.0053)
 -->
<!-- Title: src/atm328p/atm328p_mcu.h Pages: 1 -->
<svg width="258pt" height="106pt"
 viewBox="0.00 0.00 258.00 106.00" xmlns="http://www.w3.org/2000/svg" xmlns:xlink="http://www.w3.org/1999/xlink">
<g id="graph0" class="graph" transform="scale(1 1) rotate(0) translate(4 102)">
<title>src/atm328p/atm328p_mcu.h</title>
<polygon fill="white" stroke="none" points="-4,4 -4,-102 254,-102 254,4 -4,4"/>
<!-- Node1 -->
<g id="node1" class="node">
<title>Node1</title>
<g id="a_node1"><a xlink:title=" ">
<polygon fill="#bfbfbf" stroke="black" points="67,-67.5 67,-97.5 198,-97.5 198,-67.5 67,-67.5"/>
<text text-anchor="start" x="75" y="-85.5" font-family="Fira Code" font-size="10.00">src/atm328p/atm328p</text>
<text text-anchor="middle" x="132.5" y="-74.5" font-family="Fira Code" font-size="10.00">_mcu.h</text>
</a>
</g>
</g>
<!-- Node2 -->
<g id="node2" class="node">
<title>Node2</title>
<g id="a_node2"><a xlink:href="atm328p__spi_8c.html" target="_top" xlink:title=" ">
<polygon fill="white" stroke="black" points="0,-0.5 0,-30.5 131,-30.5 131,-0.5 0,-0.5"/>
<text text-anchor="start" x="8" y="-18.5" font-family="Fira Code" font-size="10.00">src/atm328p/atm328p</text>
<text text-anchor="middle" x="65.5" y="-7.5" font-family="Fira Code" font-size="10.00">_spi.c</text>
</a>
</g>
</g>
<!-- Node1&#45;&gt;Node2 -->
<g id="edge1" class="edge">
<title>Node1&#45;&gt;Node2</title>
<path fill="none" stroke="midnightblue" d="M110.28,-59.94C100.19,-50.16 88.57,-38.88 79.69,-30.26"/>
<polygon fill="midnightblue" stroke="midnightblue" points="107.59,-62.21 117.2,-66.66 112.46,-57.19 107.59,-62.21"/>
</g>
<!-- Node3 -->
<g id="node3" class="node">
<title>Node3</title>
<g id="a_node3"><a xlink:href="watchdog_8c.html" target="_top" xlink:title=" ">
<polygon fill="white" stroke="black" points="149,-6 149,-25 250,-25 250,-6 149,-6"/>
<text text-anchor="middle" x="199.5" y="-13" font-family="Fira Code" font-size="10.00">src/watchdog.c</text>
</a>
</g>
</g>
<!-- Node1&#45;&gt;Node3 -->
<g id="edge2" class="edge">
<title>Node1&#45;&gt;Node3</title>
<path fill="none" stroke="midnightblue" d="M154.79,-59.88C167.12,-47.91 181.76,-33.71 190.84,-24.91"/>
<polygon fill="midnightblue" stroke="midnightblue" points="152.54,-57.19 147.8,-66.66 157.41,-62.21 152.54,-57.19"/>
</g>
</g>
</svg>
