<?xml version="1.0" encoding="UTF-8" standalone="no"?>
<!DOCTYPE svg PUBLIC "-//W3C//DTD SVG 1.1//EN"
 "http://www.w3.org/Graphics/SVG/1.1/DTD/svg11.dtd">
<!-- Generated by graphviz version 7.0.0 (20221023.0053)
 -->
<!-- Title: src/atm328p/atm328p_eeprom.h Pages: 1 -->
<svg width="139pt" height="106pt"
 viewBox="0.00 0.00 139.00 106.00" xmlns="http://www.w3.org/2000/svg" xmlns:xlink="http://www.w3.org/1999/xlink">
<g id="graph0" class="graph" transform="scale(1 1) rotate(0) translate(4 102)">
<title>src/atm328p/atm328p_eeprom.h</title>
<polygon fill="white" stroke="none" points="-4,4 -4,-102 135,-102 135,4 -4,4"/>
<!-- Node1 -->
<g id="node1" class="node">
<title>Node1</title>
<g id="a_node1"><a xlink:title=" ">
<polygon fill="#bfbfbf" stroke="black" points="0,-67.5 0,-97.5 131,-97.5 131,-67.5 0,-67.5"/>
<text text-anchor="start" x="8" y="-85.5" font-family="Fira Code" font-size="10.00">src/atm328p/atm328p</text>
<text text-anchor="middle" x="65.5" y="-74.5" font-family="Fira Code" font-size="10.00">_eeprom.h</text>
</a>
</g>
</g>
<!-- Node2 -->
<g id="node2" class="node">
<title>Node2</title>
<g id="a_node2"><a xlink:href="atm328p__eeprom_8c.html" target="_top" xlink:title=" ">
<polygon fill="white" stroke="black" points="0,-0.5 0,-30.5 131,-30.5 131,-0.5 0,-0.5"/>
<text text-anchor="start" x="8" y="-18.5" font-family="Fira Code" font-size="10.00">src/atm328p/atm328p</text>
<text text-anchor="middle" x="65.5" y="-7.5" font-family="Fira Code" font-size="10.00">_eeprom.c</text>
</a>
</g>
</g>
<!-- Node1&#45;&gt;Node2 -->
<g id="edge1" class="edge">
<title>Node1&#45;&gt;Node2</title>
<path fill="none" stroke="midnightblue" d="M65.5,-56.36C65.5,-47.49 65.5,-37.84 65.5,-30.26"/>
<polygon fill="midnightblue" stroke="midnightblue" points="62,-56.2 65.5,-66.2 69,-56.2 62,-56.2"/>
</g>
</g>
</svg>
