<?xml version="1.0" encoding="UTF-8" standalone="no"?>
<!DOCTYPE svg PUBLIC "-//W3C//DTD SVG 1.1//EN"
 "http://www.w3.org/Graphics/SVG/1.1/DTD/svg11.dtd">
<!-- Generated by graphviz version 7.0.0 (20221023.0053)
 -->
<!-- Title: src/atm328p/atm328p_interrupts.h Pages: 1 -->
<svg width="419pt" height="106pt"
 viewBox="0.00 0.00 419.00 106.00" xmlns="http://www.w3.org/2000/svg" xmlns:xlink="http://www.w3.org/1999/xlink">
<g id="graph0" class="graph" transform="scale(1 1) rotate(0) translate(4 102)">
<title>src/atm328p/atm328p_interrupts.h</title>
<polygon fill="white" stroke="none" points="-4,4 -4,-102 415,-102 415,4 -4,4"/>
<!-- Node1 -->
<g id="node1" class="node">
<title>Node1</title>
<g id="a_node1"><a xlink:title=" ">
<polygon fill="#bfbfbf" stroke="black" points="161,-67.5 161,-97.5 292,-97.5 292,-67.5 161,-67.5"/>
<text text-anchor="start" x="169" y="-85.5" font-family="Fira Code" font-size="10.00">src/atm328p/atm328p</text>
<text text-anchor="middle" x="226.5" y="-74.5" font-family="Fira Code" font-size="10.00">_interrupts.h</text>
</a>
</g>
</g>
<!-- Node2 -->
<g id="node2" class="node">
<title>Node2</title>
<g id="a_node2"><a xlink:href="atm328p_8h.html" target="_top" xlink:title=" ">
<polygon fill="white" stroke="black" points="0,-6 0,-25 143,-25 143,-6 0,-6"/>
<text text-anchor="middle" x="71.5" y="-13" font-family="Fira Code" font-size="10.00">src/atm328p/atm328p.h</text>
</a>
</g>
</g>
<!-- Node1&#45;&gt;Node2 -->
<g id="edge1" class="edge">
<title>Node1&#45;&gt;Node2</title>
<path fill="none" stroke="midnightblue" d="M183.02,-63.27C152.99,-50.67 114.46,-34.52 91.44,-24.86"/>
<polygon fill="midnightblue" stroke="midnightblue" points="181.28,-66.33 191.85,-66.97 183.98,-59.88 181.28,-66.33"/>
</g>
<!-- Node3 -->
<g id="node3" class="node">
<title>Node3</title>
<g id="a_node3"><a xlink:href="atm328p__eeprom_8c.html" target="_top" xlink:title=" ">
<polygon fill="white" stroke="black" points="161,-0.5 161,-30.5 292,-30.5 292,-0.5 161,-0.5"/>
<text text-anchor="start" x="169" y="-18.5" font-family="Fira Code" font-size="10.00">src/atm328p/atm328p</text>
<text text-anchor="middle" x="226.5" y="-7.5" font-family="Fira Code" font-size="10.00">_eeprom.c</text>
</a>
</g>
</g>
<!-- Node1&#45;&gt;Node3 -->
<g id="edge2" class="edge">
<title>Node1&#45;&gt;Node3</title>
<path fill="none" stroke="midnightblue" d="M226.5,-56.36C226.5,-47.49 226.5,-37.84 226.5,-30.26"/>
<polygon fill="midnightblue" stroke="midnightblue" points="223,-56.2 226.5,-66.2 230,-56.2 223,-56.2"/>
</g>
<!-- Node4 -->
<g id="node4" class="node">
<title>Node4</title>
<g id="a_node4"><a xlink:href="watchdog_8c.html" target="_top" xlink:title=" ">
<polygon fill="white" stroke="black" points="310,-6 310,-25 411,-25 411,-6 310,-6"/>
<text text-anchor="middle" x="360.5" y="-13" font-family="Fira Code" font-size="10.00">src/watchdog.c</text>
</a>
</g>
</g>
<!-- Node1&#45;&gt;Node4 -->
<g id="edge3" class="edge">
<title>Node1&#45;&gt;Node4</title>
<path fill="none" stroke="midnightblue" d="M265.46,-62.6C291.21,-50.11 323.71,-34.35 343.26,-24.86"/>
<polygon fill="midnightblue" stroke="midnightblue" points="264.08,-59.38 256.61,-66.9 267.13,-65.68 264.08,-59.38"/>
</g>
</g>
</svg>
