<?xml version="1.0" encoding="UTF-8" standalone="no"?>
<!DOCTYPE svg PUBLIC "-//W3C//DTD SVG 1.1//EN"
 "http://www.w3.org/Graphics/SVG/1.1/DTD/svg11.dtd">
<!-- Generated by graphviz version 7.0.0 (20221023.0053)
 -->
<!-- Title: src/atm328p/atm328p_spi.c Pages: 1 -->
<svg width="409pt" height="151pt"
 viewBox="0.00 0.00 409.10 151.00" xmlns="http://www.w3.org/2000/svg" xmlns:xlink="http://www.w3.org/1999/xlink">
<g id="graph0" class="graph" transform="scale(1 1) rotate(0) translate(4 147)">
<title>src/atm328p/atm328p_spi.c</title>
<polygon fill="white" stroke="none" points="-4,4 -4,-147 405.1,-147 405.1,4 -4,4"/>
<!-- Node1 -->
<g id="node1" class="node">
<title>Node1</title>
<g id="a_node1"><a xlink:title=" ">
<polygon fill="#bfbfbf" stroke="black" points="110.1,-112.5 110.1,-142.5 241.1,-142.5 241.1,-112.5 110.1,-112.5"/>
<text text-anchor="start" x="118.1" y="-130.5" font-family="Fira Code" font-size="10.00">src/atm328p/atm328p</text>
<text text-anchor="middle" x="175.6" y="-119.5" font-family="Fira Code" font-size="10.00">_spi.c</text>
</a>
</g>
</g>
<!-- Node2 -->
<g id="node2" class="node">
<title>Node2</title>
<g id="a_node2"><a xlink:href="types_8h.html" target="_top" xlink:title=" ">
<polygon fill="white" stroke="black" points="89.1,-0.5 89.1,-19.5 148.1,-19.5 148.1,-0.5 89.1,-0.5"/>
<text text-anchor="middle" x="118.6" y="-7.5" font-family="Fira Code" font-size="10.00">types.h</text>
</a>
</g>
</g>
<!-- Node1&#45;&gt;Node2 -->
<g id="edge1" class="edge">
<title>Node1&#45;&gt;Node2</title>
<path fill="none" stroke="midnightblue" d="M110.45,-115.43C68.12,-106.76 18.48,-93.27 5.6,-76 -16.86,-45.91 37.25,-27.52 78.11,-18.3"/>
<polygon fill="midnightblue" stroke="midnightblue" points="78.68,-21.76 87.73,-16.26 77.23,-14.91 78.68,-21.76"/>
</g>
<!-- Node3 -->
<g id="node3" class="node">
<title>Node3</title>
<g id="a_node3"><a xlink:href="atm328p__spi_8h.html" target="_top" xlink:title=" ">
<polygon fill="white" stroke="black" points="15.1,-56.5 15.1,-75.5 110.1,-75.5 110.1,-56.5 15.1,-56.5"/>
<text text-anchor="middle" x="62.6" y="-63.5" font-family="Fira Code" font-size="10.00">atm328p_spi.h</text>
</a>
</g>
</g>
<!-- Node1&#45;&gt;Node3 -->
<g id="edge2" class="edge">
<title>Node1&#45;&gt;Node3</title>
<path fill="none" stroke="midnightblue" d="M149.1,-112.55C130.87,-102.95 106.75,-90.25 88.62,-80.7"/>
<polygon fill="midnightblue" stroke="midnightblue" points="90.28,-77.62 79.8,-76.06 87.02,-83.82 90.28,-77.62"/>
</g>
<!-- Node4 -->
<g id="node4" class="node">
<title>Node4</title>
<g id="a_node4"><a xlink:href="atm328p__mcu_8h.html" target="_top" xlink:title=" ">
<polygon fill="white" stroke="black" points="128.1,-56.5 128.1,-75.5 223.1,-75.5 223.1,-56.5 128.1,-56.5"/>
<text text-anchor="middle" x="175.6" y="-63.5" font-family="Fira Code" font-size="10.00">atm328p_mcu.h</text>
</a>
</g>
</g>
<!-- Node1&#45;&gt;Node4 -->
<g id="edge4" class="edge">
<title>Node1&#45;&gt;Node4</title>
<path fill="none" stroke="midnightblue" d="M175.6,-112.7C175.6,-105.04 175.6,-95.38 175.6,-86.91"/>
<polygon fill="midnightblue" stroke="midnightblue" points="179.1,-86.91 175.6,-76.91 172.1,-86.91 179.1,-86.91"/>
</g>
<!-- Node5 -->
<g id="node5" class="node">
<title>Node5</title>
<g id="a_node5"><a xlink:href="atm328p__dsc_8h.html" target="_top" xlink:title=" ">
<polygon fill="white" stroke="black" points="241.1,-56.5 241.1,-75.5 336.1,-75.5 336.1,-56.5 241.1,-56.5"/>
<text text-anchor="middle" x="288.6" y="-63.5" font-family="Fira Code" font-size="10.00">atm328p_dsc.h</text>
</a>
</g>
</g>
<!-- Node1&#45;&gt;Node5 -->
<g id="edge6" class="edge">
<title>Node1&#45;&gt;Node5</title>
<path fill="none" stroke="midnightblue" d="M202.09,-112.55C220.33,-102.95 244.44,-90.25 262.57,-80.7"/>
<polygon fill="midnightblue" stroke="midnightblue" points="264.17,-83.82 271.39,-76.06 260.91,-77.62 264.17,-83.82"/>
</g>
<!-- Node6 -->
<g id="node6" class="node">
<title>Node6</title>
<g id="a_node6"><a xlink:href="spi_8h.html" target="_top" xlink:title=" ">
<polygon fill="white" stroke="black" points="354.1,-56.5 354.1,-75.5 401.1,-75.5 401.1,-56.5 354.1,-56.5"/>
<text text-anchor="middle" x="377.6" y="-63.5" font-family="Fira Code" font-size="10.00">spi.h</text>
</a>
</g>
</g>
<!-- Node1&#45;&gt;Node6 -->
<g id="edge8" class="edge">
<title>Node1&#45;&gt;Node6</title>
<path fill="none" stroke="midnightblue" d="M222.96,-112.55C259.88,-101.67 310.29,-86.83 343.37,-77.08"/>
<polygon fill="midnightblue" stroke="midnightblue" points="344.24,-80.47 352.85,-74.29 342.27,-73.76 344.24,-80.47"/>
</g>
<!-- Node3&#45;&gt;Node2 -->
<g id="edge3" class="edge">
<title>Node3&#45;&gt;Node2</title>
<path fill="none" stroke="midnightblue" d="M71.35,-56.56C79.53,-48.67 91.97,-36.68 102.03,-26.98"/>
<polygon fill="midnightblue" stroke="midnightblue" points="104.23,-29.71 109,-20.25 99.37,-24.67 104.23,-29.71"/>
</g>
<!-- Node4&#45;&gt;Node2 -->
<g id="edge5" class="edge">
<title>Node4&#45;&gt;Node2</title>
<path fill="none" stroke="midnightblue" d="M166.69,-56.56C158.36,-48.67 145.7,-36.68 135.46,-26.98"/>
<polygon fill="midnightblue" stroke="midnightblue" points="138.02,-24.58 128.35,-20.24 133.2,-29.66 138.02,-24.58"/>
</g>
<!-- Node5&#45;&gt;Node2 -->
<g id="edge7" class="edge">
<title>Node5&#45;&gt;Node2</title>
<path fill="none" stroke="midnightblue" d="M262.03,-56.56C233.55,-47.51 188.09,-33.08 156,-22.88"/>
<polygon fill="midnightblue" stroke="midnightblue" points="157.29,-19.62 146.69,-19.93 155.17,-26.29 157.29,-19.62"/>
</g>
</g>
</svg>
