<?xml version="1.0" encoding="UTF-8" standalone="no"?>
<!DOCTYPE svg PUBLIC "-//W3C//DTD SVG 1.1//EN"
 "http://www.w3.org/Graphics/SVG/1.1/DTD/svg11.dtd">
<!-- Generated by graphviz version 7.0.0 (20221023.0053)
 -->
<!-- Title: src/atm328p/atm328p_dsc.c Pages: 1 -->
<svg width="168pt" height="151pt"
 viewBox="0.00 0.00 168.00 151.00" xmlns="http://www.w3.org/2000/svg" xmlns:xlink="http://www.w3.org/1999/xlink">
<g id="graph0" class="graph" transform="scale(1 1) rotate(0) translate(4 147)">
<title>src/atm328p/atm328p_dsc.c</title>
<polygon fill="white" stroke="none" points="-4,4 -4,-147 164,-147 164,4 -4,4"/>
<!-- Node1 -->
<g id="node1" class="node">
<title>Node1</title>
<g id="a_node1"><a xlink:title=" ">
<polygon fill="#bfbfbf" stroke="black" points="26,-112.5 26,-142.5 157,-142.5 157,-112.5 26,-112.5"/>
<text text-anchor="start" x="34" y="-130.5" font-family="Fira Code" font-size="10.00">src/atm328p/atm328p</text>
<text text-anchor="middle" x="91.5" y="-119.5" font-family="Fira Code" font-size="10.00">_dsc.c</text>
</a>
</g>
</g>
<!-- Node2 -->
<g id="node2" class="node">
<title>Node2</title>
<g id="a_node2"><a xlink:href="atm328p__dsc_8h.html" target="_top" xlink:title=" ">
<polygon fill="white" stroke="black" points="0,-56.5 0,-75.5 95,-75.5 95,-56.5 0,-56.5"/>
<text text-anchor="middle" x="47.5" y="-63.5" font-family="Fira Code" font-size="10.00">atm328p_dsc.h</text>
</a>
</g>
</g>
<!-- Node1&#45;&gt;Node2 -->
<g id="edge1" class="edge">
<title>Node1&#45;&gt;Node2</title>
<path fill="none" stroke="midnightblue" d="M81.29,-112.7C75.1,-104.32 67.13,-93.54 60.48,-84.56"/>
<polygon fill="midnightblue" stroke="midnightblue" points="63.37,-82.57 54.61,-76.62 57.74,-86.74 63.37,-82.57"/>
</g>
<!-- Node4 -->
<g id="node4" class="node">
<title>Node4</title>
<g id="a_node4"><a xlink:href="dsc_8h.html" target="_top" xlink:title=" ">
<polygon fill="white" stroke="black" points="113,-56.5 113,-75.5 160,-75.5 160,-56.5 113,-56.5"/>
<text text-anchor="middle" x="136.5" y="-63.5" font-family="Fira Code" font-size="10.00">dsc.h</text>
</a>
</g>
</g>
<!-- Node1&#45;&gt;Node4 -->
<g id="edge3" class="edge">
<title>Node1&#45;&gt;Node4</title>
<path fill="none" stroke="midnightblue" d="M101.94,-112.7C108.28,-104.32 116.43,-93.54 123.22,-84.56"/>
<polygon fill="midnightblue" stroke="midnightblue" points="125.99,-86.69 129.24,-76.61 120.41,-82.47 125.99,-86.69"/>
</g>
<!-- Node3 -->
<g id="node3" class="node">
<title>Node3</title>
<g id="a_node3"><a xlink:href="types_8h.html" target="_top" xlink:title=" ">
<polygon fill="white" stroke="black" points="62,-0.5 62,-19.5 121,-19.5 121,-0.5 62,-0.5"/>
<text text-anchor="middle" x="91.5" y="-7.5" font-family="Fira Code" font-size="10.00">types.h</text>
</a>
</g>
</g>
<!-- Node2&#45;&gt;Node3 -->
<g id="edge2" class="edge">
<title>Node2&#45;&gt;Node3</title>
<path fill="none" stroke="midnightblue" d="M54.38,-56.56C60.61,-48.91 69.99,-37.4 77.76,-27.86"/>
<polygon fill="midnightblue" stroke="midnightblue" points="80.26,-30.34 83.86,-20.37 74.83,-25.92 80.26,-30.34"/>
</g>
<!-- Node4&#45;&gt;Node3 -->
<g id="edge4" class="edge">
<title>Node4&#45;&gt;Node3</title>
<path fill="none" stroke="midnightblue" d="M129.47,-56.56C123.09,-48.91 113.5,-37.4 105.55,-27.86"/>
<polygon fill="midnightblue" stroke="midnightblue" points="108.39,-25.81 99.3,-20.36 103.02,-30.29 108.39,-25.81"/>
</g>
</g>
</svg>
