<?xml version="1.0" encoding="UTF-8" standalone="no"?>
<!DOCTYPE svg PUBLIC "-//W3C//DTD SVG 1.1//EN"
 "http://www.w3.org/Graphics/SVG/1.1/DTD/svg11.dtd">
<!-- Generated by graphviz version 7.0.0 (20221023.0053)
 -->
<!-- Title: src/atm328p/atm328p_timer.c Pages: 1 -->
<svg width="192pt" height="151pt"
 viewBox="0.00 0.00 192.00 151.00" xmlns="http://www.w3.org/2000/svg" xmlns:xlink="http://www.w3.org/1999/xlink">
<g id="graph0" class="graph" transform="scale(1 1) rotate(0) translate(4 147)">
<title>src/atm328p/atm328p_timer.c</title>
<polygon fill="white" stroke="none" points="-4,4 -4,-147 188,-147 188,4 -4,4"/>
<!-- Node1 -->
<g id="node1" class="node">
<title>Node1</title>
<g id="a_node1"><a xlink:title=" ">
<polygon fill="#bfbfbf" stroke="black" points="38,-112.5 38,-142.5 169,-142.5 169,-112.5 38,-112.5"/>
<text text-anchor="start" x="46" y="-130.5" font-family="Fira Code" font-size="10.00">src/atm328p/atm328p</text>
<text text-anchor="middle" x="103.5" y="-119.5" font-family="Fira Code" font-size="10.00">_timer.c</text>
</a>
</g>
</g>
<!-- Node2 -->
<g id="node2" class="node">
<title>Node2</title>
<g id="a_node2"><a xlink:href="atm328p__timer_8h.html" target="_top" xlink:title=" ">
<polygon fill="white" stroke="black" points="0,-56.5 0,-75.5 107,-75.5 107,-56.5 0,-56.5"/>
<text text-anchor="middle" x="53.5" y="-63.5" font-family="Fira Code" font-size="10.00">atm328p_timer.h</text>
</a>
</g>
</g>
<!-- Node1&#45;&gt;Node2 -->
<g id="edge1" class="edge">
<title>Node1&#45;&gt;Node2</title>
<path fill="none" stroke="midnightblue" d="M91.9,-112.7C84.71,-104.14 75.41,-93.08 67.77,-83.98"/>
<polygon fill="midnightblue" stroke="midnightblue" points="70.64,-81.96 61.53,-76.56 65.29,-86.46 70.64,-81.96"/>
</g>
<!-- Node4 -->
<g id="node4" class="node">
<title>Node4</title>
<g id="a_node4"><a xlink:href="timer_8h.html" target="_top" xlink:title=" ">
<polygon fill="white" stroke="black" points="125,-56.5 125,-75.5 184,-75.5 184,-56.5 125,-56.5"/>
<text text-anchor="middle" x="154.5" y="-63.5" font-family="Fira Code" font-size="10.00">timer.h</text>
</a>
</g>
</g>
<!-- Node1&#45;&gt;Node4 -->
<g id="edge3" class="edge">
<title>Node1&#45;&gt;Node4</title>
<path fill="none" stroke="midnightblue" d="M115.33,-112.7C122.67,-104.14 132.15,-93.08 139.95,-83.98"/>
<polygon fill="midnightblue" stroke="midnightblue" points="142.47,-86.42 146.32,-76.55 137.15,-81.86 142.47,-86.42"/>
</g>
<!-- Node3 -->
<g id="node3" class="node">
<title>Node3</title>
<g id="a_node3"><a xlink:href="types_8h.html" target="_top" xlink:title=" ">
<polygon fill="white" stroke="black" points="74,-0.5 74,-19.5 133,-19.5 133,-0.5 74,-0.5"/>
<text text-anchor="middle" x="103.5" y="-7.5" font-family="Fira Code" font-size="10.00">types.h</text>
</a>
</g>
</g>
<!-- Node2&#45;&gt;Node3 -->
<g id="edge2" class="edge">
<title>Node2&#45;&gt;Node3</title>
<path fill="none" stroke="midnightblue" d="M61.31,-56.56C68.47,-48.83 79.28,-37.16 88.16,-27.57"/>
<polygon fill="midnightblue" stroke="midnightblue" points="90.65,-30.03 94.88,-20.31 85.52,-25.27 90.65,-30.03"/>
</g>
<!-- Node4&#45;&gt;Node3 -->
<g id="edge4" class="edge">
<title>Node4&#45;&gt;Node3</title>
<path fill="none" stroke="midnightblue" d="M146.53,-56.56C139.23,-48.83 128.21,-37.16 119.15,-27.57"/>
<polygon fill="midnightblue" stroke="midnightblue" points="121.7,-25.17 112.29,-20.3 116.61,-29.98 121.7,-25.17"/>
</g>
</g>
</svg>
