<?xml version="1.0" encoding="UTF-8" standalone="no"?>
<!DOCTYPE svg PUBLIC "-//W3C//DTD SVG 1.1//EN"
 "http://www.w3.org/Graphics/SVG/1.1/DTD/svg11.dtd">
<!-- Generated by graphviz version 7.0.0 (20221023.0053)
 -->
<!-- Title: task_can_tx Pages: 1 -->
<svg width="347pt" height="66pt"
 viewBox="0.00 0.00 347.00 66.00" xmlns="http://www.w3.org/2000/svg" xmlns:xlink="http://www.w3.org/1999/xlink">
<g id="graph0" class="graph" transform="scale(1 1) rotate(0) translate(4 62)">
<title>task_can_tx</title>
<polygon fill="white" stroke="none" points="-4,4 -4,-62 343,-62 343,4 -4,4"/>
<!-- Node1 -->
<g id="node1" class="node">
<title>Node1</title>
<g id="a_node1"><a xlink:title=" ">
<polygon fill="#bfbfbf" stroke="black" points="0,-19.5 0,-38.5 83,-38.5 83,-19.5 0,-19.5"/>
<text text-anchor="middle" x="41.5" y="-26.5" font-family="Fira Code" font-size="10.00">task_can_tx</text>
</a>
</g>
</g>
<!-- Node2 -->
<g id="node2" class="node">
<title>Node2</title>
<g id="a_node2"><a xlink:href="fifo_8c.html#a0cbda086540a85234cce28a94e486f76" target="_top" xlink:title=" ">
<polygon fill="white" stroke="black" points="128,-38.5 128,-57.5 205,-57.5 205,-38.5 128,-38.5"/>
<text text-anchor="middle" x="166.5" y="-45.5" font-family="Fira Code" font-size="10.00">fifo_q_len</text>
</a>
</g>
</g>
<!-- Node1&#45;&gt;Node2 -->
<g id="edge1" class="edge">
<title>Node1&#45;&gt;Node2</title>
<path fill="none" stroke="midnightblue" d="M82.77,-35.22C93.7,-36.91 105.65,-38.76 116.99,-40.51"/>
<polygon fill="midnightblue" stroke="midnightblue" points="116.14,-43.92 126.56,-41.98 117.21,-37 116.14,-43.92"/>
</g>
<!-- Node3 -->
<g id="node3" class="node">
<title>Node3</title>
<g id="a_node3"><a xlink:href="fifo_8c.html#a836ffaf8bc36859137fd95ab1876acd7" target="_top" xlink:title=" ">
<polygon fill="white" stroke="black" points="119,-0.5 119,-19.5 214,-19.5 214,-0.5 119,-0.5"/>
<text text-anchor="middle" x="166.5" y="-7.5" font-family="Fira Code" font-size="10.00">fifo_q_remove</text>
</a>
</g>
</g>
<!-- Node1&#45;&gt;Node3 -->
<g id="edge2" class="edge">
<title>Node1&#45;&gt;Node3</title>
<path fill="none" stroke="midnightblue" d="M82.77,-22.78C90.86,-21.53 99.51,-20.19 108.05,-18.87"/>
<polygon fill="midnightblue" stroke="midnightblue" points="108.31,-22.38 117.66,-17.39 107.24,-15.46 108.31,-22.38"/>
</g>
<!-- Node4 -->
<g id="node4" class="node">
<title>Node4</title>
<g id="a_node4"><a xlink:href="memory_8c.html#a63fecdcb991cb81f69778425ea39cec8" target="_top" xlink:title=" ">
<polygon fill="white" stroke="black" points="250,-0.5 250,-19.5 339,-19.5 339,-0.5 250,-0.5"/>
<text text-anchor="middle" x="294.5" y="-7.5" font-family="Fira Code" font-size="10.00">memcpy_by_U8</text>
</a>
</g>
</g>
<!-- Node3&#45;&gt;Node4 -->
<g id="edge3" class="edge">
<title>Node3&#45;&gt;Node4</title>
<path fill="none" stroke="midnightblue" d="M213.7,-10C221.91,-10 230.53,-10 238.94,-10"/>
<polygon fill="midnightblue" stroke="midnightblue" points="238.72,-13.5 248.72,-10 238.72,-6.5 238.72,-13.5"/>
</g>
</g>
</svg>
