<?xml version="1.0" encoding="UTF-8" standalone="no"?>
<!DOCTYPE svg PUBLIC "-//W3C//DTD SVG 1.1//EN"
 "http://www.w3.org/Graphics/SVG/1.1/DTD/svg11.dtd">
<!-- Generated by graphviz version 7.0.0 (20221023.0053)
 -->
<!-- Title: can_init Pages: 1 -->
<svg width="335pt" height="142pt"
 viewBox="0.00 0.00 335.00 142.00" xmlns="http://www.w3.org/2000/svg" xmlns:xlink="http://www.w3.org/1999/xlink">
<g id="graph0" class="graph" transform="scale(1 1) rotate(0) translate(4 138)">
<title>can_init</title>
<polygon fill="white" stroke="none" points="-4,4 -4,-138 331,-138 331,4 -4,4"/>
<!-- Node1 -->
<g id="node1" class="node">
<title>Node1</title>
<g id="a_node1"><a xlink:title=" ">
<polygon fill="#bfbfbf" stroke="black" points="0,-57.5 0,-76.5 65,-76.5 65,-57.5 0,-57.5"/>
<text text-anchor="middle" x="32.5" y="-64.5" font-family="Fira Code" font-size="10.00">can_init</text>
</a>
</g>
</g>
<!-- Node2 -->
<g id="node2" class="node">
<title>Node2</title>
<g id="a_node2"><a xlink:href="fifo_8c.html#ac619a366b22cc27db4e0469dd3912972" target="_top" xlink:title=" ">
<polygon fill="white" stroke="black" points="110,-114.5 110,-133.5 193,-133.5 193,-114.5 110,-114.5"/>
<text text-anchor="middle" x="151.5" y="-121.5" font-family="Fira Code" font-size="10.00">fifo_q_init</text>
</a>
</g>
</g>
<!-- Node1&#45;&gt;Node2 -->
<g id="edge1" class="edge">
<title>Node1&#45;&gt;Node2</title>
<path fill="none" stroke="midnightblue" d="M48.71,-76.41C62.17,-84.54 82.5,-96.3 101,-105 104.96,-106.86 109.16,-108.69 113.37,-110.43"/>
<polygon fill="midnightblue" stroke="midnightblue" points="111.75,-113.55 122.33,-113.99 114.33,-107.05 111.75,-113.55"/>
</g>
<!-- Node4 -->
<g id="node4" class="node">
<title>Node4</title>
<g id="a_node4"><a xlink:href="atm328p__spi_8c.html#a52e29b9a0596a38390b0a245c4c2d593" target="_top" xlink:title=" ">
<polygon fill="white" stroke="black" points="107,-76.5 107,-95.5 196,-95.5 196,-76.5 107,-76.5"/>
<text text-anchor="middle" x="151.5" y="-83.5" font-family="Fira Code" font-size="10.00">spi_activate</text>
</a>
</g>
</g>
<!-- Node1&#45;&gt;Node4 -->
<g id="edge3" class="edge">
<title>Node1&#45;&gt;Node4</title>
<path fill="none" stroke="midnightblue" d="M64.85,-72.09C74.5,-73.66 85.41,-75.43 96.13,-77.17"/>
<polygon fill="midnightblue" stroke="midnightblue" points="95.26,-80.57 105.69,-78.72 96.38,-73.67 95.26,-80.57"/>
</g>
<!-- Node5 -->
<g id="node5" class="node">
<title>Node5</title>
<g id="a_node5"><a xlink:href="atm328p__spi_8c.html#a73c3d9ea4295599b7f59d2b26343a170" target="_top" xlink:title=" ">
<polygon fill="white" stroke="black" points="101,-38.5 101,-57.5 202,-57.5 202,-38.5 101,-38.5"/>
<text text-anchor="middle" x="151.5" y="-45.5" font-family="Fira Code" font-size="10.00">spi_deactivate</text>
</a>
</g>
</g>
<!-- Node1&#45;&gt;Node5 -->
<g id="edge4" class="edge">
<title>Node1&#45;&gt;Node5</title>
<path fill="none" stroke="midnightblue" d="M64.85,-61.91C72.75,-60.63 81.5,-59.2 90.3,-57.78"/>
<polygon fill="midnightblue" stroke="midnightblue" points="90.62,-61.27 99.93,-56.21 89.49,-54.36 90.62,-61.27"/>
</g>
<!-- Node6 -->
<g id="node6" class="node">
<title>Node6</title>
<g id="a_node6"><a xlink:href="atm328p__spi_8c.html#a695a4a16d5ea8390a3c3dc6815fca21b" target="_top" xlink:title=" ">
<polygon fill="white" stroke="black" points="116,-0.5 116,-19.5 187,-19.5 187,-0.5 116,-0.5"/>
<text text-anchor="middle" x="151.5" y="-7.5" font-family="Fira Code" font-size="10.00">spi_tx_rx</text>
</a>
</g>
</g>
<!-- Node1&#45;&gt;Node6 -->
<g id="edge5" class="edge">
<title>Node1&#45;&gt;Node6</title>
<path fill="none" stroke="midnightblue" d="M48.71,-57.59C62.17,-49.46 82.5,-37.7 101,-29 104.96,-27.14 109.16,-25.31 113.37,-23.57"/>
<polygon fill="midnightblue" stroke="midnightblue" points="114.33,-26.95 122.33,-20.01 111.75,-20.45 114.33,-26.95"/>
</g>
<!-- Node3 -->
<g id="node3" class="node">
<title>Node3</title>
<g id="a_node3"><a xlink:href="memory_8c.html#a9fb36233ae05e7fd6c0d74f3380b52ea" target="_top" xlink:title=" ">
<polygon fill="white" stroke="black" points="238,-114.5 238,-133.5 327,-133.5 327,-114.5 238,-114.5"/>
<text text-anchor="middle" x="282.5" y="-121.5" font-family="Fira Code" font-size="10.00">memset_by_U8</text>
</a>
</g>
</g>
<!-- Node2&#45;&gt;Node3 -->
<g id="edge2" class="edge">
<title>Node2&#45;&gt;Node3</title>
<path fill="none" stroke="midnightblue" d="M192.96,-124C203.71,-124 215.5,-124 226.88,-124"/>
<polygon fill="midnightblue" stroke="midnightblue" points="226.54,-127.5 236.54,-124 226.54,-120.5 226.54,-127.5"/>
</g>
</g>
</svg>
