<?xml version="1.0" encoding="UTF-8" standalone="no"?>
<!DOCTYPE svg PUBLIC "-//W3C//DTD SVG 1.1//EN"
 "http://www.w3.org/Graphics/SVG/1.1/DTD/svg11.dtd">
<!-- Generated by graphviz version 7.0.0 (20221023.0053)
 -->
<!-- Title: task_can_rx Pages: 1 -->
<svg width="228pt" height="104pt"
 viewBox="0.00 0.00 228.00 104.00" xmlns="http://www.w3.org/2000/svg" xmlns:xlink="http://www.w3.org/1999/xlink">
<g id="graph0" class="graph" transform="scale(1 1) rotate(0) translate(4 100)">
<title>task_can_rx</title>
<polygon fill="white" stroke="none" points="-4,4 -4,-100 224,-100 224,4 -4,4"/>
<!-- Node1 -->
<g id="node1" class="node">
<title>Node1</title>
<g id="a_node1"><a xlink:title=" ">
<polygon fill="#bfbfbf" stroke="black" points="0,-38.5 0,-57.5 83,-57.5 83,-38.5 0,-38.5"/>
<text text-anchor="middle" x="41.5" y="-45.5" font-family="Fira Code" font-size="10.00">task_can_rx</text>
</a>
</g>
</g>
<!-- Node2 -->
<g id="node2" class="node">
<title>Node2</title>
<g id="a_node2"><a xlink:href="atm328p__spi_8c.html#a52e29b9a0596a38390b0a245c4c2d593" target="_top" xlink:title=" ">
<polygon fill="white" stroke="black" points="125,-76.5 125,-95.5 214,-95.5 214,-76.5 125,-76.5"/>
<text text-anchor="middle" x="169.5" y="-83.5" font-family="Fira Code" font-size="10.00">spi_activate</text>
</a>
</g>
</g>
<!-- Node1&#45;&gt;Node2 -->
<g id="edge1" class="edge">
<title>Node1&#45;&gt;Node2</title>
<path fill="none" stroke="midnightblue" d="M73.97,-57.49C89.88,-62.29 109.39,-68.17 126.55,-73.35"/>
<polygon fill="midnightblue" stroke="midnightblue" points="125.4,-76.66 135.98,-76.19 127.42,-69.95 125.4,-76.66"/>
</g>
<!-- Node3 -->
<g id="node3" class="node">
<title>Node3</title>
<g id="a_node3"><a xlink:href="atm328p__spi_8c.html#a73c3d9ea4295599b7f59d2b26343a170" target="_top" xlink:title=" ">
<polygon fill="white" stroke="black" points="119,-38.5 119,-57.5 220,-57.5 220,-38.5 119,-38.5"/>
<text text-anchor="middle" x="169.5" y="-45.5" font-family="Fira Code" font-size="10.00">spi_deactivate</text>
</a>
</g>
</g>
<!-- Node1&#45;&gt;Node3 -->
<g id="edge2" class="edge">
<title>Node1&#45;&gt;Node3</title>
<path fill="none" stroke="midnightblue" d="M82.71,-48C90.83,-48 99.52,-48 108.15,-48"/>
<polygon fill="midnightblue" stroke="midnightblue" points="107.89,-51.5 117.89,-48 107.89,-44.5 107.89,-51.5"/>
</g>
<!-- Node4 -->
<g id="node4" class="node">
<title>Node4</title>
<g id="a_node4"><a xlink:href="atm328p__spi_8c.html#a695a4a16d5ea8390a3c3dc6815fca21b" target="_top" xlink:title=" ">
<polygon fill="white" stroke="black" points="134,-0.5 134,-19.5 205,-19.5 205,-0.5 134,-0.5"/>
<text text-anchor="middle" x="169.5" y="-7.5" font-family="Fira Code" font-size="10.00">spi_tx_rx</text>
</a>
</g>
</g>
<!-- Node1&#45;&gt;Node4 -->
<g id="edge3" class="edge">
<title>Node1&#45;&gt;Node4</title>
<path fill="none" stroke="midnightblue" d="M73.97,-38.51C89.88,-33.71 109.39,-27.83 126.55,-22.65"/>
<polygon fill="midnightblue" stroke="midnightblue" points="127.42,-26.05 135.98,-19.81 125.4,-19.34 127.42,-26.05"/>
</g>
</g>
</svg>
