<?xml version="1.0" encoding="UTF-8" standalone="no"?>
<!DOCTYPE svg PUBLIC "-//W3C//DTD SVG 1.1//EN"
 "http://www.w3.org/Graphics/SVG/1.1/DTD/svg11.dtd">
<!-- Generated by graphviz version 7.0.0 (20221023.0053)
 -->
<!-- Title: src/can.c Pages: 1 -->
<svg width="193pt" height="196pt"
 viewBox="0.00 0.00 193.00 196.00" xmlns="http://www.w3.org/2000/svg" xmlns:xlink="http://www.w3.org/1999/xlink">
<g id="graph0" class="graph" transform="scale(1 1) rotate(0) translate(4 192)">
<title>src/can.c</title>
<polygon fill="white" stroke="none" points="-4,4 -4,-192 189,-192 189,4 -4,4"/>
<!-- Node1 -->
<g id="node1" class="node">
<title>Node1</title>
<g id="a_node1"><a xlink:title=" ">
<polygon fill="#bfbfbf" stroke="black" points="66,-168.5 66,-187.5 137,-187.5 137,-168.5 66,-168.5"/>
<text text-anchor="middle" x="101.5" y="-175.5" font-family="Fira Code" font-size="10.00">src/can.c</text>
</a>
</g>
</g>
<!-- Node2 -->
<g id="node2" class="node">
<title>Node2</title>
<g id="a_node2"><a xlink:href="can_8h.html" target="_top" xlink:title=" ">
<polygon fill="white" stroke="black" points="0,-112.5 0,-131.5 47,-131.5 47,-112.5 0,-112.5"/>
<text text-anchor="middle" x="23.5" y="-119.5" font-family="Fira Code" font-size="10.00">can.h</text>
</a>
</g>
</g>
<!-- Node1&#45;&gt;Node2 -->
<g id="edge1" class="edge">
<title>Node1&#45;&gt;Node2</title>
<path fill="none" stroke="midnightblue" d="M89.31,-168.56C77.41,-160.32 59.04,-147.6 44.73,-137.7"/>
<polygon fill="midnightblue" stroke="midnightblue" points="47.06,-135.05 36.85,-132.24 43.08,-140.81 47.06,-135.05"/>
</g>
<!-- Node3 -->
<g id="node3" class="node">
<title>Node3</title>
<g id="a_node3"><a xlink:href="fifo_8h.html" target="_top" xlink:title=" ">
<polygon fill="white" stroke="black" points="49,-56.5 49,-75.5 102,-75.5 102,-56.5 49,-56.5"/>
<text text-anchor="middle" x="75.5" y="-63.5" font-family="Fira Code" font-size="10.00">fifo.h</text>
</a>
</g>
</g>
<!-- Node1&#45;&gt;Node3 -->
<g id="edge4" class="edge">
<title>Node1&#45;&gt;Node3</title>
<path fill="none" stroke="midnightblue" d="M99.55,-168.73C95.44,-151.37 85.84,-110.73 80.08,-86.39"/>
<polygon fill="midnightblue" stroke="midnightblue" points="83.53,-85.76 77.83,-76.84 76.72,-87.37 83.53,-85.76"/>
</g>
<!-- Node5 -->
<g id="node5" class="node">
<title>Node5</title>
<g id="a_node5"><a xlink:href="spi_8h.html" target="_top" xlink:title=" ">
<polygon fill="white" stroke="black" points="104,-112.5 104,-131.5 151,-131.5 151,-112.5 104,-112.5"/>
<text text-anchor="middle" x="127.5" y="-119.5" font-family="Fira Code" font-size="10.00">spi.h</text>
</a>
</g>
</g>
<!-- Node1&#45;&gt;Node5 -->
<g id="edge5" class="edge">
<title>Node1&#45;&gt;Node5</title>
<path fill="none" stroke="midnightblue" d="M105.56,-168.56C109.06,-161.31 114.22,-150.59 118.66,-141.37"/>
<polygon fill="midnightblue" stroke="midnightblue" points="121.71,-143.09 122.89,-132.57 115.4,-140.06 121.71,-143.09"/>
</g>
<!-- Node6 -->
<g id="node6" class="node">
<title>Node6</title>
<g id="a_node6"><a xlink:href="dsc_8h.html" target="_top" xlink:title=" ">
<polygon fill="white" stroke="black" points="138,-56.5 138,-75.5 185,-75.5 185,-56.5 138,-56.5"/>
<text text-anchor="middle" x="161.5" y="-63.5" font-family="Fira Code" font-size="10.00">dsc.h</text>
</a>
</g>
</g>
<!-- Node1&#45;&gt;Node6 -->
<g id="edge6" class="edge">
<title>Node1&#45;&gt;Node6</title>
<path fill="none" stroke="midnightblue" d="M120.13,-168.52C134.03,-161.07 152.03,-148.79 160.5,-132 167.59,-117.95 167.25,-99.92 165.48,-86.42"/>
<polygon fill="midnightblue" stroke="midnightblue" points="168.94,-85.88 163.78,-76.62 162.04,-87.07 168.94,-85.88"/>
</g>
<!-- Node2&#45;&gt;Node3 -->
<g id="edge2" class="edge">
<title>Node2&#45;&gt;Node3</title>
<path fill="none" stroke="midnightblue" d="M31.62,-112.56C39.15,-104.75 50.54,-92.92 59.83,-83.27"/>
<polygon fill="midnightblue" stroke="midnightblue" points="62.14,-85.92 66.55,-76.29 57.09,-81.07 62.14,-85.92"/>
</g>
<!-- Node4 -->
<g id="node4" class="node">
<title>Node4</title>
<g id="a_node4"><a xlink:href="types_8h.html" target="_top" xlink:title=" ">
<polygon fill="white" stroke="black" points="80,-0.5 80,-19.5 139,-19.5 139,-0.5 80,-0.5"/>
<text text-anchor="middle" x="109.5" y="-7.5" font-family="Fira Code" font-size="10.00">types.h</text>
</a>
</g>
</g>
<!-- Node3&#45;&gt;Node4 -->
<g id="edge3" class="edge">
<title>Node3&#45;&gt;Node4</title>
<path fill="none" stroke="midnightblue" d="M80.81,-56.56C85.48,-49.15 92.43,-38.12 98.32,-28.76"/>
<polygon fill="midnightblue" stroke="midnightblue" points="101.16,-30.81 103.53,-20.48 95.24,-27.08 101.16,-30.81"/>
</g>
<!-- Node6&#45;&gt;Node4 -->
<g id="edge7" class="edge">
<title>Node6&#45;&gt;Node4</title>
<path fill="none" stroke="midnightblue" d="M153.38,-56.56C145.85,-48.75 134.46,-36.92 125.17,-27.27"/>
<polygon fill="midnightblue" stroke="midnightblue" points="127.91,-25.07 118.45,-20.29 122.86,-29.92 127.91,-25.07"/>
</g>
</g>
</svg>
