<?xml version="1.0" encoding="UTF-8" standalone="no"?>
<!DOCTYPE svg PUBLIC "-//W3C//DTD SVG 1.1//EN"
 "http://www.w3.org/Graphics/SVG/1.1/DTD/svg11.dtd">
<!-- Generated by graphviz version 7.0.0 (20221023.0053)
 -->
<!-- Title: can_tx_q_add Pages: 1 -->
<svg width="335pt" height="28pt"
 viewBox="0.00 0.00 335.00 28.00" xmlns="http://www.w3.org/2000/svg" xmlns:xlink="http://www.w3.org/1999/xlink">
<g id="graph0" class="graph" transform="scale(1 1) rotate(0) translate(4 24)">
<title>can_tx_q_add</title>
<polygon fill="white" stroke="none" points="-4,4 -4,-24 331,-24 331,4 -4,4"/>
<!-- Node1 -->
<g id="node1" class="node">
<title>Node1</title>
<g id="a_node1"><a xlink:title=" ">
<polygon fill="#bfbfbf" stroke="black" points="0,-0.5 0,-19.5 89,-19.5 89,-0.5 0,-0.5"/>
<text text-anchor="middle" x="44.5" y="-7.5" font-family="Fira Code" font-size="10.00">can_tx_q_add</text>
</a>
</g>
</g>
<!-- Node2 -->
<g id="node2" class="node">
<title>Node2</title>
<g id="a_node2"><a xlink:href="fifo_8c.html#a234edb8a8e6cbf7499b0548fce3ef685" target="_top" xlink:title=" ">
<polygon fill="white" stroke="black" points="125,-0.5 125,-19.5 202,-19.5 202,-0.5 125,-0.5"/>
<text text-anchor="middle" x="163.5" y="-7.5" font-family="Fira Code" font-size="10.00">fifo_q_add</text>
</a>
</g>
</g>
<!-- Node1&#45;&gt;Node2 -->
<g id="edge1" class="edge">
<title>Node1&#45;&gt;Node2</title>
<path fill="none" stroke="midnightblue" d="M88.73,-10C96.88,-10 105.44,-10 113.74,-10"/>
<polygon fill="midnightblue" stroke="midnightblue" points="113.7,-13.5 123.7,-10 113.7,-6.5 113.7,-13.5"/>
</g>
<!-- Node3 -->
<g id="node3" class="node">
<title>Node3</title>
<g id="a_node3"><a xlink:href="memory_8c.html#a63fecdcb991cb81f69778425ea39cec8" target="_top" xlink:title=" ">
<polygon fill="white" stroke="black" points="238,-0.5 238,-19.5 327,-19.5 327,-0.5 238,-0.5"/>
<text text-anchor="middle" x="282.5" y="-7.5" font-family="Fira Code" font-size="10.00">memcpy_by_U8</text>
</a>
</g>
</g>
<!-- Node2&#45;&gt;Node3 -->
<g id="edge2" class="edge">
<title>Node2&#45;&gt;Node3</title>
<path fill="none" stroke="midnightblue" d="M201.84,-10C209.84,-10 218.45,-10 226.95,-10"/>
<polygon fill="midnightblue" stroke="midnightblue" points="226.89,-13.5 236.89,-10 226.89,-6.5 226.89,-13.5"/>
</g>
</g>
</svg>
