<?xml version="1.0" encoding="UTF-8" standalone="no"?>
<!DOCTYPE svg PUBLIC "-//W3C//DTD SVG 1.1//EN"
 "http://www.w3.org/Graphics/SVG/1.1/DTD/svg11.dtd">
<!-- Generated by graphviz version 7.0.0 (20221023.0053)
 -->
<!-- Title: src/demo.c Pages: 1 -->
<svg width="460pt" height="196pt"
 viewBox="0.00 0.00 460.31 196.00" xmlns="http://www.w3.org/2000/svg" xmlns:xlink="http://www.w3.org/1999/xlink">
<g id="graph0" class="graph" transform="scale(1 1) rotate(0) translate(4 192)">
<title>src/demo.c</title>
<polygon fill="white" stroke="none" points="-4,4 -4,-192 456.31,-192 456.31,4 -4,4"/>
<!-- Node1 -->
<g id="node1" class="node">
<title>Node1</title>
<g id="a_node1"><a xlink:title=" ">
<polygon fill="#bfbfbf" stroke="black" points="160.31,-168.5 160.31,-187.5 237.31,-187.5 237.31,-168.5 160.31,-168.5"/>
<text text-anchor="middle" x="198.81" y="-175.5" font-family="Fira Code" font-size="10.00">src/demo.c</text>
</a>
</g>
</g>
<!-- Node2 -->
<g id="node2" class="node">
<title>Node2</title>
<g id="a_node2"><a xlink:href="types_8h.html" target="_top" xlink:title=" ">
<polygon fill="white" stroke="black" points="230.31,-0.5 230.31,-19.5 289.31,-19.5 289.31,-0.5 230.31,-0.5"/>
<text text-anchor="middle" x="259.81" y="-7.5" font-family="Fira Code" font-size="10.00">types.h</text>
</a>
</g>
</g>
<!-- Node1&#45;&gt;Node2 -->
<g id="edge1" class="edge">
<title>Node1&#45;&gt;Node2</title>
<path fill="none" stroke="midnightblue" d="M160.46,-173.71C109.33,-168.43 23.01,-156.13 3.81,-132 -1.72,-125.04 -0.36,-119.85 3.81,-112 44.9,-34.72 158.27,-16.32 219.44,-12.11"/>
<polygon fill="midnightblue" stroke="midnightblue" points="219.29,-15.62 229.07,-11.55 218.88,-8.63 219.29,-15.62"/>
</g>
<!-- Node3 -->
<g id="node3" class="node">
<title>Node3</title>
<g id="a_node3"><a xlink:href="demo_8h.html" target="_top" xlink:title=" ">
<polygon fill="white" stroke="black" points="13.31,-112.5 13.31,-131.5 66.31,-131.5 66.31,-112.5 13.31,-112.5"/>
<text text-anchor="middle" x="39.81" y="-119.5" font-family="Fira Code" font-size="10.00">demo.h</text>
</a>
</g>
</g>
<!-- Node1&#45;&gt;Node3 -->
<g id="edge2" class="edge">
<title>Node1&#45;&gt;Node3</title>
<path fill="none" stroke="midnightblue" d="M173.97,-168.56C147.56,-159.59 105.55,-145.33 75.58,-135.15"/>
<polygon fill="midnightblue" stroke="midnightblue" points="76.77,-131.86 66.17,-131.95 74.52,-138.48 76.77,-131.86"/>
</g>
<!-- Node4 -->
<g id="node4" class="node">
<title>Node4</title>
<g id="a_node4"><a xlink:href="fifo_8h.html" target="_top" xlink:title=" ">
<polygon fill="white" stroke="black" points="95.31,-56.5 95.31,-75.5 148.31,-75.5 148.31,-56.5 95.31,-56.5"/>
<text text-anchor="middle" x="121.81" y="-63.5" font-family="Fira Code" font-size="10.00">fifo.h</text>
</a>
</g>
</g>
<!-- Node1&#45;&gt;Node4 -->
<g id="edge3" class="edge">
<title>Node1&#45;&gt;Node4</title>
<path fill="none" stroke="midnightblue" d="M166.25,-168.59C147.68,-161.94 125.94,-150.59 114.81,-132 106.51,-118.14 109.6,-99.6 113.99,-85.87"/>
<polygon fill="midnightblue" stroke="midnightblue" points="117.19,-87.29 117.39,-76.7 110.63,-84.86 117.19,-87.29"/>
</g>
<!-- Node5 -->
<g id="node5" class="node">
<title>Node5</title>
<g id="a_node5"><a xlink:href="can_8h.html" target="_top" xlink:title=" ">
<polygon fill="white" stroke="black" points="123.31,-112.5 123.31,-131.5 170.31,-131.5 170.31,-112.5 123.31,-112.5"/>
<text text-anchor="middle" x="146.81" y="-119.5" font-family="Fira Code" font-size="10.00">can.h</text>
</a>
</g>
</g>
<!-- Node1&#45;&gt;Node5 -->
<g id="edge5" class="edge">
<title>Node1&#45;&gt;Node5</title>
<path fill="none" stroke="midnightblue" d="M190.69,-168.56C183.16,-160.75 171.77,-148.92 162.48,-139.27"/>
<polygon fill="midnightblue" stroke="midnightblue" points="165.22,-137.07 155.76,-132.29 160.17,-141.92 165.22,-137.07"/>
</g>
<!-- Node6 -->
<g id="node6" class="node">
<title>Node6</title>
<g id="a_node6"><a xlink:href="memory_8h.html" target="_top" xlink:title=" ">
<polygon fill="white" stroke="black" points="166.31,-56.5 166.31,-75.5 231.31,-75.5 231.31,-56.5 166.31,-56.5"/>
<text text-anchor="middle" x="198.81" y="-63.5" font-family="Fira Code" font-size="10.00">memory.h</text>
</a>
</g>
</g>
<!-- Node1&#45;&gt;Node6 -->
<g id="edge7" class="edge">
<title>Node1&#45;&gt;Node6</title>
<path fill="none" stroke="midnightblue" d="M198.81,-168.73C198.81,-151.45 198.81,-111.1 198.81,-86.73"/>
<polygon fill="midnightblue" stroke="midnightblue" points="202.31,-86.88 198.81,-76.88 195.31,-86.88 202.31,-86.88"/>
</g>
<!-- Node7 -->
<g id="node7" class="node">
<title>Node7</title>
<g id="a_node7"><a xlink:href="string_8h.html" target="_top" xlink:title=" ">
<polygon fill="white" stroke="black" points="227.31,-112.5 227.31,-131.5 292.31,-131.5 292.31,-112.5 227.31,-112.5"/>
<text text-anchor="middle" x="259.81" y="-119.5" font-family="Fira Code" font-size="10.00">string.h</text>
</a>
</g>
</g>
<!-- Node1&#45;&gt;Node7 -->
<g id="edge9" class="edge">
<title>Node1&#45;&gt;Node7</title>
<path fill="none" stroke="midnightblue" d="M208.34,-168.56C217.35,-160.59 231.08,-148.43 242.09,-138.68"/>
<polygon fill="midnightblue" stroke="midnightblue" points="244.24,-141.45 249.41,-132.2 239.6,-136.21 244.24,-141.45"/>
</g>
<!-- Node8 -->
<g id="node8" class="node">
<title>Node8</title>
<g id="a_node8"><a xlink:href="dsc_8h.html" target="_top" xlink:title=" ">
<polygon fill="white" stroke="black" points="310.31,-112.5 310.31,-131.5 357.31,-131.5 357.31,-112.5 310.31,-112.5"/>
<text text-anchor="middle" x="333.81" y="-119.5" font-family="Fira Code" font-size="10.00">dsc.h</text>
</a>
</g>
</g>
<!-- Node1&#45;&gt;Node8 -->
<g id="edge11" class="edge">
<title>Node1&#45;&gt;Node8</title>
<path fill="none" stroke="midnightblue" d="M219.9,-168.56C242,-159.73 276.94,-145.75 302.31,-135.6"/>
<polygon fill="midnightblue" stroke="midnightblue" points="303.47,-138.9 311.46,-131.94 300.87,-132.4 303.47,-138.9"/>
</g>
<!-- Node9 -->
<g id="node9" class="node">
<title>Node9</title>
<g id="a_node9"><a xlink:href="fai_8h.html" target="_top" xlink:title=" ">
<polygon fill="white" stroke="black" points="328.31,-56.5 328.31,-75.5 375.31,-75.5 375.31,-56.5 328.31,-56.5"/>
<text text-anchor="middle" x="351.81" y="-63.5" font-family="Fira Code" font-size="10.00">fai.h</text>
</a>
</g>
</g>
<!-- Node1&#45;&gt;Node9 -->
<g id="edge13" class="edge">
<title>Node1&#45;&gt;Node9</title>
<path fill="none" stroke="midnightblue" d="M237.27,-172.13C281.82,-165.6 351.14,-152.42 366.81,-132 377.26,-118.38 370.58,-98.74 363.11,-84.62"/>
<polygon fill="midnightblue" stroke="midnightblue" points="366.35,-83.24 358.27,-76.39 360.32,-86.79 366.35,-83.24"/>
</g>
<!-- Node10 -->
<g id="node10" class="node">
<title>Node10</title>
<g id="a_node10"><a xlink:href="usart_8h.html" target="_top" xlink:title=" ">
<polygon fill="white" stroke="black" points="393.31,-56.5 393.31,-75.5 452.31,-75.5 452.31,-56.5 393.31,-56.5"/>
<text text-anchor="middle" x="422.81" y="-63.5" font-family="Fira Code" font-size="10.00">usart.h</text>
</a>
</g>
</g>
<!-- Node1&#45;&gt;Node10 -->
<g id="edge15" class="edge">
<title>Node1&#45;&gt;Node10</title>
<path fill="none" stroke="midnightblue" d="M237.23,-175.97C277.12,-173.11 339.61,-163.46 382.81,-132 398.7,-120.43 409.6,-100.44 415.97,-85.68"/>
<polygon fill="midnightblue" stroke="midnightblue" points="419.12,-87.21 419.55,-76.63 412.62,-84.64 419.12,-87.21"/>
</g>
<!-- Node4&#45;&gt;Node2 -->
<g id="edge4" class="edge">
<title>Node4&#45;&gt;Node2</title>
<path fill="none" stroke="midnightblue" d="M143.37,-56.56C166.06,-47.69 202,-33.62 227.96,-23.46"/>
<polygon fill="midnightblue" stroke="midnightblue" points="228.95,-26.83 236.99,-19.93 226.4,-20.31 228.95,-26.83"/>
</g>
<!-- Node5&#45;&gt;Node4 -->
<g id="edge6" class="edge">
<title>Node5&#45;&gt;Node4</title>
<path fill="none" stroke="midnightblue" d="M142.9,-112.56C139.55,-105.31 134.58,-94.59 130.31,-85.37"/>
<polygon fill="midnightblue" stroke="midnightblue" points="133.62,-84.18 126.24,-76.57 127.27,-87.12 133.62,-84.18"/>
</g>
<!-- Node6&#45;&gt;Node2 -->
<g id="edge8" class="edge">
<title>Node6&#45;&gt;Node2</title>
<path fill="none" stroke="midnightblue" d="M208.34,-56.56C217.35,-48.59 231.08,-36.43 242.09,-26.68"/>
<polygon fill="midnightblue" stroke="midnightblue" points="244.24,-29.45 249.41,-20.2 239.6,-24.21 244.24,-29.45"/>
</g>
<!-- Node7&#45;&gt;Node2 -->
<g id="edge10" class="edge">
<title>Node7&#45;&gt;Node2</title>
<path fill="none" stroke="midnightblue" d="M259.81,-112.73C259.81,-95.45 259.81,-55.1 259.81,-30.73"/>
<polygon fill="midnightblue" stroke="midnightblue" points="263.31,-30.88 259.81,-20.88 256.31,-30.88 263.31,-30.88"/>
</g>
<!-- Node8&#45;&gt;Node2 -->
<g id="edge12" class="edge">
<title>Node8&#45;&gt;Node2</title>
<path fill="none" stroke="midnightblue" d="M328.25,-112.73C316.3,-94.97 287.96,-52.85 271.75,-28.74"/>
<polygon fill="midnightblue" stroke="midnightblue" points="274.77,-26.96 266.28,-20.62 268.96,-30.87 274.77,-26.96"/>
</g>
<!-- Node9&#45;&gt;Node2 -->
<g id="edge14" class="edge">
<title>Node9&#45;&gt;Node2</title>
<path fill="none" stroke="midnightblue" d="M337.44,-56.56C323.12,-48.16 300.89,-35.11 283.88,-25.13"/>
<polygon fill="midnightblue" stroke="midnightblue" points="285.79,-22.19 275.39,-20.14 282.24,-28.22 285.79,-22.19"/>
</g>
<!-- Node10&#45;&gt;Node2 -->
<g id="edge16" class="edge">
<title>Node10&#45;&gt;Node2</title>
<path fill="none" stroke="midnightblue" d="M397.34,-56.56C370.15,-47.55 326.82,-33.2 296.08,-23.01"/>
<polygon fill="midnightblue" stroke="midnightblue" points="297.4,-19.77 286.81,-19.94 295.2,-26.41 297.4,-19.77"/>
</g>
</g>
</svg>
