<?xml version="1.0" encoding="UTF-8" standalone="no"?>
<!DOCTYPE svg PUBLIC "-//W3C//DTD SVG 1.1//EN"
 "http://www.w3.org/Graphics/SVG/1.1/DTD/svg11.dtd">
<!-- Generated by graphviz version 7.0.0 (20221023.0053)
 -->
<!-- Title: task_demo_tx Pages: 1 -->
<svg width="508pt" height="160pt"
 viewBox="0.00 0.00 508.00 160.00" xmlns="http://www.w3.org/2000/svg" xmlns:xlink="http://www.w3.org/1999/xlink">
<g id="graph0" class="graph" transform="scale(1 1) rotate(0) translate(4 156)">
<title>task_demo_tx</title>
<polygon fill="white" stroke="none" points="-4,4 -4,-156 504,-156 504,4 -4,4"/>
<!-- Node1 -->
<g id="node1" class="node">
<title>Node1</title>
<g id="a_node1"><a xlink:title=" ">
<polygon fill="#bfbfbf" stroke="black" points="0,-66.5 0,-85.5 89,-85.5 89,-66.5 0,-66.5"/>
<text text-anchor="middle" x="44.5" y="-73.5" font-family="Fira Code" font-size="10.00">task_demo_tx</text>
</a>
</g>
</g>
<!-- Node2 -->
<g id="node2" class="node">
<title>Node2</title>
<g id="a_node2"><a xlink:href="can_8c.html#a8684cbb2f82c53705820ad7785972ded" target="_top" xlink:title=" ">
<polygon fill="white" stroke="black" points="149,-132.5 149,-151.5 238,-151.5 238,-132.5 149,-132.5"/>
<text text-anchor="middle" x="193.5" y="-139.5" font-family="Fira Code" font-size="10.00">can_tx_q_add</text>
</a>
</g>
</g>
<!-- Node1&#45;&gt;Node2 -->
<g id="edge1" class="edge">
<title>Node1&#45;&gt;Node2</title>
<path fill="none" stroke="midnightblue" d="M61.6,-85.39C77.43,-94.41 102.42,-108.08 125,-118 133.66,-121.8 143.14,-125.47 152.18,-128.74"/>
<polygon fill="midnightblue" stroke="midnightblue" points="150.88,-131.99 161.47,-132.01 153.2,-125.39 150.88,-131.99"/>
</g>
<!-- Node4 -->
<g id="node4" class="node">
<title>Node4</title>
<g id="a_node4"><a xlink:href="memory_8c.html#a63fecdcb991cb81f69778425ea39cec8" target="_top" xlink:title=" ">
<polygon fill="white" stroke="black" points="411,-113.5 411,-132.5 500,-132.5 500,-113.5 411,-113.5"/>
<text text-anchor="middle" x="455.5" y="-120.5" font-family="Fira Code" font-size="10.00">memcpy_by_U8</text>
</a>
</g>
</g>
<!-- Node1&#45;&gt;Node4 -->
<g id="edge6" class="edge">
<title>Node1&#45;&gt;Node4</title>
<path fill="none" stroke="midnightblue" d="M88.88,-80.99C163.91,-89.61 317.74,-107.28 399.91,-116.73"/>
<polygon fill="midnightblue" stroke="midnightblue" points="399.42,-120.19 409.75,-117.86 400.22,-113.24 399.42,-120.19"/>
</g>
<!-- Node5 -->
<g id="node5" class="node">
<title>Node5</title>
<g id="a_node5"><a xlink:href="fai_8c.html#a5775f4722e53f8e7ac05a0ef6530dee2" target="_top" xlink:title=" ">
<polygon fill="white" stroke="black" points="125,-38.5 125,-57.5 262,-57.5 262,-38.5 125,-38.5"/>
<text text-anchor="middle" x="193.5" y="-45.5" font-family="Fira Code" font-size="10.00">fai_pass_fail_logger</text>
</a>
</g>
</g>
<!-- Node1&#45;&gt;Node5 -->
<g id="edge4" class="edge">
<title>Node1&#45;&gt;Node5</title>
<path fill="none" stroke="midnightblue" d="M88.81,-67.75C102.17,-65.2 117.15,-62.35 131.48,-59.62"/>
<polygon fill="midnightblue" stroke="midnightblue" points="132.13,-63.06 141.3,-57.75 130.82,-56.19 132.13,-63.06"/>
</g>
<!-- Node6 -->
<g id="node6" class="node">
<title>Node6</title>
<g id="a_node6"><a xlink:href="string_8c.html#a4b19ca715d9f1e7346079c308d4b595b" target="_top" xlink:title=" ">
<polygon fill="white" stroke="black" points="146,-0.5 146,-19.5 241,-19.5 241,-0.5 146,-0.5"/>
<text text-anchor="middle" x="193.5" y="-7.5" font-family="Fira Code" font-size="10.00">strnlen_by_U8</text>
</a>
</g>
</g>
<!-- Node1&#45;&gt;Node6 -->
<g id="edge7" class="edge">
<title>Node1&#45;&gt;Node6</title>
<path fill="none" stroke="midnightblue" d="M59,-66.54C74.37,-56.12 100.53,-39.47 125,-29 130.25,-26.75 135.85,-24.69 141.48,-22.82"/>
<polygon fill="midnightblue" stroke="midnightblue" points="142.33,-26.23 150.84,-19.92 140.25,-19.54 142.33,-26.23"/>
</g>
<!-- Node3 -->
<g id="node3" class="node">
<title>Node3</title>
<g id="a_node3"><a xlink:href="fifo_8c.html#a234edb8a8e6cbf7499b0548fce3ef685" target="_top" xlink:title=" ">
<polygon fill="white" stroke="black" points="298,-132.5 298,-151.5 375,-151.5 375,-132.5 298,-132.5"/>
<text text-anchor="middle" x="336.5" y="-139.5" font-family="Fira Code" font-size="10.00">fifo_q_add</text>
</a>
</g>
</g>
<!-- Node2&#45;&gt;Node3 -->
<g id="edge2" class="edge">
<title>Node2&#45;&gt;Node3</title>
<path fill="none" stroke="midnightblue" d="M237.96,-142C253.45,-142 271,-142 286.9,-142"/>
<polygon fill="midnightblue" stroke="midnightblue" points="286.62,-145.5 296.62,-142 286.62,-138.5 286.62,-145.5"/>
</g>
<!-- Node3&#45;&gt;Node4 -->
<g id="edge3" class="edge">
<title>Node3&#45;&gt;Node4</title>
<path fill="none" stroke="midnightblue" d="M374.84,-135.94C382.93,-134.62 391.65,-133.21 400.24,-131.81"/>
<polygon fill="midnightblue" stroke="midnightblue" points="400.6,-135.3 409.91,-130.24 399.48,-128.39 400.6,-135.3"/>
</g>
<!-- Node5&#45;&gt;Node5 -->
<g id="edge5" class="edge">
<title>Node5&#45;&gt;Node5</title>
<path fill="none" stroke="midnightblue" d="M171.82,-57.47C160.58,-66.36 167.8,-76 193.5,-76 208.76,-76 217.5,-72.6 219.74,-67.98"/>
<polygon fill="midnightblue" stroke="midnightblue" points="222.97,-66.64 215.78,-58.86 216.55,-69.42 222.97,-66.64"/>
</g>
</g>
</svg>
