<?xml version="1.0" encoding="UTF-8" standalone="no"?>
<!DOCTYPE svg PUBLIC "-//W3C//DTD SVG 1.1//EN"
 "http://www.w3.org/Graphics/SVG/1.1/DTD/svg11.dtd">
<!-- Generated by graphviz version 7.0.0 (20221023.0053)
 -->
<!-- Title: task_demo_rx Pages: 1 -->
<!--zoomable 160 -->
<svg id="main" version="1.1" xmlns="http://www.w3.org/2000/svg" xmlns:xlink="http://www.w3.org/1999/xlink" xml:space="preserve" onload="init(evt)">
<style type="text/css"><![CDATA[
.edge:hover path { stroke: red; }
.edge:hover polygon { stroke: red; fill: red; }
]]></style>
<script type="text/javascript"><![CDATA[
var edges = document.getElementsByTagName('g');
if (edges && edges.length) {
  for (var i=0;i<edges.length;i++) {
    if (edges[i].id.substr(0,4)=='edge') {
      edges[i].setAttribute('class','edge');
    }
  }
}
]]></script>
        <defs>
                <circle id="rim" cx="0" cy="0" r="7"/>
                <circle id="rim2" cx="0" cy="0" r="3.5"/>
                <g id="zoomPlus">
                        <use xlink:href="#rim" fill="#404040">
                                <set attributeName="fill" to="#808080" begin="zoomplus.mouseover" end="zoomplus.mouseout"/>
                        </use>
                        <path d="M-4,0h8M0,-4v8" fill="none" stroke="white" stroke-width="1.5" pointer-events="none"/>
                </g>
                <g id="zoomMin">
                        <use xlink:href="#rim" fill="#404040">
                                <set attributeName="fill" to="#808080" begin="zoomminus.mouseover" end="zoomminus.mouseout"/>
                        </use>
                        <path d="M-4,0h8" fill="none" stroke="white" stroke-width="1.5" pointer-events="none"/>
                </g>
                <g id="dirArrow">
                        <path fill="none" stroke="white" stroke-width="1.5" d="M0,-3.0v7 M-2.5,-0.5L0,-3.0L2.5,-0.5"/>
                </g>
               <g id="resetDef">
                       <use xlink:href="#rim2" fill="#404040">
                               <set attributeName="fill" to="#808080" begin="reset.mouseover" end="reset.mouseout"/>
                       </use>
               </g>
        </defs>

<script type="text/javascript">
var viewWidth = 526;
var viewHeight = 160;
var sectionId = 'dynsection-1';
</script>
<script xlink:href="svgpan.js"/>
<svg id="graph" class="graph">
<g id="viewport">
<title>task_demo_rx</title>
<polygon fill="white" stroke="none" points="-4,4 -4,-156 522,-156 522,4 -4,4"/>
<!-- Node1 -->
<g id="node1" class="node">
<title>Node1</title>
<g id="a_node1"><a xlink:title=" ">
<polygon fill="#bfbfbf" stroke="black" points="0,-66.5 0,-85.5 89,-85.5 89,-66.5 0,-66.5"/>
<text text-anchor="middle" x="44.5" y="-73.5" font-family="Fira Code" font-size="10.00">task_demo_rx</text>
</a>
</g>
</g>
<!-- Node2 -->
<g id="node2" class="node">
<title>Node2</title>
<g id="a_node2"><a xlink:href="can_8c.html#a011a68b7760013d6a77402c7f745e729" target="_top" xlink:title=" ">
<polygon fill="white" stroke="black" points="149,-132.5 149,-151.5 238,-151.5 238,-132.5 149,-132.5"/>
<text text-anchor="middle" x="193.5" y="-139.5" font-family="Fira Code" font-size="10.00">can_rx_q_len</text>
</a>
</g>
</g>
<!-- Node1&#45;&gt;Node2 -->
<g id="edge1" class="edge">
<title>Node1&#45;&gt;Node2</title>
<path fill="none" stroke="midnightblue" d="M59,-85.46C74.37,-95.88 100.53,-112.53 125,-123 130.25,-125.25 135.85,-127.31 141.48,-129.18"/>
<polygon fill="midnightblue" stroke="midnightblue" points="140.25,-132.46 150.84,-132.08 142.33,-125.77 140.25,-132.46"/>
</g>
<!-- Node4 -->
<g id="node4" class="node">
<title>Node4</title>
<g id="a_node4"><a xlink:href="can_8c.html#aa64b834bf8ac23eb4ee242af8b1edb3c" target="_top" xlink:title=" ">
<polygon fill="white" stroke="black" points="140,-94.5 140,-113.5 247,-113.5 247,-94.5 140,-94.5"/>
<text text-anchor="middle" x="193.5" y="-101.5" font-family="Fira Code" font-size="10.00">can_rx_q_remove</text>
</a>
</g>
</g>
<!-- Node1&#45;&gt;Node4 -->
<g id="edge3" class="edge">
<title>Node1&#45;&gt;Node4</title>
<path fill="none" stroke="midnightblue" d="M88.81,-84.25C102.17,-86.8 117.15,-89.65 131.48,-92.38"/>
<polygon fill="midnightblue" stroke="midnightblue" points="130.82,-95.81 141.3,-94.25 132.13,-88.94 130.82,-95.81"/>
</g>
<!-- Node7 -->
<g id="node7" class="node">
<title>Node7</title>
<g id="a_node7"><a xlink:href="fai_8c.html#a5775f4722e53f8e7ac05a0ef6530dee2" target="_top" xlink:title=" ">
<polygon fill="white" stroke="black" points="125,-38.5 125,-57.5 262,-57.5 262,-38.5 125,-38.5"/>
<text text-anchor="middle" x="193.5" y="-45.5" font-family="Fira Code" font-size="10.00">fai_pass_fail_logger</text>
</a>
</g>
</g>
<!-- Node1&#45;&gt;Node7 -->
<g id="edge6" class="edge">
<title>Node1&#45;&gt;Node7</title>
<path fill="none" stroke="midnightblue" d="M88.81,-67.75C102.17,-65.2 117.15,-62.35 131.48,-59.62"/>
<polygon fill="midnightblue" stroke="midnightblue" points="132.13,-63.06 141.3,-57.75 130.82,-56.19 132.13,-63.06"/>
</g>
<!-- Node8 -->
<g id="node8" class="node">
<title>Node8</title>
<g id="a_node8"><a xlink:href="memory_8c.html#a00313933dc370c739b1f6eb8b644bbfd" target="_top" xlink:title=" ">
<polygon fill="white" stroke="black" points="167,-0.5 167,-19.5 220,-19.5 220,-0.5 167,-0.5"/>
<text text-anchor="middle" x="193.5" y="-7.5" font-family="Fira Code" font-size="10.00">get_pc</text>
</a>
</g>
</g>
<!-- Node1&#45;&gt;Node8 -->
<g id="edge8" class="edge">
<title>Node1&#45;&gt;Node8</title>
<path fill="none" stroke="midnightblue" d="M59,-66.54C74.37,-56.12 100.53,-39.47 125,-29 134.95,-24.75 146.12,-21.16 156.47,-18.28"/>
<polygon fill="midnightblue" stroke="midnightblue" points="157.03,-21.75 165.82,-15.83 155.26,-14.98 157.03,-21.75"/>
</g>
<!-- Node3 -->
<g id="node3" class="node">
<title>Node3</title>
<g id="a_node3"><a xlink:href="fifo_8c.html#a0cbda086540a85234cce28a94e486f76" target="_top" xlink:title=" ">
<polygon fill="white" stroke="black" points="307,-132.5 307,-151.5 384,-151.5 384,-132.5 307,-132.5"/>
<text text-anchor="middle" x="345.5" y="-139.5" font-family="Fira Code" font-size="10.00">fifo_q_len</text>
</a>
</g>
</g>
<!-- Node2&#45;&gt;Node3 -->
<g id="edge2" class="edge">
<title>Node2&#45;&gt;Node3</title>
<path fill="none" stroke="midnightblue" d="M237.89,-142C256.09,-142 277.33,-142 296.04,-142"/>
<polygon fill="midnightblue" stroke="midnightblue" points="295.8,-145.5 305.8,-142 295.8,-138.5 295.8,-145.5"/>
</g>
<!-- Node5 -->
<g id="node5" class="node">
<title>Node5</title>
<g id="a_node5"><a xlink:href="fifo_8c.html#a836ffaf8bc36859137fd95ab1876acd7" target="_top" xlink:title=" ">
<polygon fill="white" stroke="black" points="298,-94.5 298,-113.5 393,-113.5 393,-94.5 298,-94.5"/>
<text text-anchor="middle" x="345.5" y="-101.5" font-family="Fira Code" font-size="10.00">fifo_q_remove</text>
</a>
</g>
</g>
<!-- Node4&#45;&gt;Node5 -->
<g id="edge4" class="edge">
<title>Node4&#45;&gt;Node5</title>
<path fill="none" stroke="midnightblue" d="M246.96,-104C259.9,-104 273.82,-104 286.99,-104"/>
<polygon fill="midnightblue" stroke="midnightblue" points="286.8,-107.5 296.8,-104 286.8,-100.5 286.8,-107.5"/>
</g>
<!-- Node6 -->
<g id="node6" class="node">
<title>Node6</title>
<g id="a_node6"><a xlink:href="memory_8c.html#a63fecdcb991cb81f69778425ea39cec8" target="_top" xlink:title=" ">
<polygon fill="white" stroke="black" points="429,-94.5 429,-113.5 518,-113.5 518,-94.5 429,-94.5"/>
<text text-anchor="middle" x="473.5" y="-101.5" font-family="Fira Code" font-size="10.00">memcpy_by_U8</text>
</a>
</g>
</g>
<!-- Node5&#45;&gt;Node6 -->
<g id="edge5" class="edge">
<title>Node5&#45;&gt;Node6</title>
<path fill="none" stroke="midnightblue" d="M392.7,-104C400.91,-104 409.53,-104 417.94,-104"/>
<polygon fill="midnightblue" stroke="midnightblue" points="417.72,-107.5 427.72,-104 417.72,-100.5 417.72,-107.5"/>
</g>
<!-- Node7&#45;&gt;Node7 -->
<g id="edge7" class="edge">
<title>Node7&#45;&gt;Node7</title>
<path fill="none" stroke="midnightblue" d="M170.91,-57.47C159.2,-66.36 166.73,-76 193.5,-76 209.82,-76 218.98,-72.42 221.01,-67.61"/>
<polygon fill="midnightblue" stroke="midnightblue" points="224.26,-66.3 216.75,-58.83 217.96,-69.35 224.26,-66.3"/>
</g>
</g>
</svg>
        <g id="navigator" transform="translate(0 0)" fill="#404254">
                <rect fill="#f2f5e9" fill-opacity="0.5" stroke="#606060" stroke-width=".5" x="0" y="0" width="60" height="60"/>
                <use id="zoomplus" xlink:href="#zoomPlus" x="17" y="9" onmousedown="handleZoom(evt,'in')"/>
                <use id="zoomminus" xlink:href="#zoomMin" x="42" y="9" onmousedown="handleZoom(evt,'out')"/>
                <use id="reset" xlink:href="#resetDef" x="30" y="36" onmousedown="handleReset()"/>
                <g id="arrowUp" xlink:href="#dirArrow" transform="translate(30 24)" onmousedown="handlePan(0,-1)">
                  <use xlink:href="#rim" fill="#404040">
                        <set attributeName="fill" to="#808080" begin="arrowUp.mouseover" end="arrowUp.mouseout"/>
                  </use>
                  <path fill="none" stroke="white" stroke-width="1.5" d="M0,-3.0v7 M-2.5,-0.5L0,-3.0L2.5,-0.5"/>
                </g>
                <g id="arrowRight" xlink:href="#dirArrow" transform="rotate(90) translate(36 -43)" onmousedown="handlePan(1,0)">
                  <use xlink:href="#rim" fill="#404040">
                        <set attributeName="fill" to="#808080" begin="arrowRight.mouseover" end="arrowRight.mouseout"/>
                  </use>
                  <path fill="none" stroke="white" stroke-width="1.5" d="M0,-3.0v7 M-2.5,-0.5L0,-3.0L2.5,-0.5"/>
                </g>
                <g id="arrowDown" xlink:href="#dirArrow" transform="rotate(180) translate(-30 -48)" onmousedown="handlePan(0,1)">
                  <use xlink:href="#rim" fill="#404040">
                        <set attributeName="fill" to="#808080" begin="arrowDown.mouseover" end="arrowDown.mouseout"/>
                  </use>
                  <path fill="none" stroke="white" stroke-width="1.5" d="M0,-3.0v7 M-2.5,-0.5L0,-3.0L2.5,-0.5"/>
                </g>
                <g id="arrowLeft" xlink:href="#dirArrow" transform="rotate(270) translate(-36 17)" onmousedown="handlePan(-1,0)">
                  <use xlink:href="#rim" fill="#404040">
                        <set attributeName="fill" to="#808080" begin="arrowLeft.mouseover" end="arrowLeft.mouseout"/>
                  </use>
                  <path fill="none" stroke="white" stroke-width="1.5" d="M0,-3.0v7 M-2.5,-0.5L0,-3.0L2.5,-0.5"/>
                </g>
        </g>
        <svg viewBox="0 0 15 15" width="100%" height="30px" preserveAspectRatio="xMaxYMin meet">
         <g id="arrow_out" transform="scale(0.3 0.3)">
          <a xlink:href="demo_8c_ab020e52284652b4784b684576f4f38a3_cgraph_org.svg" target="_base">
           <rect id="button" ry="5" rx="5" y="6" x="6" height="38" width="38"
                fill="#f2f5e9" fill-opacity="0.5" stroke="#606060" stroke-width="1.0"/>
           <path id="arrow"
             d="M 11.500037,31.436501 C 11.940474,20.09759 22.043105,11.32322 32.158766,21.979434 L 37.068811,17.246167 C 37.068811,17.246167 37.088388,32 37.088388,32 L 22.160133,31.978069 C 22.160133,31.978069 26.997745,27.140456 26.997745,27.140456 C 18.528582,18.264221 13.291696,25.230495 11.500037,31.436501 z"
             style="fill:#404040;"/>
          </a>
         </g>
        </svg>
</svg>
