<?xml version="1.0" encoding="UTF-8" standalone="no"?>
<!DOCTYPE svg PUBLIC "-//W3C//DTD SVG 1.1//EN"
 "http://www.w3.org/Graphics/SVG/1.1/DTD/svg11.dtd">
<!-- Generated by graphviz version 7.0.0 (20221023.0053)
 -->
<!-- Title: src/dsc.h Pages: 1 -->
<svg width="733pt" height="95pt"
 viewBox="0.00 0.00 733.00 95.00" xmlns="http://www.w3.org/2000/svg" xmlns:xlink="http://www.w3.org/1999/xlink">
<g id="graph0" class="graph" transform="scale(1 1) rotate(0) translate(4 91)">
<title>src/dsc.h</title>
<polygon fill="white" stroke="none" points="-4,4 -4,-91 729,-91 729,4 -4,4"/>
<!-- Node1 -->
<g id="node1" class="node">
<title>Node1</title>
<g id="a_node1"><a xlink:title=" ">
<polygon fill="#bfbfbf" stroke="black" points="333,-67.5 333,-86.5 404,-86.5 404,-67.5 333,-67.5"/>
<text text-anchor="middle" x="368.5" y="-74.5" font-family="Fira Code" font-size="10.00">src/dsc.h</text>
</a>
</g>
</g>
<!-- Node2 -->
<g id="node2" class="node">
<title>Node2</title>
<g id="a_node2"><a xlink:href="atm328p__dsc_8c.html" target="_top" xlink:title=" ">
<polygon fill="white" stroke="black" points="0,-0.5 0,-30.5 131,-30.5 131,-0.5 0,-0.5"/>
<text text-anchor="start" x="8" y="-18.5" font-family="Fira Code" font-size="10.00">src/atm328p/atm328p</text>
<text text-anchor="middle" x="65.5" y="-7.5" font-family="Fira Code" font-size="10.00">_dsc.c</text>
</a>
</g>
</g>
<!-- Node1&#45;&gt;Node2 -->
<g id="edge1" class="edge">
<title>Node1&#45;&gt;Node2</title>
<path fill="none" stroke="midnightblue" d="M322.12,-66.89C271.03,-56.86 188.5,-40.65 130.86,-29.34"/>
<polygon fill="midnightblue" stroke="midnightblue" points="321.18,-70.27 331.66,-68.77 322.53,-63.41 321.18,-70.27"/>
</g>
<!-- Node3 -->
<g id="node3" class="node">
<title>Node3</title>
<g id="a_node3"><a xlink:href="can_8c.html" target="_top" xlink:title=" ">
<polygon fill="white" stroke="black" points="149,-6 149,-25 220,-25 220,-6 149,-6"/>
<text text-anchor="middle" x="184.5" y="-13" font-family="Fira Code" font-size="10.00">src/can.c</text>
</a>
</g>
</g>
<!-- Node1&#45;&gt;Node3 -->
<g id="edge2" class="edge">
<title>Node1&#45;&gt;Node3</title>
<path fill="none" stroke="midnightblue" d="M331.31,-64.13C303.08,-55.1 263.33,-42.34 228.5,-31 222.53,-29.06 216.12,-26.95 210.08,-24.97"/>
<polygon fill="midnightblue" stroke="midnightblue" points="329.87,-67.34 340.46,-67.05 332,-60.67 329.87,-67.34"/>
</g>
<!-- Node4 -->
<g id="node4" class="node">
<title>Node4</title>
<g id="a_node4"><a xlink:href="demo_8c.html" target="_top" xlink:title=" ">
<polygon fill="white" stroke="black" points="238,-6 238,-25 315,-25 315,-6 238,-6"/>
<text text-anchor="middle" x="276.5" y="-13" font-family="Fira Code" font-size="10.00">src/demo.c</text>
</a>
</g>
</g>
<!-- Node1&#45;&gt;Node4 -->
<g id="edge3" class="edge">
<title>Node1&#45;&gt;Node4</title>
<path fill="none" stroke="midnightblue" d="M346.12,-61.53C328.37,-50.04 304.17,-34.4 289.48,-24.89"/>
<polygon fill="midnightblue" stroke="midnightblue" points="344.14,-64.41 354.44,-66.9 347.94,-58.54 344.14,-64.41"/>
</g>
<!-- Node5 -->
<g id="node5" class="node">
<title>Node5</title>
<g id="a_node5"><a xlink:href="dsc_8c.html" target="_top" xlink:title=" ">
<polygon fill="white" stroke="black" points="333,-6 333,-25 404,-25 404,-6 333,-6"/>
<text text-anchor="middle" x="368.5" y="-13" font-family="Fira Code" font-size="10.00">src/dsc.c</text>
</a>
</g>
</g>
<!-- Node1&#45;&gt;Node5 -->
<g id="edge4" class="edge">
<title>Node1&#45;&gt;Node5</title>
<path fill="none" stroke="midnightblue" d="M368.5,-56.41C368.5,-45.64 368.5,-32.85 368.5,-24.7"/>
<polygon fill="midnightblue" stroke="midnightblue" points="365,-56.21 368.5,-66.21 372,-56.21 365,-56.21"/>
</g>
<!-- Node6 -->
<g id="node6" class="node">
<title>Node6</title>
<g id="a_node6"><a xlink:href="main_8c.html" target="_top" xlink:title=" ">
<polygon fill="white" stroke="black" points="422,-6 422,-25 499,-25 499,-6 422,-6"/>
<text text-anchor="middle" x="460.5" y="-13" font-family="Fira Code" font-size="10.00">src/main.c</text>
</a>
</g>
</g>
<!-- Node1&#45;&gt;Node6 -->
<g id="edge5" class="edge">
<title>Node1&#45;&gt;Node6</title>
<path fill="none" stroke="midnightblue" d="M390.88,-61.53C408.63,-50.04 432.83,-34.4 447.52,-24.89"/>
<polygon fill="midnightblue" stroke="midnightblue" points="389.06,-58.54 382.56,-66.9 392.86,-64.41 389.06,-58.54"/>
</g>
<!-- Node7 -->
<g id="node7" class="node">
<title>Node7</title>
<g id="a_node7"><a xlink:href="scheduler_8c.html" target="_top" xlink:title=" ">
<polygon fill="white" stroke="black" points="517,-6 517,-25 624,-25 624,-6 517,-6"/>
<text text-anchor="middle" x="570.5" y="-13" font-family="Fira Code" font-size="10.00">src/scheduler.c</text>
</a>
</g>
</g>
<!-- Node1&#45;&gt;Node7 -->
<g id="edge6" class="edge">
<title>Node1&#45;&gt;Node7</title>
<path fill="none" stroke="midnightblue" d="M408.03,-64.36C447.37,-52.77 506.78,-35.27 541.81,-24.95"/>
<polygon fill="midnightblue" stroke="midnightblue" points="407.07,-60.99 398.47,-67.17 409.05,-67.71 407.07,-60.99"/>
</g>
<!-- Node8 -->
<g id="node8" class="node">
<title>Node8</title>
<g id="a_node8"><a xlink:href="usart_8c.html" target="_top" xlink:title=" ">
<polygon fill="white" stroke="black" points="642,-6 642,-25 725,-25 725,-6 642,-6"/>
<text text-anchor="middle" x="683.5" y="-13" font-family="Fira Code" font-size="10.00">src/usart.c</text>
</a>
</g>
</g>
<!-- Node1&#45;&gt;Node8 -->
<g id="edge7" class="edge">
<title>Node1&#45;&gt;Node8</title>
<path fill="none" stroke="midnightblue" d="M415,-69.74C468.16,-62.21 557.64,-48.38 633.5,-31 640.99,-29.28 649.02,-27.11 656.4,-24.97"/>
<polygon fill="midnightblue" stroke="midnightblue" points="414.82,-66.23 405.4,-71.09 415.79,-73.17 414.82,-66.23"/>
</g>
</g>
</svg>
