<?xml version="1.0" encoding="UTF-8" standalone="no"?>
<!DOCTYPE svg PUBLIC "-//W3C//DTD SVG 1.1//EN"
 "http://www.w3.org/Graphics/SVG/1.1/DTD/svg11.dtd">
<!-- Generated by graphviz version 7.0.0 (20221023.0053)
 -->
<!-- Title: dsc_led_set Pages: 1 -->
<svg width="269pt" height="66pt"
 viewBox="0.00 0.00 269.00 66.00" xmlns="http://www.w3.org/2000/svg" xmlns:xlink="http://www.w3.org/1999/xlink">
<g id="graph0" class="graph" transform="scale(1 1) rotate(0) translate(4 62)">
<title>dsc_led_set</title>
<polygon fill="white" stroke="none" points="-4,4 -4,-62 265,-62 265,4 -4,4"/>
<!-- Node1 -->
<g id="node1" class="node">
<title>Node1</title>
<g id="a_node1"><a xlink:title=" ">
<polygon fill="#bfbfbf" stroke="black" points="178,-19.5 178,-38.5 261,-38.5 261,-19.5 178,-19.5"/>
<text text-anchor="middle" x="219.5" y="-26.5" font-family="Fira Code" font-size="10.00">dsc_led_set</text>
</a>
</g>
</g>
<!-- Node2 -->
<g id="node2" class="node">
<title>Node2</title>
<g id="a_node2"><a xlink:href="dsc_8c.html#a65d27117ba3dbe4a624bbbdcf62a4f70" target="_top" xlink:title=" ">
<polygon fill="white" stroke="black" points="77,-38.5 77,-57.5 142,-57.5 142,-38.5 77,-38.5"/>
<text text-anchor="middle" x="109.5" y="-45.5" font-family="Fira Code" font-size="10.00">dsc_init</text>
</a>
</g>
</g>
<!-- Node1&#45;&gt;Node2 -->
<g id="edge1" class="edge">
<title>Node1&#45;&gt;Node2</title>
<path fill="none" stroke="midnightblue" d="M167.12,-38.04C158.54,-39.55 149.87,-41.07 141.97,-42.46"/>
<polygon fill="midnightblue" stroke="midnightblue" points="167.55,-41.52 176.79,-36.34 166.34,-34.62 167.55,-41.52"/>
</g>
<!-- Node4 -->
<g id="node4" class="node">
<title>Node4</title>
<g id="a_node4"><a xlink:href="usart_8c.html#a084f0a9cf05b1877bd8a71a90dae7ff8" target="_top" xlink:title=" ">
<polygon fill="white" stroke="black" points="92,-0.5 92,-19.5 127,-19.5 127,-0.5 92,-0.5"/>
<text text-anchor="middle" x="109.5" y="-7.5" font-family="Fira Code" font-size="10.00">ISR</text>
</a>
</g>
</g>
<!-- Node1&#45;&gt;Node4 -->
<g id="edge3" class="edge">
<title>Node1&#45;&gt;Node4</title>
<path fill="none" stroke="midnightblue" d="M167.2,-19.97C152.54,-17.4 137.62,-14.77 126.76,-12.86"/>
<polygon fill="midnightblue" stroke="midnightblue" points="166.34,-23.38 176.79,-21.66 167.55,-16.48 166.34,-23.38"/>
</g>
<!-- Node3 -->
<g id="node3" class="node">
<title>Node3</title>
<g id="a_node3"><a xlink:href="main_8c.html#a06213d4df6a69a484bbec6698135cb14" target="_top" xlink:title=" ">
<polygon fill="white" stroke="black" points="0,-38.5 0,-57.5 41,-57.5 41,-38.5 0,-38.5"/>
<text text-anchor="middle" x="20.5" y="-45.5" font-family="Fira Code" font-size="10.00">main</text>
</a>
</g>
</g>
<!-- Node2&#45;&gt;Node3 -->
<g id="edge2" class="edge">
<title>Node2&#45;&gt;Node3</title>
<path fill="none" stroke="midnightblue" d="M65.8,-48C57.1,-48 48.36,-48 40.97,-48"/>
<polygon fill="midnightblue" stroke="midnightblue" points="65.58,-51.5 75.58,-48 65.58,-44.5 65.58,-51.5"/>
</g>
</g>
</svg>
