<?xml version="1.0" encoding="UTF-8" standalone="no"?>
<!DOCTYPE svg PUBLIC "-//W3C//DTD SVG 1.1//EN"
 "http://www.w3.org/Graphics/SVG/1.1/DTD/svg11.dtd">
<!-- Generated by graphviz version 7.0.0 (20221023.0053)
 -->
<!-- Title: dsc_init Pages: 1 -->
<svg width="198pt" height="66pt"
 viewBox="0.00 0.00 198.00 66.00" xmlns="http://www.w3.org/2000/svg" xmlns:xlink="http://www.w3.org/1999/xlink">
<g id="graph0" class="graph" transform="scale(1 1) rotate(0) translate(4 62)">
<title>dsc_init</title>
<polygon fill="white" stroke="none" points="-4,4 -4,-62 194,-62 194,4 -4,4"/>
<!-- Node1 -->
<g id="node1" class="node">
<title>Node1</title>
<g id="a_node1"><a xlink:title=" ">
<polygon fill="#bfbfbf" stroke="black" points="0,-19.5 0,-38.5 65,-38.5 65,-19.5 0,-19.5"/>
<text text-anchor="middle" x="32.5" y="-26.5" font-family="Fira Code" font-size="10.00">dsc_init</text>
</a>
</g>
</g>
<!-- Node2 -->
<g id="node2" class="node">
<title>Node2</title>
<g id="a_node2"><a xlink:href="atm328p__dsc_8c.html#acaa32126126df6125dc0d99877285aee" target="_top" xlink:title=" ">
<polygon fill="white" stroke="black" points="101,-38.5 101,-57.5 190,-57.5 190,-38.5 101,-38.5"/>
<text text-anchor="middle" x="145.5" y="-45.5" font-family="Fira Code" font-size="10.00">dsc_led_mode</text>
</a>
</g>
</g>
<!-- Node1&#45;&gt;Node2 -->
<g id="edge1" class="edge">
<title>Node1&#45;&gt;Node2</title>
<path fill="none" stroke="midnightblue" d="M64.72,-34.34C72.56,-35.69 81.22,-37.17 89.84,-38.64"/>
<polygon fill="midnightblue" stroke="midnightblue" points="89.16,-42.08 99.61,-40.32 90.34,-35.18 89.16,-42.08"/>
</g>
<!-- Node3 -->
<g id="node3" class="node">
<title>Node3</title>
<g id="a_node3"><a xlink:href="atm328p__dsc_8c.html#a0d5ff294859a8c6f0e9c1b97945a075f" target="_top" xlink:title=" ">
<polygon fill="white" stroke="black" points="104,-0.5 104,-19.5 187,-19.5 187,-0.5 104,-0.5"/>
<text text-anchor="middle" x="145.5" y="-7.5" font-family="Fira Code" font-size="10.00">dsc_led_set</text>
</a>
</g>
</g>
<!-- Node1&#45;&gt;Node3 -->
<g id="edge2" class="edge">
<title>Node1&#45;&gt;Node3</title>
<path fill="none" stroke="midnightblue" d="M64.72,-23.66C73.56,-22.14 83.44,-20.45 93.14,-18.79"/>
<polygon fill="midnightblue" stroke="midnightblue" points="93.63,-22.26 102.9,-17.12 92.45,-15.36 93.63,-22.26"/>
</g>
</g>
</svg>
