<?xml version="1.0" encoding="UTF-8" standalone="no"?>
<!DOCTYPE svg PUBLIC "-//W3C//DTD SVG 1.1//EN"
 "http://www.w3.org/Graphics/SVG/1.1/DTD/svg11.dtd">
<!-- Generated by graphviz version 7.0.0 (20221023.0053)
 -->
<!-- Title: src/eeprom.h Pages: 1 -->
<svg width="335pt" height="95pt"
 viewBox="0.00 0.00 335.00 95.00" xmlns="http://www.w3.org/2000/svg" xmlns:xlink="http://www.w3.org/1999/xlink">
<g id="graph0" class="graph" transform="scale(1 1) rotate(0) translate(4 91)">
<title>src/eeprom.h</title>
<polygon fill="white" stroke="none" points="-4,4 -4,-91 331,-91 331,4 -4,4"/>
<!-- Node1 -->
<g id="node1" class="node">
<title>Node1</title>
<g id="a_node1"><a xlink:title=" ">
<polygon fill="#bfbfbf" stroke="black" points="149,-67.5 149,-86.5 238,-86.5 238,-67.5 149,-67.5"/>
<text text-anchor="middle" x="193.5" y="-74.5" font-family="Fira Code" font-size="10.00">src/eeprom.h</text>
</a>
</g>
</g>
<!-- Node2 -->
<g id="node2" class="node">
<title>Node2</title>
<g id="a_node2"><a xlink:href="atm328p__eeprom_8c.html" target="_top" xlink:title=" ">
<polygon fill="white" stroke="black" points="0,-0.5 0,-30.5 131,-30.5 131,-0.5 0,-0.5"/>
<text text-anchor="start" x="8" y="-18.5" font-family="Fira Code" font-size="10.00">src/atm328p/atm328p</text>
<text text-anchor="middle" x="65.5" y="-7.5" font-family="Fira Code" font-size="10.00">_eeprom.c</text>
</a>
</g>
</g>
<!-- Node1&#45;&gt;Node2 -->
<g id="edge1" class="edge">
<title>Node1&#45;&gt;Node2</title>
<path fill="none" stroke="midnightblue" d="M165.05,-62.78C144.33,-53.14 116.33,-40.13 95.31,-30.36"/>
<polygon fill="midnightblue" stroke="midnightblue" points="163.52,-65.92 174.06,-66.96 166.47,-59.57 163.52,-65.92"/>
</g>
<!-- Node3 -->
<g id="node3" class="node">
<title>Node3</title>
<g id="a_node3"><a xlink:href="eeprom_8c.html" target="_top" xlink:title=" ">
<polygon fill="white" stroke="black" points="149,-6 149,-25 238,-25 238,-6 149,-6"/>
<text text-anchor="middle" x="193.5" y="-13" font-family="Fira Code" font-size="10.00">src/eeprom.c</text>
</a>
</g>
</g>
<!-- Node1&#45;&gt;Node3 -->
<g id="edge2" class="edge">
<title>Node1&#45;&gt;Node3</title>
<path fill="none" stroke="midnightblue" d="M193.5,-56.41C193.5,-45.64 193.5,-32.85 193.5,-24.7"/>
<polygon fill="midnightblue" stroke="midnightblue" points="190,-56.21 193.5,-66.21 197,-56.21 190,-56.21"/>
</g>
<!-- Node4 -->
<g id="node4" class="node">
<title>Node4</title>
<g id="a_node4"><a xlink:href="fai_8c.html" target="_top" xlink:title=" ">
<polygon fill="white" stroke="black" points="256,-6 256,-25 327,-25 327,-6 256,-6"/>
<text text-anchor="middle" x="291.5" y="-13" font-family="Fira Code" font-size="10.00">src/fai.c</text>
</a>
</g>
</g>
<!-- Node1&#45;&gt;Node4 -->
<g id="edge3" class="edge">
<title>Node1&#45;&gt;Node4</title>
<path fill="none" stroke="midnightblue" d="M216.81,-61.85C235.77,-50.34 261.88,-34.49 277.67,-24.89"/>
<polygon fill="midnightblue" stroke="midnightblue" points="215.15,-58.76 208.42,-66.94 218.78,-64.74 215.15,-58.76"/>
</g>
</g>
</svg>
