<?xml version="1.0" encoding="UTF-8" standalone="no"?>
<!DOCTYPE svg PUBLIC "-//W3C//DTD SVG 1.1//EN"
 "http://www.w3.org/Graphics/SVG/1.1/DTD/svg11.dtd">
<!-- Generated by graphviz version 7.0.0 (20221023.0053)
 -->
<!-- Title: src/eeprom.c Pages: 1 -->
<svg width="97pt" height="140pt"
 viewBox="0.00 0.00 97.00 140.00" xmlns="http://www.w3.org/2000/svg" xmlns:xlink="http://www.w3.org/1999/xlink">
<g id="graph0" class="graph" transform="scale(1 1) rotate(0) translate(4 136)">
<title>src/eeprom.c</title>
<polygon fill="white" stroke="none" points="-4,4 -4,-136 93,-136 93,4 -4,4"/>
<!-- Node1 -->
<g id="node1" class="node">
<title>Node1</title>
<g id="a_node1"><a xlink:title=" ">
<polygon fill="#bfbfbf" stroke="black" points="0,-112.5 0,-131.5 89,-131.5 89,-112.5 0,-112.5"/>
<text text-anchor="middle" x="44.5" y="-119.5" font-family="Fira Code" font-size="10.00">src/eeprom.c</text>
</a>
</g>
</g>
<!-- Node2 -->
<g id="node2" class="node">
<title>Node2</title>
<g id="a_node2"><a xlink:href="eeprom_8h.html" target="_top" xlink:title=" ">
<polygon fill="white" stroke="black" points="12,-56.5 12,-75.5 77,-75.5 77,-56.5 12,-56.5"/>
<text text-anchor="middle" x="44.5" y="-63.5" font-family="Fira Code" font-size="10.00">eeprom.h</text>
</a>
</g>
</g>
<!-- Node1&#45;&gt;Node2 -->
<g id="edge1" class="edge">
<title>Node1&#45;&gt;Node2</title>
<path fill="none" stroke="midnightblue" d="M44.5,-112.56C44.5,-105.63 44.5,-95.52 44.5,-86.59"/>
<polygon fill="midnightblue" stroke="midnightblue" points="48,-86.71 44.5,-76.71 41,-86.72 48,-86.71"/>
</g>
<!-- Node3 -->
<g id="node3" class="node">
<title>Node3</title>
<g id="a_node3"><a xlink:href="types_8h.html" target="_top" xlink:title=" ">
<polygon fill="white" stroke="black" points="15,-0.5 15,-19.5 74,-19.5 74,-0.5 15,-0.5"/>
<text text-anchor="middle" x="44.5" y="-7.5" font-family="Fira Code" font-size="10.00">types.h</text>
</a>
</g>
</g>
<!-- Node2&#45;&gt;Node3 -->
<g id="edge2" class="edge">
<title>Node2&#45;&gt;Node3</title>
<path fill="none" stroke="midnightblue" d="M44.5,-56.56C44.5,-49.63 44.5,-39.52 44.5,-30.59"/>
<polygon fill="midnightblue" stroke="midnightblue" points="48,-30.71 44.5,-20.71 41,-30.72 48,-30.71"/>
</g>
</g>
</svg>
