<?xml version="1.0" encoding="UTF-8" standalone="no"?>
<!DOCTYPE svg PUBLIC "-//W3C//DTD SVG 1.1//EN"
 "http://www.w3.org/Graphics/SVG/1.1/DTD/svg11.dtd">
<!-- Generated by graphviz version 7.0.0 (20221023.0053)
 -->
<!-- Title: src/fai.h Pages: 1 -->
<svg width="394pt" height="84pt"
 viewBox="0.00 0.00 394.00 84.00" xmlns="http://www.w3.org/2000/svg" xmlns:xlink="http://www.w3.org/1999/xlink">
<g id="graph0" class="graph" transform="scale(1 1) rotate(0) translate(4 80)">
<title>src/fai.h</title>
<polygon fill="white" stroke="none" points="-4,4 -4,-80 390,-80 390,4 -4,4"/>
<!-- Node1 -->
<g id="node1" class="node">
<title>Node1</title>
<g id="a_node1"><a xlink:title=" ">
<polygon fill="#bfbfbf" stroke="black" points="141,-56.5 141,-75.5 212,-75.5 212,-56.5 141,-56.5"/>
<text text-anchor="middle" x="176.5" y="-63.5" font-family="Fira Code" font-size="10.00">src/fai.h</text>
</a>
</g>
</g>
<!-- Node2 -->
<g id="node2" class="node">
<title>Node2</title>
<g id="a_node2"><a xlink:href="demo_8c.html" target="_top" xlink:title=" ">
<polygon fill="white" stroke="black" points="0,-0.5 0,-19.5 77,-19.5 77,-0.5 0,-0.5"/>
<text text-anchor="middle" x="38.5" y="-7.5" font-family="Fira Code" font-size="10.00">src/demo.c</text>
</a>
</g>
</g>
<!-- Node1&#45;&gt;Node2 -->
<g id="edge1" class="edge">
<title>Node1&#45;&gt;Node2</title>
<path fill="none" stroke="midnightblue" d="M144.47,-52.47C118.47,-42.29 82.54,-28.23 59.91,-19.38"/>
<polygon fill="midnightblue" stroke="midnightblue" points="142.94,-55.63 153.53,-56.01 145.49,-49.11 142.94,-55.63"/>
</g>
<!-- Node3 -->
<g id="node3" class="node">
<title>Node3</title>
<g id="a_node3"><a xlink:href="fai_8c.html" target="_top" xlink:title=" ">
<polygon fill="white" stroke="black" points="95,-0.5 95,-19.5 166,-19.5 166,-0.5 95,-0.5"/>
<text text-anchor="middle" x="130.5" y="-7.5" font-family="Fira Code" font-size="10.00">src/fai.c</text>
</a>
</g>
</g>
<!-- Node1&#45;&gt;Node3 -->
<g id="edge2" class="edge">
<title>Node1&#45;&gt;Node3</title>
<path fill="none" stroke="midnightblue" d="M161.88,-47.84C153.72,-38.26 143.94,-26.77 137.49,-19.2"/>
<polygon fill="midnightblue" stroke="midnightblue" points="159.18,-50.07 168.33,-55.41 164.51,-45.53 159.18,-50.07"/>
</g>
<!-- Node4 -->
<g id="node4" class="node">
<title>Node4</title>
<g id="a_node4"><a xlink:href="main_8c.html" target="_top" xlink:title=" ">
<polygon fill="white" stroke="black" points="184,-0.5 184,-19.5 261,-19.5 261,-0.5 184,-0.5"/>
<text text-anchor="middle" x="222.5" y="-7.5" font-family="Fira Code" font-size="10.00">src/main.c</text>
</a>
</g>
</g>
<!-- Node1&#45;&gt;Node4 -->
<g id="edge3" class="edge">
<title>Node1&#45;&gt;Node4</title>
<path fill="none" stroke="midnightblue" d="M191.12,-47.84C199.28,-38.26 209.06,-26.77 215.51,-19.2"/>
<polygon fill="midnightblue" stroke="midnightblue" points="188.49,-45.53 184.67,-55.41 193.82,-50.07 188.49,-45.53"/>
</g>
<!-- Node5 -->
<g id="node5" class="node">
<title>Node5</title>
<g id="a_node5"><a xlink:href="scheduler_8c.html" target="_top" xlink:title=" ">
<polygon fill="white" stroke="black" points="279,-0.5 279,-19.5 386,-19.5 386,-0.5 279,-0.5"/>
<text text-anchor="middle" x="332.5" y="-7.5" font-family="Fira Code" font-size="10.00">src/scheduler.c</text>
</a>
</g>
</g>
<!-- Node1&#45;&gt;Node5 -->
<g id="edge4" class="edge">
<title>Node1&#45;&gt;Node5</title>
<path fill="none" stroke="midnightblue" d="M211.5,-52.89C240.88,-42.72 282.09,-28.45 308.04,-19.47"/>
<polygon fill="midnightblue" stroke="midnightblue" points="210.61,-49.49 202.31,-56.07 212.9,-56.1 210.61,-49.49"/>
</g>
</g>
</svg>
