<?xml version="1.0" encoding="UTF-8" standalone="no"?>
<!DOCTYPE svg PUBLIC "-//W3C//DTD SVG 1.1//EN"
 "http://www.w3.org/Graphics/SVG/1.1/DTD/svg11.dtd">
<!-- Generated by graphviz version 7.0.0 (20221023.0053)
 -->
<!-- Title: fai_fault_reporter Pages: 1 -->
<svg width="306pt" height="46pt"
 viewBox="0.00 0.00 306.00 46.00" xmlns="http://www.w3.org/2000/svg" xmlns:xlink="http://www.w3.org/1999/xlink">
<g id="graph0" class="graph" transform="scale(1 1) rotate(0) translate(4 42)">
<title>fai_fault_reporter</title>
<polygon fill="white" stroke="none" points="-4,4 -4,-42 302,-42 302,4 -4,4"/>
<!-- Node1 -->
<g id="node1" class="node">
<title>Node1</title>
<g id="a_node1"><a xlink:title=" ">
<polygon fill="#bfbfbf" stroke="black" points="0,-0.5 0,-19.5 125,-19.5 125,-0.5 0,-0.5"/>
<text text-anchor="middle" x="62.5" y="-7.5" font-family="Fira Code" font-size="10.00">fai_fault_reporter</text>
</a>
</g>
</g>
<!-- Node2 -->
<g id="node2" class="node">
<title>Node2</title>
<g id="a_node2"><a xlink:href="fai_8c.html#a5775f4722e53f8e7ac05a0ef6530dee2" target="_top" xlink:title=" ">
<polygon fill="white" stroke="black" points="161,-0.5 161,-19.5 298,-19.5 298,-0.5 161,-0.5"/>
<text text-anchor="middle" x="229.5" y="-7.5" font-family="Fira Code" font-size="10.00">fai_pass_fail_logger</text>
</a>
</g>
</g>
<!-- Node1&#45;&gt;Node2 -->
<g id="edge1" class="edge">
<title>Node1&#45;&gt;Node2</title>
<path fill="none" stroke="midnightblue" d="M124.94,-10C133.07,-10 141.48,-10 149.85,-10"/>
<polygon fill="midnightblue" stroke="midnightblue" points="149.68,-13.5 159.68,-10 149.68,-6.5 149.68,-13.5"/>
</g>
<!-- Node2&#45;&gt;Node2 -->
<g id="edge2" class="edge">
<title>Node2&#45;&gt;Node2</title>
<path fill="none" stroke="midnightblue" d="M204.18,-19.47C191.05,-28.36 199.49,-38 229.5,-38 248.25,-38 258.58,-34.23 260.49,-29.24"/>
<polygon fill="midnightblue" stroke="midnightblue" points="263.63,-27.67 255.58,-20.78 257.57,-31.18 263.63,-27.67"/>
</g>
</g>
</svg>
