<?xml version="1.0" encoding="UTF-8" standalone="no"?>
<!DOCTYPE svg PUBLIC "-//W3C//DTD SVG 1.1//EN"
 "http://www.w3.org/Graphics/SVG/1.1/DTD/svg11.dtd">
<!-- Generated by graphviz version 7.0.0 (20221023.0053)
 -->
<!-- Title: fai_pass_fail_logger Pages: 1 -->
<svg width="306pt" height="104pt"
 viewBox="0.00 0.00 306.00 104.00" xmlns="http://www.w3.org/2000/svg" xmlns:xlink="http://www.w3.org/1999/xlink">
<g id="graph0" class="graph" transform="scale(1 1) rotate(0) translate(4 100)">
<title>fai_pass_fail_logger</title>
<polygon fill="white" stroke="none" points="-4,4 -4,-100 302,-100 302,4 -4,4"/>
<!-- Node1 -->
<g id="node1" class="node">
<title>Node1</title>
<g id="a_node1"><a xlink:title=" ">
<polygon fill="#bfbfbf" stroke="black" points="161,-38.5 161,-57.5 298,-57.5 298,-38.5 161,-38.5"/>
<text text-anchor="middle" x="229.5" y="-45.5" font-family="Fira Code" font-size="10.00">fai_pass_fail_logger</text>
</a>
</g>
</g>
<!-- Node1&#45;&gt;Node1 -->
<g id="edge2" class="edge">
<title>Node1&#45;&gt;Node1</title>
<path fill="none" stroke="midnightblue" d="M260.49,-67.24C258.58,-72.23 248.25,-76 229.5,-76 199.49,-76 191.05,-66.36 204.18,-57.47"/>
<polygon fill="midnightblue" stroke="midnightblue" points="263.63,-65.67 255.58,-58.78 257.57,-69.18 263.63,-65.67"/>
</g>
<!-- Node2 -->
<g id="node2" class="node">
<title>Node2</title>
<g id="a_node2"><a xlink:href="fai_8c.html#a79389e80bc144b2708c2ad8f97495daf" target="_top" xlink:title=" ">
<polygon fill="white" stroke="black" points="0,-76.5 0,-95.5 125,-95.5 125,-76.5 0,-76.5"/>
<text text-anchor="middle" x="62.5" y="-83.5" font-family="Fira Code" font-size="10.00">fai_fault_reporter</text>
</a>
</g>
</g>
<!-- Node1&#45;&gt;Node2 -->
<g id="edge1" class="edge">
<title>Node1&#45;&gt;Node2</title>
<path fill="none" stroke="midnightblue" d="M176.24,-60.03C153.06,-65.37 126.17,-71.57 104.47,-76.56"/>
<polygon fill="midnightblue" stroke="midnightblue" points="176.85,-63.49 185.81,-57.83 175.28,-56.66 176.85,-63.49"/>
</g>
<!-- Node3 -->
<g id="node3" class="node">
<title>Node3</title>
<g id="a_node3"><a xlink:href="demo_8c.html#ab020e52284652b4784b684576f4f38a3" target="_top" xlink:title=" ">
<polygon fill="white" stroke="black" points="18,-38.5 18,-57.5 107,-57.5 107,-38.5 18,-38.5"/>
<text text-anchor="middle" x="62.5" y="-45.5" font-family="Fira Code" font-size="10.00">task_demo_rx</text>
</a>
</g>
</g>
<!-- Node1&#45;&gt;Node3 -->
<g id="edge3" class="edge">
<title>Node1&#45;&gt;Node3</title>
<path fill="none" stroke="midnightblue" d="M150.09,-48C135.23,-48 120.19,-48 106.91,-48"/>
<polygon fill="midnightblue" stroke="midnightblue" points="149.87,-51.5 159.87,-48 149.87,-44.5 149.87,-51.5"/>
</g>
<!-- Node4 -->
<g id="node4" class="node">
<title>Node4</title>
<g id="a_node4"><a xlink:href="demo_8c.html#a8489006a8001195d03aacab850866e28" target="_top" xlink:title=" ">
<polygon fill="white" stroke="black" points="18,-0.5 18,-19.5 107,-19.5 107,-0.5 18,-0.5"/>
<text text-anchor="middle" x="62.5" y="-7.5" font-family="Fira Code" font-size="10.00">task_demo_tx</text>
</a>
</g>
</g>
<!-- Node1&#45;&gt;Node4 -->
<g id="edge4" class="edge">
<title>Node1&#45;&gt;Node4</title>
<path fill="none" stroke="midnightblue" d="M176.24,-35.97C153.06,-30.63 126.17,-24.43 104.47,-19.44"/>
<polygon fill="midnightblue" stroke="midnightblue" points="175.28,-39.34 185.81,-38.17 176.85,-32.51 175.28,-39.34"/>
</g>
</g>
</svg>
