<?xml version="1.0" encoding="UTF-8" standalone="no"?>
<!DOCTYPE svg PUBLIC "-//W3C//DTD SVG 1.1//EN"
 "http://www.w3.org/Graphics/SVG/1.1/DTD/svg11.dtd">
<!-- Generated by graphviz version 7.0.0 (20221023.0053)
 -->
<!-- Title: fai_clear_faults Pages: 1 -->
<svg width="401pt" height="66pt"
 viewBox="0.00 0.00 401.00 66.00" xmlns="http://www.w3.org/2000/svg" xmlns:xlink="http://www.w3.org/1999/xlink">
<g id="graph0" class="graph" transform="scale(1 1) rotate(0) translate(4 62)">
<title>fai_clear_faults</title>
<polygon fill="white" stroke="none" points="-4,4 -4,-62 397,-62 397,4 -4,4"/>
<!-- Node1 -->
<g id="node1" class="node">
<title>Node1</title>
<g id="a_node1"><a xlink:title=" ">
<polygon fill="#bfbfbf" stroke="black" points="0,-19.5 0,-38.5 113,-38.5 113,-19.5 0,-19.5"/>
<text text-anchor="middle" x="56.5" y="-26.5" font-family="Fira Code" font-size="10.00">fai_clear_faults</text>
</a>
</g>
</g>
<!-- Node2 -->
<g id="node2" class="node">
<title>Node2</title>
<g id="a_node2"><a xlink:href="eeprom_8c.html#aa6b3892d9672074cfd105e6596e617c0" target="_top" xlink:title=" ">
<polygon fill="white" stroke="black" points="149,-38.5 149,-57.5 238,-57.5 238,-38.5 149,-38.5"/>
<text text-anchor="middle" x="193.5" y="-45.5" font-family="Fira Code" font-size="10.00">eeprom_erase</text>
</a>
</g>
</g>
<!-- Node1&#45;&gt;Node2 -->
<g id="edge1" class="edge">
<title>Node1&#45;&gt;Node2</title>
<path fill="none" stroke="midnightblue" d="M112.8,-36.78C121.01,-37.94 129.48,-39.13 137.69,-40.29"/>
<polygon fill="midnightblue" stroke="midnightblue" points="137.17,-43.75 147.56,-41.68 138.15,-36.82 137.17,-43.75"/>
</g>
<!-- Node4 -->
<g id="node4" class="node">
<title>Node4</title>
<g id="a_node4"><a xlink:href="memory_8c.html#a9fb36233ae05e7fd6c0d74f3380b52ea" target="_top" xlink:title=" ">
<polygon fill="white" stroke="black" points="149,-0.5 149,-19.5 238,-19.5 238,-0.5 149,-0.5"/>
<text text-anchor="middle" x="193.5" y="-7.5" font-family="Fira Code" font-size="10.00">memset_by_U8</text>
</a>
</g>
</g>
<!-- Node1&#45;&gt;Node4 -->
<g id="edge3" class="edge">
<title>Node1&#45;&gt;Node4</title>
<path fill="none" stroke="midnightblue" d="M112.8,-21.22C121.01,-20.06 129.48,-18.87 137.69,-17.71"/>
<polygon fill="midnightblue" stroke="midnightblue" points="138.15,-21.18 147.56,-16.32 137.17,-14.25 138.15,-21.18"/>
</g>
<!-- Node3 -->
<g id="node3" class="node">
<title>Node3</title>
<g id="a_node3"><a xlink:href="atm328p__eeprom_8c.html#a7e027b0b673727aeeefe77b1a474e2bc" target="_top" xlink:title=" ">
<polygon fill="white" stroke="black" points="274,-38.5 274,-57.5 393,-57.5 393,-38.5 274,-38.5"/>
<text text-anchor="middle" x="333.5" y="-45.5" font-family="Fira Code" font-size="10.00">eeprom_erase_byte</text>
</a>
</g>
</g>
<!-- Node2&#45;&gt;Node3 -->
<g id="edge2" class="edge">
<title>Node2&#45;&gt;Node3</title>
<path fill="none" stroke="midnightblue" d="M237.79,-48C245.81,-48 254.38,-48 262.95,-48"/>
<polygon fill="midnightblue" stroke="midnightblue" points="262.68,-51.5 272.68,-48 262.68,-44.5 262.68,-51.5"/>
</g>
</g>
</svg>
