<?xml version="1.0" encoding="UTF-8" standalone="no"?>
<!DOCTYPE svg PUBLIC "-//W3C//DTD SVG 1.1//EN"
 "http://www.w3.org/Graphics/SVG/1.1/DTD/svg11.dtd">
<!-- Generated by graphviz version 7.0.0 (20221023.0053)
 -->
<!-- Title: src/fai.c Pages: 1 -->
<svg width="221pt" height="140pt"
 viewBox="0.00 0.00 221.00 140.00" xmlns="http://www.w3.org/2000/svg" xmlns:xlink="http://www.w3.org/1999/xlink">
<g id="graph0" class="graph" transform="scale(1 1) rotate(0) translate(4 136)">
<title>src/fai.c</title>
<polygon fill="white" stroke="none" points="-4,4 -4,-136 217,-136 217,4 -4,4"/>
<!-- Node1 -->
<g id="node1" class="node">
<title>Node1</title>
<g id="a_node1"><a xlink:title=" ">
<polygon fill="#bfbfbf" stroke="black" points="62,-112.5 62,-131.5 133,-131.5 133,-112.5 62,-112.5"/>
<text text-anchor="middle" x="97.5" y="-119.5" font-family="Fira Code" font-size="10.00">src/fai.c</text>
</a>
</g>
</g>
<!-- Node2 -->
<g id="node2" class="node">
<title>Node2</title>
<g id="a_node2"><a xlink:href="fai_8h.html" target="_top" xlink:title=" ">
<polygon fill="white" stroke="black" points="0,-56.5 0,-75.5 47,-75.5 47,-56.5 0,-56.5"/>
<text text-anchor="middle" x="23.5" y="-63.5" font-family="Fira Code" font-size="10.00">fai.h</text>
</a>
</g>
</g>
<!-- Node1&#45;&gt;Node2 -->
<g id="edge1" class="edge">
<title>Node1&#45;&gt;Node2</title>
<path fill="none" stroke="midnightblue" d="M85.94,-112.56C74.69,-104.35 57.35,-91.7 43.8,-81.81"/>
<polygon fill="midnightblue" stroke="midnightblue" points="46.1,-79.16 35.96,-76.09 41.98,-84.82 46.1,-79.16"/>
</g>
<!-- Node4 -->
<g id="node4" class="node">
<title>Node4</title>
<g id="a_node4"><a xlink:href="eeprom_8h.html" target="_top" xlink:title=" ">
<polygon fill="white" stroke="black" points="65,-56.5 65,-75.5 130,-75.5 130,-56.5 65,-56.5"/>
<text text-anchor="middle" x="97.5" y="-63.5" font-family="Fira Code" font-size="10.00">eeprom.h</text>
</a>
</g>
</g>
<!-- Node1&#45;&gt;Node4 -->
<g id="edge3" class="edge">
<title>Node1&#45;&gt;Node4</title>
<path fill="none" stroke="midnightblue" d="M97.5,-112.56C97.5,-105.63 97.5,-95.52 97.5,-86.59"/>
<polygon fill="midnightblue" stroke="midnightblue" points="101,-86.71 97.5,-76.71 94,-86.72 101,-86.71"/>
</g>
<!-- Node5 -->
<g id="node5" class="node">
<title>Node5</title>
<g id="a_node5"><a xlink:href="memory_8h.html" target="_top" xlink:title=" ">
<polygon fill="white" stroke="black" points="148,-56.5 148,-75.5 213,-75.5 213,-56.5 148,-56.5"/>
<text text-anchor="middle" x="180.5" y="-63.5" font-family="Fira Code" font-size="10.00">memory.h</text>
</a>
</g>
</g>
<!-- Node1&#45;&gt;Node5 -->
<g id="edge5" class="edge">
<title>Node1&#45;&gt;Node5</title>
<path fill="none" stroke="midnightblue" d="M110.47,-112.56C123.26,-104.24 143.06,-91.36 158.35,-81.41"/>
<polygon fill="midnightblue" stroke="midnightblue" points="159.88,-84.59 166.35,-76.2 156.06,-78.72 159.88,-84.59"/>
</g>
<!-- Node3 -->
<g id="node3" class="node">
<title>Node3</title>
<g id="a_node3"><a xlink:href="types_8h.html" target="_top" xlink:title=" ">
<polygon fill="white" stroke="black" points="68,-0.5 68,-19.5 127,-19.5 127,-0.5 68,-0.5"/>
<text text-anchor="middle" x="97.5" y="-7.5" font-family="Fira Code" font-size="10.00">types.h</text>
</a>
</g>
</g>
<!-- Node2&#45;&gt;Node3 -->
<g id="edge2" class="edge">
<title>Node2&#45;&gt;Node3</title>
<path fill="none" stroke="midnightblue" d="M35.06,-56.56C46.31,-48.35 63.65,-35.7 77.2,-25.81"/>
<polygon fill="midnightblue" stroke="midnightblue" points="79.02,-28.82 85.04,-20.09 74.9,-23.16 79.02,-28.82"/>
</g>
<!-- Node4&#45;&gt;Node3 -->
<g id="edge4" class="edge">
<title>Node4&#45;&gt;Node3</title>
<path fill="none" stroke="midnightblue" d="M97.5,-56.56C97.5,-49.63 97.5,-39.52 97.5,-30.59"/>
<polygon fill="midnightblue" stroke="midnightblue" points="101,-30.71 97.5,-20.71 94,-30.72 101,-30.71"/>
</g>
<!-- Node5&#45;&gt;Node3 -->
<g id="edge6" class="edge">
<title>Node5&#45;&gt;Node3</title>
<path fill="none" stroke="midnightblue" d="M167.53,-56.56C154.74,-48.24 134.94,-35.36 119.65,-25.41"/>
<polygon fill="midnightblue" stroke="midnightblue" points="121.94,-22.72 111.65,-20.2 118.12,-28.59 121.94,-22.72"/>
</g>
</g>
</svg>
