<?xml version="1.0" encoding="UTF-8" standalone="no"?>
<!DOCTYPE svg PUBLIC "-//W3C//DTD SVG 1.1//EN"
 "http://www.w3.org/Graphics/SVG/1.1/DTD/svg11.dtd">
<!-- Generated by graphviz version 7.0.0 (20221023.0053)
 -->
<!-- Title: fifo_q_init Pages: 1 -->
<svg width="269pt" height="28pt"
 viewBox="0.00 0.00 269.00 28.00" xmlns="http://www.w3.org/2000/svg" xmlns:xlink="http://www.w3.org/1999/xlink">
<g id="graph0" class="graph" transform="scale(1 1) rotate(0) translate(4 24)">
<title>fifo_q_init</title>
<polygon fill="white" stroke="none" points="-4,4 -4,-24 265,-24 265,4 -4,4"/>
<!-- Node1 -->
<g id="node1" class="node">
<title>Node1</title>
<g id="a_node1"><a xlink:title=" ">
<polygon fill="#bfbfbf" stroke="black" points="178,-0.5 178,-19.5 261,-19.5 261,-0.5 178,-0.5"/>
<text text-anchor="middle" x="219.5" y="-7.5" font-family="Fira Code" font-size="10.00">fifo_q_init</text>
</a>
</g>
</g>
<!-- Node2 -->
<g id="node2" class="node">
<title>Node2</title>
<g id="a_node2"><a xlink:href="can_8c.html#ac7781a37ca14c5bf42c4fe9de1f4daa8" target="_top" xlink:title=" ">
<polygon fill="white" stroke="black" points="77,-0.5 77,-19.5 142,-19.5 142,-0.5 77,-0.5"/>
<text text-anchor="middle" x="109.5" y="-7.5" font-family="Fira Code" font-size="10.00">can_init</text>
</a>
</g>
</g>
<!-- Node1&#45;&gt;Node2 -->
<g id="edge1" class="edge">
<title>Node1&#45;&gt;Node2</title>
<path fill="none" stroke="midnightblue" d="M166.83,-10C158.34,-10 149.78,-10 141.97,-10"/>
<polygon fill="midnightblue" stroke="midnightblue" points="166.77,-13.5 176.77,-10 166.77,-6.5 166.77,-13.5"/>
</g>
<!-- Node3 -->
<g id="node3" class="node">
<title>Node3</title>
<g id="a_node3"><a xlink:href="main_8c.html#a06213d4df6a69a484bbec6698135cb14" target="_top" xlink:title=" ">
<polygon fill="white" stroke="black" points="0,-0.5 0,-19.5 41,-19.5 41,-0.5 0,-0.5"/>
<text text-anchor="middle" x="20.5" y="-7.5" font-family="Fira Code" font-size="10.00">main</text>
</a>
</g>
</g>
<!-- Node2&#45;&gt;Node3 -->
<g id="edge2" class="edge">
<title>Node2&#45;&gt;Node3</title>
<path fill="none" stroke="midnightblue" d="M65.8,-10C57.1,-10 48.36,-10 40.97,-10"/>
<polygon fill="midnightblue" stroke="midnightblue" points="65.58,-13.5 75.58,-10 65.58,-6.5 65.58,-13.5"/>
</g>
</g>
</svg>
