<?xml version="1.0" encoding="UTF-8" standalone="no"?>
<!DOCTYPE svg PUBLIC "-//W3C//DTD SVG 1.1//EN"
 "http://www.w3.org/Graphics/SVG/1.1/DTD/svg11.dtd">
<!-- Generated by graphviz version 7.0.0 (20221023.0053)
 -->
<!-- Title: fifo_q_add Pages: 1 -->
<svg width="335pt" height="28pt"
 viewBox="0.00 0.00 335.00 28.00" xmlns="http://www.w3.org/2000/svg" xmlns:xlink="http://www.w3.org/1999/xlink">
<g id="graph0" class="graph" transform="scale(1 1) rotate(0) translate(4 24)">
<title>fifo_q_add</title>
<polygon fill="white" stroke="none" points="-4,4 -4,-24 331,-24 331,4 -4,4"/>
<!-- Node1 -->
<g id="node1" class="node">
<title>Node1</title>
<g id="a_node1"><a xlink:title=" ">
<polygon fill="#bfbfbf" stroke="black" points="250,-0.5 250,-19.5 327,-19.5 327,-0.5 250,-0.5"/>
<text text-anchor="middle" x="288.5" y="-7.5" font-family="Fira Code" font-size="10.00">fifo_q_add</text>
</a>
</g>
</g>
<!-- Node2 -->
<g id="node2" class="node">
<title>Node2</title>
<g id="a_node2"><a xlink:href="can_8c.html#a8684cbb2f82c53705820ad7785972ded" target="_top" xlink:title=" ">
<polygon fill="white" stroke="black" points="125,-0.5 125,-19.5 214,-19.5 214,-0.5 125,-0.5"/>
<text text-anchor="middle" x="169.5" y="-7.5" font-family="Fira Code" font-size="10.00">can_tx_q_add</text>
</a>
</g>
</g>
<!-- Node1&#45;&gt;Node2 -->
<g id="edge1" class="edge">
<title>Node1&#45;&gt;Node2</title>
<path fill="none" stroke="midnightblue" d="M238.65,-10C230.34,-10 221.75,-10 213.6,-10"/>
<polygon fill="midnightblue" stroke="midnightblue" points="238.65,-13.5 248.65,-10 238.65,-6.5 238.65,-13.5"/>
</g>
<!-- Node3 -->
<g id="node3" class="node">
<title>Node3</title>
<g id="a_node3"><a xlink:href="demo_8c.html#a8489006a8001195d03aacab850866e28" target="_top" xlink:title=" ">
<polygon fill="white" stroke="black" points="0,-0.5 0,-19.5 89,-19.5 89,-0.5 0,-0.5"/>
<text text-anchor="middle" x="44.5" y="-7.5" font-family="Fira Code" font-size="10.00">task_demo_tx</text>
</a>
</g>
</g>
<!-- Node2&#45;&gt;Node3 -->
<g id="edge2" class="edge">
<title>Node2&#45;&gt;Node3</title>
<path fill="none" stroke="midnightblue" d="M113.89,-10C105.52,-10 96.97,-10 88.89,-10"/>
<polygon fill="midnightblue" stroke="midnightblue" points="113.62,-13.5 123.62,-10 113.62,-6.5 113.62,-13.5"/>
</g>
</g>
</svg>
