<?xml version="1.0" encoding="UTF-8" standalone="no"?>
<!DOCTYPE svg PUBLIC "-//W3C//DTD SVG 1.1//EN"
 "http://www.w3.org/Graphics/SVG/1.1/DTD/svg11.dtd">
<!-- Generated by graphviz version 7.0.0 (20221023.0053)
 -->
<!-- Title: fifo_q_remove Pages: 1 -->
<svg width="371pt" height="66pt"
 viewBox="0.00 0.00 371.00 66.00" xmlns="http://www.w3.org/2000/svg" xmlns:xlink="http://www.w3.org/1999/xlink">
<g id="graph0" class="graph" transform="scale(1 1) rotate(0) translate(4 62)">
<title>fifo_q_remove</title>
<polygon fill="white" stroke="none" points="-4,4 -4,-62 367,-62 367,4 -4,4"/>
<!-- Node1 -->
<g id="node1" class="node">
<title>Node1</title>
<g id="a_node1"><a xlink:title=" ">
<polygon fill="#bfbfbf" stroke="black" points="268,-19.5 268,-38.5 363,-38.5 363,-19.5 268,-19.5"/>
<text text-anchor="middle" x="315.5" y="-26.5" font-family="Fira Code" font-size="10.00">fifo_q_remove</text>
</a>
</g>
</g>
<!-- Node2 -->
<g id="node2" class="node">
<title>Node2</title>
<g id="a_node2"><a xlink:href="can_8c.html#aa64b834bf8ac23eb4ee242af8b1edb3c" target="_top" xlink:title=" ">
<polygon fill="white" stroke="black" points="125,-38.5 125,-57.5 232,-57.5 232,-38.5 125,-38.5"/>
<text text-anchor="middle" x="178.5" y="-45.5" font-family="Fira Code" font-size="10.00">can_rx_q_remove</text>
</a>
</g>
</g>
<!-- Node1&#45;&gt;Node2 -->
<g id="edge1" class="edge">
<title>Node1&#45;&gt;Node2</title>
<path fill="none" stroke="midnightblue" d="M256.8,-37.12C248.43,-38.3 239.85,-39.51 231.6,-40.67"/>
<polygon fill="midnightblue" stroke="midnightblue" points="257.13,-40.61 266.54,-35.75 256.15,-33.68 257.13,-40.61"/>
</g>
<!-- Node4 -->
<g id="node4" class="node">
<title>Node4</title>
<g id="a_node4"><a xlink:href="can_8c.html#a3f67e8b772017b4dd4a9a1c9eaa6c03e" target="_top" xlink:title=" ">
<polygon fill="white" stroke="black" points="137,-0.5 137,-19.5 220,-19.5 220,-0.5 137,-0.5"/>
<text text-anchor="middle" x="178.5" y="-7.5" font-family="Fira Code" font-size="10.00">task_can_tx</text>
</a>
</g>
</g>
<!-- Node1&#45;&gt;Node4 -->
<g id="edge3" class="edge">
<title>Node1&#45;&gt;Node4</title>
<path fill="none" stroke="midnightblue" d="M256.77,-20.87C244.29,-19.12 231.37,-17.3 219.74,-15.66"/>
<polygon fill="midnightblue" stroke="midnightblue" points="256.15,-24.32 266.54,-22.25 257.13,-17.39 256.15,-24.32"/>
</g>
<!-- Node3 -->
<g id="node3" class="node">
<title>Node3</title>
<g id="a_node3"><a xlink:href="demo_8c.html#ab020e52284652b4784b684576f4f38a3" target="_top" xlink:title=" ">
<polygon fill="white" stroke="black" points="0,-38.5 0,-57.5 89,-57.5 89,-38.5 0,-38.5"/>
<text text-anchor="middle" x="44.5" y="-45.5" font-family="Fira Code" font-size="10.00">task_demo_rx</text>
</a>
</g>
</g>
<!-- Node2&#45;&gt;Node3 -->
<g id="edge2" class="edge">
<title>Node2&#45;&gt;Node3</title>
<path fill="none" stroke="midnightblue" d="M113.84,-48C105.36,-48 96.82,-48 88.79,-48"/>
<polygon fill="midnightblue" stroke="midnightblue" points="113.82,-51.5 123.82,-48 113.82,-44.5 113.82,-51.5"/>
</g>
</g>
</svg>
