<?xml version="1.0" encoding="UTF-8" standalone="no"?>
<!DOCTYPE svg PUBLIC "-//W3C//DTD SVG 1.1//EN"
 "http://www.w3.org/Graphics/SVG/1.1/DTD/svg11.dtd">
<!-- Generated by graphviz version 7.0.0 (20221023.0053)
 -->
<!-- Title: src/fifo.c Pages: 1 -->
<svg width="144pt" height="140pt"
 viewBox="0.00 0.00 144.00 140.00" xmlns="http://www.w3.org/2000/svg" xmlns:xlink="http://www.w3.org/1999/xlink">
<g id="graph0" class="graph" transform="scale(1 1) rotate(0) translate(4 136)">
<title>src/fifo.c</title>
<polygon fill="white" stroke="none" points="-4,4 -4,-136 140,-136 140,4 -4,4"/>
<!-- Node1 -->
<g id="node1" class="node">
<title>Node1</title>
<g id="a_node1"><a xlink:title=" ">
<polygon fill="#bfbfbf" stroke="black" points="26,-112.5 26,-131.5 103,-131.5 103,-112.5 26,-112.5"/>
<text text-anchor="middle" x="64.5" y="-119.5" font-family="Fira Code" font-size="10.00">src/fifo.c</text>
</a>
</g>
</g>
<!-- Node2 -->
<g id="node2" class="node">
<title>Node2</title>
<g id="a_node2"><a xlink:href="fifo_8h.html" target="_top" xlink:title=" ">
<polygon fill="white" stroke="black" points="0,-56.5 0,-75.5 53,-75.5 53,-56.5 0,-56.5"/>
<text text-anchor="middle" x="26.5" y="-63.5" font-family="Fira Code" font-size="10.00">fifo.h</text>
</a>
</g>
</g>
<!-- Node1&#45;&gt;Node2 -->
<g id="edge1" class="edge">
<title>Node1&#45;&gt;Node2</title>
<path fill="none" stroke="midnightblue" d="M58.56,-112.56C53.29,-105.07 45.41,-93.88 38.79,-84.46"/>
<polygon fill="midnightblue" stroke="midnightblue" points="41.76,-82.6 33.14,-76.44 36.04,-86.63 41.76,-82.6"/>
</g>
<!-- Node4 -->
<g id="node4" class="node">
<title>Node4</title>
<g id="a_node4"><a xlink:href="memory_8h.html" target="_top" xlink:title=" ">
<polygon fill="white" stroke="black" points="71,-56.5 71,-75.5 136,-75.5 136,-56.5 71,-56.5"/>
<text text-anchor="middle" x="103.5" y="-63.5" font-family="Fira Code" font-size="10.00">memory.h</text>
</a>
</g>
</g>
<!-- Node1&#45;&gt;Node4 -->
<g id="edge3" class="edge">
<title>Node1&#45;&gt;Node4</title>
<path fill="none" stroke="midnightblue" d="M70.59,-112.56C76.01,-105.07 84.09,-93.88 90.89,-84.46"/>
<polygon fill="midnightblue" stroke="midnightblue" points="93.67,-86.58 96.69,-76.43 88,-82.49 93.67,-86.58"/>
</g>
<!-- Node3 -->
<g id="node3" class="node">
<title>Node3</title>
<g id="a_node3"><a xlink:href="types_8h.html" target="_top" xlink:title=" ">
<polygon fill="white" stroke="black" points="35,-0.5 35,-19.5 94,-19.5 94,-0.5 35,-0.5"/>
<text text-anchor="middle" x="64.5" y="-7.5" font-family="Fira Code" font-size="10.00">types.h</text>
</a>
</g>
</g>
<!-- Node2&#45;&gt;Node3 -->
<g id="edge2" class="edge">
<title>Node2&#45;&gt;Node3</title>
<path fill="none" stroke="midnightblue" d="M32.44,-56.56C37.71,-49.07 45.59,-37.88 52.21,-28.46"/>
<polygon fill="midnightblue" stroke="midnightblue" points="54.96,-30.63 57.86,-20.44 49.24,-26.6 54.96,-30.63"/>
</g>
<!-- Node4&#45;&gt;Node3 -->
<g id="edge4" class="edge">
<title>Node4&#45;&gt;Node3</title>
<path fill="none" stroke="midnightblue" d="M97.41,-56.56C91.99,-49.07 83.91,-37.88 77.11,-28.46"/>
<polygon fill="midnightblue" stroke="midnightblue" points="80,-26.49 71.31,-20.43 74.33,-30.58 80,-26.49"/>
</g>
</g>
</svg>
