<?xml version="1.0" encoding="UTF-8" standalone="no"?>
<!DOCTYPE svg PUBLIC "-//W3C//DTD SVG 1.1//EN"
 "http://www.w3.org/Graphics/SVG/1.1/DTD/svg11.dtd">
<!-- Generated by graphviz version 7.0.0 (20221023.0053)
 -->
<!-- Title: src/fifo.h Pages: 1 -->
<svg width="394pt" height="140pt"
 viewBox="0.00 0.00 394.00 140.00" xmlns="http://www.w3.org/2000/svg" xmlns:xlink="http://www.w3.org/1999/xlink">
<g id="graph0" class="graph" transform="scale(1 1) rotate(0) translate(4 136)">
<title>src/fifo.h</title>
<polygon fill="white" stroke="none" points="-4,4 -4,-136 390,-136 390,4 -4,4"/>
<!-- Node1 -->
<g id="node1" class="node">
<title>Node1</title>
<g id="a_node1"><a xlink:title=" ">
<polygon fill="#bfbfbf" stroke="black" points="107,-112.5 107,-131.5 184,-131.5 184,-112.5 107,-112.5"/>
<text text-anchor="middle" x="145.5" y="-119.5" font-family="Fira Code" font-size="10.00">src/fifo.h</text>
</a>
</g>
</g>
<!-- Node2 -->
<g id="node2" class="node">
<title>Node2</title>
<g id="a_node2"><a xlink:href="can_8c.html" target="_top" xlink:title=" ">
<polygon fill="white" stroke="black" points="0,-0.5 0,-19.5 71,-19.5 71,-0.5 0,-0.5"/>
<text text-anchor="middle" x="35.5" y="-7.5" font-family="Fira Code" font-size="10.00">src/can.c</text>
</a>
</g>
</g>
<!-- Node1&#45;&gt;Node2 -->
<g id="edge1" class="edge">
<title>Node1&#45;&gt;Node2</title>
<path fill="none" stroke="midnightblue" d="M129.16,-104.66C105.36,-80.86 62.03,-37.53 43.86,-19.36"/>
<polygon fill="midnightblue" stroke="midnightblue" points="126.62,-107.07 136.16,-111.66 131.57,-102.12 126.62,-107.07"/>
</g>
<!-- Node3 -->
<g id="node3" class="node">
<title>Node3</title>
<g id="a_node3"><a xlink:href="can_8h.html" target="_top" xlink:title=" ">
<polygon fill="white" stroke="black" points="142,-56.5 142,-75.5 213,-75.5 213,-56.5 142,-56.5"/>
<text text-anchor="middle" x="177.5" y="-63.5" font-family="Fira Code" font-size="10.00">src/can.h</text>
</a>
</g>
</g>
<!-- Node1&#45;&gt;Node3 -->
<g id="edge2" class="edge">
<title>Node1&#45;&gt;Node3</title>
<path fill="none" stroke="midnightblue" d="M156.2,-102.94C161.77,-93.55 168.29,-82.54 172.64,-75.2"/>
<polygon fill="midnightblue" stroke="midnightblue" points="153.36,-100.87 151.27,-111.26 159.38,-104.44 153.36,-100.87"/>
</g>
<!-- Node4 -->
<g id="node4" class="node">
<title>Node4</title>
<g id="a_node4"><a xlink:href="demo_8c.html" target="_top" xlink:title=" ">
<polygon fill="white" stroke="black" points="89,-0.5 89,-19.5 166,-19.5 166,-0.5 89,-0.5"/>
<text text-anchor="middle" x="127.5" y="-7.5" font-family="Fira Code" font-size="10.00">src/demo.c</text>
</a>
</g>
</g>
<!-- Node1&#45;&gt;Node4 -->
<g id="edge7" class="edge">
<title>Node1&#45;&gt;Node4</title>
<path fill="none" stroke="midnightblue" d="M139.12,-102.13C136.66,-94.16 134.08,-84.71 132.5,-76 128.87,-55.95 127.87,-31.96 127.6,-19.48"/>
<polygon fill="midnightblue" stroke="midnightblue" points="135.71,-102.96 142.12,-111.39 142.36,-100.79 135.71,-102.96"/>
</g>
<!-- Node7 -->
<g id="node7" class="node">
<title>Node7</title>
<g id="a_node7"><a xlink:href="fifo_8c.html" target="_top" xlink:title=" ">
<polygon fill="white" stroke="black" points="231,-56.5 231,-75.5 308,-75.5 308,-56.5 231,-56.5"/>
<text text-anchor="middle" x="269.5" y="-63.5" font-family="Fira Code" font-size="10.00">src/fifo.c</text>
</a>
</g>
</g>
<!-- Node1&#45;&gt;Node7 -->
<g id="edge8" class="edge">
<title>Node1&#45;&gt;Node7</title>
<path fill="none" stroke="midnightblue" d="M175.22,-108.06C198.5,-97.92 230.2,-84.11 250.26,-75.38"/>
<polygon fill="midnightblue" stroke="midnightblue" points="174.03,-104.76 166.26,-111.96 176.83,-111.17 174.03,-104.76"/>
</g>
<!-- Node3&#45;&gt;Node2 -->
<g id="edge3" class="edge">
<title>Node3&#45;&gt;Node2</title>
<path fill="none" stroke="midnightblue" d="M144.9,-52.6C118.12,-42.42 80.92,-28.27 57.53,-19.38"/>
<polygon fill="midnightblue" stroke="midnightblue" points="143.31,-55.74 153.9,-56.02 145.79,-49.2 143.31,-55.74"/>
</g>
<!-- Node3&#45;&gt;Node4 -->
<g id="edge4" class="edge">
<title>Node3&#45;&gt;Node4</title>
<path fill="none" stroke="midnightblue" d="M161.89,-48.14C152.97,-38.5 142.18,-26.85 135.09,-19.2"/>
<polygon fill="midnightblue" stroke="midnightblue" points="159.3,-50.49 168.66,-55.45 164.43,-45.74 159.3,-50.49"/>
</g>
<!-- Node5 -->
<g id="node5" class="node">
<title>Node5</title>
<g id="a_node5"><a xlink:href="main_8c.html" target="_top" xlink:title=" ">
<polygon fill="white" stroke="black" points="184,-0.5 184,-19.5 261,-19.5 261,-0.5 184,-0.5"/>
<text text-anchor="middle" x="222.5" y="-7.5" font-family="Fira Code" font-size="10.00">src/main.c</text>
</a>
</g>
</g>
<!-- Node3&#45;&gt;Node5 -->
<g id="edge5" class="edge">
<title>Node3&#45;&gt;Node5</title>
<path fill="none" stroke="midnightblue" d="M191.8,-47.84C199.78,-38.26 209.35,-26.77 215.67,-19.2"/>
<polygon fill="midnightblue" stroke="midnightblue" points="189.21,-45.48 185.5,-55.4 194.59,-49.96 189.21,-45.48"/>
</g>
<!-- Node6 -->
<g id="node6" class="node">
<title>Node6</title>
<g id="a_node6"><a xlink:href="scheduler_8c.html" target="_top" xlink:title=" ">
<polygon fill="white" stroke="black" points="279,-0.5 279,-19.5 386,-19.5 386,-0.5 279,-0.5"/>
<text text-anchor="middle" x="332.5" y="-7.5" font-family="Fira Code" font-size="10.00">src/scheduler.c</text>
</a>
</g>
</g>
<!-- Node3&#45;&gt;Node6 -->
<g id="edge6" class="edge">
<title>Node3&#45;&gt;Node6</title>
<path fill="none" stroke="midnightblue" d="M212.27,-52.89C241.46,-42.72 282.42,-28.45 308.2,-19.47"/>
<polygon fill="midnightblue" stroke="midnightblue" points="211.44,-49.47 203.15,-56.06 213.74,-56.08 211.44,-49.47"/>
</g>
</g>
</svg>
