<?xml version="1.0" encoding="UTF-8" standalone="no"?>
<!DOCTYPE svg PUBLIC "-//W3C//DTD SVG 1.1//EN"
 "http://www.w3.org/Graphics/SVG/1.1/DTD/svg11.dtd">
<!-- Generated by graphviz version 7.0.0 (20221023.0053)
 -->
<!-- Title: fifo_q_len Pages: 1 -->
<svg width="335pt" height="66pt"
 viewBox="0.00 0.00 335.00 66.00" xmlns="http://www.w3.org/2000/svg" xmlns:xlink="http://www.w3.org/1999/xlink">
<g id="graph0" class="graph" transform="scale(1 1) rotate(0) translate(4 62)">
<title>fifo_q_len</title>
<polygon fill="white" stroke="none" points="-4,4 -4,-62 331,-62 331,4 -4,4"/>
<!-- Node1 -->
<g id="node1" class="node">
<title>Node1</title>
<g id="a_node1"><a xlink:title=" ">
<polygon fill="#bfbfbf" stroke="black" points="250,-19.5 250,-38.5 327,-38.5 327,-19.5 250,-19.5"/>
<text text-anchor="middle" x="288.5" y="-26.5" font-family="Fira Code" font-size="10.00">fifo_q_len</text>
</a>
</g>
</g>
<!-- Node2 -->
<g id="node2" class="node">
<title>Node2</title>
<g id="a_node2"><a xlink:href="can_8c.html#a011a68b7760013d6a77402c7f745e729" target="_top" xlink:title=" ">
<polygon fill="white" stroke="black" points="125,-38.5 125,-57.5 214,-57.5 214,-38.5 125,-38.5"/>
<text text-anchor="middle" x="169.5" y="-45.5" font-family="Fira Code" font-size="10.00">can_rx_q_len</text>
</a>
</g>
</g>
<!-- Node1&#45;&gt;Node2 -->
<g id="edge1" class="edge">
<title>Node1&#45;&gt;Node2</title>
<path fill="none" stroke="midnightblue" d="M238.94,-36.89C230.53,-38.25 221.85,-39.66 213.6,-41"/>
<polygon fill="midnightblue" stroke="midnightblue" points="239.36,-40.36 248.66,-35.31 238.23,-33.45 239.36,-40.36"/>
</g>
<!-- Node4 -->
<g id="node4" class="node">
<title>Node4</title>
<g id="a_node4"><a xlink:href="can_8c.html#a3f67e8b772017b4dd4a9a1c9eaa6c03e" target="_top" xlink:title=" ">
<polygon fill="white" stroke="black" points="128,-0.5 128,-19.5 211,-19.5 211,-0.5 128,-0.5"/>
<text text-anchor="middle" x="169.5" y="-7.5" font-family="Fira Code" font-size="10.00">task_can_tx</text>
</a>
</g>
</g>
<!-- Node1&#45;&gt;Node4 -->
<g id="edge3" class="edge">
<title>Node1&#45;&gt;Node4</title>
<path fill="none" stroke="midnightblue" d="M238.95,-21.12C229.55,-19.59 219.81,-18.01 210.72,-16.53"/>
<polygon fill="midnightblue" stroke="midnightblue" points="238.23,-24.55 248.66,-22.69 239.36,-17.64 238.23,-24.55"/>
</g>
<!-- Node3 -->
<g id="node3" class="node">
<title>Node3</title>
<g id="a_node3"><a xlink:href="demo_8c.html#ab020e52284652b4784b684576f4f38a3" target="_top" xlink:title=" ">
<polygon fill="white" stroke="black" points="0,-38.5 0,-57.5 89,-57.5 89,-38.5 0,-38.5"/>
<text text-anchor="middle" x="44.5" y="-45.5" font-family="Fira Code" font-size="10.00">task_demo_rx</text>
</a>
</g>
</g>
<!-- Node2&#45;&gt;Node3 -->
<g id="edge2" class="edge">
<title>Node2&#45;&gt;Node3</title>
<path fill="none" stroke="midnightblue" d="M113.89,-48C105.52,-48 96.97,-48 88.89,-48"/>
<polygon fill="midnightblue" stroke="midnightblue" points="113.62,-51.5 123.62,-48 113.62,-44.5 113.62,-51.5"/>
</g>
</g>
</svg>
