<?xml version="1.0" encoding="UTF-8" standalone="no"?>
<!DOCTYPE svg PUBLIC "-//W3C//DTD SVG 1.1//EN"
 "http://www.w3.org/Graphics/SVG/1.1/DTD/svg11.dtd">
<!-- Generated by graphviz version 7.0.0 (20221023.0053)
 -->
<!-- Title: src/interrupts.h Pages: 1 -->
<svg width="531pt" height="84pt"
 viewBox="0.00 0.00 531.00 84.00" xmlns="http://www.w3.org/2000/svg" xmlns:xlink="http://www.w3.org/1999/xlink">
<g id="graph0" class="graph" transform="scale(1 1) rotate(0) translate(4 80)">
<title>src/interrupts.h</title>
<polygon fill="white" stroke="none" points="-4,4 -4,-80 527,-80 527,4 -4,4"/>
<!-- Node1 -->
<g id="node1" class="node">
<title>Node1</title>
<g id="a_node1"><a xlink:title=" ">
<polygon fill="#bfbfbf" stroke="black" points="223,-56.5 223,-75.5 336,-75.5 336,-56.5 223,-56.5"/>
<text text-anchor="middle" x="279.5" y="-63.5" font-family="Fira Code" font-size="10.00">src/interrupts.h</text>
</a>
</g>
</g>
<!-- Node2 -->
<g id="node2" class="node">
<title>Node2</title>
<g id="a_node2"><a xlink:href="interrupts_8c.html" target="_top" xlink:title=" ">
<polygon fill="white" stroke="black" points="0,-0.5 0,-19.5 113,-19.5 113,-0.5 0,-0.5"/>
<text text-anchor="middle" x="56.5" y="-7.5" font-family="Fira Code" font-size="10.00">src/interrupts.c</text>
</a>
</g>
</g>
<!-- Node1&#45;&gt;Node2 -->
<g id="edge1" class="edge">
<title>Node1&#45;&gt;Node2</title>
<path fill="none" stroke="midnightblue" d="M233.58,-53.88C191.39,-43.66 129.78,-28.74 91.47,-19.47"/>
<polygon fill="midnightblue" stroke="midnightblue" points="232.64,-57.25 243.19,-56.21 234.29,-50.45 232.64,-57.25"/>
</g>
<!-- Node3 -->
<g id="node3" class="node">
<title>Node3</title>
<g id="a_node3"><a xlink:href="main_8c.html" target="_top" xlink:title=" ">
<polygon fill="white" stroke="black" points="131,-0.5 131,-19.5 208,-19.5 208,-0.5 131,-0.5"/>
<text text-anchor="middle" x="169.5" y="-7.5" font-family="Fira Code" font-size="10.00">src/main.c</text>
</a>
</g>
</g>
<!-- Node1&#45;&gt;Node3 -->
<g id="edge2" class="edge">
<title>Node1&#45;&gt;Node3</title>
<path fill="none" stroke="midnightblue" d="M252,-51.5C231.47,-41.42 204.04,-27.96 186.57,-19.38"/>
<polygon fill="midnightblue" stroke="midnightblue" points="250.43,-54.63 260.95,-55.9 253.52,-48.35 250.43,-54.63"/>
</g>
<!-- Node4 -->
<g id="node4" class="node">
<title>Node4</title>
<g id="a_node4"><a xlink:href="scheduler_8c.html" target="_top" xlink:title=" ">
<polygon fill="white" stroke="black" points="226,-0.5 226,-19.5 333,-19.5 333,-0.5 226,-0.5"/>
<text text-anchor="middle" x="279.5" y="-7.5" font-family="Fira Code" font-size="10.00">src/scheduler.c</text>
</a>
</g>
</g>
<!-- Node1&#45;&gt;Node4 -->
<g id="edge3" class="edge">
<title>Node1&#45;&gt;Node4</title>
<path fill="none" stroke="midnightblue" d="M279.5,-45.1C279.5,-36.14 279.5,-26.06 279.5,-19.2"/>
<polygon fill="midnightblue" stroke="midnightblue" points="276,-45.05 279.5,-55.05 283,-45.05 276,-45.05"/>
</g>
<!-- Node5 -->
<g id="node5" class="node">
<title>Node5</title>
<g id="a_node5"><a xlink:href="spi_8c.html" target="_top" xlink:title=" ">
<polygon fill="white" stroke="black" points="351,-0.5 351,-19.5 422,-19.5 422,-0.5 351,-0.5"/>
<text text-anchor="middle" x="386.5" y="-7.5" font-family="Fira Code" font-size="10.00">src/spi.c</text>
</a>
</g>
</g>
<!-- Node1&#45;&gt;Node5 -->
<g id="edge4" class="edge">
<title>Node1&#45;&gt;Node5</title>
<path fill="none" stroke="midnightblue" d="M306.25,-51.5C326.22,-41.42 352.9,-27.96 369.9,-19.38"/>
<polygon fill="midnightblue" stroke="midnightblue" points="304.92,-48.25 297.57,-55.88 308.07,-54.5 304.92,-48.25"/>
</g>
<!-- Node6 -->
<g id="node6" class="node">
<title>Node6</title>
<g id="a_node6"><a xlink:href="usart_8c.html" target="_top" xlink:title=" ">
<polygon fill="white" stroke="black" points="440,-0.5 440,-19.5 523,-19.5 523,-0.5 440,-0.5"/>
<text text-anchor="middle" x="481.5" y="-7.5" font-family="Fira Code" font-size="10.00">src/usart.c</text>
</a>
</g>
</g>
<!-- Node1&#45;&gt;Node6 -->
<g id="edge5" class="edge">
<title>Node1&#45;&gt;Node6</title>
<path fill="none" stroke="midnightblue" d="M321.83,-53.68C360.02,-43.47 415.34,-28.69 449.83,-19.47"/>
<polygon fill="midnightblue" stroke="midnightblue" points="321.28,-50.21 312.52,-56.17 323.09,-56.97 321.28,-50.21"/>
</g>
</g>
</svg>
