<?xml version="1.0" encoding="UTF-8" standalone="no"?>
<!DOCTYPE svg PUBLIC "-//W3C//DTD SVG 1.1//EN"
 "http://www.w3.org/Graphics/SVG/1.1/DTD/svg11.dtd">
<!-- Generated by graphviz version 7.0.0 (20221023.0053)
 -->
<!-- Title: src/main.c Pages: 1 -->
<!--zoomable 196 -->
<svg id="main" version="1.1" xmlns="http://www.w3.org/2000/svg" xmlns:xlink="http://www.w3.org/1999/xlink" xml:space="preserve" onload="init(evt)">
<style type="text/css"><![CDATA[
.edge:hover path { stroke: red; }
.edge:hover polygon { stroke: red; fill: red; }
]]></style>
<script type="text/javascript"><![CDATA[
var edges = document.getElementsByTagName('g');
if (edges && edges.length) {
  for (var i=0;i<edges.length;i++) {
    if (edges[i].id.substr(0,4)=='edge') {
      edges[i].setAttribute('class','edge');
    }
  }
}
]]></script>
        <defs>
                <circle id="rim" cx="0" cy="0" r="7"/>
                <circle id="rim2" cx="0" cy="0" r="3.5"/>
                <g id="zoomPlus">
                        <use xlink:href="#rim" fill="#404040">
                                <set attributeName="fill" to="#808080" begin="zoomplus.mouseover" end="zoomplus.mouseout"/>
                        </use>
                        <path d="M-4,0h8M0,-4v8" fill="none" stroke="white" stroke-width="1.5" pointer-events="none"/>
                </g>
                <g id="zoomMin">
                        <use xlink:href="#rim" fill="#404040">
                                <set attributeName="fill" to="#808080" begin="zoomminus.mouseover" end="zoomminus.mouseout"/>
                        </use>
                        <path d="M-4,0h8" fill="none" stroke="white" stroke-width="1.5" pointer-events="none"/>
                </g>
                <g id="dirArrow">
                        <path fill="none" stroke="white" stroke-width="1.5" d="M0,-3.0v7 M-2.5,-0.5L0,-3.0L2.5,-0.5"/>
                </g>
               <g id="resetDef">
                       <use xlink:href="#rim2" fill="#404040">
                               <set attributeName="fill" to="#808080" begin="reset.mouseover" end="reset.mouseout"/>
                       </use>
               </g>
        </defs>

<script type="text/javascript">
var viewWidth = 608;
var viewHeight = 196;
var sectionId = 'dynsection-0';
</script>
<script xlink:href="svgpan.js"/>
<svg id="graph" class="graph">
<g id="viewport">
<title>src/main.c</title>
<polygon fill="white" stroke="none" points="-4,4 -4,-192 604.04,-192 604.04,4 -4,4"/>
<!-- Node1 -->
<g id="node1" class="node">
<title>Node1</title>
<g id="a_node1"><a xlink:title=" ">
<polygon fill="#bfbfbf" stroke="black" points="233.04,-168.5 233.04,-187.5 310.04,-187.5 310.04,-168.5 233.04,-168.5"/>
<text text-anchor="middle" x="271.54" y="-175.5" font-family="Fira Code" font-size="10.00">src/main.c</text>
</a>
</g>
</g>
<!-- Node2 -->
<g id="node2" class="node">
<title>Node2</title>
<g id="a_node2"><a xlink:href="types_8h.html" target="_top" xlink:title=" ">
<polygon fill="white" stroke="black" points="275.04,-0.5 275.04,-19.5 334.04,-19.5 334.04,-0.5 275.04,-0.5"/>
<text text-anchor="middle" x="304.54" y="-7.5" font-family="Fira Code" font-size="10.00">types.h</text>
</a>
</g>
</g>
<!-- Node1&#45;&gt;Node2 -->
<g id="edge1" class="edge">
<title>Node1&#45;&gt;Node2</title>
<path fill="none" stroke="midnightblue" d="M233.05,-176.39C166.09,-174.43 32.49,-166.22 3.54,-132 -2.21,-125.21 0.87,-120.48 3.54,-112 12.62,-83.06 16.94,-72.27 42.54,-56 78.65,-33.04 199.94,-19.73 264.04,-14.14"/>
<polygon fill="midnightblue" stroke="midnightblue" points="264.14,-17.64 273.81,-13.31 263.55,-10.67 264.14,-17.64"/>
</g>
<!-- Node3 -->
<g id="node3" class="node">
<title>Node3</title>
<g id="a_node3"><a xlink:href="memory_8h.html" target="_top" xlink:title=" ">
<polygon fill="white" stroke="black" points="52.04,-56.5 52.04,-75.5 117.04,-75.5 117.04,-56.5 52.04,-56.5"/>
<text text-anchor="middle" x="84.54" y="-63.5" font-family="Fira Code" font-size="10.00">memory.h</text>
</a>
</g>
</g>
<!-- Node1&#45;&gt;Node3 -->
<g id="edge2" class="edge">
<title>Node1&#45;&gt;Node3</title>
<path fill="none" stroke="midnightblue" d="M233.16,-176.17C167.84,-173.86 39.42,-165.12 11.54,-132 -5.44,-111.83 25.08,-92.2 51.7,-79.88"/>
<polygon fill="midnightblue" stroke="midnightblue" points="52.83,-83.21 60.58,-75.99 50.02,-76.8 52.83,-83.21"/>
</g>
<!-- Node4 -->
<g id="node4" class="node">
<title>Node4</title>
<g id="a_node4"><a xlink:href="watchdog_8h.html" target="_top" xlink:title=" ">
<polygon fill="white" stroke="black" points="21.04,-112.5 21.04,-131.5 98.04,-131.5 98.04,-112.5 21.04,-112.5"/>
<text text-anchor="middle" x="59.54" y="-119.5" font-family="Fira Code" font-size="10.00">watchdog.h</text>
</a>
</g>
</g>
<!-- Node1&#45;&gt;Node4 -->
<g id="edge4" class="edge">
<title>Node1&#45;&gt;Node4</title>
<path fill="none" stroke="midnightblue" d="M238.41,-168.56C202.19,-159.34 143.97,-144.51 103.84,-134.28"/>
<polygon fill="midnightblue" stroke="midnightblue" points="104.8,-130.92 94.24,-131.84 103.07,-137.7 104.8,-130.92"/>
</g>
<!-- Node5 -->
<g id="node5" class="node">
<title>Node5</title>
<g id="a_node5"><a xlink:href="interrupts_8h.html" target="_top" xlink:title=" ">
<polygon fill="white" stroke="black" points="116.04,-112.5 116.04,-131.5 205.04,-131.5 205.04,-112.5 116.04,-112.5"/>
<text text-anchor="middle" x="160.54" y="-119.5" font-family="Fira Code" font-size="10.00">interrupts.h</text>
</a>
</g>
</g>
<!-- Node1&#45;&gt;Node5 -->
<g id="edge5" class="edge">
<title>Node1&#45;&gt;Node5</title>
<path fill="none" stroke="midnightblue" d="M254.19,-168.56C236.43,-159.92 208.58,-146.37 187.85,-136.29"/>
<polygon fill="midnightblue" stroke="midnightblue" points="189.64,-133.27 179.12,-132.04 186.58,-139.56 189.64,-133.27"/>
</g>
<!-- Node6 -->
<g id="node6" class="node">
<title>Node6</title>
<g id="a_node6"><a xlink:href="timer_8h.html" target="_top" xlink:title=" ">
<polygon fill="white" stroke="black" points="204.04,-56.5 204.04,-75.5 263.04,-75.5 263.04,-56.5 204.04,-56.5"/>
<text text-anchor="middle" x="233.54" y="-63.5" font-family="Fira Code" font-size="10.00">timer.h</text>
</a>
</g>
</g>
<!-- Node1&#45;&gt;Node6 -->
<g id="edge6" class="edge">
<title>Node1&#45;&gt;Node6</title>
<path fill="none" stroke="midnightblue" d="M268.68,-168.73C262.66,-151.29 248.51,-110.35 240.12,-86.06"/>
<polygon fill="midnightblue" stroke="midnightblue" points="243.49,-85.1 236.92,-76.79 236.88,-87.39 243.49,-85.1"/>
</g>
<!-- Node7 -->
<g id="node7" class="node">
<title>Node7</title>
<g id="a_node7"><a xlink:href="dsc_8h.html" target="_top" xlink:title=" ">
<polygon fill="white" stroke="black" points="281.04,-56.5 281.04,-75.5 328.04,-75.5 328.04,-56.5 281.04,-56.5"/>
<text text-anchor="middle" x="304.54" y="-63.5" font-family="Fira Code" font-size="10.00">dsc.h</text>
</a>
</g>
</g>
<!-- Node1&#45;&gt;Node7 -->
<g id="edge8" class="edge">
<title>Node1&#45;&gt;Node7</title>
<path fill="none" stroke="midnightblue" d="M274.02,-168.73C279.25,-151.29 291.53,-110.35 298.82,-86.06"/>
<polygon fill="midnightblue" stroke="midnightblue" points="302.07,-87.4 301.59,-76.81 295.37,-85.39 302.07,-87.4"/>
</g>
<!-- Node8 -->
<g id="node8" class="node">
<title>Node8</title>
<g id="a_node8"><a xlink:href="scheduler_8h.html" target="_top" xlink:title=" ">
<polygon fill="white" stroke="black" points="300.04,-112.5 300.04,-131.5 383.04,-131.5 383.04,-112.5 300.04,-112.5"/>
<text text-anchor="middle" x="341.54" y="-119.5" font-family="Fira Code" font-size="10.00">scheduler.h</text>
</a>
</g>
</g>
<!-- Node1&#45;&gt;Node8 -->
<g id="edge10" class="edge">
<title>Node1&#45;&gt;Node8</title>
<path fill="none" stroke="midnightblue" d="M282.47,-168.56C293.01,-160.43 309.2,-147.95 321.96,-138.1"/>
<polygon fill="midnightblue" stroke="midnightblue" points="323.93,-141.01 329.71,-132.13 319.65,-135.46 323.93,-141.01"/>
</g>
<!-- Node9 -->
<g id="node9" class="node">
<title>Node9</title>
<g id="a_node9"><a xlink:href="spi_8h.html" target="_top" xlink:title=" ">
<polygon fill="white" stroke="black" points="401.04,-112.5 401.04,-131.5 448.04,-131.5 448.04,-112.5 401.04,-112.5"/>
<text text-anchor="middle" x="424.54" y="-119.5" font-family="Fira Code" font-size="10.00">spi.h</text>
</a>
</g>
</g>
<!-- Node1&#45;&gt;Node9 -->
<g id="edge11" class="edge">
<title>Node1&#45;&gt;Node9</title>
<path fill="none" stroke="midnightblue" d="M295.44,-168.56C320.89,-159.58 361.39,-145.29 390.24,-135.1"/>
<polygon fill="midnightblue" stroke="midnightblue" points="391.36,-138.42 399.62,-131.79 389.03,-131.82 391.36,-138.42"/>
</g>
<!-- Node10 -->
<g id="node10" class="node">
<title>Node10</title>
<g id="a_node10"><a xlink:href="can_8h.html" target="_top" xlink:title=" ">
<polygon fill="white" stroke="black" points="466.04,-112.5 466.04,-131.5 513.04,-131.5 513.04,-112.5 466.04,-112.5"/>
<text text-anchor="middle" x="489.54" y="-119.5" font-family="Fira Code" font-size="10.00">can.h</text>
</a>
</g>
</g>
<!-- Node1&#45;&gt;Node10 -->
<g id="edge12" class="edge">
<title>Node1&#45;&gt;Node10</title>
<path fill="none" stroke="midnightblue" d="M308.34,-168.52C343.66,-160.28 398.76,-147.2 455.22,-132.54"/>
<polygon fill="midnightblue" stroke="midnightblue" points="455.89,-135.98 464.68,-130.07 454.12,-129.21 455.89,-135.98"/>
</g>
<!-- Node12 -->
<g id="node12" class="node">
<title>Node12</title>
<g id="a_node12"><a xlink:href="fai_8h.html" target="_top" xlink:title=" ">
<polygon fill="white" stroke="black" points="468.04,-56.5 468.04,-75.5 515.04,-75.5 515.04,-56.5 468.04,-56.5"/>
<text text-anchor="middle" x="491.54" y="-63.5" font-family="Fira Code" font-size="10.00">fai.h</text>
</a>
</g>
</g>
<!-- Node1&#45;&gt;Node12 -->
<g id="edge15" class="edge">
<title>Node1&#45;&gt;Node12</title>
<path fill="none" stroke="midnightblue" d="M309.86,-175.91C373.31,-173.2 495.87,-163.87 522.54,-132 534.65,-117.53 521.7,-97.52 509.03,-83.54"/>
<polygon fill="midnightblue" stroke="midnightblue" points="511.57,-81.13 502.07,-76.43 506.56,-86.02 511.57,-81.13"/>
</g>
<!-- Node13 -->
<g id="node13" class="node">
<title>Node13</title>
<g id="a_node13"><a xlink:href="usart_8h.html" target="_top" xlink:title=" ">
<polygon fill="white" stroke="black" points="541.04,-56.5 541.04,-75.5 600.04,-75.5 600.04,-56.5 541.04,-56.5"/>
<text text-anchor="middle" x="570.54" y="-63.5" font-family="Fira Code" font-size="10.00">usart.h</text>
</a>
</g>
</g>
<!-- Node1&#45;&gt;Node13 -->
<g id="edge17" class="edge">
<title>Node1&#45;&gt;Node13</title>
<path fill="none" stroke="midnightblue" d="M310.02,-174.78C375.04,-170.35 503,-158.46 538.54,-132 553.35,-120.97 561.7,-101.2 566.13,-86.35"/>
<polygon fill="midnightblue" stroke="midnightblue" points="569.48,-87.36 568.6,-76.8 562.7,-85.6 569.48,-87.36"/>
</g>
<!-- Node3&#45;&gt;Node2 -->
<g id="edge3" class="edge">
<title>Node3&#45;&gt;Node2</title>
<path fill="none" stroke="midnightblue" d="M117,-57.03C156.08,-47.44 221.75,-31.32 264.09,-20.93"/>
<polygon fill="midnightblue" stroke="midnightblue" points="264.76,-24.37 273.64,-18.58 263.1,-17.57 264.76,-24.37"/>
</g>
<!-- Node6&#45;&gt;Node2 -->
<g id="edge7" class="edge">
<title>Node6&#45;&gt;Node2</title>
<path fill="none" stroke="midnightblue" d="M244.63,-56.56C255.32,-48.43 271.74,-35.95 284.68,-26.1"/>
<polygon fill="midnightblue" stroke="midnightblue" points="286.71,-28.96 292.55,-20.12 282.47,-23.39 286.71,-28.96"/>
</g>
<!-- Node7&#45;&gt;Node2 -->
<g id="edge9" class="edge">
<title>Node7&#45;&gt;Node2</title>
<path fill="none" stroke="midnightblue" d="M304.54,-56.56C304.54,-49.63 304.54,-39.52 304.54,-30.59"/>
<polygon fill="midnightblue" stroke="midnightblue" points="308.04,-30.71 304.54,-20.71 301.04,-30.72 308.04,-30.71"/>
</g>
<!-- Node11 -->
<g id="node11" class="node">
<title>Node11</title>
<g id="a_node11"><a xlink:href="fifo_8h.html" target="_top" xlink:title=" ">
<polygon fill="white" stroke="black" points="380.04,-56.5 380.04,-75.5 433.04,-75.5 433.04,-56.5 380.04,-56.5"/>
<text text-anchor="middle" x="406.54" y="-63.5" font-family="Fira Code" font-size="10.00">fifo.h</text>
</a>
</g>
</g>
<!-- Node10&#45;&gt;Node11 -->
<g id="edge13" class="edge">
<title>Node10&#45;&gt;Node11</title>
<path fill="none" stroke="midnightblue" d="M476.57,-112.56C463.78,-104.24 443.98,-91.36 428.69,-81.41"/>
<polygon fill="midnightblue" stroke="midnightblue" points="430.97,-78.72 420.68,-76.2 427.16,-84.59 430.97,-78.72"/>
</g>
<!-- Node11&#45;&gt;Node2 -->
<g id="edge14" class="edge">
<title>Node11&#45;&gt;Node2</title>
<path fill="none" stroke="midnightblue" d="M390.6,-56.56C374.51,-48.04 349.38,-34.74 330.43,-24.71"/>
<polygon fill="midnightblue" stroke="midnightblue" points="332.18,-21.67 321.7,-20.09 328.9,-27.86 332.18,-21.67"/>
</g>
<!-- Node12&#45;&gt;Node2 -->
<g id="edge16" class="edge">
<title>Node12&#45;&gt;Node2</title>
<path fill="none" stroke="midnightblue" d="M468.23,-58.27C437.22,-49.32 381.93,-33.35 344.27,-22.47"/>
<polygon fill="midnightblue" stroke="midnightblue" points="345.71,-19.25 335.13,-19.83 343.77,-25.97 345.71,-19.25"/>
</g>
<!-- Node13&#45;&gt;Node2 -->
<g id="edge18" class="edge">
<title>Node13&#45;&gt;Node2</title>
<path fill="none" stroke="midnightblue" d="M541.05,-59.01C493.29,-49.32 398.92,-30.16 344.94,-19.2"/>
<polygon fill="midnightblue" stroke="midnightblue" points="345.73,-15.79 335.23,-17.23 344.33,-22.65 345.73,-15.79"/>
</g>
</g>
</svg>
        <g id="navigator" transform="translate(0 0)" fill="#404254">
                <rect fill="#f2f5e9" fill-opacity="0.5" stroke="#606060" stroke-width=".5" x="0" y="0" width="60" height="60"/>
                <use id="zoomplus" xlink:href="#zoomPlus" x="17" y="9" onmousedown="handleZoom(evt,'in')"/>
                <use id="zoomminus" xlink:href="#zoomMin" x="42" y="9" onmousedown="handleZoom(evt,'out')"/>
                <use id="reset" xlink:href="#resetDef" x="30" y="36" onmousedown="handleReset()"/>
                <g id="arrowUp" xlink:href="#dirArrow" transform="translate(30 24)" onmousedown="handlePan(0,-1)">
                  <use xlink:href="#rim" fill="#404040">
                        <set attributeName="fill" to="#808080" begin="arrowUp.mouseover" end="arrowUp.mouseout"/>
                  </use>
                  <path fill="none" stroke="white" stroke-width="1.5" d="M0,-3.0v7 M-2.5,-0.5L0,-3.0L2.5,-0.5"/>
                </g>
                <g id="arrowRight" xlink:href="#dirArrow" transform="rotate(90) translate(36 -43)" onmousedown="handlePan(1,0)">
                  <use xlink:href="#rim" fill="#404040">
                        <set attributeName="fill" to="#808080" begin="arrowRight.mouseover" end="arrowRight.mouseout"/>
                  </use>
                  <path fill="none" stroke="white" stroke-width="1.5" d="M0,-3.0v7 M-2.5,-0.5L0,-3.0L2.5,-0.5"/>
                </g>
                <g id="arrowDown" xlink:href="#dirArrow" transform="rotate(180) translate(-30 -48)" onmousedown="handlePan(0,1)">
                  <use xlink:href="#rim" fill="#404040">
                        <set attributeName="fill" to="#808080" begin="arrowDown.mouseover" end="arrowDown.mouseout"/>
                  </use>
                  <path fill="none" stroke="white" stroke-width="1.5" d="M0,-3.0v7 M-2.5,-0.5L0,-3.0L2.5,-0.5"/>
                </g>
                <g id="arrowLeft" xlink:href="#dirArrow" transform="rotate(270) translate(-36 17)" onmousedown="handlePan(-1,0)">
                  <use xlink:href="#rim" fill="#404040">
                        <set attributeName="fill" to="#808080" begin="arrowLeft.mouseover" end="arrowLeft.mouseout"/>
                  </use>
                  <path fill="none" stroke="white" stroke-width="1.5" d="M0,-3.0v7 M-2.5,-0.5L0,-3.0L2.5,-0.5"/>
                </g>
        </g>
        <svg viewBox="0 0 15 15" width="100%" height="30px" preserveAspectRatio="xMaxYMin meet">
         <g id="arrow_out" transform="scale(0.3 0.3)">
          <a xlink:href="main_8c__incl_org.svg" target="_base">
           <rect id="button" ry="5" rx="5" y="6" x="6" height="38" width="38"
                fill="#f2f5e9" fill-opacity="0.5" stroke="#606060" stroke-width="1.0"/>
           <path id="arrow"
             d="M 11.500037,31.436501 C 11.940474,20.09759 22.043105,11.32322 32.158766,21.979434 L 37.068811,17.246167 C 37.068811,17.246167 37.088388,32 37.088388,32 L 22.160133,31.978069 C 22.160133,31.978069 26.997745,27.140456 26.997745,27.140456 C 18.528582,18.264221 13.291696,25.230495 11.500037,31.436501 z"
             style="fill:#404040;"/>
          </a>
         </g>
        </svg>
</svg>
