<?xml version="1.0" encoding="UTF-8" standalone="no"?>
<!DOCTYPE svg PUBLIC "-//W3C//DTD SVG 1.1//EN"
 "http://www.w3.org/Graphics/SVG/1.1/DTD/svg11.dtd">
<!-- Generated by graphviz version 7.0.0 (20221023.0053)
 -->
<!-- Title: main Pages: 1 -->
<svg width="484pt" height="446pt"
 viewBox="0.00 0.00 484.00 446.00" xmlns="http://www.w3.org/2000/svg" xmlns:xlink="http://www.w3.org/1999/xlink">
<g id="graph0" class="graph" transform="scale(1 1) rotate(0) translate(4 442)">
<title>main</title>
<polygon fill="white" stroke="none" points="-4,4 -4,-442 480,-442 480,4 -4,4"/>
<!-- Node1 -->
<g id="node1" class="node">
<title>Node1</title>
<g id="a_node1"><a xlink:title=" ">
<polygon fill="#bfbfbf" stroke="black" points="0,-133.5 0,-152.5 41,-152.5 41,-133.5 0,-133.5"/>
<text text-anchor="middle" x="20.5" y="-140.5" font-family="Fira Code" font-size="10.00">main</text>
</a>
</g>
</g>
<!-- Node2 -->
<g id="node2" class="node">
<title>Node2</title>
<g id="a_node2"><a xlink:href="can_8c.html#ac7781a37ca14c5bf42c4fe9de1f4daa8" target="_top" xlink:title=" ">
<polygon fill="white" stroke="black" points="98,-342.5 98,-361.5 163,-361.5 163,-342.5 98,-342.5"/>
<text text-anchor="middle" x="130.5" y="-349.5" font-family="Fira Code" font-size="10.00">can_init</text>
</a>
</g>
</g>
<!-- Node1&#45;&gt;Node2 -->
<g id="edge1" class="edge">
<title>Node1&#45;&gt;Node2</title>
<path fill="none" stroke="midnightblue" d="M25.8,-152.24C34.92,-171.75 57.01,-218.52 77,-257 90.79,-283.56 107.68,-313.73 118.51,-332.81"/>
<polygon fill="midnightblue" stroke="midnightblue" points="115.38,-334.38 123.37,-341.33 121.46,-330.91 115.38,-334.38"/>
</g>
<!-- Node8 -->
<g id="node8" class="node">
<title>Node8</title>
<g id="a_node8"><a xlink:href="dsc_8c.html#a65d27117ba3dbe4a624bbbdcf62a4f70" target="_top" xlink:title=" ">
<polygon fill="white" stroke="black" points="98,-228.5 98,-247.5 163,-247.5 163,-228.5 98,-228.5"/>
<text text-anchor="middle" x="130.5" y="-235.5" font-family="Fira Code" font-size="10.00">dsc_init</text>
</a>
</g>
</g>
<!-- Node1&#45;&gt;Node8 -->
<g id="edge7" class="edge">
<title>Node1&#45;&gt;Node8</title>
<path fill="none" stroke="midnightblue" d="M25.97,-152.34C34.02,-168.22 52.43,-200.57 77,-219 80.34,-221.5 84.03,-223.7 87.88,-225.63"/>
<polygon fill="midnightblue" stroke="midnightblue" points="86.29,-228.75 96.86,-229.51 89.07,-222.33 86.29,-228.75"/>
</g>
<!-- Node11 -->
<g id="node11" class="node">
<title>Node11</title>
<g id="a_node11"><a xlink:href="fai_8c.html#a4232698e23378880d35b3f2801f6a26f" target="_top" xlink:title=" ">
<polygon fill="white" stroke="black" points="98,-190.5 98,-209.5 163,-209.5 163,-190.5 98,-190.5"/>
<text text-anchor="middle" x="130.5" y="-197.5" font-family="Fira Code" font-size="10.00">fai_init</text>
</a>
</g>
</g>
<!-- Node1&#45;&gt;Node11 -->
<g id="edge10" class="edge">
<title>Node1&#45;&gt;Node11</title>
<path fill="none" stroke="midnightblue" d="M33.29,-152.38C44.16,-160.71 61,-172.79 77,-181 80.71,-182.9 84.66,-184.7 88.66,-186.38"/>
<polygon fill="midnightblue" stroke="midnightblue" points="87.24,-189.58 97.83,-189.97 89.79,-183.07 87.24,-189.58"/>
</g>
<!-- Node12 -->
<g id="node12" class="node">
<title>Node12</title>
<g id="a_node12"><a xlink:href="scheduler_8c.html#ab258cc2856e5f6bb125907cc23358fbd" target="_top" xlink:title=" ">
<polygon fill="white" stroke="black" points="80,-152.5 80,-171.5 181,-171.5 181,-152.5 80,-152.5"/>
<text text-anchor="middle" x="130.5" y="-159.5" font-family="Fira Code" font-size="10.00">scheduler_init</text>
</a>
</g>
</g>
<!-- Node1&#45;&gt;Node12 -->
<g id="edge12" class="edge">
<title>Node1&#45;&gt;Node12</title>
<path fill="none" stroke="midnightblue" d="M40.81,-146.4C48.92,-147.82 58.84,-149.57 69.07,-151.37"/>
<polygon fill="midnightblue" stroke="midnightblue" points="68.28,-154.78 78.73,-153.07 69.49,-147.89 68.28,-154.78"/>
</g>
<!-- Node15 -->
<g id="node15" class="node">
<title>Node15</title>
<g id="a_node15"><a xlink:href="scheduler_8c.html#a4284c9a781a0121ce95b90f5250023dc" target="_top" xlink:title=" ">
<polygon fill="white" stroke="black" points="80,-114.5 80,-133.5 181,-133.5 181,-114.5 80,-114.5"/>
<text text-anchor="middle" x="130.5" y="-121.5" font-family="Fira Code" font-size="10.00">scheduler_step</text>
</a>
</g>
</g>
<!-- Node1&#45;&gt;Node15 -->
<g id="edge15" class="edge">
<title>Node1&#45;&gt;Node15</title>
<path fill="none" stroke="midnightblue" d="M40.81,-139.6C48.92,-138.18 58.84,-136.43 69.07,-134.63"/>
<polygon fill="midnightblue" stroke="midnightblue" points="69.49,-138.11 78.73,-132.93 68.28,-131.22 69.49,-138.11"/>
</g>
<!-- Node17 -->
<g id="node17" class="node">
<title>Node17</title>
<g id="a_node17"><a xlink:href="atm328p__spi_8c.html#ae909944aa85ae98323073c628be541aa" target="_top" xlink:title=" ">
<polygon fill="white" stroke="black" points="98,-76.5 98,-95.5 163,-95.5 163,-76.5 98,-76.5"/>
<text text-anchor="middle" x="130.5" y="-83.5" font-family="Fira Code" font-size="10.00">spi_init</text>
</a>
</g>
</g>
<!-- Node1&#45;&gt;Node17 -->
<g id="edge17" class="edge">
<title>Node1&#45;&gt;Node17</title>
<path fill="none" stroke="midnightblue" d="M33.29,-133.62C44.16,-125.29 61,-113.21 77,-105 80.71,-103.1 84.66,-101.3 88.66,-99.62"/>
<polygon fill="midnightblue" stroke="midnightblue" points="89.79,-102.93 97.83,-96.03 87.24,-96.42 89.79,-102.93"/>
</g>
<!-- Node18 -->
<g id="node18" class="node">
<title>Node18</title>
<g id="a_node18"><a xlink:href="usart_8c.html#af935e6d71db1708ae82f63f128ea03b6" target="_top" xlink:title=" ">
<polygon fill="white" stroke="black" points="92,-38.5 92,-57.5 169,-57.5 169,-38.5 92,-38.5"/>
<text text-anchor="middle" x="130.5" y="-45.5" font-family="Fira Code" font-size="10.00">usart_init</text>
</a>
</g>
</g>
<!-- Node1&#45;&gt;Node18 -->
<g id="edge18" class="edge">
<title>Node1&#45;&gt;Node18</title>
<path fill="none" stroke="midnightblue" d="M25.97,-133.66C34.02,-117.78 52.43,-85.43 77,-67 79.27,-65.29 81.71,-63.73 84.25,-62.3"/>
<polygon fill="midnightblue" stroke="midnightblue" points="85.55,-65.56 93.04,-58.06 82.51,-59.25 85.55,-65.56"/>
</g>
<!-- Node20 -->
<g id="node20" class="node">
<title>Node20</title>
<g id="a_node20"><a xlink:href="watchdog_8c.html#a8d3ca6946ce82cc3dfe1f1446ded007c" target="_top" xlink:title=" ">
<polygon fill="white" stroke="black" points="77,-0.5 77,-19.5 184,-19.5 184,-0.5 77,-0.5"/>
<text text-anchor="middle" x="130.5" y="-7.5" font-family="Fira Code" font-size="10.00">watchdog_enable</text>
</a>
</g>
</g>
<!-- Node1&#45;&gt;Node20 -->
<g id="edge20" class="edge">
<title>Node1&#45;&gt;Node20</title>
<path fill="none" stroke="midnightblue" d="M23.53,-133.57C28.65,-111.99 44.1,-58.59 77,-29 78.65,-27.52 80.42,-26.15 82.28,-24.88"/>
<polygon fill="midnightblue" stroke="midnightblue" points="83.8,-28.04 90.85,-20.13 80.41,-21.92 83.8,-28.04"/>
</g>
<!-- Node3 -->
<g id="node3" class="node">
<title>Node3</title>
<g id="a_node3"><a xlink:href="fifo_8c.html#ac619a366b22cc27db4e0469dd3912972" target="_top" xlink:title=" ">
<polygon fill="white" stroke="black" points="244,-418.5 244,-437.5 327,-437.5 327,-418.5 244,-418.5"/>
<text text-anchor="middle" x="285.5" y="-425.5" font-family="Fira Code" font-size="10.00">fifo_q_init</text>
</a>
</g>
</g>
<!-- Node2&#45;&gt;Node3 -->
<g id="edge2" class="edge">
<title>Node2&#45;&gt;Node3</title>
<path fill="none" stroke="midnightblue" d="M143.46,-361.3C159.89,-373.69 190.75,-395.61 220,-409 224.79,-411.19 229.89,-413.2 235.06,-415.03"/>
<polygon fill="midnightblue" stroke="midnightblue" points="233.61,-418.24 244.21,-418.03 235.8,-411.59 233.61,-418.24"/>
</g>
<!-- Node5 -->
<g id="node5" class="node">
<title>Node5</title>
<g id="a_node5"><a xlink:href="atm328p__spi_8c.html#a52e29b9a0596a38390b0a245c4c2d593" target="_top" xlink:title=" ">
<polygon fill="white" stroke="black" points="241,-380.5 241,-399.5 330,-399.5 330,-380.5 241,-380.5"/>
<text text-anchor="middle" x="285.5" y="-387.5" font-family="Fira Code" font-size="10.00">spi_activate</text>
</a>
</g>
</g>
<!-- Node2&#45;&gt;Node5 -->
<g id="edge4" class="edge">
<title>Node2&#45;&gt;Node5</title>
<path fill="none" stroke="midnightblue" d="M162.83,-359.78C183.74,-364.97 211.66,-371.91 235.47,-377.82"/>
<polygon fill="midnightblue" stroke="midnightblue" points="234.42,-381.17 244.97,-380.18 236.11,-374.37 234.42,-381.17"/>
</g>
<!-- Node6 -->
<g id="node6" class="node">
<title>Node6</title>
<g id="a_node6"><a xlink:href="atm328p__spi_8c.html#a73c3d9ea4295599b7f59d2b26343a170" target="_top" xlink:title=" ">
<polygon fill="white" stroke="black" points="235,-342.5 235,-361.5 336,-361.5 336,-342.5 235,-342.5"/>
<text text-anchor="middle" x="285.5" y="-349.5" font-family="Fira Code" font-size="10.00">spi_deactivate</text>
</a>
</g>
</g>
<!-- Node2&#45;&gt;Node6 -->
<g id="edge5" class="edge">
<title>Node2&#45;&gt;Node6</title>
<path fill="none" stroke="midnightblue" d="M162.83,-352C180.39,-352 202.89,-352 223.75,-352"/>
<polygon fill="midnightblue" stroke="midnightblue" points="223.62,-355.5 233.62,-352 223.62,-348.5 223.62,-355.5"/>
</g>
<!-- Node7 -->
<g id="node7" class="node">
<title>Node7</title>
<g id="a_node7"><a xlink:href="atm328p__spi_8c.html#a695a4a16d5ea8390a3c3dc6815fca21b" target="_top" xlink:title=" ">
<polygon fill="white" stroke="black" points="250,-304.5 250,-323.5 321,-323.5 321,-304.5 250,-304.5"/>
<text text-anchor="middle" x="285.5" y="-311.5" font-family="Fira Code" font-size="10.00">spi_tx_rx</text>
</a>
</g>
</g>
<!-- Node2&#45;&gt;Node7 -->
<g id="edge6" class="edge">
<title>Node2&#45;&gt;Node7</title>
<path fill="none" stroke="midnightblue" d="M162.83,-344.22C184.82,-338.76 214.56,-331.37 239.13,-325.27"/>
<polygon fill="midnightblue" stroke="midnightblue" points="239.68,-328.74 248.54,-322.93 238,-321.94 239.68,-328.74"/>
</g>
<!-- Node4 -->
<g id="node4" class="node">
<title>Node4</title>
<g id="a_node4"><a xlink:href="memory_8c.html#a9fb36233ae05e7fd6c0d74f3380b52ea" target="_top" xlink:title=" ">
<polygon fill="white" stroke="black" points="387,-304.5 387,-323.5 476,-323.5 476,-304.5 387,-304.5"/>
<text text-anchor="middle" x="431.5" y="-311.5" font-family="Fira Code" font-size="10.00">memset_by_U8</text>
</a>
</g>
</g>
<!-- Node3&#45;&gt;Node4 -->
<g id="edge3" class="edge">
<title>Node3&#45;&gt;Node4</title>
<path fill="none" stroke="midnightblue" d="M326.99,-420.03C335.34,-417.32 343.78,-413.74 351,-409 381.16,-389.23 405.92,-354.6 419.41,-333.06"/>
<polygon fill="midnightblue" stroke="midnightblue" points="422.29,-335.06 424.47,-324.7 416.3,-331.44 422.29,-335.06"/>
</g>
<!-- Node9 -->
<g id="node9" class="node">
<title>Node9</title>
<g id="a_node9"><a xlink:href="atm328p__dsc_8c.html#acaa32126126df6125dc0d99877285aee" target="_top" xlink:title=" ">
<polygon fill="white" stroke="black" points="241,-266.5 241,-285.5 330,-285.5 330,-266.5 241,-266.5"/>
<text text-anchor="middle" x="285.5" y="-273.5" font-family="Fira Code" font-size="10.00">dsc_led_mode</text>
</a>
</g>
</g>
<!-- Node8&#45;&gt;Node9 -->
<g id="edge8" class="edge">
<title>Node8&#45;&gt;Node9</title>
<path fill="none" stroke="midnightblue" d="M162.83,-245.78C183.74,-250.97 211.66,-257.91 235.47,-263.82"/>
<polygon fill="midnightblue" stroke="midnightblue" points="234.42,-267.17 244.97,-266.18 236.11,-260.37 234.42,-267.17"/>
</g>
<!-- Node10 -->
<g id="node10" class="node">
<title>Node10</title>
<g id="a_node10"><a xlink:href="atm328p__dsc_8c.html#a0d5ff294859a8c6f0e9c1b97945a075f" target="_top" xlink:title=" ">
<polygon fill="white" stroke="black" points="244,-228.5 244,-247.5 327,-247.5 327,-228.5 244,-228.5"/>
<text text-anchor="middle" x="285.5" y="-235.5" font-family="Fira Code" font-size="10.00">dsc_led_set</text>
</a>
</g>
</g>
<!-- Node8&#45;&gt;Node10 -->
<g id="edge9" class="edge">
<title>Node8&#45;&gt;Node10</title>
<path fill="none" stroke="midnightblue" d="M162.83,-238C182.95,-238 209.56,-238 232.77,-238"/>
<polygon fill="midnightblue" stroke="midnightblue" points="232.67,-241.5 242.67,-238 232.67,-234.5 232.67,-241.5"/>
</g>
<!-- Node11&#45;&gt;Node4 -->
<g id="edge11" class="edge">
<title>Node11&#45;&gt;Node4</title>
<path fill="none" stroke="midnightblue" d="M162.65,-195.54C207.15,-190.69 290.27,-187.37 351,-219 383.31,-235.83 407.67,-271.98 420.45,-294.51"/>
<polygon fill="midnightblue" stroke="midnightblue" points="417.36,-296.15 425.2,-303.28 423.51,-292.82 417.36,-296.15"/>
</g>
<!-- Node13 -->
<g id="node13" class="node">
<title>Node13</title>
<g id="a_node13"><a xlink:href="atm328p__timer_8c.html#a907b8a1d14f3ca400b50e44c840ce2d4" target="_top" xlink:title=" ">
<polygon fill="white" stroke="black" points="238,-152.5 238,-171.5 333,-171.5 333,-152.5 238,-152.5"/>
<text text-anchor="middle" x="285.5" y="-159.5" font-family="Fira Code" font-size="10.00">timer1_enable</text>
</a>
</g>
</g>
<!-- Node12&#45;&gt;Node13 -->
<g id="edge13" class="edge">
<title>Node12&#45;&gt;Node13</title>
<path fill="none" stroke="midnightblue" d="M180.75,-162C195.44,-162 211.67,-162 226.85,-162"/>
<polygon fill="midnightblue" stroke="midnightblue" points="226.69,-165.5 236.69,-162 226.69,-158.5 226.69,-165.5"/>
</g>
<!-- Node14 -->
<g id="node14" class="node">
<title>Node14</title>
<g id="a_node14"><a xlink:href="atm328p__timer_8c.html#a55e6de6b1fc3fd56f250873a0ed03c19" target="_top" xlink:title=" ">
<polygon fill="white" stroke="black" points="247,-114.5 247,-133.5 324,-133.5 324,-114.5 247,-114.5"/>
<text text-anchor="middle" x="285.5" y="-121.5" font-family="Fira Code" font-size="10.00">timer1_set</text>
</a>
</g>
</g>
<!-- Node12&#45;&gt;Node14 -->
<g id="edge14" class="edge">
<title>Node12&#45;&gt;Node14</title>
<path fill="none" stroke="midnightblue" d="M169.71,-152.51C189.75,-147.53 214.5,-141.39 235.88,-136.08"/>
<polygon fill="midnightblue" stroke="midnightblue" points="236.71,-139.48 245.57,-133.67 235.02,-132.68 236.71,-139.48"/>
</g>
<!-- Node16 -->
<g id="node16" class="node">
<title>Node16</title>
<g id="a_node16"><a xlink:href="atm328p__dsc_8c.html#a78d0186cbea63decf82676ed638a072e" target="_top" xlink:title=" ">
<polygon fill="white" stroke="black" points="235,-76.5 235,-95.5 336,-95.5 336,-76.5 235,-76.5"/>
<text text-anchor="middle" x="285.5" y="-83.5" font-family="Fira Code" font-size="10.00">dsc_led_toggle</text>
</a>
</g>
</g>
<!-- Node15&#45;&gt;Node16 -->
<g id="edge16" class="edge">
<title>Node15&#45;&gt;Node16</title>
<path fill="none" stroke="midnightblue" d="M169.71,-114.51C189.6,-109.57 214.13,-103.48 235.4,-98.19"/>
<polygon fill="midnightblue" stroke="midnightblue" points="236.18,-101.61 245.04,-95.8 234.49,-94.81 236.18,-101.61"/>
</g>
<!-- Node19 -->
<g id="node19" class="node">
<title>Node19</title>
<g id="a_node19"><a xlink:href="atm328p__usart_8c.html#a104a9a3c8fb753412d2151bc39007a96" target="_top" xlink:title=" ">
<polygon fill="white" stroke="black" points="220,-38.5 220,-57.5 351,-57.5 351,-38.5 220,-38.5"/>
<text text-anchor="middle" x="285.5" y="-45.5" font-family="Fira Code" font-size="10.00">usart_init_hardware</text>
</a>
</g>
</g>
<!-- Node18&#45;&gt;Node19 -->
<g id="edge19" class="edge">
<title>Node18&#45;&gt;Node19</title>
<path fill="none" stroke="midnightblue" d="M168.93,-48C181.07,-48 195.02,-48 208.92,-48"/>
<polygon fill="midnightblue" stroke="midnightblue" points="208.51,-51.5 218.51,-48 208.51,-44.5 208.51,-51.5"/>
</g>
</g>
</svg>
