<?xml version="1.0" encoding="UTF-8" standalone="no"?>
<!DOCTYPE svg PUBLIC "-//W3C//DTD SVG 1.1//EN"
 "http://www.w3.org/Graphics/SVG/1.1/DTD/svg11.dtd">
<!-- Generated by graphviz version 7.0.0 (20221023.0053)
 -->
<!-- Title: memset_by_U8 Pages: 1 -->
<svg width="424pt" height="104pt"
 viewBox="0.00 0.00 424.00 104.00" xmlns="http://www.w3.org/2000/svg" xmlns:xlink="http://www.w3.org/1999/xlink">
<g id="graph0" class="graph" transform="scale(1 1) rotate(0) translate(4 100)">
<title>memset_by_U8</title>
<polygon fill="white" stroke="none" points="-4,4 -4,-100 420,-100 420,4 -4,4"/>
<!-- Node1 -->
<g id="node1" class="node">
<title>Node1</title>
<g id="a_node1"><a xlink:title=" ">
<polygon fill="#bfbfbf" stroke="black" points="327,-38.5 327,-57.5 416,-57.5 416,-38.5 327,-38.5"/>
<text text-anchor="middle" x="371.5" y="-45.5" font-family="Fira Code" font-size="10.00">memset_by_U8</text>
</a>
</g>
</g>
<!-- Node2 -->
<g id="node2" class="node">
<title>Node2</title>
<g id="a_node2"><a xlink:href="fai_8c.html#a50560621d15ef0d9f73e8340da9237c6" target="_top" xlink:title=" ">
<polygon fill="white" stroke="black" points="178,-76.5 178,-95.5 291,-95.5 291,-76.5 178,-76.5"/>
<text text-anchor="middle" x="234.5" y="-83.5" font-family="Fira Code" font-size="10.00">fai_clear_faults</text>
</a>
</g>
</g>
<!-- Node1&#45;&gt;Node2 -->
<g id="edge1" class="edge">
<title>Node1&#45;&gt;Node2</title>
<path fill="none" stroke="midnightblue" d="M325.88,-60.56C307.26,-65.8 286.01,-71.78 268.79,-76.63"/>
<polygon fill="midnightblue" stroke="midnightblue" points="326.65,-63.98 335.33,-57.9 324.75,-57.24 326.65,-63.98"/>
</g>
<!-- Node3 -->
<g id="node3" class="node">
<title>Node3</title>
<g id="a_node3"><a xlink:href="fai_8c.html#a4232698e23378880d35b3f2801f6a26f" target="_top" xlink:title=" ">
<polygon fill="white" stroke="black" points="77,-38.5 77,-57.5 142,-57.5 142,-38.5 77,-38.5"/>
<text text-anchor="middle" x="109.5" y="-45.5" font-family="Fira Code" font-size="10.00">fai_init</text>
</a>
</g>
</g>
<!-- Node1&#45;&gt;Node3 -->
<g id="edge2" class="edge">
<title>Node1&#45;&gt;Node3</title>
<path fill="none" stroke="midnightblue" d="M315.76,-48C263.01,-48 185.02,-48 141.96,-48"/>
<polygon fill="midnightblue" stroke="midnightblue" points="315.76,-51.5 325.76,-48 315.76,-44.5 315.76,-51.5"/>
</g>
<!-- Node5 -->
<g id="node5" class="node">
<title>Node5</title>
<g id="a_node5"><a xlink:href="fifo_8c.html#ac619a366b22cc27db4e0469dd3912972" target="_top" xlink:title=" ">
<polygon fill="white" stroke="black" points="193,-0.5 193,-19.5 276,-19.5 276,-0.5 193,-0.5"/>
<text text-anchor="middle" x="234.5" y="-7.5" font-family="Fira Code" font-size="10.00">fifo_q_init</text>
</a>
</g>
</g>
<!-- Node1&#45;&gt;Node5 -->
<g id="edge4" class="edge">
<title>Node1&#45;&gt;Node5</title>
<path fill="none" stroke="midnightblue" d="M325.88,-35.44C307.26,-30.2 286.01,-24.22 268.79,-19.37"/>
<polygon fill="midnightblue" stroke="midnightblue" points="324.75,-38.76 335.33,-38.1 326.65,-32.02 324.75,-38.76"/>
</g>
<!-- Node4 -->
<g id="node4" class="node">
<title>Node4</title>
<g id="a_node4"><a xlink:href="main_8c.html#a06213d4df6a69a484bbec6698135cb14" target="_top" xlink:title=" ">
<polygon fill="white" stroke="black" points="0,-19.5 0,-38.5 41,-38.5 41,-19.5 0,-19.5"/>
<text text-anchor="middle" x="20.5" y="-26.5" font-family="Fira Code" font-size="10.00">main</text>
</a>
</g>
</g>
<!-- Node3&#45;&gt;Node4 -->
<g id="edge3" class="edge">
<title>Node3&#45;&gt;Node4</title>
<path fill="none" stroke="midnightblue" d="M66.09,-38.74C57.3,-36.82 48.44,-34.88 40.97,-33.25"/>
<polygon fill="midnightblue" stroke="midnightblue" points="65.1,-42.1 75.61,-40.82 66.59,-35.26 65.1,-42.1"/>
</g>
<!-- Node6 -->
<g id="node6" class="node">
<title>Node6</title>
<g id="a_node6"><a xlink:href="can_8c.html#ac7781a37ca14c5bf42c4fe9de1f4daa8" target="_top" xlink:title=" ">
<polygon fill="white" stroke="black" points="77,-0.5 77,-19.5 142,-19.5 142,-0.5 77,-0.5"/>
<text text-anchor="middle" x="109.5" y="-7.5" font-family="Fira Code" font-size="10.00">can_init</text>
</a>
</g>
</g>
<!-- Node5&#45;&gt;Node6 -->
<g id="edge5" class="edge">
<title>Node5&#45;&gt;Node6</title>
<path fill="none" stroke="midnightblue" d="M182,-10C168.38,-10 154.09,-10 141.89,-10"/>
<polygon fill="midnightblue" stroke="midnightblue" points="181.71,-13.5 191.71,-10 181.71,-6.5 181.71,-13.5"/>
</g>
<!-- Node6&#45;&gt;Node4 -->
<g id="edge6" class="edge">
<title>Node6&#45;&gt;Node4</title>
<path fill="none" stroke="midnightblue" d="M66.09,-19.26C57.3,-21.18 48.44,-23.12 40.97,-24.75"/>
<polygon fill="midnightblue" stroke="midnightblue" points="66.59,-22.74 75.61,-17.18 65.1,-15.9 66.59,-22.74"/>
</g>
</g>
</svg>
