<?xml version="1.0" encoding="UTF-8" standalone="no"?>
<!DOCTYPE svg PUBLIC "-//W3C//DTD SVG 1.1//EN"
 "http://www.w3.org/Graphics/SVG/1.1/DTD/svg11.dtd">
<!-- Generated by graphviz version 7.0.0 (20221023.0053)
 -->
<!-- Title: src/memory.h Pages: 1 -->
<svg width="471pt" height="84pt"
 viewBox="0.00 0.00 471.00 84.00" xmlns="http://www.w3.org/2000/svg" xmlns:xlink="http://www.w3.org/1999/xlink">
<g id="graph0" class="graph" transform="scale(1 1) rotate(0) translate(4 80)">
<title>src/memory.h</title>
<polygon fill="white" stroke="none" points="-4,4 -4,-80 467,-80 467,4 -4,4"/>
<!-- Node1 -->
<g id="node1" class="node">
<title>Node1</title>
<g id="a_node1"><a xlink:title=" ">
<polygon fill="#bfbfbf" stroke="black" points="178,-56.5 178,-75.5 267,-75.5 267,-56.5 178,-56.5"/>
<text text-anchor="middle" x="222.5" y="-63.5" font-family="Fira Code" font-size="10.00">src/memory.h</text>
</a>
</g>
</g>
<!-- Node2 -->
<g id="node2" class="node">
<title>Node2</title>
<g id="a_node2"><a xlink:href="demo_8c.html" target="_top" xlink:title=" ">
<polygon fill="white" stroke="black" points="0,-0.5 0,-19.5 77,-19.5 77,-0.5 0,-0.5"/>
<text text-anchor="middle" x="38.5" y="-7.5" font-family="Fira Code" font-size="10.00">src/demo.c</text>
</a>
</g>
</g>
<!-- Node1&#45;&gt;Node2 -->
<g id="edge1" class="edge">
<title>Node1&#45;&gt;Node2</title>
<path fill="none" stroke="midnightblue" d="M183.04,-53.42C148.29,-43.22 98.49,-28.61 67.35,-19.47"/>
<polygon fill="midnightblue" stroke="midnightblue" points="181.72,-56.68 192.3,-56.14 183.69,-49.96 181.72,-56.68"/>
</g>
<!-- Node3 -->
<g id="node3" class="node">
<title>Node3</title>
<g id="a_node3"><a xlink:href="fai_8c.html" target="_top" xlink:title=" ">
<polygon fill="white" stroke="black" points="95,-0.5 95,-19.5 166,-19.5 166,-0.5 95,-0.5"/>
<text text-anchor="middle" x="130.5" y="-7.5" font-family="Fira Code" font-size="10.00">src/fai.c</text>
</a>
</g>
</g>
<!-- Node1&#45;&gt;Node3 -->
<g id="edge2" class="edge">
<title>Node1&#45;&gt;Node3</title>
<path fill="none" stroke="midnightblue" d="M198.31,-50.8C181.27,-40.8 159.05,-27.76 144.77,-19.38"/>
<polygon fill="midnightblue" stroke="midnightblue" points="196.42,-53.75 206.82,-55.8 199.97,-47.72 196.42,-53.75"/>
</g>
<!-- Node4 -->
<g id="node4" class="node">
<title>Node4</title>
<g id="a_node4"><a xlink:href="fifo_8c.html" target="_top" xlink:title=" ">
<polygon fill="white" stroke="black" points="184,-0.5 184,-19.5 261,-19.5 261,-0.5 184,-0.5"/>
<text text-anchor="middle" x="222.5" y="-7.5" font-family="Fira Code" font-size="10.00">src/fifo.c</text>
</a>
</g>
</g>
<!-- Node1&#45;&gt;Node4 -->
<g id="edge3" class="edge">
<title>Node1&#45;&gt;Node4</title>
<path fill="none" stroke="midnightblue" d="M222.5,-45.1C222.5,-36.14 222.5,-26.06 222.5,-19.2"/>
<polygon fill="midnightblue" stroke="midnightblue" points="219,-45.05 222.5,-55.05 226,-45.05 219,-45.05"/>
</g>
<!-- Node5 -->
<g id="node5" class="node">
<title>Node5</title>
<g id="a_node5"><a xlink:href="main_8c.html" target="_top" xlink:title=" ">
<polygon fill="white" stroke="black" points="279,-0.5 279,-19.5 356,-19.5 356,-0.5 279,-0.5"/>
<text text-anchor="middle" x="317.5" y="-7.5" font-family="Fira Code" font-size="10.00">src/main.c</text>
</a>
</g>
</g>
<!-- Node1&#45;&gt;Node5 -->
<g id="edge4" class="edge">
<title>Node1&#45;&gt;Node5</title>
<path fill="none" stroke="midnightblue" d="M246.99,-51.08C264.64,-41.05 287.88,-27.84 302.76,-19.38"/>
<polygon fill="midnightblue" stroke="midnightblue" points="245.62,-47.83 238.66,-55.81 249.08,-53.92 245.62,-47.83"/>
</g>
<!-- Node6 -->
<g id="node6" class="node">
<title>Node6</title>
<g id="a_node6"><a xlink:href="memory_8c.html" target="_top" xlink:title=" ">
<polygon fill="white" stroke="black" points="374,-0.5 374,-19.5 463,-19.5 463,-0.5 374,-0.5"/>
<text text-anchor="middle" x="418.5" y="-7.5" font-family="Fira Code" font-size="10.00">src/memory.c</text>
</a>
</g>
</g>
<!-- Node1&#45;&gt;Node6 -->
<g id="edge5" class="edge">
<title>Node1&#45;&gt;Node6</title>
<path fill="none" stroke="midnightblue" d="M264.06,-53.55C301.09,-43.35 354.45,-28.65 387.77,-19.47"/>
<polygon fill="midnightblue" stroke="midnightblue" points="263.3,-50.13 254.58,-56.16 265.15,-56.88 263.3,-50.13"/>
</g>
</g>
</svg>
