<?xml version="1.0" encoding="UTF-8" standalone="no"?>
<!DOCTYPE svg PUBLIC "-//W3C//DTD SVG 1.1//EN"
 "http://www.w3.org/Graphics/SVG/1.1/DTD/svg11.dtd">
<!-- Generated by graphviz version 7.0.0 (20221023.0053)
 -->
<!-- Title: memcpy_by_U8 Pages: 1 -->
<svg width="496pt" height="142pt"
 viewBox="0.00 0.00 496.00 142.00" xmlns="http://www.w3.org/2000/svg" xmlns:xlink="http://www.w3.org/1999/xlink">
<g id="graph0" class="graph" transform="scale(1 1) rotate(0) translate(4 138)">
<title>memcpy_by_U8</title>
<polygon fill="white" stroke="none" points="-4,4 -4,-138 492,-138 492,4 -4,4"/>
<!-- Node1 -->
<g id="node1" class="node">
<title>Node1</title>
<g id="a_node1"><a xlink:title=" ">
<polygon fill="#bfbfbf" stroke="black" points="399,-76.5 399,-95.5 488,-95.5 488,-76.5 399,-76.5"/>
<text text-anchor="middle" x="443.5" y="-83.5" font-family="Fira Code" font-size="10.00">memcpy_by_U8</text>
</a>
</g>
</g>
<!-- Node2 -->
<g id="node2" class="node">
<title>Node2</title>
<g id="a_node2"><a xlink:href="fifo_8c.html#a234edb8a8e6cbf7499b0548fce3ef685" target="_top" xlink:title=" ">
<polygon fill="white" stroke="black" points="277,-114.5 277,-133.5 354,-133.5 354,-114.5 277,-114.5"/>
<text text-anchor="middle" x="315.5" y="-121.5" font-family="Fira Code" font-size="10.00">fifo_q_add</text>
</a>
</g>
</g>
<!-- Node1&#45;&gt;Node2 -->
<g id="edge1" class="edge">
<title>Node1&#45;&gt;Node2</title>
<path fill="none" stroke="midnightblue" d="M400.12,-98.78C382.92,-103.97 363.41,-109.85 347.57,-114.63"/>
<polygon fill="midnightblue" stroke="midnightblue" points="401.02,-102.17 409.58,-95.93 399,-95.46 401.02,-102.17"/>
</g>
<!-- Node4 -->
<g id="node4" class="node">
<title>Node4</title>
<g id="a_node4"><a xlink:href="demo_8c.html#a8489006a8001195d03aacab850866e28" target="_top" xlink:title=" ">
<polygon fill="white" stroke="black" points="0,-95.5 0,-114.5 89,-114.5 89,-95.5 0,-95.5"/>
<text text-anchor="middle" x="44.5" y="-102.5" font-family="Fira Code" font-size="10.00">task_demo_tx</text>
</a>
</g>
</g>
<!-- Node1&#45;&gt;Node4 -->
<g id="edge8" class="edge">
<title>Node1&#45;&gt;Node4</title>
<path fill="none" stroke="midnightblue" d="M388.01,-88.61C308.4,-92.42 161.85,-99.43 88.99,-102.92"/>
<polygon fill="midnightblue" stroke="midnightblue" points="387.93,-92.12 397.75,-88.14 387.59,-85.12 387.93,-92.12"/>
</g>
<!-- Node5 -->
<g id="node5" class="node">
<title>Node5</title>
<g id="a_node5"><a xlink:href="fifo_8c.html#a836ffaf8bc36859137fd95ab1876acd7" target="_top" xlink:title=" ">
<polygon fill="white" stroke="black" points="268,-38.5 268,-57.5 363,-57.5 363,-38.5 268,-38.5"/>
<text text-anchor="middle" x="315.5" y="-45.5" font-family="Fira Code" font-size="10.00">fifo_q_remove</text>
</a>
</g>
</g>
<!-- Node1&#45;&gt;Node5 -->
<g id="edge4" class="edge">
<title>Node1&#45;&gt;Node5</title>
<path fill="none" stroke="midnightblue" d="M400.12,-73.22C382.92,-68.03 363.41,-62.15 347.57,-57.37"/>
<polygon fill="midnightblue" stroke="midnightblue" points="399,-76.54 409.58,-76.07 401.02,-69.83 399,-76.54"/>
</g>
<!-- Node3 -->
<g id="node3" class="node">
<title>Node3</title>
<g id="a_node3"><a xlink:href="can_8c.html#a8684cbb2f82c53705820ad7785972ded" target="_top" xlink:title=" ">
<polygon fill="white" stroke="black" points="134,-114.5 134,-133.5 223,-133.5 223,-114.5 134,-114.5"/>
<text text-anchor="middle" x="178.5" y="-121.5" font-family="Fira Code" font-size="10.00">can_tx_q_add</text>
</a>
</g>
</g>
<!-- Node2&#45;&gt;Node3 -->
<g id="edge2" class="edge">
<title>Node2&#45;&gt;Node3</title>
<path fill="none" stroke="midnightblue" d="M265.79,-124C251.75,-124 236.53,-124 222.84,-124"/>
<polygon fill="midnightblue" stroke="midnightblue" points="265.74,-127.5 275.74,-124 265.74,-120.5 265.74,-127.5"/>
</g>
<!-- Node3&#45;&gt;Node4 -->
<g id="edge3" class="edge">
<title>Node3&#45;&gt;Node4</title>
<path fill="none" stroke="midnightblue" d="M123.07,-116.17C111.66,-114.52 99.76,-112.81 88.82,-111.24"/>
<polygon fill="midnightblue" stroke="midnightblue" points="122.38,-119.6 132.78,-117.56 123.38,-112.67 122.38,-119.6"/>
</g>
<!-- Node6 -->
<g id="node6" class="node">
<title>Node6</title>
<g id="a_node6"><a xlink:href="can_8c.html#aa64b834bf8ac23eb4ee242af8b1edb3c" target="_top" xlink:title=" ">
<polygon fill="white" stroke="black" points="125,-38.5 125,-57.5 232,-57.5 232,-38.5 125,-38.5"/>
<text text-anchor="middle" x="178.5" y="-45.5" font-family="Fira Code" font-size="10.00">can_rx_q_remove</text>
</a>
</g>
</g>
<!-- Node5&#45;&gt;Node6 -->
<g id="edge5" class="edge">
<title>Node5&#45;&gt;Node6</title>
<path fill="none" stroke="midnightblue" d="M256.8,-48C248.43,-48 239.85,-48 231.6,-48"/>
<polygon fill="midnightblue" stroke="midnightblue" points="256.53,-51.5 266.53,-48 256.53,-44.5 256.53,-51.5"/>
</g>
<!-- Node8 -->
<g id="node8" class="node">
<title>Node8</title>
<g id="a_node8"><a xlink:href="can_8c.html#a3f67e8b772017b4dd4a9a1c9eaa6c03e" target="_top" xlink:title=" ">
<polygon fill="white" stroke="black" points="137,-0.5 137,-19.5 220,-19.5 220,-0.5 137,-0.5"/>
<text text-anchor="middle" x="178.5" y="-7.5" font-family="Fira Code" font-size="10.00">task_can_tx</text>
</a>
</g>
</g>
<!-- Node5&#45;&gt;Node8 -->
<g id="edge7" class="edge">
<title>Node5&#45;&gt;Node8</title>
<path fill="none" stroke="midnightblue" d="M269.88,-35.44C251.26,-30.2 230.01,-24.22 212.79,-19.37"/>
<polygon fill="midnightblue" stroke="midnightblue" points="268.75,-38.76 279.33,-38.1 270.65,-32.02 268.75,-38.76"/>
</g>
<!-- Node7 -->
<g id="node7" class="node">
<title>Node7</title>
<g id="a_node7"><a xlink:href="demo_8c.html#ab020e52284652b4784b684576f4f38a3" target="_top" xlink:title=" ">
<polygon fill="white" stroke="black" points="0,-38.5 0,-57.5 89,-57.5 89,-38.5 0,-38.5"/>
<text text-anchor="middle" x="44.5" y="-45.5" font-family="Fira Code" font-size="10.00">task_demo_rx</text>
</a>
</g>
</g>
<!-- Node6&#45;&gt;Node7 -->
<g id="edge6" class="edge">
<title>Node6&#45;&gt;Node7</title>
<path fill="none" stroke="midnightblue" d="M113.84,-48C105.36,-48 96.82,-48 88.79,-48"/>
<polygon fill="midnightblue" stroke="midnightblue" points="113.82,-51.5 123.82,-48 113.82,-44.5 113.82,-51.5"/>
</g>
</g>
</svg>
