<?xml version="1.0" encoding="UTF-8" standalone="no"?>
<!DOCTYPE svg PUBLIC "-//W3C//DTD SVG 1.1//EN"
 "http://www.w3.org/Graphics/SVG/1.1/DTD/svg11.dtd">
<!-- Generated by graphviz version 7.0.0 (20221023.0053)
 -->
<!-- Title: scheduler_init Pages: 1 -->
<svg width="240pt" height="66pt"
 viewBox="0.00 0.00 240.00 66.00" xmlns="http://www.w3.org/2000/svg" xmlns:xlink="http://www.w3.org/1999/xlink">
<g id="graph0" class="graph" transform="scale(1 1) rotate(0) translate(4 62)">
<title>scheduler_init</title>
<polygon fill="white" stroke="none" points="-4,4 -4,-62 236,-62 236,4 -4,4"/>
<!-- Node1 -->
<g id="node1" class="node">
<title>Node1</title>
<g id="a_node1"><a xlink:title=" ">
<polygon fill="#bfbfbf" stroke="black" points="0,-19.5 0,-38.5 101,-38.5 101,-19.5 0,-19.5"/>
<text text-anchor="middle" x="50.5" y="-26.5" font-family="Fira Code" font-size="10.00">scheduler_init</text>
</a>
</g>
</g>
<!-- Node2 -->
<g id="node2" class="node">
<title>Node2</title>
<g id="a_node2"><a xlink:href="atm328p__timer_8c.html#a907b8a1d14f3ca400b50e44c840ce2d4" target="_top" xlink:title=" ">
<polygon fill="white" stroke="black" points="137,-38.5 137,-57.5 232,-57.5 232,-38.5 137,-38.5"/>
<text text-anchor="middle" x="184.5" y="-45.5" font-family="Fira Code" font-size="10.00">timer1_enable</text>
</a>
</g>
</g>
<!-- Node1&#45;&gt;Node2 -->
<g id="edge1" class="edge">
<title>Node1&#45;&gt;Node2</title>
<path fill="none" stroke="midnightblue" d="M100.65,-36.07C108.92,-37.26 117.56,-38.51 126.01,-39.73"/>
<polygon fill="midnightblue" stroke="midnightblue" points="125.47,-43.18 135.87,-41.14 126.47,-36.25 125.47,-43.18"/>
</g>
<!-- Node3 -->
<g id="node3" class="node">
<title>Node3</title>
<g id="a_node3"><a xlink:href="atm328p__timer_8c.html#a55e6de6b1fc3fd56f250873a0ed03c19" target="_top" xlink:title=" ">
<polygon fill="white" stroke="black" points="146,-0.5 146,-19.5 223,-19.5 223,-0.5 146,-0.5"/>
<text text-anchor="middle" x="184.5" y="-7.5" font-family="Fira Code" font-size="10.00">timer1_set</text>
</a>
</g>
</g>
<!-- Node1&#45;&gt;Node3 -->
<g id="edge2" class="edge">
<title>Node1&#45;&gt;Node3</title>
<path fill="none" stroke="midnightblue" d="M100.65,-21.93C111.86,-20.31 123.76,-18.6 134.94,-16.99"/>
<polygon fill="midnightblue" stroke="midnightblue" points="135.38,-20.46 144.78,-15.57 134.38,-13.53 135.38,-20.46"/>
</g>
</g>
</svg>
