<?xml version="1.0" encoding="UTF-8" standalone="no"?>
<!DOCTYPE svg PUBLIC "-//W3C//DTD SVG 1.1//EN"
 "http://www.w3.org/Graphics/SVG/1.1/DTD/svg11.dtd">
<!-- Generated by graphviz version 7.0.0 (20221023.0053)
 -->
<!-- Title: src/scheduler.c Pages: 1 -->
<!--zoomable 196 -->
<svg id="main" version="1.1" xmlns="http://www.w3.org/2000/svg" xmlns:xlink="http://www.w3.org/1999/xlink" xml:space="preserve" onload="init(evt)">
<style type="text/css"><![CDATA[
.edge:hover path { stroke: red; }
.edge:hover polygon { stroke: red; fill: red; }
]]></style>
<script type="text/javascript"><![CDATA[
var edges = document.getElementsByTagName('g');
if (edges && edges.length) {
  for (var i=0;i<edges.length;i++) {
    if (edges[i].id.substr(0,4)=='edge') {
      edges[i].setAttribute('class','edge');
    }
  }
}
]]></script>
        <defs>
                <circle id="rim" cx="0" cy="0" r="7"/>
                <circle id="rim2" cx="0" cy="0" r="3.5"/>
                <g id="zoomPlus">
                        <use xlink:href="#rim" fill="#404040">
                                <set attributeName="fill" to="#808080" begin="zoomplus.mouseover" end="zoomplus.mouseout"/>
                        </use>
                        <path d="M-4,0h8M0,-4v8" fill="none" stroke="white" stroke-width="1.5" pointer-events="none"/>
                </g>
                <g id="zoomMin">
                        <use xlink:href="#rim" fill="#404040">
                                <set attributeName="fill" to="#808080" begin="zoomminus.mouseover" end="zoomminus.mouseout"/>
                        </use>
                        <path d="M-4,0h8" fill="none" stroke="white" stroke-width="1.5" pointer-events="none"/>
                </g>
                <g id="dirArrow">
                        <path fill="none" stroke="white" stroke-width="1.5" d="M0,-3.0v7 M-2.5,-0.5L0,-3.0L2.5,-0.5"/>
                </g>
               <g id="resetDef">
                       <use xlink:href="#rim2" fill="#404040">
                               <set attributeName="fill" to="#808080" begin="reset.mouseover" end="reset.mouseout"/>
                       </use>
               </g>
        </defs>

<script type="text/javascript">
var viewWidth = 675;
var viewHeight = 196;
var sectionId = 'dynsection-0';
</script>
<script xlink:href="svgpan.js"/>
<svg id="graph" class="graph">
<g id="viewport">
<title>src/scheduler.c</title>
<polygon fill="white" stroke="none" points="-4,4 -4,-192 671,-192 671,4 -4,4"/>
<!-- Node1 -->
<g id="node1" class="node">
<title>Node1</title>
<g id="a_node1"><a xlink:title=" ">
<polygon fill="#bfbfbf" stroke="black" points="287,-168.5 287,-187.5 394,-187.5 394,-168.5 287,-168.5"/>
<text text-anchor="middle" x="340.5" y="-175.5" font-family="Fira Code" font-size="10.00">src/scheduler.c</text>
</a>
</g>
</g>
<!-- Node2 -->
<g id="node2" class="node">
<title>Node2</title>
<g id="a_node2"><a xlink:href="scheduler_8h.html" target="_top" xlink:title=" ">
<polygon fill="white" stroke="black" points="0,-112.5 0,-131.5 83,-131.5 83,-112.5 0,-112.5"/>
<text text-anchor="middle" x="41.5" y="-119.5" font-family="Fira Code" font-size="10.00">scheduler.h</text>
</a>
</g>
</g>
<!-- Node1&#45;&gt;Node2 -->
<g id="edge1" class="edge">
<title>Node1&#45;&gt;Node2</title>
<path fill="none" stroke="midnightblue" d="M293.45,-168.5C239.29,-158.72 150.57,-142.7 94.16,-132.51"/>
<polygon fill="midnightblue" stroke="midnightblue" points="94.93,-129.09 84.47,-130.76 93.68,-135.98 94.93,-129.09"/>
</g>
<!-- Node3 -->
<g id="node3" class="node">
<title>Node3</title>
<g id="a_node3"><a xlink:href="interrupts_8h.html" target="_top" xlink:title=" ">
<polygon fill="white" stroke="black" points="101,-112.5 101,-131.5 190,-131.5 190,-112.5 101,-112.5"/>
<text text-anchor="middle" x="145.5" y="-119.5" font-family="Fira Code" font-size="10.00">interrupts.h</text>
</a>
</g>
</g>
<!-- Node1&#45;&gt;Node3 -->
<g id="edge2" class="edge">
<title>Node1&#45;&gt;Node3</title>
<path fill="none" stroke="midnightblue" d="M310.03,-168.56C276.93,-159.4 223.85,-144.7 186.96,-134.48"/>
<polygon fill="midnightblue" stroke="midnightblue" points="188.11,-131.17 177.53,-131.87 186.24,-137.91 188.11,-131.17"/>
</g>
<!-- Node4 -->
<g id="node4" class="node">
<title>Node4</title>
<g id="a_node4"><a xlink:href="timer_8h.html" target="_top" xlink:title=" ">
<polygon fill="white" stroke="black" points="221,-56.5 221,-75.5 280,-75.5 280,-56.5 221,-56.5"/>
<text text-anchor="middle" x="250.5" y="-63.5" font-family="Fira Code" font-size="10.00">timer.h</text>
</a>
</g>
</g>
<!-- Node1&#45;&gt;Node4 -->
<g id="edge3" class="edge">
<title>Node1&#45;&gt;Node4</title>
<path fill="none" stroke="midnightblue" d="M319.54,-168.64C303.6,-161.27 282.31,-149.02 269.5,-132 259.54,-118.77 254.79,-100.41 252.53,-86.58"/>
<polygon fill="midnightblue" stroke="midnightblue" points="256.03,-86.4 251.27,-76.93 249.09,-87.3 256.03,-86.4"/>
</g>
<!-- Node6 -->
<g id="node6" class="node">
<title>Node6</title>
<g id="a_node6"><a xlink:href="dsc_8h.html" target="_top" xlink:title=" ">
<polygon fill="white" stroke="black" points="314,-56.5 314,-75.5 361,-75.5 361,-56.5 314,-56.5"/>
<text text-anchor="middle" x="337.5" y="-63.5" font-family="Fira Code" font-size="10.00">dsc.h</text>
</a>
</g>
</g>
<!-- Node1&#45;&gt;Node6 -->
<g id="edge5" class="edge">
<title>Node1&#45;&gt;Node6</title>
<path fill="none" stroke="midnightblue" d="M319.01,-168.6C303.82,-161.39 284.61,-149.39 275.5,-132 264.68,-111.34 287.65,-92.64 308.63,-80.66"/>
<polygon fill="midnightblue" stroke="midnightblue" points="310.1,-83.84 317.28,-76.05 306.81,-77.66 310.1,-83.84"/>
</g>
<!-- Node7 -->
<g id="node7" class="node">
<title>Node7</title>
<g id="a_node7"><a xlink:href="spi_8h.html" target="_top" xlink:title=" ">
<polygon fill="white" stroke="black" points="285,-112.5 285,-131.5 332,-131.5 332,-112.5 285,-112.5"/>
<text text-anchor="middle" x="308.5" y="-119.5" font-family="Fira Code" font-size="10.00">spi.h</text>
</a>
</g>
</g>
<!-- Node1&#45;&gt;Node7 -->
<g id="edge7" class="edge">
<title>Node1&#45;&gt;Node7</title>
<path fill="none" stroke="midnightblue" d="M335.5,-168.56C331.15,-161.23 324.71,-150.35 319.21,-141.07"/>
<polygon fill="midnightblue" stroke="midnightblue" points="322.24,-139.32 314.13,-132.5 316.22,-142.89 322.24,-139.32"/>
</g>
<!-- Node8 -->
<g id="node8" class="node">
<title>Node8</title>
<g id="a_node8"><a xlink:href="bit_8h.html" target="_top" xlink:title=" ">
<polygon fill="white" stroke="black" points="350,-112.5 350,-131.5 397,-131.5 397,-112.5 350,-112.5"/>
<text text-anchor="middle" x="373.5" y="-119.5" font-family="Fira Code" font-size="10.00">bit.h</text>
</a>
</g>
</g>
<!-- Node1&#45;&gt;Node8 -->
<g id="edge8" class="edge">
<title>Node1&#45;&gt;Node8</title>
<path fill="none" stroke="midnightblue" d="M345.66,-168.56C350.19,-161.15 356.93,-150.12 362.64,-140.76"/>
<polygon fill="midnightblue" stroke="midnightblue" points="365.47,-142.85 367.7,-132.49 359.5,-139.2 365.47,-142.85"/>
</g>
<!-- Node9 -->
<g id="node9" class="node">
<title>Node9</title>
<g id="a_node9"><a xlink:href="can_8h.html" target="_top" xlink:title=" ">
<polygon fill="white" stroke="black" points="415,-112.5 415,-131.5 462,-131.5 462,-112.5 415,-112.5"/>
<text text-anchor="middle" x="438.5" y="-119.5" font-family="Fira Code" font-size="10.00">can.h</text>
</a>
</g>
</g>
<!-- Node1&#45;&gt;Node9 -->
<g id="edge9" class="edge">
<title>Node1&#45;&gt;Node9</title>
<path fill="none" stroke="midnightblue" d="M355.81,-168.56C371.2,-160.08 395.19,-146.87 413.37,-136.85"/>
<polygon fill="midnightblue" stroke="midnightblue" points="414.9,-140 421.97,-132.11 411.52,-133.87 414.9,-140"/>
</g>
<!-- Node11 -->
<g id="node11" class="node">
<title>Node11</title>
<g id="a_node11"><a xlink:href="fai_8h.html" target="_top" xlink:title=" ">
<polygon fill="white" stroke="black" points="462,-56.5 462,-75.5 509,-75.5 509,-56.5 462,-56.5"/>
<text text-anchor="middle" x="485.5" y="-63.5" font-family="Fira Code" font-size="10.00">fai.h</text>
</a>
</g>
</g>
<!-- Node1&#45;&gt;Node11 -->
<g id="edge12" class="edge">
<title>Node1&#45;&gt;Node11</title>
<path fill="none" stroke="midnightblue" d="M393.93,-171.09C420.85,-165.37 451.86,-154.12 471.5,-132 482.41,-119.71 485.52,-100.98 486.12,-86.78"/>
<polygon fill="midnightblue" stroke="midnightblue" points="489.62,-86.84 486.13,-76.83 482.62,-86.83 489.62,-86.84"/>
</g>
<!-- Node12 -->
<g id="node12" class="node">
<title>Node12</title>
<g id="a_node12"><a xlink:href="watchdog_8h.html" target="_top" xlink:title=" ">
<polygon fill="white" stroke="black" points="519,-112.5 519,-131.5 596,-131.5 596,-112.5 519,-112.5"/>
<text text-anchor="middle" x="557.5" y="-119.5" font-family="Fira Code" font-size="10.00">watchdog.h</text>
</a>
</g>
</g>
<!-- Node1&#45;&gt;Node12 -->
<g id="edge14" class="edge">
<title>Node1&#45;&gt;Node12</title>
<path fill="none" stroke="midnightblue" d="M374.41,-168.56C411.56,-159.32 471.33,-144.44 512.42,-134.22"/>
<polygon fill="midnightblue" stroke="midnightblue" points="513.15,-137.64 522.01,-131.83 511.46,-130.85 513.15,-137.64"/>
</g>
<!-- Node13 -->
<g id="node13" class="node">
<title>Node13</title>
<g id="a_node13"><a xlink:href="demo_8h.html" target="_top" xlink:title=" ">
<polygon fill="white" stroke="black" points="614,-112.5 614,-131.5 667,-131.5 667,-112.5 614,-112.5"/>
<text text-anchor="middle" x="640.5" y="-119.5" font-family="Fira Code" font-size="10.00">demo.h</text>
</a>
</g>
</g>
<!-- Node1&#45;&gt;Node13 -->
<g id="edge15" class="edge">
<title>Node1&#45;&gt;Node13</title>
<path fill="none" stroke="midnightblue" d="M393.79,-169.29C445.07,-161.57 525.01,-148.75 603.17,-132.36"/>
<polygon fill="midnightblue" stroke="midnightblue" points="603.65,-135.83 612.7,-130.33 602.19,-128.98 603.65,-135.83"/>
</g>
<!-- Node5 -->
<g id="node5" class="node">
<title>Node5</title>
<g id="a_node5"><a xlink:href="types_8h.html" target="_top" xlink:title=" ">
<polygon fill="white" stroke="black" points="346,-0.5 346,-19.5 405,-19.5 405,-0.5 346,-0.5"/>
<text text-anchor="middle" x="375.5" y="-7.5" font-family="Fira Code" font-size="10.00">types.h</text>
</a>
</g>
</g>
<!-- Node4&#45;&gt;Node5 -->
<g id="edge4" class="edge">
<title>Node4&#45;&gt;Node5</title>
<path fill="none" stroke="midnightblue" d="M270.03,-56.56C290.3,-47.8 322.27,-34 345.7,-23.88"/>
<polygon fill="midnightblue" stroke="midnightblue" points="346.92,-27.16 354.72,-19.98 344.15,-20.73 346.92,-27.16"/>
</g>
<!-- Node6&#45;&gt;Node5 -->
<g id="edge6" class="edge">
<title>Node6&#45;&gt;Node5</title>
<path fill="none" stroke="midnightblue" d="M343.44,-56.56C348.71,-49.07 356.59,-37.88 363.21,-28.46"/>
<polygon fill="midnightblue" stroke="midnightblue" points="365.96,-30.63 368.86,-20.44 360.24,-26.6 365.96,-30.63"/>
</g>
<!-- Node10 -->
<g id="node10" class="node">
<title>Node10</title>
<g id="a_node10"><a xlink:href="fifo_8h.html" target="_top" xlink:title=" ">
<polygon fill="white" stroke="black" points="387,-56.5 387,-75.5 440,-75.5 440,-56.5 387,-56.5"/>
<text text-anchor="middle" x="413.5" y="-63.5" font-family="Fira Code" font-size="10.00">fifo.h</text>
</a>
</g>
</g>
<!-- Node9&#45;&gt;Node10 -->
<g id="edge10" class="edge">
<title>Node9&#45;&gt;Node10</title>
<path fill="none" stroke="midnightblue" d="M434.59,-112.56C431.24,-105.31 426.27,-94.59 422,-85.37"/>
<polygon fill="midnightblue" stroke="midnightblue" points="425.31,-84.18 417.93,-76.57 418.96,-87.12 425.31,-84.18"/>
</g>
<!-- Node10&#45;&gt;Node5 -->
<g id="edge11" class="edge">
<title>Node10&#45;&gt;Node5</title>
<path fill="none" stroke="midnightblue" d="M407.56,-56.56C402.29,-49.07 394.41,-37.88 387.79,-28.46"/>
<polygon fill="midnightblue" stroke="midnightblue" points="390.76,-26.6 382.14,-20.44 385.04,-30.63 390.76,-26.6"/>
</g>
<!-- Node11&#45;&gt;Node5 -->
<g id="edge13" class="edge">
<title>Node11&#45;&gt;Node5</title>
<path fill="none" stroke="midnightblue" d="M468.31,-56.56C450.8,-47.96 423.36,-34.49 402.85,-24.43"/>
<polygon fill="midnightblue" stroke="midnightblue" points="404.44,-21.31 393.93,-20.05 401.36,-27.59 404.44,-21.31"/>
</g>
</g>
</svg>
        <g id="navigator" transform="translate(0 0)" fill="#404254">
                <rect fill="#f2f5e9" fill-opacity="0.5" stroke="#606060" stroke-width=".5" x="0" y="0" width="60" height="60"/>
                <use id="zoomplus" xlink:href="#zoomPlus" x="17" y="9" onmousedown="handleZoom(evt,'in')"/>
                <use id="zoomminus" xlink:href="#zoomMin" x="42" y="9" onmousedown="handleZoom(evt,'out')"/>
                <use id="reset" xlink:href="#resetDef" x="30" y="36" onmousedown="handleReset()"/>
                <g id="arrowUp" xlink:href="#dirArrow" transform="translate(30 24)" onmousedown="handlePan(0,-1)">
                  <use xlink:href="#rim" fill="#404040">
                        <set attributeName="fill" to="#808080" begin="arrowUp.mouseover" end="arrowUp.mouseout"/>
                  </use>
                  <path fill="none" stroke="white" stroke-width="1.5" d="M0,-3.0v7 M-2.5,-0.5L0,-3.0L2.5,-0.5"/>
                </g>
                <g id="arrowRight" xlink:href="#dirArrow" transform="rotate(90) translate(36 -43)" onmousedown="handlePan(1,0)">
                  <use xlink:href="#rim" fill="#404040">
                        <set attributeName="fill" to="#808080" begin="arrowRight.mouseover" end="arrowRight.mouseout"/>
                  </use>
                  <path fill="none" stroke="white" stroke-width="1.5" d="M0,-3.0v7 M-2.5,-0.5L0,-3.0L2.5,-0.5"/>
                </g>
                <g id="arrowDown" xlink:href="#dirArrow" transform="rotate(180) translate(-30 -48)" onmousedown="handlePan(0,1)">
                  <use xlink:href="#rim" fill="#404040">
                        <set attributeName="fill" to="#808080" begin="arrowDown.mouseover" end="arrowDown.mouseout"/>
                  </use>
                  <path fill="none" stroke="white" stroke-width="1.5" d="M0,-3.0v7 M-2.5,-0.5L0,-3.0L2.5,-0.5"/>
                </g>
                <g id="arrowLeft" xlink:href="#dirArrow" transform="rotate(270) translate(-36 17)" onmousedown="handlePan(-1,0)">
                  <use xlink:href="#rim" fill="#404040">
                        <set attributeName="fill" to="#808080" begin="arrowLeft.mouseover" end="arrowLeft.mouseout"/>
                  </use>
                  <path fill="none" stroke="white" stroke-width="1.5" d="M0,-3.0v7 M-2.5,-0.5L0,-3.0L2.5,-0.5"/>
                </g>
        </g>
        <svg viewBox="0 0 15 15" width="100%" height="30px" preserveAspectRatio="xMaxYMin meet">
         <g id="arrow_out" transform="scale(0.3 0.3)">
          <a xlink:href="scheduler_8c__incl_org.svg" target="_base">
           <rect id="button" ry="5" rx="5" y="6" x="6" height="38" width="38"
                fill="#f2f5e9" fill-opacity="0.5" stroke="#606060" stroke-width="1.0"/>
           <path id="arrow"
             d="M 11.500037,31.436501 C 11.940474,20.09759 22.043105,11.32322 32.158766,21.979434 L 37.068811,17.246167 C 37.068811,17.246167 37.088388,32 37.088388,32 L 22.160133,31.978069 C 22.160133,31.978069 26.997745,27.140456 26.997745,27.140456 C 18.528582,18.264221 13.291696,25.230495 11.500037,31.436501 z"
             style="fill:#404040;"/>
          </a>
         </g>
        </svg>
</svg>
