<?xml version="1.0" encoding="UTF-8" standalone="no"?>
<!DOCTYPE svg PUBLIC "-//W3C//DTD SVG 1.1//EN"
 "http://www.w3.org/Graphics/SVG/1.1/DTD/svg11.dtd">
<!-- Generated by graphviz version 7.0.0 (20221023.0053)
 -->
<!-- Title: spi_activate Pages: 1 -->
<svg width="293pt" height="66pt"
 viewBox="0.00 0.00 293.00 66.00" xmlns="http://www.w3.org/2000/svg" xmlns:xlink="http://www.w3.org/1999/xlink">
<g id="graph0" class="graph" transform="scale(1 1) rotate(0) translate(4 62)">
<title>spi_activate</title>
<polygon fill="white" stroke="none" points="-4,4 -4,-62 289,-62 289,4 -4,4"/>
<!-- Node1 -->
<g id="node1" class="node">
<title>Node1</title>
<g id="a_node1"><a xlink:title=" ">
<polygon fill="#bfbfbf" stroke="black" points="196,-19.5 196,-38.5 285,-38.5 285,-19.5 196,-19.5"/>
<text text-anchor="middle" x="240.5" y="-26.5" font-family="Fira Code" font-size="10.00">spi_activate</text>
</a>
</g>
</g>
<!-- Node2 -->
<g id="node2" class="node">
<title>Node2</title>
<g id="a_node2"><a xlink:href="can_8c.html#ac7781a37ca14c5bf42c4fe9de1f4daa8" target="_top" xlink:title=" ">
<polygon fill="white" stroke="black" points="86,-38.5 86,-57.5 151,-57.5 151,-38.5 86,-38.5"/>
<text text-anchor="middle" x="118.5" y="-45.5" font-family="Fira Code" font-size="10.00">can_init</text>
</a>
</g>
</g>
<!-- Node1&#45;&gt;Node2 -->
<g id="edge1" class="edge">
<title>Node1&#45;&gt;Node2</title>
<path fill="none" stroke="midnightblue" d="M185.04,-37.62C173.28,-39.49 161.22,-41.39 150.72,-43.06"/>
<polygon fill="midnightblue" stroke="midnightblue" points="185.35,-41.12 194.68,-36.1 184.26,-34.2 185.35,-41.12"/>
</g>
<!-- Node4 -->
<g id="node4" class="node">
<title>Node4</title>
<g id="a_node4"><a xlink:href="can_8c.html#a4abd3846055a5cb107ae5ced176447fe" target="_top" xlink:title=" ">
<polygon fill="white" stroke="black" points="77,-0.5 77,-19.5 160,-19.5 160,-0.5 77,-0.5"/>
<text text-anchor="middle" x="118.5" y="-7.5" font-family="Fira Code" font-size="10.00">task_can_rx</text>
</a>
</g>
</g>
<!-- Node1&#45;&gt;Node4 -->
<g id="edge3" class="edge">
<title>Node1&#45;&gt;Node4</title>
<path fill="none" stroke="midnightblue" d="M184.89,-20.35C176.5,-19.02 167.97,-17.67 159.96,-16.41"/>
<polygon fill="midnightblue" stroke="midnightblue" points="184.26,-23.8 194.68,-21.9 185.35,-16.88 184.26,-23.8"/>
</g>
<!-- Node3 -->
<g id="node3" class="node">
<title>Node3</title>
<g id="a_node3"><a xlink:href="main_8c.html#a06213d4df6a69a484bbec6698135cb14" target="_top" xlink:title=" ">
<polygon fill="white" stroke="black" points="0,-38.5 0,-57.5 41,-57.5 41,-38.5 0,-38.5"/>
<text text-anchor="middle" x="20.5" y="-45.5" font-family="Fira Code" font-size="10.00">main</text>
</a>
</g>
</g>
<!-- Node2&#45;&gt;Node3 -->
<g id="edge2" class="edge">
<title>Node2&#45;&gt;Node3</title>
<path fill="none" stroke="midnightblue" d="M74.56,-48C62.82,-48 50.66,-48 40.96,-48"/>
<polygon fill="midnightblue" stroke="midnightblue" points="74.55,-51.5 84.55,-48 74.55,-44.5 74.55,-51.5"/>
</g>
</g>
</svg>
