<?xml version="1.0" encoding="UTF-8" standalone="no"?>
<!DOCTYPE svg PUBLIC "-//W3C//DTD SVG 1.1//EN"
 "http://www.w3.org/Graphics/SVG/1.1/DTD/svg11.dtd">
<!-- Generated by graphviz version 7.0.0 (20221023.0053)
 -->
<!-- Title: src/spi.c Pages: 1 -->
<svg width="239pt" height="84pt"
 viewBox="0.00 0.00 239.00 84.00" xmlns="http://www.w3.org/2000/svg" xmlns:xlink="http://www.w3.org/1999/xlink">
<g id="graph0" class="graph" transform="scale(1 1) rotate(0) translate(4 80)">
<title>src/spi.c</title>
<polygon fill="white" stroke="none" points="-4,4 -4,-80 235,-80 235,4 -4,4"/>
<!-- Node1 -->
<g id="node1" class="node">
<title>Node1</title>
<g id="a_node1"><a xlink:title=" ">
<polygon fill="#bfbfbf" stroke="black" points="65,-56.5 65,-75.5 136,-75.5 136,-56.5 65,-56.5"/>
<text text-anchor="middle" x="100.5" y="-63.5" font-family="Fira Code" font-size="10.00">src/spi.c</text>
</a>
</g>
</g>
<!-- Node2 -->
<g id="node2" class="node">
<title>Node2</title>
<g id="a_node2"><a xlink:href="types_8h.html" target="_top" xlink:title=" ">
<polygon fill="white" stroke="black" points="0,-0.5 0,-19.5 59,-19.5 59,-0.5 0,-0.5"/>
<text text-anchor="middle" x="29.5" y="-7.5" font-family="Fira Code" font-size="10.00">types.h</text>
</a>
</g>
</g>
<!-- Node1&#45;&gt;Node2 -->
<g id="edge1" class="edge">
<title>Node1&#45;&gt;Node2</title>
<path fill="none" stroke="midnightblue" d="M89.41,-56.56C78.71,-48.43 62.3,-35.95 49.35,-26.1"/>
<polygon fill="midnightblue" stroke="midnightblue" points="51.57,-23.39 41.49,-20.12 47.33,-28.96 51.57,-23.39"/>
</g>
<!-- Node3 -->
<g id="node3" class="node">
<title>Node3</title>
<g id="a_node3"><a xlink:href="spi_8h.html" target="_top" xlink:title=" ">
<polygon fill="white" stroke="black" points="77,-0.5 77,-19.5 124,-19.5 124,-0.5 77,-0.5"/>
<text text-anchor="middle" x="100.5" y="-7.5" font-family="Fira Code" font-size="10.00">spi.h</text>
</a>
</g>
</g>
<!-- Node1&#45;&gt;Node3 -->
<g id="edge2" class="edge">
<title>Node1&#45;&gt;Node3</title>
<path fill="none" stroke="midnightblue" d="M100.5,-56.56C100.5,-49.63 100.5,-39.52 100.5,-30.59"/>
<polygon fill="midnightblue" stroke="midnightblue" points="104,-30.71 100.5,-20.71 97,-30.72 104,-30.71"/>
</g>
<!-- Node4 -->
<g id="node4" class="node">
<title>Node4</title>
<g id="a_node4"><a xlink:href="interrupts_8h.html" target="_top" xlink:title=" ">
<polygon fill="white" stroke="black" points="142,-0.5 142,-19.5 231,-19.5 231,-0.5 142,-0.5"/>
<text text-anchor="middle" x="186.5" y="-7.5" font-family="Fira Code" font-size="10.00">interrupts.h</text>
</a>
</g>
</g>
<!-- Node1&#45;&gt;Node4 -->
<g id="edge3" class="edge">
<title>Node1&#45;&gt;Node4</title>
<path fill="none" stroke="midnightblue" d="M113.94,-56.56C127.19,-48.24 147.71,-35.36 163.55,-25.41"/>
<polygon fill="midnightblue" stroke="midnightblue" points="165.27,-28.46 171.88,-20.18 161.54,-22.54 165.27,-28.46"/>
</g>
</g>
</svg>
