<?xml version="1.0" encoding="UTF-8" standalone="no"?>
<!DOCTYPE svg PUBLIC "-//W3C//DTD SVG 1.1//EN"
 "http://www.w3.org/Graphics/SVG/1.1/DTD/svg11.dtd">
<!-- Generated by graphviz version 7.0.0 (20221023.0053)
 -->
<!-- Title: src/spi.h Pages: 1 -->
<svg width="537pt" height="95pt"
 viewBox="0.00 0.00 537.00 95.00" xmlns="http://www.w3.org/2000/svg" xmlns:xlink="http://www.w3.org/1999/xlink">
<g id="graph0" class="graph" transform="scale(1 1) rotate(0) translate(4 91)">
<title>src/spi.h</title>
<polygon fill="white" stroke="none" points="-4,4 -4,-91 533,-91 533,4 -4,4"/>
<!-- Node1 -->
<g id="node1" class="node">
<title>Node1</title>
<g id="a_node1"><a xlink:title=" ">
<polygon fill="#bfbfbf" stroke="black" points="241,-67.5 241,-86.5 312,-86.5 312,-67.5 241,-67.5"/>
<text text-anchor="middle" x="276.5" y="-74.5" font-family="Fira Code" font-size="10.00">src/spi.h</text>
</a>
</g>
</g>
<!-- Node2 -->
<g id="node2" class="node">
<title>Node2</title>
<g id="a_node2"><a xlink:href="atm328p__spi_8c.html" target="_top" xlink:title=" ">
<polygon fill="white" stroke="black" points="0,-0.5 0,-30.5 131,-30.5 131,-0.5 0,-0.5"/>
<text text-anchor="start" x="8" y="-18.5" font-family="Fira Code" font-size="10.00">src/atm328p/atm328p</text>
<text text-anchor="middle" x="65.5" y="-7.5" font-family="Fira Code" font-size="10.00">_spi.c</text>
</a>
</g>
</g>
<!-- Node1&#45;&gt;Node2 -->
<g id="edge1" class="edge">
<title>Node1&#45;&gt;Node2</title>
<path fill="none" stroke="midnightblue" d="M235.64,-64.48C201.18,-54.76 151.75,-40.82 115.04,-30.47"/>
<polygon fill="midnightblue" stroke="midnightblue" points="234.69,-67.85 245.26,-67.19 236.58,-61.11 234.69,-67.85"/>
</g>
<!-- Node3 -->
<g id="node3" class="node">
<title>Node3</title>
<g id="a_node3"><a xlink:href="can_8c.html" target="_top" xlink:title=" ">
<polygon fill="white" stroke="black" points="149,-6 149,-25 220,-25 220,-6 149,-6"/>
<text text-anchor="middle" x="184.5" y="-13" font-family="Fira Code" font-size="10.00">src/can.c</text>
</a>
</g>
</g>
<!-- Node1&#45;&gt;Node3 -->
<g id="edge2" class="edge">
<title>Node1&#45;&gt;Node3</title>
<path fill="none" stroke="midnightblue" d="M254.12,-61.53C236.37,-50.04 212.17,-34.4 197.48,-24.89"/>
<polygon fill="midnightblue" stroke="midnightblue" points="252.14,-64.41 262.44,-66.9 255.94,-58.54 252.14,-64.41"/>
</g>
<!-- Node4 -->
<g id="node4" class="node">
<title>Node4</title>
<g id="a_node4"><a xlink:href="main_8c.html" target="_top" xlink:title=" ">
<polygon fill="white" stroke="black" points="238,-6 238,-25 315,-25 315,-6 238,-6"/>
<text text-anchor="middle" x="276.5" y="-13" font-family="Fira Code" font-size="10.00">src/main.c</text>
</a>
</g>
</g>
<!-- Node1&#45;&gt;Node4 -->
<g id="edge3" class="edge">
<title>Node1&#45;&gt;Node4</title>
<path fill="none" stroke="midnightblue" d="M276.5,-56.41C276.5,-45.64 276.5,-32.85 276.5,-24.7"/>
<polygon fill="midnightblue" stroke="midnightblue" points="273,-56.21 276.5,-66.21 280,-56.21 273,-56.21"/>
</g>
<!-- Node5 -->
<g id="node5" class="node">
<title>Node5</title>
<g id="a_node5"><a xlink:href="scheduler_8c.html" target="_top" xlink:title=" ">
<polygon fill="white" stroke="black" points="333,-6 333,-25 440,-25 440,-6 333,-6"/>
<text text-anchor="middle" x="386.5" y="-13" font-family="Fira Code" font-size="10.00">src/scheduler.c</text>
</a>
</g>
</g>
<!-- Node1&#45;&gt;Node5 -->
<g id="edge4" class="edge">
<title>Node1&#45;&gt;Node5</title>
<path fill="none" stroke="midnightblue" d="M301.78,-62.32C323.13,-50.78 353,-34.62 370.98,-24.89"/>
<polygon fill="midnightblue" stroke="midnightblue" points="300.26,-59.17 293.13,-67.01 303.59,-65.33 300.26,-59.17"/>
</g>
<!-- Node6 -->
<g id="node6" class="node">
<title>Node6</title>
<g id="a_node6"><a xlink:href="spi_8c.html" target="_top" xlink:title=" ">
<polygon fill="white" stroke="black" points="458,-6 458,-25 529,-25 529,-6 458,-6"/>
<text text-anchor="middle" x="493.5" y="-13" font-family="Fira Code" font-size="10.00">src/spi.c</text>
</a>
</g>
</g>
<!-- Node1&#45;&gt;Node6 -->
<g id="edge5" class="edge">
<title>Node1&#45;&gt;Node6</title>
<path fill="none" stroke="midnightblue" d="M322.63,-64.85C357.61,-56.19 406.79,-43.58 449.5,-31 455.83,-29.14 462.61,-26.98 468.92,-24.91"/>
<polygon fill="midnightblue" stroke="midnightblue" points="322.15,-61.37 313.27,-67.16 323.82,-68.16 322.15,-61.37"/>
</g>
</g>
</svg>
