<?xml version="1.0" encoding="UTF-8" standalone="no"?>
<!DOCTYPE svg PUBLIC "-//W3C//DTD SVG 1.1//EN"
 "http://www.w3.org/Graphics/SVG/1.1/DTD/svg11.dtd">
<!-- Generated by graphviz version 7.0.0 (20221023.0053)
 -->
<!-- Title: FIFO_T Pages: 1 -->
<svg width="192pt" height="164pt"
 viewBox="0.00 0.00 191.50 164.00" xmlns="http://www.w3.org/2000/svg" xmlns:xlink="http://www.w3.org/1999/xlink">
<g id="graph0" class="graph" transform="scale(1 1) rotate(0) translate(4 160)">
<title>FIFO_T</title>
<polygon fill="white" stroke="none" points="-4,4 -4,-160 187.5,-160 187.5,4 -4,4"/>
<!-- Node1 -->
<g id="node1" class="node">
<title>Node1</title>
<g id="a_node1"><a xlink:title=" ">
<polygon fill="#bfbfbf" stroke="black" points="74,-0.5 74,-19.5 127,-19.5 127,-0.5 74,-0.5"/>
<text text-anchor="middle" x="100.5" y="-7.5" font-family="Fira Code" font-size="10.00">FIFO_T</text>
</a>
</g>
</g>
<!-- Node2 -->
<g id="node2" class="node">
<title>Node2</title>
<g id="a_node2"><a xlink:href="struct_f_i_f_o___e_n_t_r_y___t.html" target="_top" xlink:title=" ">
<polygon fill="white" stroke="black" points="56,-68.5 56,-87.5 145,-87.5 145,-68.5 56,-68.5"/>
<text text-anchor="middle" x="100.5" y="-75.5" font-family="Fira Code" font-size="10.00">FIFO_ENTRY_T</text>
</a>
</g>
</g>
<!-- Node2&#45;&gt;Node1 -->
<g id="edge1" class="edge">
<title>Node2&#45;&gt;Node1</title>
<path fill="none" stroke="#9a32cd" stroke-dasharray="5,2" d="M100.5,-57.42C100.5,-44.81 100.5,-29.03 100.5,-19.5"/>
<polygon fill="#9a32cd" stroke="#9a32cd" points="97,-57.13 100.5,-67.13 104,-57.13 97,-57.13"/>
<text text-anchor="middle" x="113" y="-41" font-family="Fira Code" font-size="10.00"> buf</text>
</g>
<!-- Node3 -->
<g id="node3" class="node">
<title>Node3</title>
<g id="a_node3"><a xlink:title=" ">
<polygon fill="white" stroke="black" points="0,-136.5 0,-155.5 95,-155.5 95,-136.5 0,-136.5"/>
<text text-anchor="middle" x="47.5" y="-143.5" font-family="Fira Code" font-size="10.00">unsigned char</text>
</a>
</g>
</g>
<!-- Node3&#45;&gt;Node1 -->
<g id="edge5" class="edge">
<title>Node3&#45;&gt;Node1</title>
<path fill="none" stroke="#9a32cd" stroke-dasharray="5,2" d="M31.99,-128.15C19.14,-112.03 4.59,-87.25 15.5,-67 28.32,-43.2 56.18,-27.84 76.52,-19.34"/>
<polygon fill="#9a32cd" stroke="#9a32cd" points="29.02,-130.06 38.18,-135.39 34.34,-125.52 29.02,-130.06"/>
<text text-anchor="middle" x="31" y="-81" font-family="Fira Code" font-size="10.00"> head</text>
<text text-anchor="middle" x="31" y="-70" font-family="Fira Code" font-size="10.00">tail</text>
</g>
<!-- Node3&#45;&gt;Node2 -->
<g id="edge2" class="edge">
<title>Node3&#45;&gt;Node2</title>
<path fill="none" stroke="#9a32cd" stroke-dasharray="5,2" d="M61.35,-127.75C71.75,-114.8 85.54,-97.63 93.67,-87.5"/>
<polygon fill="#9a32cd" stroke="#9a32cd" points="58.69,-125.47 55.16,-135.46 64.15,-129.86 58.69,-125.47"/>
<text text-anchor="middle" x="93" y="-110" font-family="Fira Code" font-size="10.00"> data</text>
</g>
<!-- Node4 -->
<g id="node4" class="node">
<title>Node4</title>
<g id="a_node4"><a xlink:title=" ">
<polygon fill="white" stroke="black" points="115,-136.5 115,-155.5 162,-155.5 162,-136.5 115,-136.5"/>
<text text-anchor="middle" x="138.5" y="-143.5" font-family="Fira Code" font-size="10.00">U16_T</text>
</a>
</g>
</g>
<!-- Node4&#45;&gt;Node1 -->
<g id="edge4" class="edge">
<title>Node4&#45;&gt;Node1</title>
<path fill="none" stroke="#9a32cd" stroke-dasharray="5,2" d="M149.29,-126.81C150.59,-123.94 151.73,-120.95 152.5,-118 158.25,-96.07 161.18,-88.33 153.5,-67 146.06,-46.35 126.4,-29.17 113.23,-19.5"/>
<polygon fill="#9a32cd" stroke="#9a32cd" points="146.25,-125.07 144.64,-135.54 152.43,-128.36 146.25,-125.07"/>
<text text-anchor="middle" x="171" y="-81" font-family="Fira Code" font-size="10.00"> n</text>
<text text-anchor="middle" x="171" y="-70" font-family="Fira Code" font-size="10.00">size</text>
</g>
<!-- Node4&#45;&gt;Node2 -->
<g id="edge3" class="edge">
<title>Node4&#45;&gt;Node2</title>
<path fill="none" stroke="#9a32cd" stroke-dasharray="5,2" d="M128.13,-126.98C120.73,-114.13 111.11,-97.43 105.39,-87.5"/>
<polygon fill="#9a32cd" stroke="#9a32cd" points="124.91,-128.41 132.93,-135.33 130.98,-124.92 124.91,-128.41"/>
<text text-anchor="middle" x="136" y="-110" font-family="Fira Code" font-size="10.00"> len</text>
</g>
</g>
</svg>
