<?xml version="1.0" encoding="UTF-8" standalone="no"?>
<!DOCTYPE svg PUBLIC "-//W3C//DTD SVG 1.1//EN"
 "http://www.w3.org/Graphics/SVG/1.1/DTD/svg11.dtd">
<!-- Generated by graphviz version 7.0.0 (20221023.0053)
 -->
<!-- Title: FAI_FAULT_COUNTER_T Pages: 1 -->
<svg width="216pt" height="106pt"
 viewBox="0.00 0.00 216.00 106.00" xmlns="http://www.w3.org/2000/svg" xmlns:xlink="http://www.w3.org/1999/xlink">
<g id="graph0" class="graph" transform="scale(1 1) rotate(0) translate(4 102)">
<title>FAI_FAULT_COUNTER_T</title>
<polygon fill="white" stroke="none" points="-4,4 -4,-102 212,-102 212,4 -4,4"/>
<!-- Node1 -->
<g id="node1" class="node">
<title>Node1</title>
<g id="a_node1"><a xlink:title=" ">
<polygon fill="#bfbfbf" stroke="black" points="38,-0.5 38,-19.5 169,-19.5 169,-0.5 38,-0.5"/>
<text text-anchor="middle" x="103.5" y="-7.5" font-family="Fira Code" font-size="10.00">FAI_FAULT_COUNTER_T</text>
</a>
</g>
</g>
<!-- Node2 -->
<g id="node2" class="node">
<title>Node2</title>
<g id="a_node2"><a xlink:title=" ">
<polygon fill="white" stroke="black" points="0,-78.5 0,-97.5 95,-97.5 95,-78.5 0,-78.5"/>
<text text-anchor="middle" x="47.5" y="-85.5" font-family="Fira Code" font-size="10.00">unsigned char</text>
</a>
</g>
</g>
<!-- Node2&#45;&gt;Node1 -->
<g id="edge1" class="edge">
<title>Node2&#45;&gt;Node1</title>
<path fill="none" stroke="#9a32cd" stroke-dasharray="5,2" d="M60.51,-69.35C72.13,-53.57 88.64,-31.17 97.44,-19.23"/>
<polygon fill="#9a32cd" stroke="#9a32cd" points="57.72,-67.23 54.6,-77.36 63.35,-71.38 57.72,-67.23"/>
<text text-anchor="middle" x="101" y="-52" font-family="Fira Code" font-size="10.00"> count</text>
<text text-anchor="middle" x="101" y="-41" font-family="Fira Code" font-size="10.00">head</text>
</g>
<!-- Node3 -->
<g id="node3" class="node">
<title>Node3</title>
<g id="a_node3"><a xlink:title=" ">
<polygon fill="white" stroke="black" points="113,-78.5 113,-97.5 208,-97.5 208,-78.5 113,-78.5"/>
<text text-anchor="middle" x="160.5" y="-85.5" font-family="Fira Code" font-size="10.00">unsigned long</text>
</a>
</g>
</g>
<!-- Node3&#45;&gt;Node1 -->
<g id="edge2" class="edge">
<title>Node3&#45;&gt;Node1</title>
<path fill="none" stroke="#9a32cd" stroke-dasharray="5,2" d="M147.6,-69.79C135.75,-54 118.71,-31.28 109.67,-19.23"/>
<polygon fill="#9a32cd" stroke="#9a32cd" points="144.47,-71.47 153.27,-77.37 150.07,-67.27 144.47,-71.47"/>
<text text-anchor="middle" x="163" y="-46.5" font-family="Fira Code" font-size="10.00"> ts_data</text>
</g>
</g>
</svg>
