<?xml version="1.0" encoding="UTF-8" standalone="no"?>
<!DOCTYPE svg PUBLIC "-//W3C//DTD SVG 1.1//EN"
 "http://www.w3.org/Graphics/SVG/1.1/DTD/svg11.dtd">
<!-- Generated by graphviz version 7.0.0 (20221023.0053)
 -->
<!-- Title: USART_RX_RESULT_T Pages: 1 -->
<svg width="151pt" height="117pt"
 viewBox="0.00 0.00 151.00 117.00" xmlns="http://www.w3.org/2000/svg" xmlns:xlink="http://www.w3.org/1999/xlink">
<g id="graph0" class="graph" transform="scale(1 1) rotate(0) translate(4 113)">
<title>USART_RX_RESULT_T</title>
<polygon fill="white" stroke="none" points="-4,4 -4,-113 147,-113 147,4 -4,4"/>
<!-- Node1 -->
<g id="node1" class="node">
<title>Node1</title>
<g id="a_node1"><a xlink:title=" ">
<polygon fill="#bfbfbf" stroke="black" points="12,-0.5 12,-19.5 131,-19.5 131,-0.5 12,-0.5"/>
<text text-anchor="middle" x="71.5" y="-7.5" font-family="Fira Code" font-size="10.00">USART_RX_RESULT_T</text>
</a>
</g>
</g>
<!-- Node2 -->
<g id="node2" class="node">
<title>Node2</title>
<g id="a_node2"><a xlink:title=" ">
<polygon fill="white" stroke="black" points="0,-89.5 0,-108.5 47,-108.5 47,-89.5 0,-89.5"/>
<text text-anchor="middle" x="23.5" y="-96.5" font-family="Fira Code" font-size="10.00">_Bool</text>
</a>
</g>
</g>
<!-- Node2&#45;&gt;Node1 -->
<g id="edge1" class="edge">
<title>Node2&#45;&gt;Node1</title>
<path fill="none" stroke="#9a32cd" stroke-dasharray="5,2" d="M19.17,-78.58C17.47,-66.14 17.35,-50.11 24.5,-38 29.47,-29.57 38.16,-23.53 46.73,-19.34"/>
<polygon fill="#9a32cd" stroke="#9a32cd" points="15.66,-78.86 20.92,-88.06 22.55,-77.59 15.66,-78.86"/>
<text text-anchor="middle" x="61" y="-63" font-family="Fira Code" font-size="10.00"> frame_error</text>
<text text-anchor="middle" x="61" y="-52" font-family="Fira Code" font-size="10.00">overrun</text>
<text text-anchor="middle" x="61" y="-41" font-family="Fira Code" font-size="10.00">parity_error</text>
</g>
<!-- Node3 -->
<g id="node3" class="node">
<title>Node3</title>
<g id="a_node3"><a xlink:title=" ">
<polygon fill="white" stroke="black" points="96,-89.5 96,-108.5 143,-108.5 143,-89.5 96,-89.5"/>
<text text-anchor="middle" x="119.5" y="-96.5" font-family="Fira Code" font-size="10.00">U16_T</text>
</a>
</g>
</g>
<!-- Node3&#45;&gt;Node1 -->
<g id="edge2" class="edge">
<title>Node3&#45;&gt;Node1</title>
<path fill="none" stroke="#9a32cd" stroke-dasharray="5,2" d="M114.73,-78.97C111.13,-66.69 105.44,-50.7 97.5,-38 93.15,-31.05 86.79,-24.4 81.44,-19.44"/>
<polygon fill="#9a32cd" stroke="#9a32cd" points="111.26,-79.55 117.24,-88.29 118.01,-77.72 111.26,-79.55"/>
<text text-anchor="middle" x="124" y="-52" font-family="Fira Code" font-size="10.00"> len</text>
</g>
</g>
</svg>
