<?xml version="1.0" encoding="UTF-8" standalone="no"?>
<!DOCTYPE svg PUBLIC "-//W3C//DTD SVG 1.1//EN"
 "http://www.w3.org/Graphics/SVG/1.1/DTD/svg11.dtd">
<!-- Generated by graphviz version 7.0.0 (20221023.0053)
 -->
<!-- Title: USART_CONFIG_T Pages: 1 -->
<svg width="385pt" height="218pt"
 viewBox="0.00 0.00 385.00 218.00" xmlns="http://www.w3.org/2000/svg" xmlns:xlink="http://www.w3.org/1999/xlink">
<g id="graph0" class="graph" transform="scale(1 1) rotate(0) translate(4 214)">
<title>USART_CONFIG_T</title>
<polygon fill="white" stroke="none" points="-4,4 -4,-214 381,-214 381,4 -4,4"/>
<!-- Node1 -->
<g id="node1" class="node">
<title>Node1</title>
<g id="a_node1"><a xlink:title=" ">
<polygon fill="#bfbfbf" stroke="black" points="276,-95.5 276,-114.5 377,-114.5 377,-95.5 276,-95.5"/>
<text text-anchor="middle" x="326.5" y="-102.5" font-family="Fira Code" font-size="10.00">USART_CONFIG_T</text>
</a>
</g>
</g>
<!-- Node2 -->
<g id="node2" class="node">
<title>Node2</title>
<g id="a_node2"><a xlink:title=" ">
<polygon fill="white" stroke="black" points="30,-190.5 30,-209.5 119,-209.5 119,-190.5 30,-190.5"/>
<text text-anchor="middle" x="74.5" y="-197.5" font-family="Fira Code" font-size="10.00">USART_MODE_T</text>
</a>
</g>
</g>
<!-- Node2&#45;&gt;Node1 -->
<g id="edge1" class="edge">
<title>Node2&#45;&gt;Node1</title>
<path fill="none" stroke="#9a32cd" stroke-dasharray="5,2" d="M130.05,-196.69C167.62,-192.66 217.81,-183.74 258,-164 283.15,-151.65 306.3,-127.5 317.83,-114.25"/>
<polygon fill="#9a32cd" stroke="#9a32cd" points="129.94,-193.18 120.32,-197.64 130.62,-200.15 129.94,-193.18"/>
<text text-anchor="middle" x="212.5" y="-193" font-family="Fira Code" font-size="10.00"> mode</text>
</g>
<!-- Node3 -->
<g id="node3" class="node">
<title>Node3</title>
<g id="a_node3"><a xlink:title=" ">
<polygon fill="white" stroke="black" points="15,-152.5 15,-171.5 134,-171.5 134,-152.5 15,-152.5"/>
<text text-anchor="middle" x="74.5" y="-159.5" font-family="Fira Code" font-size="10.00">USART_BAUD_RATE_T</text>
</a>
</g>
</g>
<!-- Node3&#45;&gt;Node1 -->
<g id="edge2" class="edge">
<title>Node3&#45;&gt;Node1</title>
<path fill="none" stroke="#9a32cd" stroke-dasharray="5,2" d="M145.03,-153.52C179.38,-148.49 221.25,-141.09 258,-131 273.86,-126.64 291.17,-119.94 304.28,-114.43"/>
<polygon fill="#9a32cd" stroke="#9a32cd" points="144.59,-150.04 135.18,-154.92 145.57,-156.97 144.59,-150.04"/>
<text text-anchor="middle" x="212.5" y="-152" font-family="Fira Code" font-size="10.00"> baud</text>
</g>
<!-- Node4 -->
<g id="node4" class="node">
<title>Node4</title>
<g id="a_node4"><a xlink:title=" ">
<polygon fill="white" stroke="black" points="0,-114.5 0,-133.5 149,-133.5 149,-114.5 0,-114.5"/>
<text text-anchor="middle" x="74.5" y="-121.5" font-family="Fira Code" font-size="10.00">USART_CHARACTER_SIZE_T</text>
</a>
</g>
</g>
<!-- Node4&#45;&gt;Node1 -->
<g id="edge3" class="edge">
<title>Node4&#45;&gt;Node1</title>
<path fill="none" stroke="#9a32cd" stroke-dasharray="5,2" d="M160.09,-117.57C198.77,-114.63 243.24,-111.25 276.32,-108.74"/>
<polygon fill="#9a32cd" stroke="#9a32cd" points="160.03,-114.07 150.33,-118.31 160.56,-121.05 160.03,-114.07"/>
<text text-anchor="middle" x="212.5" y="-119" font-family="Fira Code" font-size="10.00"> character_size</text>
</g>
<!-- Node5 -->
<g id="node5" class="node">
<title>Node5</title>
<g id="a_node5"><a xlink:title=" ">
<polygon fill="white" stroke="black" points="15,-76.5 15,-95.5 134,-95.5 134,-76.5 15,-76.5"/>
<text text-anchor="middle" x="74.5" y="-83.5" font-family="Fira Code" font-size="10.00">USART_STOP_BITS_T</text>
</a>
</g>
</g>
<!-- Node5&#45;&gt;Node1 -->
<g id="edge4" class="edge">
<title>Node5&#45;&gt;Node1</title>
<path fill="none" stroke="#9a32cd" stroke-dasharray="5,2" d="M145.21,-87.84C179.28,-89.14 220.84,-91.34 258,-95 263.89,-95.58 270.06,-96.32 276.17,-97.12"/>
<polygon fill="#9a32cd" stroke="#9a32cd" points="145.6,-84.35 135.47,-87.48 145.34,-91.34 145.6,-84.35"/>
<text text-anchor="middle" x="212.5" y="-98" font-family="Fira Code" font-size="10.00"> stop_bits</text>
</g>
<!-- Node6 -->
<g id="node6" class="node">
<title>Node6</title>
<g id="a_node6"><a xlink:title=" ">
<polygon fill="white" stroke="black" points="9,-38.5 9,-57.5 140,-57.5 140,-38.5 9,-38.5"/>
<text text-anchor="middle" x="74.5" y="-45.5" font-family="Fira Code" font-size="10.00">USART_PARITY_MODE_T</text>
</a>
</g>
</g>
<!-- Node6&#45;&gt;Node1 -->
<g id="edge5" class="edge">
<title>Node6&#45;&gt;Node1</title>
<path fill="none" stroke="#9a32cd" stroke-dasharray="5,2" d="M150.91,-53.1C184.24,-56.68 223.58,-62.75 258,-73 276.4,-78.48 296.08,-88.32 309.42,-95.64"/>
<polygon fill="#9a32cd" stroke="#9a32cd" points="151.67,-49.66 141.37,-52.13 150.96,-56.62 151.67,-49.66"/>
<text text-anchor="middle" x="212.5" y="-76" font-family="Fira Code" font-size="10.00"> parity</text>
</g>
<!-- Node7 -->
<g id="node7" class="node">
<title>Node7</title>
<g id="a_node7"><a xlink:title=" ">
<polygon fill="white" stroke="black" points="0,-0.5 0,-19.5 149,-19.5 149,-0.5 0,-0.5"/>
<text text-anchor="middle" x="74.5" y="-7.5" font-family="Fira Code" font-size="10.00">USART_CLOCK_POLARITY_T</text>
</a>
</g>
</g>
<!-- Node7&#45;&gt;Node1 -->
<g id="edge6" class="edge">
<title>Node7&#45;&gt;Node1</title>
<path fill="none" stroke="#9a32cd" stroke-dasharray="5,2" d="M159.93,-13.27C191.98,-17.18 227.96,-24.94 258,-40 284.76,-53.42 307.92,-81.13 318.84,-95.65"/>
<polygon fill="#9a32cd" stroke="#9a32cd" points="160.61,-9.82 150.29,-12.2 159.84,-16.78 160.61,-9.82"/>
<text text-anchor="middle" x="212.5" y="-43" font-family="Fira Code" font-size="10.00"> clock_polarity</text>
</g>
</g>
</svg>
