<?xml version="1.0" encoding="UTF-8" standalone="no"?>
<!DOCTYPE svg PUBLIC "-//W3C//DTD SVG 1.1//EN"
 "http://www.w3.org/Graphics/SVG/1.1/DTD/svg11.dtd">
<!-- Generated by graphviz version 7.0.0 (20221023.0053)
 -->
<!-- Title: FIFO_ENTRY_T Pages: 1 -->
<svg width="168pt" height="95pt"
 viewBox="0.00 0.00 168.00 95.00" xmlns="http://www.w3.org/2000/svg" xmlns:xlink="http://www.w3.org/1999/xlink">
<g id="graph0" class="graph" transform="scale(1 1) rotate(0) translate(4 91)">
<title>FIFO_ENTRY_T</title>
<polygon fill="white" stroke="none" points="-4,4 -4,-91 164,-91 164,4 -4,4"/>
<!-- Node1 -->
<g id="node1" class="node">
<title>Node1</title>
<g id="a_node1"><a xlink:title=" ">
<polygon fill="#bfbfbf" stroke="black" points="47,-0.5 47,-19.5 136,-19.5 136,-0.5 47,-0.5"/>
<text text-anchor="middle" x="91.5" y="-7.5" font-family="Fira Code" font-size="10.00">FIFO_ENTRY_T</text>
</a>
</g>
</g>
<!-- Node2 -->
<g id="node2" class="node">
<title>Node2</title>
<g id="a_node2"><a xlink:title=" ">
<polygon fill="white" stroke="black" points="0,-67.5 0,-86.5 95,-86.5 95,-67.5 0,-67.5"/>
<text text-anchor="middle" x="47.5" y="-74.5" font-family="Fira Code" font-size="10.00">unsigned char</text>
</a>
</g>
</g>
<!-- Node2&#45;&gt;Node1 -->
<g id="edge1" class="edge">
<title>Node2&#45;&gt;Node1</title>
<path fill="none" stroke="#9a32cd" stroke-dasharray="5,2" d="M59.45,-58.34C68.05,-45.64 79.26,-29.09 85.89,-19.29"/>
<polygon fill="#9a32cd" stroke="#9a32cd" points="56.81,-56.01 54.1,-66.25 62.6,-59.93 56.81,-56.01"/>
<text text-anchor="middle" x="88" y="-41" font-family="Fira Code" font-size="10.00"> data</text>
</g>
<!-- Node3 -->
<g id="node3" class="node">
<title>Node3</title>
<g id="a_node3"><a xlink:title=" ">
<polygon fill="white" stroke="black" points="113,-67.5 113,-86.5 160,-86.5 160,-67.5 113,-67.5"/>
<text text-anchor="middle" x="136.5" y="-74.5" font-family="Fira Code" font-size="10.00">U16_T</text>
</a>
</g>
</g>
<!-- Node3&#45;&gt;Node1 -->
<g id="edge2" class="edge">
<title>Node3&#45;&gt;Node1</title>
<path fill="none" stroke="#9a32cd" stroke-dasharray="5,2" d="M124.28,-58.34C115.48,-45.64 104.02,-29.09 97.24,-19.29"/>
<polygon fill="#9a32cd" stroke="#9a32cd" points="121.19,-60.03 129.76,-66.26 126.94,-56.04 121.19,-60.03"/>
<text text-anchor="middle" x="129" y="-41" font-family="Fira Code" font-size="10.00"> len</text>
</g>
</g>
</svg>
