<?xml version="1.0" encoding="UTF-8" standalone="no"?>
<!DOCTYPE svg PUBLIC "-//W3C//DTD SVG 1.1//EN"
 "http://www.w3.org/Graphics/SVG/1.1/DTD/svg11.dtd">
<!-- Generated by graphviz version 7.0.0 (20221023.0053)
 -->
<!-- Title: src/timer.h Pages: 1 -->
<svg width="460pt" height="95pt"
 viewBox="0.00 0.00 460.00 95.00" xmlns="http://www.w3.org/2000/svg" xmlns:xlink="http://www.w3.org/1999/xlink">
<g id="graph0" class="graph" transform="scale(1 1) rotate(0) translate(4 91)">
<title>src/timer.h</title>
<polygon fill="white" stroke="none" points="-4,4 -4,-91 456,-91 456,4 -4,4"/>
<!-- Node1 -->
<g id="node1" class="node">
<title>Node1</title>
<g id="a_node1"><a xlink:title=" ">
<polygon fill="#bfbfbf" stroke="black" points="201,-67.5 201,-86.5 284,-86.5 284,-67.5 201,-67.5"/>
<text text-anchor="middle" x="242.5" y="-74.5" font-family="Fira Code" font-size="10.00">src/timer.h</text>
</a>
</g>
</g>
<!-- Node2 -->
<g id="node2" class="node">
<title>Node2</title>
<g id="a_node2"><a xlink:href="atm328p__timer_8c.html" target="_top" xlink:title=" ">
<polygon fill="white" stroke="black" points="0,-0.5 0,-30.5 131,-30.5 131,-0.5 0,-0.5"/>
<text text-anchor="start" x="8" y="-18.5" font-family="Fira Code" font-size="10.00">src/atm328p/atm328p</text>
<text text-anchor="middle" x="65.5" y="-7.5" font-family="Fira Code" font-size="10.00">_timer.c</text>
</a>
</g>
</g>
<!-- Node1&#45;&gt;Node2 -->
<g id="edge1" class="edge">
<title>Node1&#45;&gt;Node2</title>
<path fill="none" stroke="midnightblue" d="M206.71,-63.97C177.88,-54.28 137.32,-40.64 107.06,-30.47"/>
<polygon fill="midnightblue" stroke="midnightblue" points="205.49,-67.25 216.08,-67.12 207.72,-60.62 205.49,-67.25"/>
</g>
<!-- Node3 -->
<g id="node3" class="node">
<title>Node3</title>
<g id="a_node3"><a xlink:href="main_8c.html" target="_top" xlink:title=" ">
<polygon fill="white" stroke="black" points="149,-6 149,-25 226,-25 226,-6 149,-6"/>
<text text-anchor="middle" x="187.5" y="-13" font-family="Fira Code" font-size="10.00">src/main.c</text>
</a>
</g>
</g>
<!-- Node1&#45;&gt;Node3 -->
<g id="edge2" class="edge">
<title>Node1&#45;&gt;Node3</title>
<path fill="none" stroke="midnightblue" d="M227.25,-59.51C216.79,-48.18 203.35,-33.64 195.08,-24.7"/>
<polygon fill="midnightblue" stroke="midnightblue" points="224.47,-61.65 233.83,-66.62 229.61,-56.9 224.47,-61.65"/>
</g>
<!-- Node4 -->
<g id="node4" class="node">
<title>Node4</title>
<g id="a_node4"><a xlink:href="scheduler_8c.html" target="_top" xlink:title=" ">
<polygon fill="white" stroke="black" points="244,-6 244,-25 351,-25 351,-6 244,-6"/>
<text text-anchor="middle" x="297.5" y="-13" font-family="Fira Code" font-size="10.00">src/scheduler.c</text>
</a>
</g>
</g>
<!-- Node1&#45;&gt;Node4 -->
<g id="edge3" class="edge">
<title>Node1&#45;&gt;Node4</title>
<path fill="none" stroke="midnightblue" d="M257.75,-59.51C268.21,-48.18 281.65,-33.64 289.92,-24.7"/>
<polygon fill="midnightblue" stroke="midnightblue" points="255.39,-56.9 251.17,-66.62 260.53,-61.65 255.39,-56.9"/>
</g>
<!-- Node5 -->
<g id="node5" class="node">
<title>Node5</title>
<g id="a_node5"><a xlink:href="timer_8c.html" target="_top" xlink:title=" ">
<polygon fill="white" stroke="black" points="369,-6 369,-25 452,-25 452,-6 369,-6"/>
<text text-anchor="middle" x="410.5" y="-13" font-family="Fira Code" font-size="10.00">src/timer.c</text>
</a>
</g>
</g>
<!-- Node1&#45;&gt;Node5 -->
<g id="edge4" class="edge">
<title>Node1&#45;&gt;Node5</title>
<path fill="none" stroke="midnightblue" d="M276.65,-63.9C309.36,-52.32 357.88,-35.14 386.64,-24.95"/>
<polygon fill="midnightblue" stroke="midnightblue" points="275.9,-60.46 267.64,-67.1 278.24,-67.06 275.9,-60.46"/>
</g>
</g>
</svg>
