<?xml version="1.0" encoding="UTF-8" standalone="no"?>
<!DOCTYPE svg PUBLIC "-//W3C//DTD SVG 1.1//EN"
 "http://www.w3.org/Graphics/SVG/1.1/DTD/svg11.dtd">
<!-- Generated by graphviz version 7.0.0 (20221023.0053)
 -->
<!-- Title: timer1_set Pages: 1 -->
<svg width="299pt" height="66pt"
 viewBox="0.00 0.00 299.00 66.00" xmlns="http://www.w3.org/2000/svg" xmlns:xlink="http://www.w3.org/1999/xlink">
<g id="graph0" class="graph" transform="scale(1 1) rotate(0) translate(4 62)">
<title>timer1_set</title>
<polygon fill="white" stroke="none" points="-4,4 -4,-62 295,-62 295,4 -4,4"/>
<!-- Node1 -->
<g id="node1" class="node">
<title>Node1</title>
<g id="a_node1"><a xlink:title=" ">
<polygon fill="#bfbfbf" stroke="black" points="214,-19.5 214,-38.5 291,-38.5 291,-19.5 214,-19.5"/>
<text text-anchor="middle" x="252.5" y="-26.5" font-family="Fira Code" font-size="10.00">timer1_set</text>
</a>
</g>
</g>
<!-- Node2 -->
<g id="node2" class="node">
<title>Node2</title>
<g id="a_node2"><a xlink:href="scheduler_8c.html#ab16889ae984b9b798989a0d239283cac" target="_top" xlink:title=" ">
<polygon fill="white" stroke="black" points="110,-38.5 110,-57.5 145,-57.5 145,-38.5 110,-38.5"/>
<text text-anchor="middle" x="127.5" y="-45.5" font-family="Fira Code" font-size="10.00">ISR</text>
</a>
</g>
</g>
<!-- Node1&#45;&gt;Node2 -->
<g id="edge1" class="edge">
<title>Node1&#45;&gt;Node2</title>
<path fill="none" stroke="midnightblue" d="M203.05,-36.48C182.38,-39.68 159.64,-43.19 144.78,-45.48"/>
<polygon fill="midnightblue" stroke="midnightblue" points="203.42,-39.97 212.77,-34.98 202.35,-33.05 203.42,-39.97"/>
</g>
<!-- Node3 -->
<g id="node3" class="node">
<title>Node3</title>
<g id="a_node3"><a xlink:href="scheduler_8c.html#ab258cc2856e5f6bb125907cc23358fbd" target="_top" xlink:title=" ">
<polygon fill="white" stroke="black" points="77,-0.5 77,-19.5 178,-19.5 178,-0.5 77,-0.5"/>
<text text-anchor="middle" x="127.5" y="-7.5" font-family="Fira Code" font-size="10.00">scheduler_init</text>
</a>
</g>
</g>
<!-- Node1&#45;&gt;Node3 -->
<g id="edge2" class="edge">
<title>Node1&#45;&gt;Node3</title>
<path fill="none" stroke="midnightblue" d="M202.91,-21.49C194.68,-20.22 186.13,-18.9 177.88,-17.63"/>
<polygon fill="midnightblue" stroke="midnightblue" points="202.35,-24.95 212.77,-23.02 203.42,-18.03 202.35,-24.95"/>
</g>
<!-- Node4 -->
<g id="node4" class="node">
<title>Node4</title>
<g id="a_node4"><a xlink:href="main_8c.html#a06213d4df6a69a484bbec6698135cb14" target="_top" xlink:title=" ">
<polygon fill="white" stroke="black" points="0,-0.5 0,-19.5 41,-19.5 41,-0.5 0,-0.5"/>
<text text-anchor="middle" x="20.5" y="-7.5" font-family="Fira Code" font-size="10.00">main</text>
</a>
</g>
</g>
<!-- Node3&#45;&gt;Node4 -->
<g id="edge3" class="edge">
<title>Node3&#45;&gt;Node4</title>
<path fill="none" stroke="midnightblue" d="M65.63,-10C56.66,-10 48.04,-10 40.83,-10"/>
<polygon fill="midnightblue" stroke="midnightblue" points="65.56,-13.5 75.56,-10 65.56,-6.5 65.56,-13.5"/>
</g>
</g>
</svg>
