<?xml version="1.0" encoding="UTF-8" standalone="no"?>
<!DOCTYPE svg PUBLIC "-//W3C//DTD SVG 1.1//EN"
 "http://www.w3.org/Graphics/SVG/1.1/DTD/svg11.dtd">
<!-- Generated by graphviz version 7.0.0 (20221023.0053)
 -->
<!-- Title: src/types.h Pages: 1 -->
<svg width="1963pt" height="229pt"
 viewBox="0.00 0.00 1963.00 229.00" xmlns="http://www.w3.org/2000/svg" xmlns:xlink="http://www.w3.org/1999/xlink">
<g id="graph0" class="graph" transform="scale(1 1) rotate(0) translate(4 225)">
<title>src/types.h</title>
<polygon fill="white" stroke="none" points="-4,4 -4,-225 1959,-225 1959,4 -4,4"/>
<!-- Node1 -->
<g id="node1" class="node">
<title>Node1</title>
<g id="a_node1"><a xlink:title=" ">
<polygon fill="#bfbfbf" stroke="black" points="982,-201.5 982,-220.5 1065,-220.5 1065,-201.5 982,-201.5"/>
<text text-anchor="middle" x="1023.5" y="-208.5" font-family="Fira Code" font-size="10.00">src/types.h</text>
</a>
</g>
</g>
<!-- Node2 -->
<g id="node2" class="node">
<title>Node2</title>
<g id="a_node2"><a xlink:href="atm328p__dsc_8h.html" target="_top" xlink:title=" ">
<polygon fill="white" stroke="black" points="486,-134.5 486,-164.5 617,-164.5 617,-134.5 486,-134.5"/>
<text text-anchor="start" x="494" y="-152.5" font-family="Fira Code" font-size="10.00">src/atm328p/atm328p</text>
<text text-anchor="middle" x="551.5" y="-141.5" font-family="Fira Code" font-size="10.00">_dsc.h</text>
</a>
</g>
</g>
<!-- Node1&#45;&gt;Node2 -->
<g id="edge1" class="edge">
<title>Node1&#45;&gt;Node2</title>
<path fill="none" stroke="midnightblue" d="M970.91,-205.42C894.57,-198.46 748.72,-184.01 625.5,-165 622.65,-164.56 619.75,-164.09 616.82,-163.6"/>
<polygon fill="midnightblue" stroke="midnightblue" points="970.32,-208.88 980.59,-206.3 970.95,-201.91 970.32,-208.88"/>
</g>
<!-- Node5 -->
<g id="node5" class="node">
<title>Node5</title>
<g id="a_node5"><a xlink:href="atm328p__spi_8c.html" target="_top" xlink:title=" ">
<polygon fill="white" stroke="black" points="134,-67.5 134,-97.5 265,-97.5 265,-67.5 134,-67.5"/>
<text text-anchor="start" x="142" y="-85.5" font-family="Fira Code" font-size="10.00">src/atm328p/atm328p</text>
<text text-anchor="middle" x="199.5" y="-74.5" font-family="Fira Code" font-size="10.00">_spi.c</text>
</a>
</g>
</g>
<!-- Node1&#45;&gt;Node5 -->
<g id="edge10" class="edge">
<title>Node1&#45;&gt;Node5</title>
<path fill="none" stroke="midnightblue" d="M970.69,-209.17C789.96,-206.06 205.82,-193.82 178.5,-165 160.91,-146.44 177.18,-115.17 189.24,-97.24"/>
<polygon fill="midnightblue" stroke="midnightblue" points="970.43,-212.66 980.49,-209.33 970.55,-205.66 970.43,-212.66"/>
</g>
<!-- Node6 -->
<g id="node6" class="node">
<title>Node6</title>
<g id="a_node6"><a xlink:href="atm328p__eeprom_8h.html" target="_top" xlink:title=" ">
<polygon fill="white" stroke="black" points="1735,-134.5 1735,-164.5 1866,-164.5 1866,-134.5 1735,-134.5"/>
<text text-anchor="start" x="1743" y="-152.5" font-family="Fira Code" font-size="10.00">src/atm328p/atm328p</text>
<text text-anchor="middle" x="1800.5" y="-141.5" font-family="Fira Code" font-size="10.00">_eeprom.h</text>
</a>
</g>
</g>
<!-- Node1&#45;&gt;Node6 -->
<g id="edge5" class="edge">
<title>Node1&#45;&gt;Node6</title>
<path fill="none" stroke="midnightblue" d="M1076.35,-208.95C1193.75,-206.12 1484.95,-196.26 1726.5,-165 1729.36,-164.63 1732.27,-164.22 1735.21,-163.77"/>
<polygon fill="midnightblue" stroke="midnightblue" points="1076.31,-205.45 1066.4,-209.19 1076.48,-212.45 1076.31,-205.45"/>
</g>
<!-- Node8 -->
<g id="node8" class="node">
<title>Node8</title>
<g id="a_node8"><a xlink:href="atm328p__mcu_8h.html" target="_top" xlink:title=" ">
<polygon fill="white" stroke="black" points="0,-134.5 0,-164.5 131,-164.5 131,-134.5 0,-134.5"/>
<text text-anchor="start" x="8" y="-152.5" font-family="Fira Code" font-size="10.00">src/atm328p/atm328p</text>
<text text-anchor="middle" x="65.5" y="-141.5" font-family="Fira Code" font-size="10.00">_mcu.h</text>
</a>
</g>
</g>
<!-- Node1&#45;&gt;Node8 -->
<g id="edge7" class="edge">
<title>Node1&#45;&gt;Node8</title>
<path fill="none" stroke="midnightblue" d="M970.87,-209.65C834.23,-208.23 457.09,-201.07 145.5,-165 140.73,-164.45 135.82,-163.79 130.89,-163.06"/>
<polygon fill="midnightblue" stroke="midnightblue" points="970.66,-213.15 980.69,-209.74 970.72,-206.15 970.66,-213.15"/>
</g>
<!-- Node10 -->
<g id="node10" class="node">
<title>Node10</title>
<g id="a_node10"><a xlink:href="atm328p__spi_8h.html" target="_top" xlink:title=" ">
<polygon fill="white" stroke="black" points="337,-134.5 337,-164.5 468,-164.5 468,-134.5 337,-134.5"/>
<text text-anchor="start" x="345" y="-152.5" font-family="Fira Code" font-size="10.00">src/atm328p/atm328p</text>
<text text-anchor="middle" x="402.5" y="-141.5" font-family="Fira Code" font-size="10.00">_spi.h</text>
</a>
</g>
</g>
<!-- Node1&#45;&gt;Node10 -->
<g id="edge11" class="edge">
<title>Node1&#45;&gt;Node10</title>
<path fill="none" stroke="midnightblue" d="M970.83,-207.62C873.05,-202.77 656.99,-190.03 476.5,-165 473.65,-164.6 470.74,-164.17 467.8,-163.71"/>
<polygon fill="midnightblue" stroke="midnightblue" points="970.49,-211.11 980.64,-208.1 970.83,-204.12 970.49,-211.11"/>
</g>
<!-- Node11 -->
<g id="node11" class="node">
<title>Node11</title>
<g id="a_node11"><a xlink:href="atm328p__timer_8h.html" target="_top" xlink:title=" ">
<polygon fill="white" stroke="black" points="635,-134.5 635,-164.5 766,-164.5 766,-134.5 635,-134.5"/>
<text text-anchor="start" x="643" y="-152.5" font-family="Fira Code" font-size="10.00">src/atm328p/atm328p</text>
<text text-anchor="middle" x="700.5" y="-141.5" font-family="Fira Code" font-size="10.00">_timer.h</text>
</a>
</g>
</g>
<!-- Node1&#45;&gt;Node11 -->
<g id="edge14" class="edge">
<title>Node1&#45;&gt;Node11</title>
<path fill="none" stroke="midnightblue" d="M970.79,-200.71C920.36,-191.76 842.19,-177.75 774.5,-165 771.67,-164.47 768.78,-163.92 765.86,-163.36"/>
<polygon fill="midnightblue" stroke="midnightblue" points="970.1,-204.14 980.56,-202.44 971.33,-197.25 970.1,-204.14"/>
</g>
<!-- Node13 -->
<g id="node13" class="node">
<title>Node13</title>
<g id="a_node13"><a xlink:href="atm328p__usart_8h.html" target="_top" xlink:title=" ">
<polygon fill="white" stroke="black" points="1440,-134.5 1440,-164.5 1571,-164.5 1571,-134.5 1440,-134.5"/>
<text text-anchor="start" x="1448" y="-152.5" font-family="Fira Code" font-size="10.00">src/atm328p/atm328p</text>
<text text-anchor="middle" x="1505.5" y="-141.5" font-family="Fira Code" font-size="10.00">_usart.h</text>
</a>
</g>
</g>
<!-- Node1&#45;&gt;Node13 -->
<g id="edge17" class="edge">
<title>Node1&#45;&gt;Node13</title>
<path fill="none" stroke="midnightblue" d="M1076.18,-205.61C1154.09,-198.79 1304.53,-184.41 1431.5,-165 1434.35,-164.56 1437.25,-164.1 1440.18,-163.61"/>
<polygon fill="midnightblue" stroke="midnightblue" points="1075.93,-202.12 1066.27,-206.47 1076.54,-209.09 1075.93,-202.12"/>
</g>
<!-- Node15 -->
<g id="node15" class="node">
<title>Node15</title>
<g id="a_node15"><a xlink:href="atm328p__watchdog_8h.html" target="_top" xlink:title=" ">
<polygon fill="white" stroke="black" points="188,-134.5 188,-164.5 319,-164.5 319,-134.5 188,-134.5"/>
<text text-anchor="start" x="196" y="-152.5" font-family="Fira Code" font-size="10.00">src/atm328p/atm328p</text>
<text text-anchor="middle" x="253.5" y="-141.5" font-family="Fira Code" font-size="10.00">_watchdog.h</text>
</a>
</g>
</g>
<!-- Node1&#45;&gt;Node15 -->
<g id="edge19" class="edge">
<title>Node1&#45;&gt;Node15</title>
<path fill="none" stroke="midnightblue" d="M970.75,-208.91C854.24,-205.99 566.36,-195.99 327.5,-165 324.64,-164.63 321.73,-164.22 318.8,-163.77"/>
<polygon fill="midnightblue" stroke="midnightblue" points="970.54,-212.4 980.62,-209.15 970.71,-205.41 970.54,-212.4"/>
</g>
<!-- Node16 -->
<g id="node16" class="node">
<title>Node16</title>
<g id="a_node16"><a xlink:href="demo_8c.html" target="_top" xlink:title=" ">
<polygon fill="white" stroke="black" points="1176,-6 1176,-25 1253,-25 1253,-6 1176,-6"/>
<text text-anchor="middle" x="1214.5" y="-13" font-family="Fira Code" font-size="10.00">src/demo.c</text>
</a>
</g>
</g>
<!-- Node1&#45;&gt;Node16 -->
<g id="edge22" class="edge">
<title>Node1&#45;&gt;Node16</title>
<path fill="none" stroke="midnightblue" d="M1076.02,-204.68C1138.43,-195.21 1239.87,-169.15 1285.5,-98 1292.94,-86.4 1291.82,-79.24 1285.5,-67 1275.1,-46.84 1252.51,-32.96 1235.59,-24.93"/>
<polygon fill="midnightblue" stroke="midnightblue" points="1075.75,-201.19 1066.34,-206.05 1076.73,-208.12 1075.75,-201.19"/>
</g>
<!-- Node17 -->
<g id="node17" class="node">
<title>Node17</title>
<g id="a_node17"><a xlink:href="dsc_8h.html" target="_top" xlink:title=" ">
<polygon fill="white" stroke="black" points="810,-73 810,-92 881,-92 881,-73 810,-73"/>
<text text-anchor="middle" x="845.5" y="-80" font-family="Fira Code" font-size="10.00">src/dsc.h</text>
</a>
</g>
</g>
<!-- Node1&#45;&gt;Node17 -->
<g id="edge23" class="edge">
<title>Node1&#45;&gt;Node17</title>
<path fill="none" stroke="midnightblue" d="M992.09,-196.95C974.22,-188.89 951.82,-177.68 933.5,-165 900.62,-142.25 867.56,-107.78 853.09,-91.97"/>
<polygon fill="midnightblue" stroke="midnightblue" points="990.61,-200.13 1001.17,-200.94 993.42,-193.72 990.61,-200.13"/>
</g>
<!-- Node20 -->
<g id="node20" class="node">
<title>Node20</title>
<g id="a_node20"><a xlink:href="main_8c.html" target="_top" xlink:title=" ">
<polygon fill="white" stroke="black" points="1062,-6 1062,-25 1139,-25 1139,-6 1062,-6"/>
<text text-anchor="middle" x="1100.5" y="-13" font-family="Fira Code" font-size="10.00">src/main.c</text>
</a>
</g>
</g>
<!-- Node1&#45;&gt;Node20 -->
<g id="edge49" class="edge">
<title>Node1&#45;&gt;Node20</title>
<path fill="none" stroke="midnightblue" d="M1001.45,-194.81C991.9,-187.03 981.54,-176.73 975.5,-165 955.47,-126.12 941.62,-102.97 966.5,-67 972.83,-57.85 1035.82,-36.81 1073.14,-24.97"/>
<polygon fill="midnightblue" stroke="midnightblue" points="999.26,-197.54 1009.34,-200.79 1003.49,-191.96 999.26,-197.54"/>
</g>
<!-- Node23 -->
<g id="node23" class="node">
<title>Node23</title>
<g id="a_node23"><a xlink:href="eeprom_8h.html" target="_top" xlink:title=" ">
<polygon fill="white" stroke="black" points="1628,-140 1628,-159 1717,-159 1717,-140 1628,-140"/>
<text text-anchor="middle" x="1672.5" y="-147" font-family="Fira Code" font-size="10.00">src/eeprom.h</text>
</a>
</g>
</g>
<!-- Node1&#45;&gt;Node23 -->
<g id="edge31" class="edge">
<title>Node1&#45;&gt;Node23</title>
<path fill="none" stroke="midnightblue" d="M1076.28,-208.89C1179.89,-206.06 1416.93,-196.43 1613.5,-165 1622.87,-163.5 1632.95,-161.26 1642.07,-158.99"/>
<polygon fill="midnightblue" stroke="midnightblue" points="1076.32,-205.39 1066.42,-209.15 1076.5,-212.38 1076.32,-205.39"/>
</g>
<!-- Node26 -->
<g id="node26" class="node">
<title>Node26</title>
<g id="a_node26"><a xlink:href="fai_8h.html" target="_top" xlink:title=" ">
<polygon fill="white" stroke="black" points="1065,-73 1065,-92 1136,-92 1136,-73 1065,-73"/>
<text text-anchor="middle" x="1100.5" y="-80" font-family="Fira Code" font-size="10.00">src/fai.h</text>
</a>
</g>
</g>
<!-- Node1&#45;&gt;Node26 -->
<g id="edge35" class="edge">
<title>Node1&#45;&gt;Node26</title>
<path fill="none" stroke="midnightblue" d="M1043.62,-194.39C1052.82,-186.41 1063.26,-176.06 1070.5,-165 1086.36,-140.78 1095.31,-107.05 1098.79,-91.69"/>
<polygon fill="midnightblue" stroke="midnightblue" points="1041.64,-191.48 1036.16,-200.55 1046.1,-196.88 1041.64,-191.48"/>
</g>
<!-- Node27 -->
<g id="node27" class="node">
<title>Node27</title>
<g id="a_node27"><a xlink:href="fifo_8h.html" target="_top" xlink:title=" ">
<polygon fill="white" stroke="black" points="985,-140 985,-159 1062,-159 1062,-140 985,-140"/>
<text text-anchor="middle" x="1023.5" y="-147" font-family="Fira Code" font-size="10.00">src/fifo.h</text>
</a>
</g>
</g>
<!-- Node1&#45;&gt;Node27 -->
<g id="edge40" class="edge">
<title>Node1&#45;&gt;Node27</title>
<path fill="none" stroke="midnightblue" d="M1023.5,-190.41C1023.5,-179.64 1023.5,-166.85 1023.5,-158.7"/>
<polygon fill="midnightblue" stroke="midnightblue" points="1020,-190.21 1023.5,-200.21 1027,-190.21 1020,-190.21"/>
</g>
<!-- Node30 -->
<g id="node30" class="node">
<title>Node30</title>
<g id="a_node30"><a xlink:href="memory_8h.html" target="_top" xlink:title=" ">
<polygon fill="white" stroke="black" points="1555,-73 1555,-92 1644,-92 1644,-73 1555,-73"/>
<text text-anchor="middle" x="1599.5" y="-80" font-family="Fira Code" font-size="10.00">src/memory.h</text>
</a>
</g>
</g>
<!-- Node1&#45;&gt;Node30 -->
<g id="edge50" class="edge">
<title>Node1&#45;&gt;Node30</title>
<path fill="none" stroke="midnightblue" d="M1075.94,-209.23C1207.32,-206.81 1542.78,-197.5 1580.5,-165 1602.07,-146.41 1601.75,-108.51 1600.41,-91.77"/>
<polygon fill="midnightblue" stroke="midnightblue" points="1076.07,-205.73 1066.13,-209.4 1076.19,-212.72 1076.07,-205.73"/>
</g>
<!-- Node32 -->
<g id="node32" class="node">
<title>Node32</title>
<g id="a_node32"><a xlink:href="spi_8c.html" target="_top" xlink:title=" ">
<polygon fill="white" stroke="black" points="1884,-140 1884,-159 1955,-159 1955,-140 1884,-140"/>
<text text-anchor="middle" x="1919.5" y="-147" font-family="Fira Code" font-size="10.00">src/spi.c</text>
</a>
</g>
</g>
<!-- Node1&#45;&gt;Node32 -->
<g id="edge56" class="edge">
<title>Node1&#45;&gt;Node32</title>
<path fill="none" stroke="midnightblue" d="M1076.25,-209.04C1237.29,-205.84 1721.05,-193.99 1875.5,-165 1882.93,-163.61 1890.84,-161.28 1897.87,-158.9"/>
<polygon fill="midnightblue" stroke="midnightblue" points="1076.21,-205.54 1066.28,-209.24 1076.35,-212.54 1076.21,-205.54"/>
</g>
<!-- Node33 -->
<g id="node33" class="node">
<title>Node33</title>
<g id="a_node33"><a xlink:href="string_8h.html" target="_top" xlink:title=" ">
<polygon fill="white" stroke="black" points="1333,-140 1333,-159 1422,-159 1422,-140 1333,-140"/>
<text text-anchor="middle" x="1377.5" y="-147" font-family="Fira Code" font-size="10.00">src/string.h</text>
</a>
</g>
</g>
<!-- Node1&#45;&gt;Node33 -->
<g id="edge57" class="edge">
<title>Node1&#45;&gt;Node33</title>
<path fill="none" stroke="midnightblue" d="M1076.04,-203.43C1135.23,-195.7 1234.18,-181.76 1318.5,-165 1327.29,-163.25 1336.75,-161.07 1345.46,-158.93"/>
<polygon fill="midnightblue" stroke="midnightblue" points="1075.71,-199.94 1066.25,-204.7 1076.61,-206.89 1075.71,-199.94"/>
</g>
<!-- Node35 -->
<g id="node35" class="node">
<title>Node35</title>
<g id="a_node35"><a xlink:href="timer_8h.html" target="_top" xlink:title=" ">
<polygon fill="white" stroke="black" points="784,-140 784,-159 867,-159 867,-140 784,-140"/>
<text text-anchor="middle" x="825.5" y="-147" font-family="Fira Code" font-size="10.00">src/timer.h</text>
</a>
</g>
</g>
<!-- Node1&#45;&gt;Node35 -->
<g id="edge60" class="edge">
<title>Node1&#45;&gt;Node35</title>
<path fill="none" stroke="midnightblue" d="M984.75,-198.36C946.19,-186.77 887.96,-169.27 853.63,-158.95"/>
<polygon fill="midnightblue" stroke="midnightblue" points="983.52,-201.64 994.1,-201.17 985.53,-194.94 983.52,-201.64"/>
</g>
<!-- Node37 -->
<g id="node37" class="node">
<title>Node37</title>
<g id="a_node37"><a xlink:href="usart_8h.html" target="_top" xlink:title=" ">
<polygon fill="white" stroke="black" points="1193,-73 1193,-92 1276,-92 1276,-73 1193,-73"/>
<text text-anchor="middle" x="1234.5" y="-80" font-family="Fira Code" font-size="10.00">src/usart.h</text>
</a>
</g>
</g>
<!-- Node1&#45;&gt;Node37 -->
<g id="edge65" class="edge">
<title>Node1&#45;&gt;Node37</title>
<path fill="none" stroke="midnightblue" d="M1047.29,-195.74C1091.46,-169.26 1184.87,-113.25 1220.39,-91.96"/>
<polygon fill="midnightblue" stroke="midnightblue" points="1045.75,-192.58 1038.97,-200.73 1049.35,-198.59 1045.75,-192.58"/>
</g>
<!-- Node3 -->
<g id="node3" class="node">
<title>Node3</title>
<g id="a_node3"><a xlink:href="atm328p_8h.html" target="_top" xlink:title=" ">
<polygon fill="white" stroke="black" points="283,-73 283,-92 426,-92 426,-73 283,-73"/>
<text text-anchor="middle" x="354.5" y="-80" font-family="Fira Code" font-size="10.00">src/atm328p/atm328p.h</text>
</a>
</g>
</g>
<!-- Node2&#45;&gt;Node3 -->
<g id="edge2" class="edge">
<title>Node2&#45;&gt;Node3</title>
<path fill="none" stroke="midnightblue" d="M498.75,-131.1C460.37,-118.43 410.06,-101.83 380.13,-91.96"/>
<polygon fill="midnightblue" stroke="midnightblue" points="497.21,-134.27 507.8,-134.08 499.4,-127.62 497.21,-134.27"/>
</g>
<!-- Node4 -->
<g id="node4" class="node">
<title>Node4</title>
<g id="a_node4"><a xlink:href="atm328p__dsc_8c.html" target="_top" xlink:title=" ">
<polygon fill="white" stroke="black" points="449,-0.5 449,-30.5 580,-30.5 580,-0.5 449,-0.5"/>
<text text-anchor="start" x="457" y="-18.5" font-family="Fira Code" font-size="10.00">src/atm328p/atm328p</text>
<text text-anchor="middle" x="514.5" y="-7.5" font-family="Fira Code" font-size="10.00">_dsc.c</text>
</a>
</g>
</g>
<!-- Node2&#45;&gt;Node4 -->
<g id="edge3" class="edge">
<title>Node2&#45;&gt;Node4</title>
<path fill="none" stroke="midnightblue" d="M505.72,-129.24C492.98,-121.5 480.69,-111.21 473.5,-98 460.79,-74.62 482.42,-46.83 498.79,-30.48"/>
<polygon fill="midnightblue" stroke="midnightblue" points="503.7,-132.12 514.14,-133.93 507.11,-126.01 503.7,-132.12"/>
</g>
<!-- Node2&#45;&gt;Node5 -->
<g id="edge4" class="edge">
<title>Node2&#45;&gt;Node5</title>
<path fill="none" stroke="midnightblue" d="M475,-133.74C384.57,-117.09 360.14,-114.17 273.5,-98 270.67,-97.47 267.78,-96.93 264.86,-96.37"/>
<polygon fill="midnightblue" stroke="midnightblue" points="474.11,-137.14 484.58,-135.51 475.38,-130.25 474.11,-137.14"/>
</g>
<!-- Node7 -->
<g id="node7" class="node">
<title>Node7</title>
<g id="a_node7"><a xlink:href="atm328p__eeprom_8c.html" target="_top" xlink:title=" ">
<polygon fill="white" stroke="black" points="1808,-67.5 1808,-97.5 1939,-97.5 1939,-67.5 1808,-67.5"/>
<text text-anchor="start" x="1816" y="-85.5" font-family="Fira Code" font-size="10.00">src/atm328p/atm328p</text>
<text text-anchor="middle" x="1873.5" y="-74.5" font-family="Fira Code" font-size="10.00">_eeprom.c</text>
</a>
</g>
</g>
<!-- Node6&#45;&gt;Node7 -->
<g id="edge6" class="edge">
<title>Node6&#45;&gt;Node7</title>
<path fill="none" stroke="midnightblue" d="M1824.32,-127.29C1835.3,-117.51 1848.03,-106.18 1857.79,-97.49"/>
<polygon fill="midnightblue" stroke="midnightblue" points="1822.25,-124.44 1817.11,-133.71 1826.91,-129.67 1822.25,-124.44"/>
</g>
<!-- Node8&#45;&gt;Node5 -->
<g id="edge8" class="edge">
<title>Node8&#45;&gt;Node5</title>
<path fill="none" stroke="midnightblue" d="M104.54,-129.56C125.73,-119.28 151.47,-106.8 170.8,-97.42"/>
<polygon fill="midnightblue" stroke="midnightblue" points="103.08,-126.38 95.61,-133.9 106.13,-132.68 103.08,-126.38"/>
</g>
<!-- Node9 -->
<g id="node9" class="node">
<title>Node9</title>
<g id="a_node9"><a xlink:href="watchdog_8c.html" target="_top" xlink:title=" ">
<polygon fill="white" stroke="black" points="15,-73 15,-92 116,-92 116,-73 15,-73"/>
<text text-anchor="middle" x="65.5" y="-80" font-family="Fira Code" font-size="10.00">src/watchdog.c</text>
</a>
</g>
</g>
<!-- Node8&#45;&gt;Node9 -->
<g id="edge9" class="edge">
<title>Node8&#45;&gt;Node9</title>
<path fill="none" stroke="midnightblue" d="M65.5,-123.37C65.5,-112.23 65.5,-99.87 65.5,-91.91"/>
<polygon fill="midnightblue" stroke="midnightblue" points="62,-123.2 65.5,-133.2 69,-123.2 62,-123.2"/>
</g>
<!-- Node10&#45;&gt;Node3 -->
<g id="edge12" class="edge">
<title>Node10&#45;&gt;Node3</title>
<path fill="none" stroke="midnightblue" d="M385.51,-125.49C376.89,-113.82 366.96,-100.38 360.71,-91.91"/>
<polygon fill="midnightblue" stroke="midnightblue" points="382.67,-127.53 391.42,-133.5 388.3,-123.37 382.67,-127.53"/>
</g>
<!-- Node10&#45;&gt;Node5 -->
<g id="edge13" class="edge">
<title>Node10&#45;&gt;Node5</title>
<path fill="none" stroke="midnightblue" d="M348.13,-131.09C315.19,-120.54 273.73,-107.27 242.98,-97.42"/>
<polygon fill="midnightblue" stroke="midnightblue" points="346.92,-134.38 357.51,-134.09 349.05,-127.71 346.92,-134.38"/>
</g>
<!-- Node11&#45;&gt;Node3 -->
<g id="edge15" class="edge">
<title>Node11&#45;&gt;Node3</title>
<path fill="none" stroke="midnightblue" d="M623.89,-133.7C538.85,-117.58 452.22,-101.52 400.55,-91.98"/>
<polygon fill="midnightblue" stroke="midnightblue" points="623.09,-137.11 633.57,-135.54 624.4,-130.24 623.09,-137.11"/>
</g>
<!-- Node12 -->
<g id="node12" class="node">
<title>Node12</title>
<g id="a_node12"><a xlink:href="atm328p__timer_8c.html" target="_top" xlink:title=" ">
<polygon fill="white" stroke="black" points="483,-67.5 483,-97.5 614,-97.5 614,-67.5 483,-67.5"/>
<text text-anchor="start" x="491" y="-85.5" font-family="Fira Code" font-size="10.00">src/atm328p/atm328p</text>
<text text-anchor="middle" x="548.5" y="-74.5" font-family="Fira Code" font-size="10.00">_timer.c</text>
</a>
</g>
</g>
<!-- Node11&#45;&gt;Node12 -->
<g id="edge16" class="edge">
<title>Node11&#45;&gt;Node12</title>
<path fill="none" stroke="midnightblue" d="M657.52,-130.12C633.24,-119.74 603.38,-106.97 581.05,-97.42"/>
<polygon fill="midnightblue" stroke="midnightblue" points="655.93,-133.25 666.5,-133.96 658.68,-126.81 655.93,-133.25"/>
</g>
<!-- Node14 -->
<g id="node14" class="node">
<title>Node14</title>
<g id="a_node14"><a xlink:href="atm328p__usart_8c.html" target="_top" xlink:title=" ">
<polygon fill="white" stroke="black" points="1295,-0.5 1295,-30.5 1426,-30.5 1426,-0.5 1295,-0.5"/>
<text text-anchor="start" x="1303" y="-18.5" font-family="Fira Code" font-size="10.00">src/atm328p/atm328p</text>
<text text-anchor="middle" x="1360.5" y="-7.5" font-family="Fira Code" font-size="10.00">_usart.c</text>
</a>
</g>
</g>
<!-- Node13&#45;&gt;Node14 -->
<g id="edge18" class="edge">
<title>Node13&#45;&gt;Node14</title>
<path fill="none" stroke="midnightblue" d="M1513.4,-123.61C1517.32,-106.17 1519.06,-83.19 1507.5,-67 1497.19,-52.56 1458.69,-39.63 1423.67,-30.47"/>
<polygon fill="midnightblue" stroke="midnightblue" points="1510.05,-122.61 1510.87,-133.18 1516.81,-124.41 1510.05,-122.61"/>
</g>
<!-- Node15&#45;&gt;Node3 -->
<g id="edge20" class="edge">
<title>Node15&#45;&gt;Node3</title>
<path fill="none" stroke="midnightblue" d="M284.44,-128.59C303.56,-116.29 327.09,-101.14 341.44,-91.91"/>
<polygon fill="midnightblue" stroke="midnightblue" points="282.71,-125.54 276.19,-133.9 286.5,-131.43 282.71,-125.54"/>
</g>
<!-- Node15&#45;&gt;Node9 -->
<g id="edge21" class="edge">
<title>Node15&#45;&gt;Node9</title>
<path fill="none" stroke="midnightblue" d="M202.69,-130.93C166.12,-118.29 118.4,-101.79 89.96,-91.96"/>
<polygon fill="midnightblue" stroke="midnightblue" points="201.14,-134.1 211.74,-134.06 203.43,-127.49 201.14,-134.1"/>
</g>
<!-- Node17&#45;&gt;Node4 -->
<g id="edge24" class="edge">
<title>Node17&#45;&gt;Node4</title>
<path fill="none" stroke="midnightblue" d="M798.85,-72.34C741.65,-61.11 644.36,-42 579.76,-29.32"/>
<polygon fill="midnightblue" stroke="midnightblue" points="798.1,-75.76 808.59,-74.25 799.45,-68.89 798.1,-75.76"/>
</g>
<!-- Node17&#45;&gt;Node16 -->
<g id="edge26" class="edge">
<title>Node17&#45;&gt;Node16</title>
<path fill="none" stroke="midnightblue" d="M891.86,-74.53C951.42,-65.4 1057.93,-48.48 1148.5,-31 1157.95,-29.18 1168.11,-27.03 1177.57,-24.96"/>
<polygon fill="midnightblue" stroke="midnightblue" points="891.45,-71.05 882.09,-76.02 892.51,-77.97 891.45,-71.05"/>
</g>
<!-- Node18 -->
<g id="node18" class="node">
<title>Node18</title>
<g id="a_node18"><a xlink:href="can_8c.html" target="_top" xlink:title=" ">
<polygon fill="white" stroke="black" points="747,-6 747,-25 818,-25 818,-6 747,-6"/>
<text text-anchor="middle" x="782.5" y="-13" font-family="Fira Code" font-size="10.00">src/can.c</text>
</a>
</g>
</g>
<!-- Node17&#45;&gt;Node18 -->
<g id="edge25" class="edge">
<title>Node17&#45;&gt;Node18</title>
<path fill="none" stroke="midnightblue" d="M829.47,-64.97C817.03,-52.13 800.31,-34.88 790.54,-24.79"/>
<polygon fill="midnightblue" stroke="midnightblue" points="826.74,-67.17 836.21,-71.92 831.76,-62.3 826.74,-67.17"/>
</g>
<!-- Node19 -->
<g id="node19" class="node">
<title>Node19</title>
<g id="a_node19"><a xlink:href="dsc_8c.html" target="_top" xlink:title=" ">
<polygon fill="white" stroke="black" points="658,-6 658,-25 729,-25 729,-6 658,-6"/>
<text text-anchor="middle" x="693.5" y="-13" font-family="Fira Code" font-size="10.00">src/dsc.c</text>
</a>
</g>
</g>
<!-- Node17&#45;&gt;Node19 -->
<g id="edge27" class="edge">
<title>Node17&#45;&gt;Node19</title>
<path fill="none" stroke="midnightblue" d="M815.24,-68.56C784.99,-55.62 739.32,-36.1 713.38,-25"/>
<polygon fill="midnightblue" stroke="midnightblue" points="813.67,-71.69 824.24,-72.41 816.42,-65.26 813.67,-71.69"/>
</g>
<!-- Node17&#45;&gt;Node20 -->
<g id="edge28" class="edge">
<title>Node17&#45;&gt;Node20</title>
<path fill="none" stroke="midnightblue" d="M884.61,-69.93C888.28,-68.91 891.96,-67.92 895.5,-67 964.79,-49.02 983.31,-49.36 1052.5,-31 1059.4,-29.17 1066.8,-27.02 1073.68,-24.95"/>
<polygon fill="midnightblue" stroke="midnightblue" points="883.84,-66.51 875.17,-72.6 885.75,-73.24 883.84,-66.51"/>
</g>
<!-- Node21 -->
<g id="node21" class="node">
<title>Node21</title>
<g id="a_node21"><a xlink:href="scheduler_8c.html" target="_top" xlink:title=" ">
<polygon fill="white" stroke="black" points="836,-6 836,-25 943,-25 943,-6 836,-6"/>
<text text-anchor="middle" x="889.5" y="-13" font-family="Fira Code" font-size="10.00">src/scheduler.c</text>
</a>
</g>
</g>
<!-- Node17&#45;&gt;Node21 -->
<g id="edge29" class="edge">
<title>Node17&#45;&gt;Node21</title>
<path fill="none" stroke="midnightblue" d="M857.45,-63.84C866.05,-51.14 877.26,-34.59 883.89,-24.79"/>
<polygon fill="midnightblue" stroke="midnightblue" points="854.81,-61.51 852.1,-71.75 860.6,-65.43 854.81,-61.51"/>
</g>
<!-- Node22 -->
<g id="node22" class="node">
<title>Node22</title>
<g id="a_node22"><a xlink:href="usart_8c.html" target="_top" xlink:title=" ">
<polygon fill="white" stroke="black" points="961,-6 961,-25 1044,-25 1044,-6 961,-6"/>
<text text-anchor="middle" x="1002.5" y="-13" font-family="Fira Code" font-size="10.00">src/usart.c</text>
</a>
</g>
</g>
<!-- Node17&#45;&gt;Node22 -->
<g id="edge30" class="edge">
<title>Node17&#45;&gt;Node22</title>
<path fill="none" stroke="midnightblue" d="M876.34,-68.73C907.59,-55.79 955.05,-36.14 981.97,-25"/>
<polygon fill="midnightblue" stroke="midnightblue" points="875.32,-65.36 867.42,-72.42 878,-71.83 875.32,-65.36"/>
</g>
<!-- Node23&#45;&gt;Node7 -->
<g id="edge32" class="edge">
<title>Node23&#45;&gt;Node7</title>
<path fill="none" stroke="midnightblue" d="M1709.68,-136.48C1743.81,-125.44 1794.4,-109.08 1830.31,-97.47"/>
<polygon fill="midnightblue" stroke="midnightblue" points="1708.66,-133.13 1700.22,-139.54 1710.81,-139.79 1708.66,-133.13"/>
</g>
<!-- Node24 -->
<g id="node24" class="node">
<title>Node24</title>
<g id="a_node24"><a xlink:href="eeprom_8c.html" target="_top" xlink:title=" ">
<polygon fill="white" stroke="black" points="1701,-73 1701,-92 1790,-92 1790,-73 1701,-73"/>
<text text-anchor="middle" x="1745.5" y="-80" font-family="Fira Code" font-size="10.00">src/eeprom.c</text>
</a>
</g>
</g>
<!-- Node23&#45;&gt;Node24 -->
<g id="edge33" class="edge">
<title>Node23&#45;&gt;Node24</title>
<path fill="none" stroke="midnightblue" d="M1690.24,-132.7C1704.74,-119.8 1724.64,-102.07 1736.18,-91.79"/>
<polygon fill="midnightblue" stroke="midnightblue" points="1688.31,-129.73 1683.17,-139 1692.97,-134.96 1688.31,-129.73"/>
</g>
<!-- Node25 -->
<g id="node25" class="node">
<title>Node25</title>
<g id="a_node25"><a xlink:href="fai_8c.html" target="_top" xlink:title=" ">
<polygon fill="white" stroke="black" points="1557,-6 1557,-25 1628,-25 1628,-6 1557,-6"/>
<text text-anchor="middle" x="1592.5" y="-13" font-family="Fira Code" font-size="10.00">src/fai.c</text>
</a>
</g>
</g>
<!-- Node23&#45;&gt;Node25 -->
<g id="edge34" class="edge">
<title>Node23&#45;&gt;Node25</title>
<path fill="none" stroke="midnightblue" d="M1671.45,-128.97C1669.74,-111.57 1665.25,-85.99 1653.5,-67 1642.07,-48.53 1621.51,-33.62 1607.45,-24.91"/>
<polygon fill="midnightblue" stroke="midnightblue" points="1667.95,-128.99 1672.17,-138.7 1674.93,-128.47 1667.95,-128.99"/>
</g>
<!-- Node26&#45;&gt;Node16 -->
<g id="edge36" class="edge">
<title>Node26&#45;&gt;Node16</title>
<path fill="none" stroke="midnightblue" d="M1125.31,-67.35C1147.97,-54.43 1180.73,-35.75 1199.59,-25"/>
<polygon fill="midnightblue" stroke="midnightblue" points="1123.67,-64.26 1116.72,-72.25 1127.14,-70.34 1123.67,-64.26"/>
</g>
<!-- Node26&#45;&gt;Node20 -->
<g id="edge38" class="edge">
<title>Node26&#45;&gt;Node20</title>
<path fill="none" stroke="midnightblue" d="M1100.5,-61.54C1100.5,-49.2 1100.5,-34 1100.5,-24.79"/>
<polygon fill="midnightblue" stroke="midnightblue" points="1097,-61.49 1100.5,-71.49 1104,-61.49 1097,-61.49"/>
</g>
<!-- Node26&#45;&gt;Node21 -->
<g id="edge39" class="edge">
<title>Node26&#45;&gt;Node21</title>
<path fill="none" stroke="midnightblue" d="M1063.92,-69.66C1061.07,-68.75 1058.24,-67.86 1055.5,-67 1007.21,-51.87 950.81,-34.85 917.74,-24.94"/>
<polygon fill="midnightblue" stroke="midnightblue" points="1062.79,-72.97 1073.38,-72.68 1064.92,-66.3 1062.79,-72.97"/>
</g>
<!-- Node26&#45;&gt;Node25 -->
<g id="edge37" class="edge">
<title>Node26&#45;&gt;Node25</title>
<path fill="none" stroke="midnightblue" d="M1147.24,-72.83C1159.35,-70.75 1172.39,-68.65 1184.5,-67 1342.95,-45.39 1385.5,-61.4 1542.5,-31 1550.49,-29.45 1559.04,-27.2 1566.77,-24.93"/>
<polygon fill="midnightblue" stroke="midnightblue" points="1146.71,-69.37 1137.46,-74.54 1147.92,-76.26 1146.71,-69.37"/>
</g>
<!-- Node27&#45;&gt;Node16 -->
<g id="edge47" class="edge">
<title>Node27&#45;&gt;Node16</title>
<path fill="none" stroke="midnightblue" d="M1065.78,-136.54C1090.51,-128.24 1121.49,-115.52 1145.5,-98 1174.55,-76.8 1199.2,-40.93 1209.43,-24.8"/>
<polygon fill="midnightblue" stroke="midnightblue" points="1064.79,-133.18 1056.34,-139.58 1066.93,-139.84 1064.79,-133.18"/>
</g>
<!-- Node27&#45;&gt;Node18 -->
<g id="edge41" class="edge">
<title>Node27&#45;&gt;Node18</title>
<path fill="none" stroke="midnightblue" d="M974.08,-143.46C915.99,-136.53 824.45,-122.08 800.5,-98 780.57,-77.97 780.56,-41.17 781.68,-24.76"/>
<polygon fill="midnightblue" stroke="midnightblue" points="973.39,-146.91 983.72,-144.58 974.19,-139.95 973.39,-146.91"/>
</g>
<!-- Node28 -->
<g id="node28" class="node">
<title>Node28</title>
<g id="a_node28"><a xlink:href="can_8h.html" target="_top" xlink:title=" ">
<polygon fill="white" stroke="black" points="976,-73 976,-92 1047,-92 1047,-73 976,-73"/>
<text text-anchor="middle" x="1011.5" y="-80" font-family="Fira Code" font-size="10.00">src/can.h</text>
</a>
</g>
</g>
<!-- Node27&#45;&gt;Node28 -->
<g id="edge42" class="edge">
<title>Node27&#45;&gt;Node28</title>
<path fill="none" stroke="midnightblue" d="M1019.89,-128.93C1017.6,-116.52 1014.75,-101.1 1013.03,-91.79"/>
<polygon fill="midnightblue" stroke="midnightblue" points="1016.4,-129.32 1021.66,-138.51 1023.28,-128.04 1016.4,-129.32"/>
</g>
<!-- Node29 -->
<g id="node29" class="node">
<title>Node29</title>
<g id="a_node29"><a xlink:href="fifo_8c.html" target="_top" xlink:title=" ">
<polygon fill="white" stroke="black" points="1456,-6 1456,-25 1533,-25 1533,-6 1456,-6"/>
<text text-anchor="middle" x="1494.5" y="-13" font-family="Fira Code" font-size="10.00">src/fifo.c</text>
</a>
</g>
</g>
<!-- Node27&#45;&gt;Node29 -->
<g id="edge48" class="edge">
<title>Node27&#45;&gt;Node29</title>
<path fill="none" stroke="midnightblue" d="M1072.9,-141.72C1126.04,-133.78 1212.73,-119.01 1285.5,-98 1357.9,-77.09 1440.26,-41.23 1476.16,-24.96"/>
<polygon fill="midnightblue" stroke="midnightblue" points="1072.64,-138.22 1063.26,-143.13 1073.66,-145.14 1072.64,-138.22"/>
</g>
<!-- Node28&#45;&gt;Node16 -->
<g id="edge44" class="edge">
<title>Node28&#45;&gt;Node16</title>
<path fill="none" stroke="midnightblue" d="M1047.77,-69.51C1050.38,-68.66 1052.98,-67.81 1055.5,-67 1101.79,-52.02 1155.8,-34.95 1187.46,-24.99"/>
<polygon fill="midnightblue" stroke="midnightblue" points="1046.93,-66.11 1038.52,-72.55 1049.11,-72.76 1046.93,-66.11"/>
</g>
<!-- Node28&#45;&gt;Node18 -->
<g id="edge43" class="edge">
<title>Node28&#45;&gt;Node18</title>
<path fill="none" stroke="midnightblue" d="M967.54,-70.19C929.94,-60.35 874.46,-45.44 826.5,-31 820.18,-29.1 813.4,-26.93 807.1,-24.86"/>
<polygon fill="midnightblue" stroke="midnightblue" points="966.58,-73.55 977.14,-72.69 968.35,-66.78 966.58,-73.55"/>
</g>
<!-- Node28&#45;&gt;Node20 -->
<g id="edge45" class="edge">
<title>Node28&#45;&gt;Node20</title>
<path fill="none" stroke="midnightblue" d="M1032.09,-66.47C1049.72,-53.59 1074.47,-35.51 1088.86,-25"/>
<polygon fill="midnightblue" stroke="midnightblue" points="1030.37,-63.39 1024.36,-72.11 1034.5,-69.04 1030.37,-63.39"/>
</g>
<!-- Node28&#45;&gt;Node21 -->
<g id="edge46" class="edge">
<title>Node28&#45;&gt;Node21</title>
<path fill="none" stroke="midnightblue" d="M985.6,-67.7C961.33,-54.77 925.82,-35.85 905.45,-25"/>
<polygon fill="midnightblue" stroke="midnightblue" points="983.74,-70.68 994.21,-72.29 987.04,-64.5 983.74,-70.68"/>
</g>
<!-- Node30&#45;&gt;Node16 -->
<g id="edge51" class="edge">
<title>Node30&#45;&gt;Node16</title>
<path fill="none" stroke="midnightblue" d="M1543.89,-72.65C1460.8,-59.4 1311.3,-35.5 1286.5,-31 1275.58,-29.02 1263.77,-26.71 1252.93,-24.53"/>
<polygon fill="midnightblue" stroke="midnightblue" points="1543.23,-76.09 1553.66,-74.21 1544.34,-69.17 1543.23,-76.09"/>
</g>
<!-- Node30&#45;&gt;Node20 -->
<g id="edge54" class="edge">
<title>Node30&#45;&gt;Node20</title>
<path fill="none" stroke="midnightblue" d="M1543.86,-72.27C1531.89,-70.41 1519.28,-68.55 1507.5,-67 1356.84,-47.16 1317.53,-55.11 1167.5,-31 1157.28,-29.36 1146.26,-27.16 1136.18,-24.97"/>
<polygon fill="midnightblue" stroke="midnightblue" points="1543.19,-75.7 1553.62,-73.8 1544.28,-68.79 1543.19,-75.7"/>
</g>
<!-- Node30&#45;&gt;Node25 -->
<g id="edge52" class="edge">
<title>Node30&#45;&gt;Node25</title>
<path fill="none" stroke="midnightblue" d="M1597.39,-61.93C1596.06,-49.52 1594.4,-34.1 1593.39,-24.79"/>
<polygon fill="midnightblue" stroke="midnightblue" points="1593.87,-61.93 1598.42,-71.5 1600.83,-61.18 1593.87,-61.93"/>
</g>
<!-- Node30&#45;&gt;Node29 -->
<g id="edge53" class="edge">
<title>Node30&#45;&gt;Node29</title>
<path fill="none" stroke="midnightblue" d="M1576.08,-67C1555.23,-54.09 1525.45,-35.66 1508.23,-25"/>
<polygon fill="midnightblue" stroke="midnightblue" points="1574.14,-69.92 1584.49,-72.21 1577.83,-63.97 1574.14,-69.92"/>
</g>
<!-- Node31 -->
<g id="node31" class="node">
<title>Node31</title>
<g id="a_node31"><a xlink:href="memory_8c.html" target="_top" xlink:title=" ">
<polygon fill="white" stroke="black" points="1646,-6 1646,-25 1735,-25 1735,-6 1646,-6"/>
<text text-anchor="middle" x="1690.5" y="-13" font-family="Fira Code" font-size="10.00">src/memory.c</text>
</a>
</g>
</g>
<!-- Node30&#45;&gt;Node31 -->
<g id="edge55" class="edge">
<title>Node30&#45;&gt;Node31</title>
<path fill="none" stroke="midnightblue" d="M1620.55,-66.47C1638.57,-53.59 1663.88,-35.51 1678.6,-25"/>
<polygon fill="midnightblue" stroke="midnightblue" points="1618.73,-63.46 1612.63,-72.12 1622.8,-69.16 1618.73,-63.46"/>
</g>
<!-- Node33&#45;&gt;Node16 -->
<g id="edge58" class="edge">
<title>Node33&#45;&gt;Node16</title>
<path fill="none" stroke="midnightblue" d="M1367.84,-130.26C1357.58,-112.27 1339.9,-84.95 1318.5,-67 1294.97,-47.26 1262.42,-33.08 1240.03,-24.86"/>
<polygon fill="midnightblue" stroke="midnightblue" points="1364.75,-131.9 1372.63,-138.98 1370.89,-128.53 1364.75,-131.9"/>
</g>
<!-- Node34 -->
<g id="node34" class="node">
<title>Node34</title>
<g id="a_node34"><a xlink:href="string_8c.html" target="_top" xlink:title=" ">
<polygon fill="white" stroke="black" points="1409,-73 1409,-92 1498,-92 1498,-73 1409,-73"/>
<text text-anchor="middle" x="1453.5" y="-80" font-family="Fira Code" font-size="10.00">src/string.c</text>
</a>
</g>
</g>
<!-- Node33&#45;&gt;Node34 -->
<g id="edge59" class="edge">
<title>Node33&#45;&gt;Node34</title>
<path fill="none" stroke="midnightblue" d="M1395.97,-132.7C1411.06,-119.8 1431.79,-102.07 1443.8,-91.79"/>
<polygon fill="midnightblue" stroke="midnightblue" points="1393.91,-129.86 1388.59,-139.02 1398.46,-135.18 1393.91,-129.86"/>
</g>
<!-- Node35&#45;&gt;Node12 -->
<g id="edge61" class="edge">
<title>Node35&#45;&gt;Node12</title>
<path fill="none" stroke="midnightblue" d="M785.96,-137.02C782.09,-135.97 778.23,-134.95 774.5,-134 720.53,-120.31 658.8,-106.65 613.52,-97"/>
<polygon fill="midnightblue" stroke="midnightblue" points="784.69,-140.3 795.26,-139.6 786.56,-133.55 784.69,-140.3"/>
</g>
<!-- Node35&#45;&gt;Node20 -->
<g id="edge62" class="edge">
<title>Node35&#45;&gt;Node20</title>
<path fill="none" stroke="midnightblue" d="M845.16,-133.07C873.63,-110.82 923.99,-71.83 933.5,-67 933.7,-66.9 1025.11,-39.28 1072.59,-24.93"/>
<polygon fill="midnightblue" stroke="midnightblue" points="843.01,-130.31 837.3,-139.23 847.33,-135.82 843.01,-130.31"/>
</g>
<!-- Node35&#45;&gt;Node21 -->
<g id="edge63" class="edge">
<title>Node35&#45;&gt;Node21</title>
<path fill="none" stroke="midnightblue" d="M812.35,-131.02C801.17,-113.85 788.66,-87.34 800.5,-67 813.02,-45.51 838.46,-32.42 858.95,-24.97"/>
<polygon fill="midnightblue" stroke="midnightblue" points="809.43,-132.96 818.04,-139.13 815.16,-128.94 809.43,-132.96"/>
</g>
<!-- Node36 -->
<g id="node36" class="node">
<title>Node36</title>
<g id="a_node36"><a xlink:href="timer_8c.html" target="_top" xlink:title=" ">
<polygon fill="white" stroke="black" points="632,-73 632,-92 715,-92 715,-73 632,-73"/>
<text text-anchor="middle" x="673.5" y="-80" font-family="Fira Code" font-size="10.00">src/timer.c</text>
</a>
</g>
</g>
<!-- Node35&#45;&gt;Node36 -->
<g id="edge64" class="edge">
<title>Node35&#45;&gt;Node36</title>
<path fill="none" stroke="midnightblue" d="M795.24,-135.56C764.99,-122.62 719.32,-103.1 693.38,-92"/>
<polygon fill="midnightblue" stroke="midnightblue" points="793.67,-138.69 804.24,-139.41 796.42,-132.26 793.67,-138.69"/>
</g>
<!-- Node37&#45;&gt;Node14 -->
<g id="edge66" class="edge">
<title>Node37&#45;&gt;Node14</title>
<path fill="none" stroke="midnightblue" d="M1260.94,-67.86C1282.22,-56.88 1311.99,-41.53 1333.43,-30.47"/>
<polygon fill="midnightblue" stroke="midnightblue" points="1259.6,-64.61 1252.32,-72.31 1262.81,-70.83 1259.6,-64.61"/>
</g>
<!-- Node37&#45;&gt;Node16 -->
<g id="edge67" class="edge">
<title>Node37&#45;&gt;Node16</title>
<path fill="none" stroke="midnightblue" d="M1228.6,-62.32C1224.76,-49.84 1219.95,-34.2 1217.05,-24.79"/>
<polygon fill="midnightblue" stroke="midnightblue" points="1225.15,-63.03 1231.44,-71.56 1231.84,-60.97 1225.15,-63.03"/>
</g>
<!-- Node37&#45;&gt;Node20 -->
<g id="edge68" class="edge">
<title>Node37&#45;&gt;Node20</title>
<path fill="none" stroke="midnightblue" d="M1206.77,-68.05C1180.1,-55.11 1140.6,-35.95 1118.02,-25"/>
<polygon fill="midnightblue" stroke="midnightblue" points="1205.1,-71.13 1215.62,-72.34 1208.15,-64.83 1205.1,-71.13"/>
</g>
<!-- Node37&#45;&gt;Node22 -->
<g id="edge69" class="edge">
<title>Node37&#45;&gt;Node22</title>
<path fill="none" stroke="midnightblue" d="M1192.72,-70.05C1155.8,-59.91 1100.53,-44.63 1052.5,-31 1045.72,-29.08 1038.43,-26.98 1031.57,-24.99"/>
<polygon fill="midnightblue" stroke="midnightblue" points="1191.53,-73.36 1202.1,-72.63 1193.38,-66.61 1191.53,-73.36"/>
</g>
</g>
</svg>
