<?xml version="1.0" encoding="UTF-8" standalone="no"?>
<!DOCTYPE svg PUBLIC "-//W3C//DTD SVG 1.1//EN"
 "http://www.w3.org/Graphics/SVG/1.1/DTD/svg11.dtd">
<!-- Generated by graphviz version 7.0.0 (20221023.0053)
 -->
<!-- Title: WDTCSR_T Pages: 1 -->
<svg width="287pt" height="172pt"
 viewBox="0.00 0.00 287.00 172.00" xmlns="http://www.w3.org/2000/svg" xmlns:xlink="http://www.w3.org/1999/xlink">
<g id="graph0" class="graph" transform="scale(1 1) rotate(0) translate(4 168)">
<title>WDTCSR_T</title>
<polygon fill="white" stroke="none" points="-4,4 -4,-168 283,-168 283,4 -4,4"/>
<!-- Node1 -->
<g id="node1" class="node">
<title>Node1</title>
<g id="a_node1"><a xlink:title=" ">
<polygon fill="#bfbfbf" stroke="black" points="83,-0.5 83,-19.5 148,-19.5 148,-0.5 83,-0.5"/>
<text text-anchor="middle" x="115.5" y="-7.5" font-family="Fira Code" font-size="10.00">WDTCSR_T</text>
</a>
</g>
</g>
<!-- Node2 -->
<g id="node2" class="node">
<title>Node2</title>
<g id="a_node2"><a xlink:title=" ">
<polygon fill="white" stroke="black" points="0,-144.5 0,-163.5 47,-163.5 47,-144.5 0,-144.5"/>
<text text-anchor="middle" x="23.5" y="-151.5" font-family="Fira Code" font-size="10.00">_Bool</text>
</a>
</g>
</g>
<!-- Node2&#45;&gt;Node1 -->
<g id="edge1" class="edge">
<title>Node2&#45;&gt;Node1</title>
<path fill="none" stroke="#9a32cd" stroke-dasharray="5,2" d="M29.9,-133.92C38.64,-109.78 56.07,-67.78 80.5,-38 86.44,-30.76 94.66,-24.29 101.65,-19.5"/>
<polygon fill="#9a32cd" stroke="#9a32cd" points="26.61,-132.73 26.63,-143.32 33.22,-135.03 26.61,-132.73"/>
<text text-anchor="middle" x="96" y="-118" font-family="Fira Code" font-size="10.00"> WDCE</text>
<text text-anchor="middle" x="96" y="-107" font-family="Fira Code" font-size="10.00">WDE</text>
<text text-anchor="middle" x="96" y="-96" font-family="Fira Code" font-size="10.00">WDIE</text>
<text text-anchor="middle" x="96" y="-85" font-family="Fira Code" font-size="10.00">WDIF</text>
<text text-anchor="middle" x="96" y="-74" font-family="Fira Code" font-size="10.00">WDP0</text>
<text text-anchor="middle" x="96" y="-63" font-family="Fira Code" font-size="10.00">WDP1</text>
<text text-anchor="middle" x="96" y="-52" font-family="Fira Code" font-size="10.00">WDP2</text>
<text text-anchor="middle" x="96" y="-41" font-family="Fira Code" font-size="10.00">WDP3</text>
</g>
<!-- Node3 -->
<g id="node3" class="node">
<title>Node3</title>
<g id="a_node3"><a xlink:title=" ">
<polygon fill="white" stroke="black" points="65,-144.5 65,-163.5 166,-163.5 166,-144.5 65,-144.5"/>
<text text-anchor="middle" x="115.5" y="-151.5" font-family="Fira Code" font-size="10.00">anonymous:bits</text>
</a>
</g>
</g>
<!-- Node3&#45;&gt;Node1 -->
<g id="edge2" class="edge">
<title>Node3&#45;&gt;Node1</title>
<path fill="none" stroke="#9a32cd" stroke-dasharray="5,2" d="M115.5,-133.34C115.5,-101.8 115.5,-41.23 115.5,-19.24"/>
<polygon fill="#9a32cd" stroke="#9a32cd" points="112,-133.03 115.5,-143.03 119,-133.03 112,-133.03"/>
<text text-anchor="middle" x="131" y="-79.5" font-family="Fira Code" font-size="10.00"> bits</text>
</g>
<!-- Node4 -->
<g id="node4" class="node">
<title>Node4</title>
<g id="a_node4"><a xlink:title=" ">
<polygon fill="white" stroke="black" points="184,-144.5 184,-163.5 279,-163.5 279,-144.5 184,-144.5"/>
<text text-anchor="middle" x="231.5" y="-151.5" font-family="Fira Code" font-size="10.00">unsigned char</text>
</a>
</g>
</g>
<!-- Node4&#45;&gt;Node1 -->
<g id="edge3" class="edge">
<title>Node4&#45;&gt;Node1</title>
<path fill="none" stroke="#9a32cd" stroke-dasharray="5,2" d="M221.03,-134.77C206.86,-110.97 179.95,-68.76 150.5,-38 143.81,-31.02 135.23,-24.37 128.24,-19.41"/>
<polygon fill="#9a32cd" stroke="#9a32cd" points="217.93,-136.39 226,-143.26 223.97,-132.86 217.93,-136.39"/>
<text text-anchor="middle" x="230" y="-79.5" font-family="Fira Code" font-size="10.00"> byte</text>
</g>
</g>
</svg>
