<?xml version="1.0" encoding="UTF-8" standalone="no"?>
<!DOCTYPE svg PUBLIC "-//W3C//DTD SVG 1.1//EN"
 "http://www.w3.org/Graphics/SVG/1.1/DTD/svg11.dtd">
<!-- Generated by graphviz version 7.0.0 (20221023.0053)
 -->
<!-- Title: TCCR0B_T Pages: 1 -->
<svg width="347pt" height="172pt"
 viewBox="0.00 0.00 347.00 172.00" xmlns="http://www.w3.org/2000/svg" xmlns:xlink="http://www.w3.org/1999/xlink">
<g id="graph0" class="graph" transform="scale(1 1) rotate(0) translate(4 168)">
<title>TCCR0B_T</title>
<polygon fill="white" stroke="none" points="-4,4 -4,-168 343,-168 343,4 -4,4"/>
<!-- Node1 -->
<g id="node1" class="node">
<title>Node1</title>
<g id="a_node1"><a xlink:title=" ">
<polygon fill="#bfbfbf" stroke="black" points="143,-0.5 143,-19.5 208,-19.5 208,-0.5 143,-0.5"/>
<text text-anchor="middle" x="175.5" y="-7.5" font-family="Fira Code" font-size="10.00">TCCR0B_T</text>
</a>
</g>
</g>
<!-- Node2 -->
<g id="node2" class="node">
<title>Node2</title>
<g id="a_node2"><a xlink:title=" ">
<polygon fill="white" stroke="black" points="0,-144.5 0,-163.5 107,-163.5 107,-144.5 0,-144.5"/>
<text text-anchor="middle" x="53.5" y="-151.5" font-family="Fira Code" font-size="10.00">volatile BOOL_T</text>
</a>
</g>
</g>
<!-- Node2&#45;&gt;Node1 -->
<g id="edge1" class="edge">
<title>Node2&#45;&gt;Node1</title>
<path fill="none" stroke="#9a32cd" stroke-dasharray="5,2" d="M59.62,-134.03C68.54,-109.07 87.28,-65.19 116.5,-38 125.32,-29.79 137.08,-23.73 147.77,-19.45"/>
<polygon fill="#9a32cd" stroke="#9a32cd" points="56.42,-132.58 56.52,-143.18 63.05,-134.83 56.42,-132.58"/>
<text text-anchor="middle" x="144" y="-118" font-family="Fira Code" font-size="10.00"> CS00</text>
<text text-anchor="middle" x="144" y="-107" font-family="Fira Code" font-size="10.00">CS01</text>
<text text-anchor="middle" x="144" y="-96" font-family="Fira Code" font-size="10.00">CS02</text>
<text text-anchor="middle" x="144" y="-85" font-family="Fira Code" font-size="10.00">FOC0A</text>
<text text-anchor="middle" x="144" y="-74" font-family="Fira Code" font-size="10.00">FOC0B</text>
<text text-anchor="middle" x="144" y="-63" font-family="Fira Code" font-size="10.00">Reserved4</text>
<text text-anchor="middle" x="144" y="-52" font-family="Fira Code" font-size="10.00">Reserved5</text>
<text text-anchor="middle" x="144" y="-41" font-family="Fira Code" font-size="10.00">WGM02</text>
</g>
<!-- Node3 -->
<g id="node3" class="node">
<title>Node3</title>
<g id="a_node3"><a xlink:title=" ">
<polygon fill="white" stroke="black" points="125,-144.5 125,-163.5 226,-163.5 226,-144.5 125,-144.5"/>
<text text-anchor="middle" x="175.5" y="-151.5" font-family="Fira Code" font-size="10.00">anonymous:bits</text>
</a>
</g>
</g>
<!-- Node3&#45;&gt;Node1 -->
<g id="edge2" class="edge">
<title>Node3&#45;&gt;Node1</title>
<path fill="none" stroke="#9a32cd" stroke-dasharray="5,2" d="M175.5,-133.34C175.5,-101.8 175.5,-41.23 175.5,-19.24"/>
<polygon fill="#9a32cd" stroke="#9a32cd" points="172,-133.03 175.5,-143.03 179,-133.03 172,-133.03"/>
<text text-anchor="middle" x="191" y="-79.5" font-family="Fira Code" font-size="10.00"> bits</text>
</g>
<!-- Node4 -->
<g id="node4" class="node">
<title>Node4</title>
<g id="a_node4"><a xlink:title=" ">
<polygon fill="white" stroke="black" points="244,-144.5 244,-163.5 339,-163.5 339,-144.5 244,-144.5"/>
<text text-anchor="middle" x="291.5" y="-151.5" font-family="Fira Code" font-size="10.00">unsigned char</text>
</a>
</g>
</g>
<!-- Node4&#45;&gt;Node1 -->
<g id="edge3" class="edge">
<title>Node4&#45;&gt;Node1</title>
<path fill="none" stroke="#9a32cd" stroke-dasharray="5,2" d="M281.03,-134.77C266.86,-110.97 239.95,-68.76 210.5,-38 203.81,-31.02 195.23,-24.37 188.24,-19.41"/>
<polygon fill="#9a32cd" stroke="#9a32cd" points="277.93,-136.39 286,-143.26 283.97,-132.86 277.93,-136.39"/>
<text text-anchor="middle" x="290" y="-79.5" font-family="Fira Code" font-size="10.00"> byte</text>
</g>
</g>
</svg>
