<?xml version="1.0" encoding="UTF-8" standalone="no"?>
<!DOCTYPE svg PUBLIC "-//W3C//DTD SVG 1.1//EN"
 "http://www.w3.org/Graphics/SVG/1.1/DTD/svg11.dtd">
<!-- Generated by graphviz version 7.0.0 (20221023.0053)
 -->
<!-- Title: WORD_T Pages: 1 -->
<svg width="463pt" height="353pt"
 viewBox="0.00 0.00 463.00 353.00" xmlns="http://www.w3.org/2000/svg" xmlns:xlink="http://www.w3.org/1999/xlink">
<g id="graph0" class="graph" transform="scale(1 1) rotate(0) translate(4 349)">
<title>WORD_T</title>
<polygon fill="white" stroke="none" points="-4,4 -4,-349 459,-349 459,4 -4,4"/>
<!-- Node1 -->
<g id="node1" class="node">
<title>Node1</title>
<g id="a_node1"><a xlink:title=" ">
<polygon fill="#bfbfbf" stroke="black" points="402,-96.5 402,-115.5 455,-115.5 455,-96.5 402,-96.5"/>
<text text-anchor="middle" x="428.5" y="-103.5" font-family="Fira Code" font-size="10.00">WORD_T</text>
</a>
</g>
</g>
<!-- Node2 -->
<g id="node2" class="node">
<title>Node2</title>
<g id="a_node2"><a xlink:href="union_r_e_g_i_s_t_e_r___t.html" target="_top" xlink:title=" ">
<polygon fill="white" stroke="black" points="201,-220.5 201,-239.5 278,-239.5 278,-220.5 201,-220.5"/>
<text text-anchor="middle" x="239.5" y="-227.5" font-family="Fira Code" font-size="10.00">REGISTER_T</text>
</a>
</g>
</g>
<!-- Node2&#45;&gt;Node1 -->
<g id="edge1" class="edge">
<title>Node2&#45;&gt;Node1</title>
<path fill="none" stroke="#9a32cd" stroke-dasharray="5,2" d="M288.83,-224.16C318.93,-218.43 356.94,-207.14 384,-185 407.03,-166.16 419.83,-131.77 424.91,-115.29"/>
<polygon fill="#9a32cd" stroke="#9a32cd" points="288.46,-220.67 279.21,-225.84 289.66,-227.57 288.46,-220.67"/>
<text text-anchor="middle" x="353.5" y="-250" font-family="Fira Code" font-size="10.00"> byte0</text>
<text text-anchor="middle" x="353.5" y="-239" font-family="Fira Code" font-size="10.00">byte1</text>
<text text-anchor="middle" x="353.5" y="-228" font-family="Fira Code" font-size="10.00">byte2</text>
<text text-anchor="middle" x="353.5" y="-217" font-family="Fira Code" font-size="10.00">byte3</text>
</g>
<!-- Node3 -->
<g id="node3" class="node">
<title>Node3</title>
<g id="a_node3"><a xlink:title=" ">
<polygon fill="white" stroke="black" points="0,-266.5 0,-285.5 107,-285.5 107,-266.5 0,-266.5"/>
<text text-anchor="middle" x="53.5" y="-273.5" font-family="Fira Code" font-size="10.00">volatile BOOL_T</text>
</a>
</g>
</g>
<!-- Node3&#45;&gt;Node2 -->
<g id="edge2" class="edge">
<title>Node3&#45;&gt;Node2</title>
<path fill="none" stroke="#9a32cd" stroke-dasharray="5,2" d="M103.08,-263.85C133.8,-256.17 172.91,-246.4 201.19,-239.33"/>
<polygon fill="#9a32cd" stroke="#9a32cd" points="102.5,-260.39 93.65,-266.21 104.2,-267.18 102.5,-260.39"/>
<text text-anchor="middle" x="140.5" y="-337" font-family="Fira Code" font-size="10.00"> bit0</text>
<text text-anchor="middle" x="140.5" y="-326" font-family="Fira Code" font-size="10.00">bit1</text>
<text text-anchor="middle" x="140.5" y="-315" font-family="Fira Code" font-size="10.00">bit2</text>
<text text-anchor="middle" x="140.5" y="-304" font-family="Fira Code" font-size="10.00">bit3</text>
<text text-anchor="middle" x="140.5" y="-293" font-family="Fira Code" font-size="10.00">bit4</text>
<text text-anchor="middle" x="140.5" y="-282" font-family="Fira Code" font-size="10.00">bit5</text>
<text text-anchor="middle" x="140.5" y="-271" font-family="Fira Code" font-size="10.00">bit6</text>
<text text-anchor="middle" x="140.5" y="-260" font-family="Fira Code" font-size="10.00">bit7</text>
</g>
<!-- Node4 -->
<g id="node4" class="node">
<title>Node4</title>
<g id="a_node4"><a xlink:title=" ">
<polygon fill="white" stroke="black" points="3,-228.5 3,-247.5 104,-247.5 104,-228.5 3,-228.5"/>
<text text-anchor="middle" x="53.5" y="-235.5" font-family="Fira Code" font-size="10.00">anonymous:bits</text>
</a>
</g>
</g>
<!-- Node4&#45;&gt;Node2 -->
<g id="edge3" class="edge">
<title>Node4&#45;&gt;Node2</title>
<path fill="none" stroke="#9a32cd" stroke-dasharray="5,2" d="M115.23,-235.36C143.56,-234.13 176.38,-232.7 201.03,-231.63"/>
<polygon fill="#9a32cd" stroke="#9a32cd" points="115.16,-231.86 105.32,-235.79 115.46,-238.85 115.16,-231.86"/>
<text text-anchor="middle" x="140.5" y="-237" font-family="Fira Code" font-size="10.00"> bits</text>
</g>
<!-- Node5 -->
<g id="node5" class="node">
<title>Node5</title>
<g id="a_node5"><a xlink:title=" ">
<polygon fill="white" stroke="black" points="6,-176.5 6,-195.5 101,-195.5 101,-176.5 6,-176.5"/>
<text text-anchor="middle" x="53.5" y="-183.5" font-family="Fira Code" font-size="10.00">unsigned char</text>
</a>
</g>
</g>
<!-- Node5&#45;&gt;Node1 -->
<g id="edge8" class="edge">
<title>Node5&#45;&gt;Node1</title>
<path fill="none" stroke="#9a32cd" stroke-dasharray="5,2" d="M111.98,-182.61C178.98,-177.25 292.24,-163.82 384,-131 394.66,-127.19 405.71,-120.8 414.01,-115.44"/>
<polygon fill="#9a32cd" stroke="#9a32cd" points="112.04,-179.09 102.34,-183.34 112.58,-186.07 112.04,-179.09"/>
<text text-anchor="middle" x="239.5" y="-179" font-family="Fira Code" font-size="10.00"> data</text>
</g>
<!-- Node5&#45;&gt;Node2 -->
<g id="edge4" class="edge">
<title>Node5&#45;&gt;Node2</title>
<path fill="none" stroke="#9a32cd" stroke-dasharray="5,2" d="M104.82,-198.03C135.3,-205.32 173.53,-214.46 201.29,-221.1"/>
<polygon fill="#9a32cd" stroke="#9a32cd" points="105.98,-194.71 95.44,-195.79 104.36,-201.52 105.98,-194.71"/>
<text text-anchor="middle" x="140.5" y="-212" font-family="Fira Code" font-size="10.00"> byte</text>
</g>
<!-- Node6 -->
<g id="node6" class="node">
<title>Node6</title>
<g id="a_node6"><a xlink:title=" ">
<polygon fill="white" stroke="black" points="186,-115.5 186,-134.5 293,-134.5 293,-115.5 186,-115.5"/>
<text text-anchor="middle" x="239.5" y="-122.5" font-family="Fira Code" font-size="10.00">anonymous:bytes</text>
</a>
</g>
</g>
<!-- Node6&#45;&gt;Node1 -->
<g id="edge5" class="edge">
<title>Node6&#45;&gt;Node1</title>
<path fill="none" stroke="#9a32cd" stroke-dasharray="5,2" d="M303.77,-118.57C337.5,-115.14 377.11,-111.12 402.25,-108.57"/>
<polygon fill="#9a32cd" stroke="#9a32cd" points="303.69,-115.06 294.1,-119.55 304.4,-122.03 303.69,-115.06"/>
<text text-anchor="middle" x="353.5" y="-119" font-family="Fira Code" font-size="10.00"> bytes</text>
</g>
<!-- Node7 -->
<g id="node7" class="node">
<title>Node7</title>
<g id="a_node7"><a xlink:title=" ">
<polygon fill="white" stroke="black" points="189,-76.5 189,-95.5 290,-95.5 290,-76.5 189,-76.5"/>
<text text-anchor="middle" x="239.5" y="-83.5" font-family="Fira Code" font-size="10.00">volatile U16_T</text>
</a>
</g>
</g>
<!-- Node7&#45;&gt;Node1 -->
<g id="edge6" class="edge">
<title>Node7&#45;&gt;Node1</title>
<path fill="none" stroke="#9a32cd" stroke-dasharray="5,2" d="M301.14,-78.59C326.99,-77.12 357.29,-77.63 384,-84 394.37,-86.47 405.07,-91.84 413.26,-96.66"/>
<polygon fill="#9a32cd" stroke="#9a32cd" points="301.22,-75.08 291.49,-79.26 301.7,-82.06 301.22,-75.08"/>
<text text-anchor="middle" x="353.5" y="-98" font-family="Fira Code" font-size="10.00"> high</text>
<text text-anchor="middle" x="353.5" y="-87" font-family="Fira Code" font-size="10.00">low</text>
</g>
<!-- Node8 -->
<g id="node8" class="node">
<title>Node8</title>
<g id="a_node8"><a xlink:title=" ">
<polygon fill="white" stroke="black" points="174,-38.5 174,-57.5 305,-57.5 305,-38.5 174,-38.5"/>
<text text-anchor="middle" x="239.5" y="-45.5" font-family="Fira Code" font-size="10.00">anonymous:halfwords</text>
</a>
</g>
</g>
<!-- Node8&#45;&gt;Node1 -->
<g id="edge7" class="edge">
<title>Node8&#45;&gt;Node1</title>
<path fill="none" stroke="#9a32cd" stroke-dasharray="5,2" d="M316.1,-46.45C338.8,-48.44 363.18,-53.15 384,-63 399.93,-70.54 413.49,-86.38 421.06,-96.59"/>
<polygon fill="#9a32cd" stroke="#9a32cd" points="316.5,-42.97 306.28,-45.77 316.01,-49.95 316.5,-42.97"/>
<text text-anchor="middle" x="353.5" y="-66" font-family="Fira Code" font-size="10.00"> halfwords</text>
</g>
<!-- Node9 -->
<g id="node9" class="node">
<title>Node9</title>
<g id="a_node9"><a xlink:title=" ">
<polygon fill="white" stroke="black" points="192,-0.5 192,-19.5 287,-19.5 287,-0.5 192,-0.5"/>
<text text-anchor="middle" x="239.5" y="-7.5" font-family="Fira Code" font-size="10.00">unsigned long</text>
</a>
</g>
</g>
<!-- Node9&#45;&gt;Node1 -->
<g id="edge9" class="edge">
<title>Node9&#45;&gt;Node1</title>
<path fill="none" stroke="#9a32cd" stroke-dasharray="5,2" d="M298.08,-8.2C326.11,-9.93 359.04,-16.07 384,-33 406.95,-48.57 419.65,-80.64 424.78,-96.58"/>
<polygon fill="#9a32cd" stroke="#9a32cd" points="298.47,-4.72 288.33,-7.79 298.17,-11.71 298.47,-4.72"/>
<text text-anchor="middle" x="353.5" y="-36" font-family="Fira Code" font-size="10.00"> word</text>
</g>
</g>
</svg>
