<?xml version="1.0" encoding="UTF-8" standalone="no"?>
<!DOCTYPE svg PUBLIC "-//W3C//DTD SVG 1.1//EN"
 "http://www.w3.org/Graphics/SVG/1.1/DTD/svg11.dtd">
<!-- Generated by graphviz version 7.0.0 (20221023.0053)
 -->
<!-- Title: HALFWORD_T Pages: 1 -->
<svg width="571pt" height="250pt"
 viewBox="0.00 0.00 571.00 250.00" xmlns="http://www.w3.org/2000/svg" xmlns:xlink="http://www.w3.org/1999/xlink">
<g id="graph0" class="graph" transform="scale(1 1) rotate(0) translate(4 246)">
<title>HALFWORD_T</title>
<polygon fill="white" stroke="none" points="-4,4 -4,-246 567,-246 567,4 -4,4"/>
<!-- Node1 -->
<g id="node1" class="node">
<title>Node1</title>
<g id="a_node1"><a xlink:title=" ">
<polygon fill="#bfbfbf" stroke="black" points="300,-0.5 300,-19.5 377,-19.5 377,-0.5 300,-0.5"/>
<text text-anchor="middle" x="338.5" y="-7.5" font-family="Fira Code" font-size="10.00">HALFWORD_T</text>
</a>
</g>
</g>
<!-- Node2 -->
<g id="node2" class="node">
<title>Node2</title>
<g id="a_node2"><a xlink:href="union_r_e_g_i_s_t_e_r___t.html" target="_top" xlink:title=" ">
<polygon fill="white" stroke="black" points="156,-78.5 156,-97.5 233,-97.5 233,-78.5 156,-78.5"/>
<text text-anchor="middle" x="194.5" y="-85.5" font-family="Fira Code" font-size="10.00">REGISTER_T</text>
</a>
</g>
</g>
<!-- Node2&#45;&gt;Node1 -->
<g id="edge1" class="edge">
<title>Node2&#45;&gt;Node1</title>
<path fill="none" stroke="#9a32cd" stroke-dasharray="5,2" d="M207.31,-69.94C216.12,-59.33 228.7,-46.18 242.5,-38 260.08,-27.59 281.85,-21.04 300.21,-17"/>
<polygon fill="#9a32cd" stroke="#9a32cd" points="204.73,-67.56 201.29,-77.58 210.23,-71.89 204.73,-67.56"/>
<text text-anchor="middle" x="258" y="-52" font-family="Fira Code" font-size="10.00"> high</text>
<text text-anchor="middle" x="258" y="-41" font-family="Fira Code" font-size="10.00">low</text>
</g>
<!-- Node3 -->
<g id="node3" class="node">
<title>Node3</title>
<g id="a_node3"><a xlink:title=" ">
<polygon fill="white" stroke="black" points="0,-222.5 0,-241.5 107,-241.5 107,-222.5 0,-222.5"/>
<text text-anchor="middle" x="53.5" y="-229.5" font-family="Fira Code" font-size="10.00">volatile BOOL_T</text>
</a>
</g>
</g>
<!-- Node3&#45;&gt;Node2 -->
<g id="edge2" class="edge">
<title>Node3&#45;&gt;Node2</title>
<path fill="none" stroke="#9a32cd" stroke-dasharray="5,2" d="M63.72,-213C78.36,-188.5 107.32,-144.46 141.5,-116 150.78,-108.27 162.65,-101.96 172.8,-97.4"/>
<polygon fill="#9a32cd" stroke="#9a32cd" points="60.81,-211.05 58.8,-221.45 66.86,-214.57 60.81,-211.05"/>
<text text-anchor="middle" x="157" y="-196" font-family="Fira Code" font-size="10.00"> bit0</text>
<text text-anchor="middle" x="157" y="-185" font-family="Fira Code" font-size="10.00">bit1</text>
<text text-anchor="middle" x="157" y="-174" font-family="Fira Code" font-size="10.00">bit2</text>
<text text-anchor="middle" x="157" y="-163" font-family="Fira Code" font-size="10.00">bit3</text>
<text text-anchor="middle" x="157" y="-152" font-family="Fira Code" font-size="10.00">bit4</text>
<text text-anchor="middle" x="157" y="-141" font-family="Fira Code" font-size="10.00">bit5</text>
<text text-anchor="middle" x="157" y="-130" font-family="Fira Code" font-size="10.00">bit6</text>
<text text-anchor="middle" x="157" y="-119" font-family="Fira Code" font-size="10.00">bit7</text>
</g>
<!-- Node4 -->
<g id="node4" class="node">
<title>Node4</title>
<g id="a_node4"><a xlink:title=" ">
<polygon fill="white" stroke="black" points="125,-222.5 125,-241.5 226,-241.5 226,-222.5 125,-222.5"/>
<text text-anchor="middle" x="175.5" y="-229.5" font-family="Fira Code" font-size="10.00">anonymous:bits</text>
</a>
</g>
</g>
<!-- Node4&#45;&gt;Node2 -->
<g id="edge3" class="edge">
<title>Node4&#45;&gt;Node2</title>
<path fill="none" stroke="#9a32cd" stroke-dasharray="5,2" d="M175.4,-211.21C175.66,-188.1 177.28,-148.85 184.5,-116 185.92,-109.56 188.53,-102.58 190.73,-97.33"/>
<polygon fill="#9a32cd" stroke="#9a32cd" points="171.9,-210.99 175.37,-221 178.9,-211.01 171.9,-210.99"/>
<text text-anchor="middle" x="200" y="-157.5" font-family="Fira Code" font-size="10.00"> bits</text>
</g>
<!-- Node5 -->
<g id="node5" class="node">
<title>Node5</title>
<g id="a_node5"><a xlink:title=" ">
<polygon fill="white" stroke="black" points="244,-222.5 244,-241.5 339,-241.5 339,-222.5 244,-222.5"/>
<text text-anchor="middle" x="291.5" y="-229.5" font-family="Fira Code" font-size="10.00">unsigned char</text>
</a>
</g>
</g>
<!-- Node5&#45;&gt;Node1 -->
<g id="edge6" class="edge">
<title>Node5&#45;&gt;Node1</title>
<path fill="none" stroke="#9a32cd" stroke-dasharray="5,2" d="M288.97,-211.66C285.81,-182.11 282.37,-124.28 296.5,-78 303.64,-54.63 321.15,-31.37 331.17,-19.36"/>
<polygon fill="#9a32cd" stroke="#9a32cd" points="285.46,-211.78 290.12,-221.29 292.41,-210.95 285.46,-211.78"/>
<text text-anchor="middle" x="312" y="-85.5" font-family="Fira Code" font-size="10.00"> data</text>
</g>
<!-- Node5&#45;&gt;Node2 -->
<g id="edge4" class="edge">
<title>Node5&#45;&gt;Node2</title>
<path fill="none" stroke="#9a32cd" stroke-dasharray="5,2" d="M258.07,-217.18C252.26,-213.58 246.74,-209.22 242.5,-204 216.7,-172.25 234.37,-152.3 215.5,-116 211.99,-109.26 206.74,-102.51 202.37,-97.44"/>
<polygon fill="#9a32cd" stroke="#9a32cd" points="256.15,-220.12 266.61,-221.8 259.48,-213.96 256.15,-220.12"/>
<text text-anchor="middle" x="258" y="-157.5" font-family="Fira Code" font-size="10.00"> byte</text>
</g>
<!-- Node6 -->
<g id="node6" class="node">
<title>Node6</title>
<g id="a_node6"><a xlink:title=" ">
<polygon fill="white" stroke="black" points="337,-78.5 337,-97.5 444,-97.5 444,-78.5 337,-78.5"/>
<text text-anchor="middle" x="390.5" y="-85.5" font-family="Fira Code" font-size="10.00">anonymous:bytes</text>
</a>
</g>
</g>
<!-- Node6&#45;&gt;Node1 -->
<g id="edge5" class="edge">
<title>Node6&#45;&gt;Node1</title>
<path fill="none" stroke="#9a32cd" stroke-dasharray="5,2" d="M378.42,-69.35C367.63,-53.57 352.3,-31.17 344.13,-19.23"/>
<polygon fill="#9a32cd" stroke="#9a32cd" points="375.35,-71.05 383.88,-77.33 381.12,-67.1 375.35,-71.05"/>
<text text-anchor="middle" x="390" y="-46.5" font-family="Fira Code" font-size="10.00"> bytes</text>
</g>
<!-- Node7 -->
<g id="node7" class="node">
<title>Node7</title>
<g id="a_node7"><a xlink:title=" ">
<polygon fill="white" stroke="black" points="462,-78.5 462,-97.5 563,-97.5 563,-78.5 462,-78.5"/>
<text text-anchor="middle" x="512.5" y="-85.5" font-family="Fira Code" font-size="10.00">volatile U16_T</text>
</a>
</g>
</g>
<!-- Node7&#45;&gt;Node1 -->
<g id="edge7" class="edge">
<title>Node7&#45;&gt;Node1</title>
<path fill="none" stroke="#9a32cd" stroke-dasharray="5,2" d="M486.65,-73.4C466.66,-63.11 438.16,-48.93 412.5,-38 396.52,-31.19 378.18,-24.49 363.76,-19.47"/>
<polygon fill="#9a32cd" stroke="#9a32cd" points="484.98,-76.47 495.46,-77.97 488.2,-70.26 484.98,-76.47"/>
<text text-anchor="middle" x="487" y="-46.5" font-family="Fira Code" font-size="10.00"> halfword</text>
</g>
</g>
</svg>
