<?xml version="1.0" encoding="UTF-8" standalone="no"?>
<!DOCTYPE svg PUBLIC "-//W3C//DTD SVG 1.1//EN"
 "http://www.w3.org/Graphics/SVG/1.1/DTD/svg11.dtd">
<!-- Generated by graphviz version 7.0.0 (20221023.0053)
 -->
<!-- Title: EEAR_T Pages: 1 -->
<svg width="347pt" height="172pt"
 viewBox="0.00 0.00 347.00 172.00" xmlns="http://www.w3.org/2000/svg" xmlns:xlink="http://www.w3.org/1999/xlink">
<g id="graph0" class="graph" transform="scale(1 1) rotate(0) translate(4 168)">
<title>EEAR_T</title>
<polygon fill="white" stroke="none" points="-4,4 -4,-168 343,-168 343,4 -4,4"/>
<!-- Node1 -->
<g id="node1" class="node">
<title>Node1</title>
<g id="a_node1"><a xlink:title=" ">
<polygon fill="#bfbfbf" stroke="black" points="149,-0.5 149,-19.5 202,-19.5 202,-0.5 149,-0.5"/>
<text text-anchor="middle" x="175.5" y="-7.5" font-family="Fira Code" font-size="10.00">EEAR_T</text>
</a>
</g>
</g>
<!-- Node2 -->
<g id="node2" class="node">
<title>Node2</title>
<g id="a_node2"><a xlink:title=" ">
<polygon fill="white" stroke="black" points="0,-144.5 0,-163.5 107,-163.5 107,-144.5 0,-144.5"/>
<text text-anchor="middle" x="53.5" y="-151.5" font-family="Fira Code" font-size="10.00">volatile BOOL_T</text>
</a>
</g>
</g>
<!-- Node2&#45;&gt;Node1 -->
<g id="edge1" class="edge">
<title>Node2&#45;&gt;Node1</title>
<path fill="none" stroke="#9a32cd" stroke-dasharray="5,2" d="M63.42,-134.78C77.15,-110.68 103.77,-67.78 134.5,-38 142.09,-30.64 151.95,-24.08 160.09,-19.27"/>
<polygon fill="#9a32cd" stroke="#9a32cd" points="60.45,-132.93 58.64,-143.37 66.56,-136.34 60.45,-132.93"/>
<text text-anchor="middle" x="153" y="-118" font-family="Fira Code" font-size="10.00"> EEAR0</text>
<text text-anchor="middle" x="153" y="-107" font-family="Fira Code" font-size="10.00">EEAR1</text>
<text text-anchor="middle" x="153" y="-96" font-family="Fira Code" font-size="10.00">EEAR2</text>
<text text-anchor="middle" x="153" y="-85" font-family="Fira Code" font-size="10.00">EEAR3</text>
<text text-anchor="middle" x="153" y="-74" font-family="Fira Code" font-size="10.00">EEAR4</text>
<text text-anchor="middle" x="153" y="-63" font-family="Fira Code" font-size="10.00">EEAR5</text>
<text text-anchor="middle" x="153" y="-52" font-family="Fira Code" font-size="10.00">EEAR6</text>
<text text-anchor="middle" x="153" y="-41" font-family="Fira Code" font-size="10.00">EEAR7</text>
</g>
<!-- Node3 -->
<g id="node3" class="node">
<title>Node3</title>
<g id="a_node3"><a xlink:title=" ">
<polygon fill="white" stroke="black" points="125,-144.5 125,-163.5 226,-163.5 226,-144.5 125,-144.5"/>
<text text-anchor="middle" x="175.5" y="-151.5" font-family="Fira Code" font-size="10.00">anonymous:bits</text>
</a>
</g>
</g>
<!-- Node3&#45;&gt;Node1 -->
<g id="edge2" class="edge">
<title>Node3&#45;&gt;Node1</title>
<path fill="none" stroke="#9a32cd" stroke-dasharray="5,2" d="M175.5,-133.34C175.5,-101.8 175.5,-41.23 175.5,-19.24"/>
<polygon fill="#9a32cd" stroke="#9a32cd" points="172,-133.03 175.5,-143.03 179,-133.03 172,-133.03"/>
<text text-anchor="middle" x="191" y="-79.5" font-family="Fira Code" font-size="10.00"> bits</text>
</g>
<!-- Node4 -->
<g id="node4" class="node">
<title>Node4</title>
<g id="a_node4"><a xlink:title=" ">
<polygon fill="white" stroke="black" points="244,-144.5 244,-163.5 339,-163.5 339,-144.5 244,-144.5"/>
<text text-anchor="middle" x="291.5" y="-151.5" font-family="Fira Code" font-size="10.00">volatile U8_T</text>
</a>
</g>
</g>
<!-- Node4&#45;&gt;Node1 -->
<g id="edge3" class="edge">
<title>Node4&#45;&gt;Node1</title>
<path fill="none" stroke="#9a32cd" stroke-dasharray="5,2" d="M281.03,-134.77C266.86,-110.97 239.95,-68.76 210.5,-38 203.81,-31.02 195.23,-24.37 188.24,-19.41"/>
<polygon fill="#9a32cd" stroke="#9a32cd" points="277.93,-136.39 286,-143.26 283.97,-132.86 277.93,-136.39"/>
<text text-anchor="middle" x="290" y="-79.5" font-family="Fira Code" font-size="10.00"> byte</text>
</g>
</g>
</svg>
