<?xml version="1.0" encoding="UTF-8" standalone="no"?>
<!DOCTYPE svg PUBLIC "-//W3C//DTD SVG 1.1//EN"
 "http://www.w3.org/Graphics/SVG/1.1/DTD/svg11.dtd">
<!-- Generated by graphviz version 7.0.0 (20221023.0053)
 -->
<!-- Title: ISR Pages: 1 -->
<svg width="174pt" height="66pt"
 viewBox="0.00 0.00 174.00 66.00" xmlns="http://www.w3.org/2000/svg" xmlns:xlink="http://www.w3.org/1999/xlink">
<g id="graph0" class="graph" transform="scale(1 1) rotate(0) translate(4 62)">
<title>ISR</title>
<polygon fill="white" stroke="none" points="-4,4 -4,-62 170,-62 170,4 -4,4"/>
<!-- Node1 -->
<g id="node1" class="node">
<title>Node1</title>
<g id="a_node1"><a xlink:title=" ">
<polygon fill="#bfbfbf" stroke="black" points="0,-19.5 0,-38.5 35,-38.5 35,-19.5 0,-19.5"/>
<text text-anchor="middle" x="17.5" y="-26.5" font-family="Fira Code" font-size="10.00">ISR</text>
</a>
</g>
</g>
<!-- Node2 -->
<g id="node2" class="node">
<title>Node2</title>
<g id="a_node2"><a xlink:href="atm328p__dsc_8c.html#a0d5ff294859a8c6f0e9c1b97945a075f" target="_top" xlink:title=" ">
<polygon fill="white" stroke="black" points="77,-38.5 77,-57.5 160,-57.5 160,-38.5 77,-38.5"/>
<text text-anchor="middle" x="118.5" y="-45.5" font-family="Fira Code" font-size="10.00">dsc_led_set</text>
</a>
</g>
</g>
<!-- Node1&#45;&gt;Node2 -->
<g id="edge1" class="edge">
<title>Node1&#45;&gt;Node2</title>
<path fill="none" stroke="midnightblue" d="M34.85,-32.14C43.5,-33.8 54.65,-35.94 65.94,-38.1"/>
<polygon fill="midnightblue" stroke="midnightblue" points="65.23,-41.53 75.71,-39.98 66.55,-34.66 65.23,-41.53"/>
</g>
<!-- Node3 -->
<g id="node3" class="node">
<title>Node3</title>
<g id="a_node3"><a xlink:href="atm328p__usart_8c.html#a4388cc555c013b5c449902add5f508ad" target="_top" xlink:title=" ">
<polygon fill="white" stroke="black" points="71,-0.5 71,-19.5 166,-19.5 166,-0.5 71,-0.5"/>
<text text-anchor="middle" x="118.5" y="-7.5" font-family="Fira Code" font-size="10.00">usart_rx_byte</text>
</a>
</g>
</g>
<!-- Node1&#45;&gt;Node3 -->
<g id="edge2" class="edge">
<title>Node1&#45;&gt;Node3</title>
<path fill="none" stroke="midnightblue" d="M34.85,-25.86C41.95,-24.5 50.75,-22.81 59.92,-21.05"/>
<polygon fill="midnightblue" stroke="midnightblue" points="60.56,-24.49 69.72,-19.17 59.24,-17.62 60.56,-24.49"/>
</g>
</g>
</svg>
