<?xml version="1.0" encoding="UTF-8" standalone="no"?>
<!DOCTYPE svg PUBLIC "-//W3C//DTD SVG 1.1//EN"
 "http://www.w3.org/Graphics/SVG/1.1/DTD/svg11.dtd">
<!-- Generated by graphviz version 7.0.0 (20221023.0053)
 -->
<!-- Title: src/usart.c Pages: 1 -->
<svg width="239pt" height="140pt"
 viewBox="0.00 0.00 239.00 140.00" xmlns="http://www.w3.org/2000/svg" xmlns:xlink="http://www.w3.org/1999/xlink">
<g id="graph0" class="graph" transform="scale(1 1) rotate(0) translate(4 136)">
<title>src/usart.c</title>
<polygon fill="white" stroke="none" points="-4,4 -4,-136 235,-136 235,4 -4,4"/>
<!-- Node1 -->
<g id="node1" class="node">
<title>Node1</title>
<g id="a_node1"><a xlink:title=" ">
<polygon fill="#bfbfbf" stroke="black" points="80,-112.5 80,-131.5 163,-131.5 163,-112.5 80,-112.5"/>
<text text-anchor="middle" x="121.5" y="-119.5" font-family="Fira Code" font-size="10.00">src/usart.c</text>
</a>
</g>
</g>
<!-- Node2 -->
<g id="node2" class="node">
<title>Node2</title>
<g id="a_node2"><a xlink:href="usart_8h.html" target="_top" xlink:title=" ">
<polygon fill="white" stroke="black" points="0,-56.5 0,-75.5 59,-75.5 59,-56.5 0,-56.5"/>
<text text-anchor="middle" x="29.5" y="-63.5" font-family="Fira Code" font-size="10.00">usart.h</text>
</a>
</g>
</g>
<!-- Node1&#45;&gt;Node2 -->
<g id="edge1" class="edge">
<title>Node1&#45;&gt;Node2</title>
<path fill="none" stroke="midnightblue" d="M107.12,-112.56C92.81,-104.16 70.58,-91.11 53.57,-81.13"/>
<polygon fill="midnightblue" stroke="midnightblue" points="55.48,-78.19 45.08,-76.14 51.93,-84.22 55.48,-78.19"/>
</g>
<!-- Node4 -->
<g id="node4" class="node">
<title>Node4</title>
<g id="a_node4"><a xlink:href="interrupts_8h.html" target="_top" xlink:title=" ">
<polygon fill="white" stroke="black" points="77,-56.5 77,-75.5 166,-75.5 166,-56.5 77,-56.5"/>
<text text-anchor="middle" x="121.5" y="-63.5" font-family="Fira Code" font-size="10.00">interrupts.h</text>
</a>
</g>
</g>
<!-- Node1&#45;&gt;Node4 -->
<g id="edge3" class="edge">
<title>Node1&#45;&gt;Node4</title>
<path fill="none" stroke="midnightblue" d="M121.5,-112.56C121.5,-105.63 121.5,-95.52 121.5,-86.59"/>
<polygon fill="midnightblue" stroke="midnightblue" points="125,-86.71 121.5,-76.71 118,-86.72 125,-86.71"/>
</g>
<!-- Node5 -->
<g id="node5" class="node">
<title>Node5</title>
<g id="a_node5"><a xlink:href="dsc_8h.html" target="_top" xlink:title=" ">
<polygon fill="white" stroke="black" points="184,-56.5 184,-75.5 231,-75.5 231,-56.5 184,-56.5"/>
<text text-anchor="middle" x="207.5" y="-63.5" font-family="Fira Code" font-size="10.00">dsc.h</text>
</a>
</g>
</g>
<!-- Node1&#45;&gt;Node5 -->
<g id="edge4" class="edge">
<title>Node1&#45;&gt;Node5</title>
<path fill="none" stroke="midnightblue" d="M134.94,-112.56C148.19,-104.24 168.71,-91.36 184.55,-81.41"/>
<polygon fill="midnightblue" stroke="midnightblue" points="186.27,-84.46 192.88,-76.18 182.54,-78.54 186.27,-84.46"/>
</g>
<!-- Node3 -->
<g id="node3" class="node">
<title>Node3</title>
<g id="a_node3"><a xlink:href="types_8h.html" target="_top" xlink:title=" ">
<polygon fill="white" stroke="black" points="89,-0.5 89,-19.5 148,-19.5 148,-0.5 89,-0.5"/>
<text text-anchor="middle" x="118.5" y="-7.5" font-family="Fira Code" font-size="10.00">types.h</text>
</a>
</g>
</g>
<!-- Node2&#45;&gt;Node3 -->
<g id="edge2" class="edge">
<title>Node2&#45;&gt;Node3</title>
<path fill="none" stroke="midnightblue" d="M43.41,-56.56C57.25,-48.16 78.76,-35.11 95.21,-25.13"/>
<polygon fill="midnightblue" stroke="midnightblue" points="96.66,-28.34 103.4,-20.16 93.03,-22.36 96.66,-28.34"/>
</g>
<!-- Node5&#45;&gt;Node3 -->
<g id="edge5" class="edge">
<title>Node5&#45;&gt;Node3</title>
<path fill="none" stroke="midnightblue" d="M193.59,-56.56C179.75,-48.16 158.24,-35.11 141.79,-25.13"/>
<polygon fill="midnightblue" stroke="midnightblue" points="143.97,-22.36 133.6,-20.16 140.34,-28.34 143.97,-22.36"/>
</g>
</g>
</svg>
