<?xml version="1.0" encoding="UTF-8" standalone="no"?>
<!DOCTYPE svg PUBLIC "-//W3C//DTD SVG 1.1//EN"
 "http://www.w3.org/Graphics/SVG/1.1/DTD/svg11.dtd">
<!-- Generated by graphviz version 7.0.0 (20221023.0053)
 -->
<!-- Title: src/usart.h Pages: 1 -->
<svg width="430pt" height="95pt"
 viewBox="0.00 0.00 430.00 95.00" xmlns="http://www.w3.org/2000/svg" xmlns:xlink="http://www.w3.org/1999/xlink">
<g id="graph0" class="graph" transform="scale(1 1) rotate(0) translate(4 91)">
<title>src/usart.h</title>
<polygon fill="white" stroke="none" points="-4,4 -4,-91 426,-91 426,4 -4,4"/>
<!-- Node1 -->
<g id="node1" class="node">
<title>Node1</title>
<g id="a_node1"><a xlink:title=" ">
<polygon fill="#bfbfbf" stroke="black" points="193,-67.5 193,-86.5 276,-86.5 276,-67.5 193,-67.5"/>
<text text-anchor="middle" x="234.5" y="-74.5" font-family="Fira Code" font-size="10.00">src/usart.h</text>
</a>
</g>
</g>
<!-- Node2 -->
<g id="node2" class="node">
<title>Node2</title>
<g id="a_node2"><a xlink:href="atm328p__usart_8c.html" target="_top" xlink:title=" ">
<polygon fill="white" stroke="black" points="0,-0.5 0,-30.5 131,-30.5 131,-0.5 0,-0.5"/>
<text text-anchor="start" x="8" y="-18.5" font-family="Fira Code" font-size="10.00">src/atm328p/atm328p</text>
<text text-anchor="middle" x="65.5" y="-7.5" font-family="Fira Code" font-size="10.00">_usart.c</text>
</a>
</g>
</g>
<!-- Node1&#45;&gt;Node2 -->
<g id="edge1" class="edge">
<title>Node1&#45;&gt;Node2</title>
<path fill="none" stroke="midnightblue" d="M199.96,-63.84C172.46,-54.16 133.94,-40.6 105.18,-30.47"/>
<polygon fill="midnightblue" stroke="midnightblue" points="198.62,-67.08 209.22,-67.1 200.95,-60.48 198.62,-67.08"/>
</g>
<!-- Node3 -->
<g id="node3" class="node">
<title>Node3</title>
<g id="a_node3"><a xlink:href="demo_8c.html" target="_top" xlink:title=" ">
<polygon fill="white" stroke="black" points="149,-6 149,-25 226,-25 226,-6 149,-6"/>
<text text-anchor="middle" x="187.5" y="-13" font-family="Fira Code" font-size="10.00">src/demo.c</text>
</a>
</g>
</g>
<!-- Node1&#45;&gt;Node3 -->
<g id="edge2" class="edge">
<title>Node1&#45;&gt;Node3</title>
<path fill="none" stroke="midnightblue" d="M220.94,-58.83C212.07,-47.61 200.9,-33.47 193.98,-24.7"/>
<polygon fill="midnightblue" stroke="midnightblue" points="218.08,-60.86 227.03,-66.54 223.57,-56.52 218.08,-60.86"/>
</g>
<!-- Node4 -->
<g id="node4" class="node">
<title>Node4</title>
<g id="a_node4"><a xlink:href="main_8c.html" target="_top" xlink:title=" ">
<polygon fill="white" stroke="black" points="244,-6 244,-25 321,-25 321,-6 244,-6"/>
<text text-anchor="middle" x="282.5" y="-13" font-family="Fira Code" font-size="10.00">src/main.c</text>
</a>
</g>
</g>
<!-- Node1&#45;&gt;Node4 -->
<g id="edge3" class="edge">
<title>Node1&#45;&gt;Node4</title>
<path fill="none" stroke="midnightblue" d="M248.35,-58.83C257.4,-47.61 268.81,-33.47 275.88,-24.7"/>
<polygon fill="midnightblue" stroke="midnightblue" points="245.68,-56.57 242.12,-66.55 251.13,-60.96 245.68,-56.57"/>
</g>
<!-- Node5 -->
<g id="node5" class="node">
<title>Node5</title>
<g id="a_node5"><a xlink:href="usart_8c.html" target="_top" xlink:title=" ">
<polygon fill="white" stroke="black" points="339,-6 339,-25 422,-25 422,-6 339,-6"/>
<text text-anchor="middle" x="380.5" y="-13" font-family="Fira Code" font-size="10.00">src/usart.c</text>
</a>
</g>
</g>
<!-- Node1&#45;&gt;Node5 -->
<g id="edge4" class="edge">
<title>Node1&#45;&gt;Node5</title>
<path fill="none" stroke="midnightblue" d="M265.71,-63.28C294.19,-51.67 335.48,-34.85 360,-24.86"/>
<polygon fill="midnightblue" stroke="midnightblue" points="264.45,-60.01 256.51,-67.03 267.09,-66.5 264.45,-60.01"/>
</g>
</g>
</svg>
