<?xml version="1.0" encoding="UTF-8" standalone="no"?>
<!DOCTYPE svg PUBLIC "-//W3C//DTD SVG 1.1//EN"
 "http://www.w3.org/Graphics/SVG/1.1/DTD/svg11.dtd">
<!-- Generated by graphviz version 7.0.0 (20221023.0053)
 -->
<!-- Title: src/watchdog.c Pages: 1 -->
<svg width="640pt" height="140pt"
 viewBox="0.00 0.00 640.00 140.00" xmlns="http://www.w3.org/2000/svg" xmlns:xlink="http://www.w3.org/1999/xlink">
<g id="graph0" class="graph" transform="scale(1 1) rotate(0) translate(4 136)">
<title>src/watchdog.c</title>
<polygon fill="white" stroke="none" points="-4,4 -4,-136 636,-136 636,4 -4,4"/>
<!-- Node1 -->
<g id="node1" class="node">
<title>Node1</title>
<g id="a_node1"><a xlink:title=" ">
<polygon fill="#bfbfbf" stroke="black" points="219,-112.5 219,-131.5 320,-131.5 320,-112.5 219,-112.5"/>
<text text-anchor="middle" x="269.5" y="-119.5" font-family="Fira Code" font-size="10.00">src/watchdog.c</text>
</a>
</g>
</g>
<!-- Node2 -->
<g id="node2" class="node">
<title>Node2</title>
<g id="a_node2"><a xlink:href="watchdog_8h.html" target="_top" xlink:title=" ">
<polygon fill="white" stroke="black" points="0,-56.5 0,-75.5 77,-75.5 77,-56.5 0,-56.5"/>
<text text-anchor="middle" x="38.5" y="-63.5" font-family="Fira Code" font-size="10.00">watchdog.h</text>
</a>
</g>
</g>
<!-- Node1&#45;&gt;Node2 -->
<g id="edge1" class="edge">
<title>Node1&#45;&gt;Node2</title>
<path fill="none" stroke="midnightblue" d="M233.15,-112.5C193.38,-103.21 129.48,-88.27 85.82,-78.06"/>
<polygon fill="midnightblue" stroke="midnightblue" points="86.64,-74.66 76.11,-75.79 85.05,-81.48 86.64,-74.66"/>
</g>
<!-- Node3 -->
<g id="node3" class="node">
<title>Node3</title>
<g id="a_node3"><a xlink:href="atm328p__watchdog_8h.html" target="_top" xlink:title=" ">
<polygon fill="white" stroke="black" points="95,-56.5 95,-75.5 268,-75.5 268,-56.5 95,-56.5"/>
<text text-anchor="middle" x="181.5" y="-63.5" font-family="Fira Code" font-size="10.00">atm328p/atm328p_watchdog.h</text>
</a>
</g>
</g>
<!-- Node1&#45;&gt;Node3 -->
<g id="edge2" class="edge">
<title>Node1&#45;&gt;Node3</title>
<path fill="none" stroke="midnightblue" d="M255.75,-112.56C242.06,-104.16 220.8,-91.11 204.53,-81.13"/>
<polygon fill="midnightblue" stroke="midnightblue" points="206.8,-78.42 196.44,-76.17 203.14,-84.38 206.8,-78.42"/>
</g>
<!-- Node5 -->
<g id="node5" class="node">
<title>Node5</title>
<g id="a_node5"><a xlink:href="atm328p__mcu_8h.html" target="_top" xlink:title=" ">
<polygon fill="white" stroke="black" points="286,-56.5 286,-75.5 429,-75.5 429,-56.5 286,-56.5"/>
<text text-anchor="middle" x="357.5" y="-63.5" font-family="Fira Code" font-size="10.00">atm328p/atm328p_mcu.h</text>
</a>
</g>
</g>
<!-- Node1&#45;&gt;Node5 -->
<g id="edge4" class="edge">
<title>Node1&#45;&gt;Node5</title>
<path fill="none" stroke="midnightblue" d="M283.25,-112.56C296.94,-104.16 318.2,-91.11 334.47,-81.13"/>
<polygon fill="midnightblue" stroke="midnightblue" points="335.86,-84.38 342.56,-76.17 332.2,-78.42 335.86,-84.38"/>
</g>
<!-- Node6 -->
<g id="node6" class="node">
<title>Node6</title>
<g id="a_node6"><a xlink:href="atm328p__interrupts_8h.html" target="_top" xlink:title=" ">
<polygon fill="white" stroke="black" points="447,-56.5 447,-75.5 632,-75.5 632,-56.5 447,-56.5"/>
<text text-anchor="middle" x="539.5" y="-63.5" font-family="Fira Code" font-size="10.00">atm328p/atm328p_interrupts.h</text>
</a>
</g>
</g>
<!-- Node1&#45;&gt;Node6 -->
<g id="edge6" class="edge">
<title>Node1&#45;&gt;Node6</title>
<path fill="none" stroke="midnightblue" d="M311.98,-112.5C359.06,-103.09 435.07,-87.89 486.13,-77.67"/>
<polygon fill="midnightblue" stroke="midnightblue" points="486.66,-81.14 495.78,-75.74 485.29,-74.27 486.66,-81.14"/>
</g>
<!-- Node4 -->
<g id="node4" class="node">
<title>Node4</title>
<g id="a_node4"><a xlink:href="types_8h.html" target="_top" xlink:title=" ">
<polygon fill="white" stroke="black" points="240,-0.5 240,-19.5 299,-19.5 299,-0.5 240,-0.5"/>
<text text-anchor="middle" x="269.5" y="-7.5" font-family="Fira Code" font-size="10.00">types.h</text>
</a>
</g>
</g>
<!-- Node3&#45;&gt;Node4 -->
<g id="edge3" class="edge">
<title>Node3&#45;&gt;Node4</title>
<path fill="none" stroke="midnightblue" d="M195.25,-56.56C208.94,-48.16 230.2,-35.11 246.47,-25.13"/>
<polygon fill="midnightblue" stroke="midnightblue" points="247.86,-28.38 254.56,-20.17 244.2,-22.42 247.86,-28.38"/>
</g>
<!-- Node5&#45;&gt;Node4 -->
<g id="edge5" class="edge">
<title>Node5&#45;&gt;Node4</title>
<path fill="none" stroke="midnightblue" d="M343.75,-56.56C330.06,-48.16 308.8,-35.11 292.53,-25.13"/>
<polygon fill="midnightblue" stroke="midnightblue" points="294.8,-22.42 284.44,-20.17 291.14,-28.38 294.8,-22.42"/>
</g>
</g>
</svg>
