<?xml version="1.0" encoding="UTF-8" standalone="no"?>
<!DOCTYPE svg PUBLIC "-//W3C//DTD SVG 1.1//EN"
 "http://www.w3.org/Graphics/SVG/1.1/DTD/svg11.dtd">
<!-- Generated by graphviz version 7.0.0 (20221023.0053)
 -->
<!-- Title: src/watchdog.h Pages: 1 -->
<svg width="329pt" height="84pt"
 viewBox="0.00 0.00 329.00 84.00" xmlns="http://www.w3.org/2000/svg" xmlns:xlink="http://www.w3.org/1999/xlink">
<g id="graph0" class="graph" transform="scale(1 1) rotate(0) translate(4 80)">
<title>src/watchdog.h</title>
<polygon fill="white" stroke="none" points="-4,4 -4,-80 325,-80 325,4 -4,4"/>
<!-- Node1 -->
<g id="node1" class="node">
<title>Node1</title>
<g id="a_node1"><a xlink:title=" ">
<polygon fill="#bfbfbf" stroke="black" points="98,-56.5 98,-75.5 199,-75.5 199,-56.5 98,-56.5"/>
<text text-anchor="middle" x="148.5" y="-63.5" font-family="Fira Code" font-size="10.00">src/watchdog.h</text>
</a>
</g>
</g>
<!-- Node2 -->
<g id="node2" class="node">
<title>Node2</title>
<g id="a_node2"><a xlink:href="main_8c.html" target="_top" xlink:title=" ">
<polygon fill="white" stroke="black" points="0,-0.5 0,-19.5 77,-19.5 77,-0.5 0,-0.5"/>
<text text-anchor="middle" x="38.5" y="-7.5" font-family="Fira Code" font-size="10.00">src/main.c</text>
</a>
</g>
</g>
<!-- Node1&#45;&gt;Node2 -->
<g id="edge1" class="edge">
<title>Node1&#45;&gt;Node2</title>
<path fill="none" stroke="midnightblue" d="M121,-51.5C100.47,-41.42 73.04,-27.96 55.57,-19.38"/>
<polygon fill="midnightblue" stroke="midnightblue" points="119.43,-54.63 129.95,-55.9 122.52,-48.35 119.43,-54.63"/>
</g>
<!-- Node3 -->
<g id="node3" class="node">
<title>Node3</title>
<g id="a_node3"><a xlink:href="scheduler_8c.html" target="_top" xlink:title=" ">
<polygon fill="white" stroke="black" points="95,-0.5 95,-19.5 202,-19.5 202,-0.5 95,-0.5"/>
<text text-anchor="middle" x="148.5" y="-7.5" font-family="Fira Code" font-size="10.00">src/scheduler.c</text>
</a>
</g>
</g>
<!-- Node1&#45;&gt;Node3 -->
<g id="edge2" class="edge">
<title>Node1&#45;&gt;Node3</title>
<path fill="none" stroke="midnightblue" d="M148.5,-45.1C148.5,-36.14 148.5,-26.06 148.5,-19.2"/>
<polygon fill="midnightblue" stroke="midnightblue" points="145,-45.05 148.5,-55.05 152,-45.05 145,-45.05"/>
</g>
<!-- Node4 -->
<g id="node4" class="node">
<title>Node4</title>
<g id="a_node4"><a xlink:href="watchdog_8c.html" target="_top" xlink:title=" ">
<polygon fill="white" stroke="black" points="220,-0.5 220,-19.5 321,-19.5 321,-0.5 220,-0.5"/>
<text text-anchor="middle" x="270.5" y="-7.5" font-family="Fira Code" font-size="10.00">src/watchdog.c</text>
</a>
</g>
</g>
<!-- Node1&#45;&gt;Node4 -->
<g id="edge3" class="edge">
<title>Node1&#45;&gt;Node4</title>
<path fill="none" stroke="midnightblue" d="M178.05,-51.92C200.93,-41.79 231.93,-28.07 251.57,-19.38"/>
<polygon fill="midnightblue" stroke="midnightblue" points="176.67,-48.7 168.95,-55.95 179.51,-55.1 176.67,-48.7"/>
</g>
</g>
</svg>
